M48
; DRILL file {KiCad 5.1.10} date Fri Dec  3 14:56:17 2021
; FORMAT={2:4/ absolute / inch / keep zeros}
; #@! TF.CreationDate,2021-12-03T14:56:17-05:00
; #@! TF.GenerationSoftware,Kicad,Pcbnew,5.1.10
FMAT,2
INCH
T1C0.0160
T2C0.0350
T3C0.0400
T4C0.0551
T5C0.0610
T6C0.0669
T7C0.0787
T8C0.0900
T9C0.1160
T10C0.1300
%
G90
G05
T1
X029547Y-026250
X029915Y-021832
X031733Y-024161
X031921Y-038196
X032269Y-040158
X032550Y-040850
X032601Y-038992
X032690Y-039934
X033040Y-039404
X035054Y-034562
X035310Y-038322
X036025Y-040356
X036333Y-040518
X037147Y-036582
X037988Y-027980
X038925Y-028921
X039306Y-039965
X039336Y-027938
X039431Y-041407
X039780Y-032887
X040307Y-039827
X040401Y-029668
X040971Y-037591
X041177Y-027980
X041250Y-041085
X041332Y-038809
X041388Y-033239
X041486Y-037590
X042042Y-042406
X042130Y-030182
X042135Y-036972
X042225Y-029124
X042580Y-029500
X043008Y-041130
X043033Y-033029
X043474Y-032463
X043819Y-040752
X043823Y-041088
X044665Y-033360
X045331Y-033147
X045544Y-031446
X045647Y-041562
X046768Y-031050
X047098Y-030940
X047734Y-027742
X047954Y-029663
X048422Y-027963
X049023Y-027797
X049039Y-030040
X049492Y-029500
X049724Y-028054
X051168Y-030845
X051568Y-041523
X058948Y-042041
X059457Y-042032
X059660Y-040700
X059785Y-038955
X059939Y-042033
X060388Y-042041
X060645Y-040037
X060989Y-038500
X061140Y-033137
X061923Y-033722
X063998Y-028007
X064636Y-031784
X065864Y-033014
X067295Y-033567
X068050Y-023100
X068420Y-030305
X068850Y-023200
X069150Y-024500
X069700Y-024500
X070500Y-026303
X072123Y-029228
X072201Y-026762
X073710Y-026854
X074666Y-041084
X074732Y-042042
X075787Y-042043
X075856Y-030072
X075944Y-030664
X076335Y-038959
X076410Y-042036
X076461Y-030000
X076654Y-030920
X076684Y-030467
X077054Y-030820
X077350Y-030485
X077837Y-030017
X077872Y-028777
X077972Y-030490
X077991Y-031000
X078097Y-029780
X078310Y-030358
X078457Y-033174
X078686Y-029631
X080462Y-027531
X080834Y-027746
X081024Y-028350
X082080Y-029236
X083041Y-030311
X083074Y-033045
X085305Y-025814
X086700Y-027379
X086700Y-029106
X087135Y-026864
X087948Y-035086
X088339Y-029303
X089072Y-035617
T2
X041000Y-026000
X042000Y-025000
X042000Y-026000
X043000Y-026000
X047500Y-035500
X048000Y-026000
X049000Y-025000
X049000Y-026000
X050000Y-026000
X064000Y-035500
X074000Y-026000
X075000Y-025000
X075000Y-026000
X076000Y-026000
X080500Y-035500
T3
X043500Y-035500
X043500Y-036500
X044500Y-035500
X044500Y-036500
X045500Y-035500
X045500Y-036500
X046500Y-035500
X046500Y-036500
X047500Y-036500
X060000Y-035500
X060000Y-036500
X061000Y-035500
X061000Y-036500
X062000Y-035500
X062000Y-036500
X063000Y-035500
X063000Y-036500
X064000Y-036500
X076500Y-035500
X076500Y-036500
X077500Y-035500
X077500Y-036500
X078500Y-035500
X078500Y-036500
X079500Y-035500
X079500Y-036500
X080500Y-036500
T4
X061500Y-024000
X063500Y-024000
X080000Y-023000
X082000Y-023000
X084000Y-023000
X086000Y-023000
T5
X030500Y-021250
X030500Y-022250
X030500Y-023250
X030500Y-024250
X030500Y-025250
X030500Y-026250
X030500Y-027250
X030500Y-028250
X030500Y-029250
X030500Y-030250
X030500Y-031250
X030500Y-032250
X030500Y-033250
X030500Y-034250
X036500Y-021250
X036500Y-022250
X036500Y-023250
X036500Y-024250
X036500Y-025250
X036500Y-026250
X036500Y-027250
X036500Y-028250
X036500Y-029250
X036500Y-030250
X036500Y-031250
X036500Y-032250
X036500Y-033250
X036500Y-034250
T6
X068500Y-022378
X068500Y-025134
T7
X056500Y-021181
T8
X040000Y-022500
X044000Y-022500
X047000Y-022500
X051000Y-022500
X073000Y-022500
X077000Y-022500
T9
X039975Y-035900
X051025Y-035900
X056475Y-035900
X067525Y-035900
X072975Y-035900
X084025Y-035900
T10
X028500Y-021500
X028500Y-041500
X088500Y-021500
X088500Y-041500
T0
M30
