M48
; DRILL file {KiCad 5.1.10} date Fri Nov 12 09:27:21 2021
; FORMAT={2:4/ absolute / inch / keep zeros}
; #@! TF.CreationDate,2021-11-12T09:27:21-05:00
; #@! TF.GenerationSoftware,Kicad,Pcbnew,5.1.10
FMAT,2
INCH
T1C0.0160
T2C0.0350
T3C0.0400
T4C0.0551
T5C0.0610
T6C0.0669
T7C0.1160
T8C0.1300
%
G90
G05
T1
X028216Y-024655
X028922Y-024816
X036338Y-035239
X037871Y-032649
X037871Y-033471
X038069Y-031055
X038657Y-031598
X039155Y-031613
X040222Y-028477
X043134Y-033388
X043459Y-033141
X043685Y-032098
X044657Y-033301
X045016Y-033301
X046623Y-035540
X046994Y-036778
X049298Y-034304
X052479Y-029953
X053417Y-028877
X055380Y-027466
X055458Y-033768
X058905Y-036421
X058967Y-036131
X059071Y-037460
X059859Y-037800
X060217Y-037802
X060598Y-037797
X061393Y-035292
X061801Y-036022
X061804Y-036570
X065202Y-029988
X065441Y-028867
X067520Y-028322
X067583Y-030750
X070771Y-032688
X078029Y-029996
X078395Y-030250
X081544Y-028122
T2
X056000Y-022500
X069000Y-022500
X082000Y-022500
T3
X052000Y-022500
X052000Y-023500
X053000Y-022500
X053000Y-023500
X054000Y-022500
X054000Y-023500
X055000Y-022500
X055000Y-023500
X056000Y-023500
X065000Y-022500
X065000Y-023500
X066000Y-022500
X066000Y-023500
X067000Y-022500
X067000Y-023500
X068000Y-022500
X068000Y-023500
X069000Y-023500
X078000Y-022500
X078000Y-023500
X079000Y-022500
X079000Y-023500
X080000Y-022500
X080000Y-023500
X081000Y-022500
X081000Y-023500
X082000Y-023500
T4
X039000Y-024250
X041000Y-024250
T5
X030500Y-021250
X030500Y-022250
X030500Y-023250
X030500Y-024250
X030500Y-025250
X030500Y-026250
X030500Y-027250
X030500Y-028250
X030500Y-029250
X030500Y-030250
X030500Y-031250
X030500Y-032250
X030500Y-033250
X030500Y-034250
X036500Y-021250
X036500Y-022250
X036500Y-023250
X036500Y-024250
X036500Y-025250
X036500Y-026250
X036500Y-027250
X036500Y-028250
X036500Y-029250
X036500Y-030250
X036500Y-031250
X036500Y-032250
X036500Y-033250
X036500Y-034250
T6
X045000Y-022378
X045000Y-025134
T7
X048475Y-022900
X059525Y-022900
X061475Y-022900
X072525Y-022900
X074475Y-022900
X085525Y-022900
T8
X028500Y-021500
X028500Y-041500
X088500Y-021500
X088500Y-041500
T0
M30
