%TF.GenerationSoftware,KiCad,Pcbnew,5.1.12*%
%TF.CreationDate,2022-11-03T09:06:30-04:00*%
%TF.ProjectId,mouse_reach_controller,6d6f7573-655f-4726-9561-63685f636f6e,1.2*%
%TF.SameCoordinates,Original*%
%TF.FileFunction,Soldermask,Bot*%
%TF.FilePolarity,Negative*%
%FSLAX46Y46*%
G04 Gerber Fmt 4.6, Leading zero omitted, Abs format (unit mm)*
G04 Created by KiCad (PCBNEW 5.1.12) date 2022-11-03 09:06:30*
%MOMM*%
%LPD*%
G01*
G04 APERTURE LIST*
%ADD10O,2.540000X2.184400*%
%ADD11R,2.540000X2.184400*%
%ADD12O,2.032000X1.524000*%
%ADD13O,1.524000X2.032000*%
%ADD14O,3.048000X5.080000*%
%ADD15C,3.000000*%
%ADD16C,3.810000*%
%ADD17R,1.524000X2.032000*%
%ADD18C,2.540000*%
%ADD19C,2.100000*%
%ADD20C,3.556000*%
G04 APERTURE END LIST*
D10*
%TO.C,TEENSY1*%
X93345000Y-53975000D03*
X93345000Y-56515000D03*
X93345000Y-59055000D03*
X93345000Y-61595000D03*
X93345000Y-64135000D03*
X93345000Y-66675000D03*
X93345000Y-69215000D03*
X93345000Y-71755000D03*
X93345000Y-74295000D03*
X93345000Y-76835000D03*
X93345000Y-79375000D03*
X93345000Y-81915000D03*
X93345000Y-84455000D03*
X93345000Y-86995000D03*
X78105000Y-86995000D03*
X78105000Y-84455000D03*
X78105000Y-81915000D03*
X78105000Y-79375000D03*
X78105000Y-76835000D03*
X78105000Y-74295000D03*
X78105000Y-71755000D03*
X78105000Y-69215000D03*
X78105000Y-66675000D03*
X78105000Y-64135000D03*
X78105000Y-61595000D03*
X78105000Y-59055000D03*
X78105000Y-56515000D03*
D11*
X78105000Y-53975000D03*
%TD*%
D12*
%TO.C,P6*%
X103886000Y-66040000D03*
X109474000Y-66040000D03*
X106680000Y-66040000D03*
D13*
X106680000Y-63246000D03*
D14*
X111760000Y-57150000D03*
X101600000Y-57150000D03*
%TD*%
D12*
%TO.C,P5*%
X187706000Y-66040000D03*
X193294000Y-66040000D03*
X190500000Y-66040000D03*
D13*
X190500000Y-63246000D03*
D14*
X195580000Y-57150000D03*
X185420000Y-57150000D03*
%TD*%
D15*
%TO.C,P4*%
X143510000Y-53800000D03*
%TD*%
D16*
%TO.C,P2*%
X143446500Y-91821000D03*
X171513500Y-91821000D03*
D13*
X152400000Y-93599000D03*
X152400000Y-90551000D03*
X154940000Y-93599000D03*
X154940000Y-90551000D03*
X157480000Y-93599000D03*
X157480000Y-90551000D03*
X160020000Y-93599000D03*
X160020000Y-90551000D03*
X162560000Y-93599000D03*
D17*
X162560000Y-90551000D03*
%TD*%
D16*
%TO.C,P1*%
X101536500Y-91821000D03*
X129603500Y-91821000D03*
D13*
X110490000Y-93599000D03*
X110490000Y-90551000D03*
X113030000Y-93599000D03*
X113030000Y-90551000D03*
X115570000Y-93599000D03*
X115570000Y-90551000D03*
X118110000Y-93599000D03*
X118110000Y-90551000D03*
X120650000Y-93599000D03*
D17*
X120650000Y-90551000D03*
%TD*%
D18*
%TO.C,T2*%
X218440000Y-58420000D03*
X203200000Y-58420000D03*
X208280000Y-58420000D03*
X213360000Y-58420000D03*
%TD*%
%TO.C,T1*%
X156210000Y-60960000D03*
X161290000Y-60960000D03*
%TD*%
D16*
%TO.C,P3*%
X185356500Y-91821000D03*
X213423500Y-91821000D03*
D13*
X194310000Y-93599000D03*
X194310000Y-90551000D03*
X196850000Y-93599000D03*
X196850000Y-90551000D03*
X199390000Y-93599000D03*
X199390000Y-90551000D03*
X201930000Y-93599000D03*
X201930000Y-90551000D03*
X204470000Y-93599000D03*
D17*
X204470000Y-90551000D03*
%TD*%
D12*
%TO.C,P7*%
X121666000Y-66040000D03*
X127254000Y-66040000D03*
X124460000Y-66040000D03*
D13*
X124460000Y-63246000D03*
D14*
X129540000Y-57150000D03*
X119380000Y-57150000D03*
%TD*%
D19*
%TO.C,J1*%
X173990000Y-56840000D03*
X173990000Y-63840000D03*
%TD*%
D20*
%TO.C,MH1*%
X72390000Y-54610000D03*
%TD*%
%TO.C,MH2*%
X224790000Y-54610000D03*
%TD*%
%TO.C,MH3*%
X224790000Y-105410000D03*
%TD*%
%TO.C,MH4*%
X72390000Y-105410000D03*
%TD*%
M02*
