M48
; DRILL file {KiCad 5.1.12} date Tue Feb 22 11:02:38 2022
; FORMAT={2:4/ absolute / inch / keep zeros}
; #@! TF.CreationDate,2022-02-22T11:02:38-05:00
; #@! TF.GenerationSoftware,Kicad,Pcbnew,5.1.12
FMAT,2
INCH
T1C0.0160
T2C0.0350
T3C0.0400
T4C0.0551
T5C0.0610
T6C0.0669
T7C0.0787
T8C0.0900
T9C0.1160
T10C0.1300
%
G90
G05
T1
X030586Y-020363
X031800Y-042000
X032534Y-039492
X032652Y-040234
X032694Y-038653
X032701Y-039764
X032800Y-041300
X033091Y-040124
X034098Y-040347
X035301Y-038729
X036232Y-037850
X037569Y-039463
X040495Y-029492
X041075Y-037111
X041177Y-028224
X041433Y-041586
X041814Y-041590
X042402Y-029606
X043004Y-039508
X043233Y-041584
X043511Y-040478
X044566Y-041365
X044589Y-041684
X045919Y-040632
X047454Y-029516
X048945Y-029121
X049483Y-029426
X049501Y-030640
X050603Y-030730
X051423Y-030566
X052349Y-031161
X054368Y-040839
X054790Y-035034
X058500Y-031575
X059140Y-032973
X059616Y-039465
X060241Y-040766
X060417Y-031470
X060774Y-031000
X060974Y-034496
X061484Y-041217
X061921Y-041668
X064003Y-027740
X067254Y-030217
X070483Y-026293
X072307Y-026445
X073340Y-027602
X073774Y-026671
X074253Y-042545
X074670Y-042538
X074716Y-039320
X075568Y-030878
X075895Y-042536
X076163Y-029449
X076480Y-041619
X076680Y-028693
X077172Y-031024
X077600Y-021000
X077841Y-029834
X077940Y-030645
X078226Y-031370
X079291Y-029888
X079828Y-030410
X080335Y-029193
X081000Y-021000
X081007Y-027531
X081940Y-027243
X083604Y-033042
X084827Y-027353
X086339Y-037164
T2
X041000Y-026000
X042000Y-025000
X042000Y-026000
X043000Y-026000
X047500Y-035750
X048000Y-026000
X049000Y-025000
X049000Y-026000
X050000Y-026000
X064000Y-035750
X074000Y-026000
X075000Y-025000
X075000Y-026000
X076000Y-026000
X080500Y-035750
T3
X043500Y-035750
X043500Y-036750
X044500Y-035750
X044500Y-036750
X045500Y-035750
X045500Y-036750
X046500Y-035750
X046500Y-036750
X047500Y-036750
X060000Y-035750
X060000Y-036750
X061000Y-035750
X061000Y-036750
X062000Y-035750
X062000Y-036750
X063000Y-035750
X063000Y-036750
X064000Y-036750
X076500Y-035750
X076500Y-036750
X077500Y-035750
X077500Y-036750
X078500Y-035750
X078500Y-036750
X079500Y-035750
X079500Y-036750
X080500Y-036750
T4
X061500Y-024000
X063500Y-024000
X080000Y-023000
X082000Y-023000
X084000Y-023000
X086000Y-023000
T5
X030750Y-021250
X030750Y-022250
X030750Y-023250
X030750Y-024250
X030750Y-025250
X030750Y-026250
X030750Y-027250
X030750Y-028250
X030750Y-029250
X030750Y-030250
X030750Y-031250
X030750Y-032250
X030750Y-033250
X030750Y-034250
X036750Y-021250
X036750Y-022250
X036750Y-023250
X036750Y-024250
X036750Y-025250
X036750Y-026250
X036750Y-027250
X036750Y-028250
X036750Y-029250
X036750Y-030250
X036750Y-031250
X036750Y-032250
X036750Y-033250
X036750Y-034250
T6
X068500Y-022378
X068500Y-025134
T7
X056500Y-021181
T8
X040000Y-022500
X044000Y-022500
X047000Y-022500
X051000Y-022500
X073000Y-022500
X077000Y-022500
T9
X039975Y-036150
X051025Y-036150
X056475Y-036150
X067525Y-036150
X072975Y-036150
X084025Y-036150
T10
X028500Y-021500
X028500Y-041500
X088500Y-021500
X088500Y-041500
T0
M30
