%FSLAX45Y45*%
G04 Gerber Fmt 4.5, Leading zero omitted, Abs format (unit mm)*
G04 Created by KiCad (PCBNEW 5.1.10) date 2021-11-12 09:27:22*
%MOMM*%
%LPD*%
G01*
G04 APERTURE LIST*
%TA.AperFunction,Profile*%
%ADD10C,0.228600*%
%TD*%
%ADD11C,0.200000*%
%ADD12C,0.300000*%
G04 APERTURE END LIST*
D10*
X22479000Y-5143500D02*
G75*
G02*
X22796500Y-5461000I0J-317500D01*
G01*
X22796500Y-10541000D02*
G75*
G02*
X22479000Y-10858500I-317500J0D01*
G01*
X7239000Y-10858500D02*
G75*
G02*
X6921500Y-10541000I0J317500D01*
G01*
X6921500Y-5461000D02*
G75*
G02*
X7239000Y-5143500I317500J0D01*
G01*
X6921500Y-10541000D02*
X6921500Y-5461000D01*
X22479000Y-10858500D02*
X7239000Y-10858500D01*
X22796500Y-5461000D02*
X22796500Y-10541000D01*
X7239000Y-5143500D02*
X22479000Y-5143500D01*
D11*
X7146660Y-6241980D02*
X7187300Y-6282620D01*
X7187300Y-6241980D02*
X7146660Y-6282620D01*
X7325950Y-6282850D02*
X7366590Y-6323490D01*
X7366590Y-6282850D02*
X7325950Y-6323490D01*
X9209520Y-8930350D02*
X9250160Y-8970990D01*
X9250160Y-8930350D02*
X9209520Y-8970990D01*
X9598980Y-8272640D02*
X9639620Y-8313280D01*
X9639620Y-8272640D02*
X9598980Y-8313280D01*
X9598980Y-8481290D02*
X9639620Y-8521930D01*
X9639620Y-8481290D02*
X9598980Y-8521930D01*
X9649180Y-7867600D02*
X9689820Y-7908240D01*
X9689820Y-7867600D02*
X9649180Y-7908240D01*
X9798480Y-8005690D02*
X9839120Y-8046330D01*
X9839120Y-8005690D02*
X9798480Y-8046330D01*
X9924930Y-8009450D02*
X9965570Y-8050090D01*
X9965570Y-8009450D02*
X9924930Y-8050090D01*
X10196120Y-7212740D02*
X10236760Y-7253380D01*
X10236760Y-7212740D02*
X10196120Y-7253380D01*
X10935650Y-8460180D02*
X10976290Y-8500820D01*
X10976290Y-8460180D02*
X10935650Y-8500820D01*
X11018320Y-8397440D02*
X11058960Y-8438080D01*
X11058960Y-8397440D02*
X11018320Y-8438080D01*
X11075600Y-8132680D02*
X11116240Y-8173320D01*
X11116240Y-8132680D02*
X11075600Y-8173320D01*
X11322520Y-8438240D02*
X11363160Y-8478880D01*
X11363160Y-8438240D02*
X11322520Y-8478880D01*
X11413760Y-8438170D02*
X11454400Y-8478810D01*
X11454400Y-8438170D02*
X11413760Y-8478810D01*
X11821800Y-9006930D02*
X11862440Y-9047570D01*
X11862440Y-9006930D02*
X11821800Y-9047570D01*
X11916050Y-9321410D02*
X11956690Y-9362050D01*
X11956690Y-9321410D02*
X11916050Y-9362050D01*
X12501430Y-8692790D02*
X12542070Y-8733430D01*
X12542070Y-8692790D02*
X12501430Y-8733430D01*
X13309330Y-7587660D02*
X13349970Y-7628300D01*
X13349970Y-7587660D02*
X13309330Y-7628300D01*
X13547670Y-7314350D02*
X13588310Y-7354990D01*
X13588310Y-7314350D02*
X13547670Y-7354990D01*
X14046080Y-6956040D02*
X14086720Y-6996680D01*
X14086720Y-6956040D02*
X14046080Y-6996680D01*
X14066040Y-8556700D02*
X14106680Y-8597340D01*
X14106680Y-8556700D02*
X14066040Y-8597340D01*
X14941640Y-9230700D02*
X14982280Y-9271340D01*
X14982280Y-9230700D02*
X14941640Y-9271340D01*
X14957190Y-9157000D02*
X14997830Y-9197640D01*
X14997830Y-9157000D02*
X14957190Y-9197640D01*
X14983790Y-9494430D02*
X15024430Y-9535070D01*
X15024430Y-9494430D02*
X14983790Y-9535070D01*
X15183860Y-9580760D02*
X15224500Y-9621400D01*
X15224500Y-9580760D02*
X15183860Y-9621400D01*
X15274790Y-9581450D02*
X15315430Y-9622090D01*
X15315430Y-9581450D02*
X15274790Y-9622090D01*
X15371580Y-9580230D02*
X15412220Y-9620870D01*
X15412220Y-9580230D02*
X15371580Y-9620870D01*
X15573440Y-8943910D02*
X15614080Y-8984550D01*
X15614080Y-8943910D02*
X15573440Y-8984550D01*
X15677020Y-9129240D02*
X15717660Y-9169880D01*
X15717660Y-9129240D02*
X15677020Y-9169880D01*
X15677830Y-9268420D02*
X15718470Y-9309060D01*
X15718470Y-9268420D02*
X15677830Y-9309060D01*
X16541050Y-7596540D02*
X16581690Y-7637180D01*
X16581690Y-7596540D02*
X16541050Y-7637180D01*
X16601570Y-7311860D02*
X16642210Y-7352500D01*
X16642210Y-7311860D02*
X16601570Y-7352500D01*
X17129650Y-7173530D02*
X17170290Y-7214170D01*
X17170290Y-7173530D02*
X17129650Y-7214170D01*
X17145860Y-7790180D02*
X17186500Y-7830820D01*
X17186500Y-7790180D02*
X17145860Y-7830820D01*
X17955470Y-8282450D02*
X17996110Y-8323090D01*
X17996110Y-8282450D02*
X17955470Y-8323090D01*
X19798980Y-7598730D02*
X19839620Y-7639370D01*
X19839620Y-7598730D02*
X19798980Y-7639370D01*
X19892040Y-7663180D02*
X19932680Y-7703820D01*
X19932680Y-7663180D02*
X19892040Y-7703820D01*
X20691740Y-7122550D02*
X20732380Y-7163190D01*
X20732380Y-7122550D02*
X20691740Y-7163190D01*
X14268450Y-5715000D02*
G75*
G03*
X14268450Y-5715000I-44450J0D01*
G01*
X17570450Y-5715000D02*
G75*
G03*
X17570450Y-5715000I-44450J0D01*
G01*
X20872450Y-5715000D02*
G75*
G03*
X20872450Y-5715000I-44450J0D01*
G01*
X13208000Y-5664200D02*
X13208000Y-5765800D01*
X13157200Y-5715000D02*
X13258800Y-5715000D01*
X13208000Y-5918200D02*
X13208000Y-6019800D01*
X13157200Y-5969000D02*
X13258800Y-5969000D01*
X13462000Y-5664200D02*
X13462000Y-5765800D01*
X13411200Y-5715000D02*
X13512800Y-5715000D01*
X13462000Y-5918200D02*
X13462000Y-6019800D01*
X13411200Y-5969000D02*
X13512800Y-5969000D01*
X13716000Y-5664200D02*
X13716000Y-5765800D01*
X13665200Y-5715000D02*
X13766800Y-5715000D01*
X13716000Y-5918200D02*
X13716000Y-6019800D01*
X13665200Y-5969000D02*
X13766800Y-5969000D01*
X13970000Y-5664200D02*
X13970000Y-5765800D01*
X13919200Y-5715000D02*
X14020800Y-5715000D01*
X13970000Y-5918200D02*
X13970000Y-6019800D01*
X13919200Y-5969000D02*
X14020800Y-5969000D01*
X14224000Y-5918200D02*
X14224000Y-6019800D01*
X14173200Y-5969000D02*
X14274800Y-5969000D01*
X16510000Y-5664200D02*
X16510000Y-5765800D01*
X16459200Y-5715000D02*
X16560800Y-5715000D01*
X16510000Y-5918200D02*
X16510000Y-6019800D01*
X16459200Y-5969000D02*
X16560800Y-5969000D01*
X16764000Y-5664200D02*
X16764000Y-5765800D01*
X16713200Y-5715000D02*
X16814800Y-5715000D01*
X16764000Y-5918200D02*
X16764000Y-6019800D01*
X16713200Y-5969000D02*
X16814800Y-5969000D01*
X17018000Y-5664200D02*
X17018000Y-5765800D01*
X16967200Y-5715000D02*
X17068800Y-5715000D01*
X17018000Y-5918200D02*
X17018000Y-6019800D01*
X16967200Y-5969000D02*
X17068800Y-5969000D01*
X17272000Y-5664200D02*
X17272000Y-5765800D01*
X17221200Y-5715000D02*
X17322800Y-5715000D01*
X17272000Y-5918200D02*
X17272000Y-6019800D01*
X17221200Y-5969000D02*
X17322800Y-5969000D01*
X17526000Y-5918200D02*
X17526000Y-6019800D01*
X17475200Y-5969000D02*
X17576800Y-5969000D01*
X19812000Y-5664200D02*
X19812000Y-5765800D01*
X19761200Y-5715000D02*
X19862800Y-5715000D01*
X19812000Y-5918200D02*
X19812000Y-6019800D01*
X19761200Y-5969000D02*
X19862800Y-5969000D01*
X20066000Y-5664200D02*
X20066000Y-5765800D01*
X20015200Y-5715000D02*
X20116800Y-5715000D01*
X20066000Y-5918200D02*
X20066000Y-6019800D01*
X20015200Y-5969000D02*
X20116800Y-5969000D01*
X20320000Y-5664200D02*
X20320000Y-5765800D01*
X20269200Y-5715000D02*
X20370800Y-5715000D01*
X20320000Y-5918200D02*
X20320000Y-6019800D01*
X20269200Y-5969000D02*
X20370800Y-5969000D01*
X20574000Y-5664200D02*
X20574000Y-5765800D01*
X20523200Y-5715000D02*
X20624800Y-5715000D01*
X20574000Y-5918200D02*
X20574000Y-6019800D01*
X20523200Y-5969000D02*
X20624800Y-5969000D01*
X20828000Y-5918200D02*
X20828000Y-6019800D01*
X20777200Y-5969000D02*
X20878800Y-5969000D01*
X9955498Y-6208998D02*
X9955498Y-6110002D01*
X9856502Y-6110002D01*
X9856502Y-6208998D01*
X9955498Y-6208998D01*
X10463498Y-6208998D02*
X10463498Y-6110002D01*
X10364502Y-6110002D01*
X10364502Y-6208998D01*
X10463498Y-6208998D01*
X7747000Y-5474970D02*
X7824470Y-5397500D01*
X7747000Y-5320030D01*
X7669530Y-5397500D01*
X7747000Y-5474970D01*
X7747000Y-5728970D02*
X7824470Y-5651500D01*
X7747000Y-5574030D01*
X7669530Y-5651500D01*
X7747000Y-5728970D01*
X7747000Y-5982970D02*
X7824470Y-5905500D01*
X7747000Y-5828030D01*
X7669530Y-5905500D01*
X7747000Y-5982970D01*
X7747000Y-6236970D02*
X7824470Y-6159500D01*
X7747000Y-6082030D01*
X7669530Y-6159500D01*
X7747000Y-6236970D01*
X7747000Y-6490970D02*
X7824470Y-6413500D01*
X7747000Y-6336030D01*
X7669530Y-6413500D01*
X7747000Y-6490970D01*
X7747000Y-6744970D02*
X7824470Y-6667500D01*
X7747000Y-6590030D01*
X7669530Y-6667500D01*
X7747000Y-6744970D01*
X7747000Y-6998970D02*
X7824470Y-6921500D01*
X7747000Y-6844030D01*
X7669530Y-6921500D01*
X7747000Y-6998970D01*
X7747000Y-7252970D02*
X7824470Y-7175500D01*
X7747000Y-7098030D01*
X7669530Y-7175500D01*
X7747000Y-7252970D01*
X7747000Y-7506970D02*
X7824470Y-7429500D01*
X7747000Y-7352030D01*
X7669530Y-7429500D01*
X7747000Y-7506970D01*
X7747000Y-7760970D02*
X7824470Y-7683500D01*
X7747000Y-7606030D01*
X7669530Y-7683500D01*
X7747000Y-7760970D01*
X7747000Y-8014970D02*
X7824470Y-7937500D01*
X7747000Y-7860030D01*
X7669530Y-7937500D01*
X7747000Y-8014970D01*
X7747000Y-8268970D02*
X7824470Y-8191500D01*
X7747000Y-8114030D01*
X7669530Y-8191500D01*
X7747000Y-8268970D01*
X7747000Y-8522970D02*
X7824470Y-8445500D01*
X7747000Y-8368030D01*
X7669530Y-8445500D01*
X7747000Y-8522970D01*
X7747000Y-8776970D02*
X7824470Y-8699500D01*
X7747000Y-8622030D01*
X7669530Y-8699500D01*
X7747000Y-8776970D01*
X9271000Y-5474970D02*
X9348470Y-5397500D01*
X9271000Y-5320030D01*
X9193530Y-5397500D01*
X9271000Y-5474970D01*
X9271000Y-5728970D02*
X9348470Y-5651500D01*
X9271000Y-5574030D01*
X9193530Y-5651500D01*
X9271000Y-5728970D01*
X9271000Y-5982970D02*
X9348470Y-5905500D01*
X9271000Y-5828030D01*
X9193530Y-5905500D01*
X9271000Y-5982970D01*
X9271000Y-6236970D02*
X9348470Y-6159500D01*
X9271000Y-6082030D01*
X9193530Y-6159500D01*
X9271000Y-6236970D01*
X9271000Y-6490970D02*
X9348470Y-6413500D01*
X9271000Y-6336030D01*
X9193530Y-6413500D01*
X9271000Y-6490970D01*
X9271000Y-6744970D02*
X9348470Y-6667500D01*
X9271000Y-6590030D01*
X9193530Y-6667500D01*
X9271000Y-6744970D01*
X9271000Y-6998970D02*
X9348470Y-6921500D01*
X9271000Y-6844030D01*
X9193530Y-6921500D01*
X9271000Y-6998970D01*
X9271000Y-7252970D02*
X9348470Y-7175500D01*
X9271000Y-7098030D01*
X9193530Y-7175500D01*
X9271000Y-7252970D01*
X9271000Y-7506970D02*
X9348470Y-7429500D01*
X9271000Y-7352030D01*
X9193530Y-7429500D01*
X9271000Y-7506970D01*
X9271000Y-7760970D02*
X9348470Y-7683500D01*
X9271000Y-7606030D01*
X9193530Y-7683500D01*
X9271000Y-7760970D01*
X9271000Y-8014970D02*
X9348470Y-7937500D01*
X9271000Y-7860030D01*
X9193530Y-7937500D01*
X9271000Y-8014970D01*
X9271000Y-8268970D02*
X9348470Y-8191500D01*
X9271000Y-8114030D01*
X9193530Y-8191500D01*
X9271000Y-8268970D01*
X9271000Y-8522970D02*
X9348470Y-8445500D01*
X9271000Y-8368030D01*
X9193530Y-8445500D01*
X9271000Y-8522970D01*
X9271000Y-8776970D02*
X9348470Y-8699500D01*
X9271000Y-8622030D01*
X9193530Y-8699500D01*
X9271000Y-8776970D01*
X11345000Y-5599000D02*
X11515000Y-5769000D01*
X11515000Y-5599000D02*
X11345000Y-5769000D01*
X11515000Y-5684000D02*
G75*
G03*
X11515000Y-5684000I-85000J0D01*
G01*
X11345000Y-6299000D02*
X11515000Y-6469000D01*
X11515000Y-6299000D02*
X11345000Y-6469000D01*
X11515000Y-6384000D02*
G75*
G03*
X11515000Y-6384000I-85000J0D01*
G01*
X12165330Y-5669280D02*
X12459970Y-5963920D01*
X12459970Y-5669280D02*
X12165330Y-5963920D01*
X12312650Y-5669280D02*
X12312650Y-5963920D01*
X12165330Y-5816600D02*
X12459970Y-5816600D01*
X14972030Y-5669280D02*
X15266670Y-5963920D01*
X15266670Y-5669280D02*
X14972030Y-5963920D01*
X15119350Y-5669280D02*
X15119350Y-5963920D01*
X14972030Y-5816600D02*
X15266670Y-5816600D01*
X15467330Y-5669280D02*
X15761970Y-5963920D01*
X15761970Y-5669280D02*
X15467330Y-5963920D01*
X15614650Y-5669280D02*
X15614650Y-5963920D01*
X15467330Y-5816600D02*
X15761970Y-5816600D01*
X18274030Y-5669280D02*
X18568670Y-5963920D01*
X18568670Y-5669280D02*
X18274030Y-5963920D01*
X18421350Y-5669280D02*
X18421350Y-5963920D01*
X18274030Y-5816600D02*
X18568670Y-5816600D01*
X18769330Y-5669280D02*
X19063970Y-5963920D01*
X19063970Y-5669280D02*
X18769330Y-5963920D01*
X18916650Y-5669280D02*
X18916650Y-5963920D01*
X18769330Y-5816600D02*
X19063970Y-5816600D01*
X21576030Y-5669280D02*
X21870670Y-5963920D01*
X21870670Y-5669280D02*
X21576030Y-5963920D01*
X21723350Y-5669280D02*
X21723350Y-5963920D01*
X21576030Y-5816600D02*
X21870670Y-5816600D01*
X7073900Y-5295900D02*
X7404100Y-5626100D01*
X7404100Y-5295900D02*
X7073900Y-5626100D01*
X7355744Y-5577744D02*
X7355744Y-5344256D01*
X7122256Y-5344256D01*
X7122256Y-5577744D01*
X7355744Y-5577744D01*
X7073900Y-10375900D02*
X7404100Y-10706100D01*
X7404100Y-10375900D02*
X7073900Y-10706100D01*
X7355744Y-10657744D02*
X7355744Y-10424256D01*
X7122256Y-10424256D01*
X7122256Y-10657744D01*
X7355744Y-10657744D01*
X22313900Y-5295900D02*
X22644100Y-5626100D01*
X22644100Y-5295900D02*
X22313900Y-5626100D01*
X22595744Y-5577744D02*
X22595744Y-5344256D01*
X22362256Y-5344256D01*
X22362256Y-5577744D01*
X22595744Y-5577744D01*
X22313900Y-10375900D02*
X22644100Y-10706100D01*
X22644100Y-10375900D02*
X22313900Y-10706100D01*
X22595744Y-10657744D02*
X22595744Y-10424256D01*
X22362256Y-10424256D01*
X22362256Y-10657744D01*
X22595744Y-10657744D01*
D12*
X7196498Y-11335644D02*
X7196498Y-11035644D01*
X7267927Y-11035644D01*
X7310784Y-11049930D01*
X7339356Y-11078502D01*
X7353641Y-11107073D01*
X7367927Y-11164216D01*
X7367927Y-11207073D01*
X7353641Y-11264216D01*
X7339356Y-11292787D01*
X7310784Y-11321359D01*
X7267927Y-11335644D01*
X7196498Y-11335644D01*
X7496498Y-11335644D02*
X7496498Y-11135644D01*
X7496498Y-11192787D02*
X7510784Y-11164216D01*
X7525070Y-11149930D01*
X7553641Y-11135644D01*
X7582213Y-11135644D01*
X7682213Y-11335644D02*
X7682213Y-11135644D01*
X7682213Y-11035644D02*
X7667927Y-11049930D01*
X7682213Y-11064216D01*
X7696498Y-11049930D01*
X7682213Y-11035644D01*
X7682213Y-11064216D01*
X7867927Y-11335644D02*
X7839356Y-11321359D01*
X7825070Y-11292787D01*
X7825070Y-11035644D01*
X8025070Y-11335644D02*
X7996498Y-11321359D01*
X7982213Y-11292787D01*
X7982213Y-11035644D01*
X8367927Y-11335644D02*
X8367927Y-11035644D01*
X8467927Y-11249930D01*
X8567927Y-11035644D01*
X8567927Y-11335644D01*
X8839356Y-11335644D02*
X8839356Y-11178502D01*
X8825070Y-11149930D01*
X8796498Y-11135644D01*
X8739356Y-11135644D01*
X8710784Y-11149930D01*
X8839356Y-11321359D02*
X8810784Y-11335644D01*
X8739356Y-11335644D01*
X8710784Y-11321359D01*
X8696498Y-11292787D01*
X8696498Y-11264216D01*
X8710784Y-11235644D01*
X8739356Y-11221359D01*
X8810784Y-11221359D01*
X8839356Y-11207073D01*
X8982213Y-11135644D02*
X8982213Y-11435644D01*
X8982213Y-11149930D02*
X9010784Y-11135644D01*
X9067927Y-11135644D01*
X9096498Y-11149930D01*
X9110784Y-11164216D01*
X9125070Y-11192787D01*
X9125070Y-11278501D01*
X9110784Y-11307073D01*
X9096498Y-11321359D01*
X9067927Y-11335644D01*
X9010784Y-11335644D01*
X8982213Y-11321359D01*
X9253641Y-11307073D02*
X9267927Y-11321359D01*
X9253641Y-11335644D01*
X9239356Y-11321359D01*
X9253641Y-11307073D01*
X9253641Y-11335644D01*
X9253641Y-11149930D02*
X9267927Y-11164216D01*
X9253641Y-11178502D01*
X9239356Y-11164216D01*
X9253641Y-11149930D01*
X9253641Y-11178502D01*
X6869430Y-11809610D02*
X6910070Y-11850250D01*
X6910070Y-11809610D02*
X6869430Y-11850250D01*
X7253641Y-11665644D02*
X7282213Y-11665644D01*
X7310784Y-11679930D01*
X7325070Y-11694216D01*
X7339356Y-11722787D01*
X7353641Y-11779930D01*
X7353641Y-11851359D01*
X7339356Y-11908501D01*
X7325070Y-11937073D01*
X7310784Y-11951359D01*
X7282213Y-11965644D01*
X7253641Y-11965644D01*
X7225070Y-11951359D01*
X7210784Y-11937073D01*
X7196498Y-11908501D01*
X7182213Y-11851359D01*
X7182213Y-11779930D01*
X7196498Y-11722787D01*
X7210784Y-11694216D01*
X7225070Y-11679930D01*
X7253641Y-11665644D01*
X7482213Y-11937073D02*
X7496498Y-11951359D01*
X7482213Y-11965644D01*
X7467927Y-11951359D01*
X7482213Y-11937073D01*
X7482213Y-11965644D01*
X7753641Y-11765644D02*
X7753641Y-11965644D01*
X7682213Y-11651359D02*
X7610784Y-11865644D01*
X7796498Y-11865644D01*
X7967927Y-11665644D02*
X7996498Y-11665644D01*
X8025070Y-11679930D01*
X8039356Y-11694216D01*
X8053641Y-11722787D01*
X8067927Y-11779930D01*
X8067927Y-11851359D01*
X8053641Y-11908501D01*
X8039356Y-11937073D01*
X8025070Y-11951359D01*
X7996498Y-11965644D01*
X7967927Y-11965644D01*
X7939356Y-11951359D01*
X7925070Y-11937073D01*
X7910784Y-11908501D01*
X7896498Y-11851359D01*
X7896498Y-11779930D01*
X7910784Y-11722787D01*
X7925070Y-11694216D01*
X7939356Y-11679930D01*
X7967927Y-11665644D01*
X8325070Y-11665644D02*
X8267927Y-11665644D01*
X8239356Y-11679930D01*
X8225070Y-11694216D01*
X8196498Y-11737073D01*
X8182213Y-11794216D01*
X8182213Y-11908501D01*
X8196498Y-11937073D01*
X8210784Y-11951359D01*
X8239356Y-11965644D01*
X8296498Y-11965644D01*
X8325070Y-11951359D01*
X8339356Y-11937073D01*
X8353641Y-11908501D01*
X8353641Y-11837073D01*
X8339356Y-11808501D01*
X8325070Y-11794216D01*
X8296498Y-11779930D01*
X8239356Y-11779930D01*
X8210784Y-11794216D01*
X8196498Y-11808501D01*
X8182213Y-11837073D01*
X8482213Y-11965644D02*
X8482213Y-11765644D01*
X8482213Y-11794216D02*
X8496498Y-11779930D01*
X8525070Y-11765644D01*
X8567927Y-11765644D01*
X8596498Y-11779930D01*
X8610784Y-11808501D01*
X8610784Y-11965644D01*
X8610784Y-11808501D02*
X8625070Y-11779930D01*
X8653641Y-11765644D01*
X8696498Y-11765644D01*
X8725070Y-11779930D01*
X8739356Y-11808501D01*
X8739356Y-11965644D01*
X8882213Y-11965644D02*
X8882213Y-11765644D01*
X8882213Y-11794216D02*
X8896498Y-11779930D01*
X8925070Y-11765644D01*
X8967927Y-11765644D01*
X8996498Y-11779930D01*
X9010784Y-11808501D01*
X9010784Y-11965644D01*
X9010784Y-11808501D02*
X9025070Y-11779930D01*
X9053641Y-11765644D01*
X9096498Y-11765644D01*
X9125070Y-11779930D01*
X9139356Y-11808501D01*
X9139356Y-11965644D01*
X9725070Y-11651359D02*
X9467927Y-12037073D01*
X10110784Y-11665644D02*
X10139356Y-11665644D01*
X10167927Y-11679930D01*
X10182213Y-11694216D01*
X10196498Y-11722787D01*
X10210784Y-11779930D01*
X10210784Y-11851359D01*
X10196498Y-11908501D01*
X10182213Y-11937073D01*
X10167927Y-11951359D01*
X10139356Y-11965644D01*
X10110784Y-11965644D01*
X10082213Y-11951359D01*
X10067927Y-11937073D01*
X10053641Y-11908501D01*
X10039356Y-11851359D01*
X10039356Y-11779930D01*
X10053641Y-11722787D01*
X10067927Y-11694216D01*
X10082213Y-11679930D01*
X10110784Y-11665644D01*
X10339356Y-11937073D02*
X10353641Y-11951359D01*
X10339356Y-11965644D01*
X10325070Y-11951359D01*
X10339356Y-11937073D01*
X10339356Y-11965644D01*
X10539356Y-11665644D02*
X10567927Y-11665644D01*
X10596498Y-11679930D01*
X10610784Y-11694216D01*
X10625070Y-11722787D01*
X10639356Y-11779930D01*
X10639356Y-11851359D01*
X10625070Y-11908501D01*
X10610784Y-11937073D01*
X10596498Y-11951359D01*
X10567927Y-11965644D01*
X10539356Y-11965644D01*
X10510784Y-11951359D01*
X10496498Y-11937073D01*
X10482213Y-11908501D01*
X10467927Y-11851359D01*
X10467927Y-11779930D01*
X10482213Y-11722787D01*
X10496498Y-11694216D01*
X10510784Y-11679930D01*
X10539356Y-11665644D01*
X10925070Y-11965644D02*
X10753641Y-11965644D01*
X10839356Y-11965644D02*
X10839356Y-11665644D01*
X10810784Y-11708501D01*
X10782213Y-11737073D01*
X10753641Y-11751359D01*
X11182213Y-11665644D02*
X11125070Y-11665644D01*
X11096498Y-11679930D01*
X11082213Y-11694216D01*
X11053641Y-11737073D01*
X11039356Y-11794216D01*
X11039356Y-11908501D01*
X11053641Y-11937073D01*
X11067927Y-11951359D01*
X11096498Y-11965644D01*
X11153641Y-11965644D01*
X11182213Y-11951359D01*
X11196498Y-11937073D01*
X11210784Y-11908501D01*
X11210784Y-11837073D01*
X11196498Y-11808501D01*
X11182213Y-11794216D01*
X11153641Y-11779930D01*
X11096498Y-11779930D01*
X11067927Y-11794216D01*
X11053641Y-11808501D01*
X11039356Y-11837073D01*
X11396498Y-11665644D02*
X11425070Y-11665644D01*
X11453641Y-11679930D01*
X11467927Y-11694216D01*
X11482213Y-11722787D01*
X11496498Y-11779930D01*
X11496498Y-11851359D01*
X11482213Y-11908501D01*
X11467927Y-11937073D01*
X11453641Y-11951359D01*
X11425070Y-11965644D01*
X11396498Y-11965644D01*
X11367927Y-11951359D01*
X11353641Y-11937073D01*
X11339356Y-11908501D01*
X11325070Y-11851359D01*
X11325070Y-11779930D01*
X11339356Y-11722787D01*
X11353641Y-11694216D01*
X11367927Y-11679930D01*
X11396498Y-11665644D01*
X11610784Y-11665644D02*
X11610784Y-11722787D01*
X11725070Y-11665644D02*
X11725070Y-11722787D01*
X12167927Y-12079930D02*
X12153641Y-12065644D01*
X12125070Y-12022787D01*
X12110784Y-11994216D01*
X12096498Y-11951359D01*
X12082213Y-11879930D01*
X12082213Y-11822787D01*
X12096498Y-11751359D01*
X12110784Y-11708501D01*
X12125070Y-11679930D01*
X12153641Y-11637073D01*
X12167927Y-11622787D01*
X12253641Y-11665644D02*
X12439356Y-11665644D01*
X12339356Y-11779930D01*
X12382213Y-11779930D01*
X12410784Y-11794216D01*
X12425070Y-11808501D01*
X12439356Y-11837073D01*
X12439356Y-11908501D01*
X12425070Y-11937073D01*
X12410784Y-11951359D01*
X12382213Y-11965644D01*
X12296498Y-11965644D01*
X12267927Y-11951359D01*
X12253641Y-11937073D01*
X12610784Y-11794216D02*
X12582213Y-11779930D01*
X12567927Y-11765644D01*
X12553641Y-11737073D01*
X12553641Y-11722787D01*
X12567927Y-11694216D01*
X12582213Y-11679930D01*
X12610784Y-11665644D01*
X12667927Y-11665644D01*
X12696498Y-11679930D01*
X12710784Y-11694216D01*
X12725070Y-11722787D01*
X12725070Y-11737073D01*
X12710784Y-11765644D01*
X12696498Y-11779930D01*
X12667927Y-11794216D01*
X12610784Y-11794216D01*
X12582213Y-11808501D01*
X12567927Y-11822787D01*
X12553641Y-11851359D01*
X12553641Y-11908501D01*
X12567927Y-11937073D01*
X12582213Y-11951359D01*
X12610784Y-11965644D01*
X12667927Y-11965644D01*
X12696498Y-11951359D01*
X12710784Y-11937073D01*
X12725070Y-11908501D01*
X12725070Y-11851359D01*
X12710784Y-11822787D01*
X12696498Y-11808501D01*
X12667927Y-11794216D01*
X13082213Y-11965644D02*
X13082213Y-11665644D01*
X13210784Y-11965644D02*
X13210784Y-11808501D01*
X13196498Y-11779930D01*
X13167927Y-11765644D01*
X13125070Y-11765644D01*
X13096498Y-11779930D01*
X13082213Y-11794216D01*
X13396498Y-11965644D02*
X13367927Y-11951359D01*
X13353641Y-11937073D01*
X13339356Y-11908501D01*
X13339356Y-11822787D01*
X13353641Y-11794216D01*
X13367927Y-11779930D01*
X13396498Y-11765644D01*
X13439356Y-11765644D01*
X13467927Y-11779930D01*
X13482213Y-11794216D01*
X13496498Y-11822787D01*
X13496498Y-11908501D01*
X13482213Y-11937073D01*
X13467927Y-11951359D01*
X13439356Y-11965644D01*
X13396498Y-11965644D01*
X13667927Y-11965644D02*
X13639356Y-11951359D01*
X13625070Y-11922787D01*
X13625070Y-11665644D01*
X13896498Y-11951359D02*
X13867927Y-11965644D01*
X13810784Y-11965644D01*
X13782213Y-11951359D01*
X13767927Y-11922787D01*
X13767927Y-11808501D01*
X13782213Y-11779930D01*
X13810784Y-11765644D01*
X13867927Y-11765644D01*
X13896498Y-11779930D01*
X13910784Y-11808501D01*
X13910784Y-11837073D01*
X13767927Y-11865644D01*
X14025070Y-11951359D02*
X14053641Y-11965644D01*
X14110784Y-11965644D01*
X14139356Y-11951359D01*
X14153641Y-11922787D01*
X14153641Y-11908501D01*
X14139356Y-11879930D01*
X14110784Y-11865644D01*
X14067927Y-11865644D01*
X14039356Y-11851359D01*
X14025070Y-11822787D01*
X14025070Y-11808501D01*
X14039356Y-11779930D01*
X14067927Y-11765644D01*
X14110784Y-11765644D01*
X14139356Y-11779930D01*
X14253641Y-12079930D02*
X14267927Y-12065644D01*
X14296498Y-12022787D01*
X14310784Y-11994216D01*
X14325070Y-11951359D01*
X14339356Y-11879930D01*
X14339356Y-11822787D01*
X14325070Y-11751359D01*
X14310784Y-11708501D01*
X14296498Y-11679930D01*
X14267927Y-11637073D01*
X14253641Y-11622787D01*
X6910070Y-12225930D02*
G75*
G03*
X6910070Y-12225930I-44450J0D01*
G01*
X7253641Y-12061644D02*
X7282213Y-12061644D01*
X7310784Y-12075930D01*
X7325070Y-12090216D01*
X7339356Y-12118787D01*
X7353641Y-12175930D01*
X7353641Y-12247359D01*
X7339356Y-12304501D01*
X7325070Y-12333073D01*
X7310784Y-12347359D01*
X7282213Y-12361644D01*
X7253641Y-12361644D01*
X7225070Y-12347359D01*
X7210784Y-12333073D01*
X7196498Y-12304501D01*
X7182213Y-12247359D01*
X7182213Y-12175930D01*
X7196498Y-12118787D01*
X7210784Y-12090216D01*
X7225070Y-12075930D01*
X7253641Y-12061644D01*
X7482213Y-12333073D02*
X7496498Y-12347359D01*
X7482213Y-12361644D01*
X7467927Y-12347359D01*
X7482213Y-12333073D01*
X7482213Y-12361644D01*
X7667927Y-12190216D02*
X7639356Y-12175930D01*
X7625070Y-12161644D01*
X7610784Y-12133073D01*
X7610784Y-12118787D01*
X7625070Y-12090216D01*
X7639356Y-12075930D01*
X7667927Y-12061644D01*
X7725070Y-12061644D01*
X7753641Y-12075930D01*
X7767927Y-12090216D01*
X7782213Y-12118787D01*
X7782213Y-12133073D01*
X7767927Y-12161644D01*
X7753641Y-12175930D01*
X7725070Y-12190216D01*
X7667927Y-12190216D01*
X7639356Y-12204501D01*
X7625070Y-12218787D01*
X7610784Y-12247359D01*
X7610784Y-12304501D01*
X7625070Y-12333073D01*
X7639356Y-12347359D01*
X7667927Y-12361644D01*
X7725070Y-12361644D01*
X7753641Y-12347359D01*
X7767927Y-12333073D01*
X7782213Y-12304501D01*
X7782213Y-12247359D01*
X7767927Y-12218787D01*
X7753641Y-12204501D01*
X7725070Y-12190216D01*
X7953641Y-12190216D02*
X7925070Y-12175930D01*
X7910784Y-12161644D01*
X7896498Y-12133073D01*
X7896498Y-12118787D01*
X7910784Y-12090216D01*
X7925070Y-12075930D01*
X7953641Y-12061644D01*
X8010784Y-12061644D01*
X8039356Y-12075930D01*
X8053641Y-12090216D01*
X8067927Y-12118787D01*
X8067927Y-12133073D01*
X8053641Y-12161644D01*
X8039356Y-12175930D01*
X8010784Y-12190216D01*
X7953641Y-12190216D01*
X7925070Y-12204501D01*
X7910784Y-12218787D01*
X7896498Y-12247359D01*
X7896498Y-12304501D01*
X7910784Y-12333073D01*
X7925070Y-12347359D01*
X7953641Y-12361644D01*
X8010784Y-12361644D01*
X8039356Y-12347359D01*
X8053641Y-12333073D01*
X8067927Y-12304501D01*
X8067927Y-12247359D01*
X8053641Y-12218787D01*
X8039356Y-12204501D01*
X8010784Y-12190216D01*
X8210784Y-12361644D02*
X8267927Y-12361644D01*
X8296498Y-12347359D01*
X8310784Y-12333073D01*
X8339356Y-12290216D01*
X8353641Y-12233073D01*
X8353641Y-12118787D01*
X8339356Y-12090216D01*
X8325070Y-12075930D01*
X8296498Y-12061644D01*
X8239356Y-12061644D01*
X8210784Y-12075930D01*
X8196498Y-12090216D01*
X8182213Y-12118787D01*
X8182213Y-12190216D01*
X8196498Y-12218787D01*
X8210784Y-12233073D01*
X8239356Y-12247359D01*
X8296498Y-12247359D01*
X8325070Y-12233073D01*
X8339356Y-12218787D01*
X8353641Y-12190216D01*
X8482213Y-12361644D02*
X8482213Y-12161644D01*
X8482213Y-12190216D02*
X8496498Y-12175930D01*
X8525070Y-12161644D01*
X8567927Y-12161644D01*
X8596498Y-12175930D01*
X8610784Y-12204501D01*
X8610784Y-12361644D01*
X8610784Y-12204501D02*
X8625070Y-12175930D01*
X8653641Y-12161644D01*
X8696498Y-12161644D01*
X8725070Y-12175930D01*
X8739356Y-12204501D01*
X8739356Y-12361644D01*
X8882213Y-12361644D02*
X8882213Y-12161644D01*
X8882213Y-12190216D02*
X8896498Y-12175930D01*
X8925070Y-12161644D01*
X8967927Y-12161644D01*
X8996498Y-12175930D01*
X9010784Y-12204501D01*
X9010784Y-12361644D01*
X9010784Y-12204501D02*
X9025070Y-12175930D01*
X9053641Y-12161644D01*
X9096498Y-12161644D01*
X9125070Y-12175930D01*
X9139356Y-12204501D01*
X9139356Y-12361644D01*
X9725070Y-12047359D02*
X9467927Y-12433073D01*
X10110784Y-12061644D02*
X10139356Y-12061644D01*
X10167927Y-12075930D01*
X10182213Y-12090216D01*
X10196498Y-12118787D01*
X10210784Y-12175930D01*
X10210784Y-12247359D01*
X10196498Y-12304501D01*
X10182213Y-12333073D01*
X10167927Y-12347359D01*
X10139356Y-12361644D01*
X10110784Y-12361644D01*
X10082213Y-12347359D01*
X10067927Y-12333073D01*
X10053641Y-12304501D01*
X10039356Y-12247359D01*
X10039356Y-12175930D01*
X10053641Y-12118787D01*
X10067927Y-12090216D01*
X10082213Y-12075930D01*
X10110784Y-12061644D01*
X10339356Y-12333073D02*
X10353641Y-12347359D01*
X10339356Y-12361644D01*
X10325070Y-12347359D01*
X10339356Y-12333073D01*
X10339356Y-12361644D01*
X10539356Y-12061644D02*
X10567927Y-12061644D01*
X10596498Y-12075930D01*
X10610784Y-12090216D01*
X10625070Y-12118787D01*
X10639356Y-12175930D01*
X10639356Y-12247359D01*
X10625070Y-12304501D01*
X10610784Y-12333073D01*
X10596498Y-12347359D01*
X10567927Y-12361644D01*
X10539356Y-12361644D01*
X10510784Y-12347359D01*
X10496498Y-12333073D01*
X10482213Y-12304501D01*
X10467927Y-12247359D01*
X10467927Y-12175930D01*
X10482213Y-12118787D01*
X10496498Y-12090216D01*
X10510784Y-12075930D01*
X10539356Y-12061644D01*
X10739356Y-12061644D02*
X10925070Y-12061644D01*
X10825070Y-12175930D01*
X10867927Y-12175930D01*
X10896498Y-12190216D01*
X10910784Y-12204501D01*
X10925070Y-12233073D01*
X10925070Y-12304501D01*
X10910784Y-12333073D01*
X10896498Y-12347359D01*
X10867927Y-12361644D01*
X10782213Y-12361644D01*
X10753641Y-12347359D01*
X10739356Y-12333073D01*
X11196498Y-12061644D02*
X11053641Y-12061644D01*
X11039356Y-12204501D01*
X11053641Y-12190216D01*
X11082213Y-12175930D01*
X11153641Y-12175930D01*
X11182213Y-12190216D01*
X11196498Y-12204501D01*
X11210784Y-12233073D01*
X11210784Y-12304501D01*
X11196498Y-12333073D01*
X11182213Y-12347359D01*
X11153641Y-12361644D01*
X11082213Y-12361644D01*
X11053641Y-12347359D01*
X11039356Y-12333073D01*
X11396498Y-12061644D02*
X11425070Y-12061644D01*
X11453641Y-12075930D01*
X11467927Y-12090216D01*
X11482213Y-12118787D01*
X11496498Y-12175930D01*
X11496498Y-12247359D01*
X11482213Y-12304501D01*
X11467927Y-12333073D01*
X11453641Y-12347359D01*
X11425070Y-12361644D01*
X11396498Y-12361644D01*
X11367927Y-12347359D01*
X11353641Y-12333073D01*
X11339356Y-12304501D01*
X11325070Y-12247359D01*
X11325070Y-12175930D01*
X11339356Y-12118787D01*
X11353641Y-12090216D01*
X11367927Y-12075930D01*
X11396498Y-12061644D01*
X11610784Y-12061644D02*
X11610784Y-12118787D01*
X11725070Y-12061644D02*
X11725070Y-12118787D01*
X12167927Y-12475930D02*
X12153641Y-12461644D01*
X12125070Y-12418787D01*
X12110784Y-12390216D01*
X12096498Y-12347359D01*
X12082213Y-12275930D01*
X12082213Y-12218787D01*
X12096498Y-12147359D01*
X12110784Y-12104501D01*
X12125070Y-12075930D01*
X12153641Y-12033073D01*
X12167927Y-12018787D01*
X12253641Y-12061644D02*
X12439356Y-12061644D01*
X12339356Y-12175930D01*
X12382213Y-12175930D01*
X12410784Y-12190216D01*
X12425070Y-12204501D01*
X12439356Y-12233073D01*
X12439356Y-12304501D01*
X12425070Y-12333073D01*
X12410784Y-12347359D01*
X12382213Y-12361644D01*
X12296498Y-12361644D01*
X12267927Y-12347359D01*
X12253641Y-12333073D01*
X12796498Y-12361644D02*
X12796498Y-12061644D01*
X12925070Y-12361644D02*
X12925070Y-12204501D01*
X12910784Y-12175930D01*
X12882213Y-12161644D01*
X12839356Y-12161644D01*
X12810784Y-12175930D01*
X12796498Y-12190216D01*
X13110784Y-12361644D02*
X13082213Y-12347359D01*
X13067927Y-12333073D01*
X13053641Y-12304501D01*
X13053641Y-12218787D01*
X13067927Y-12190216D01*
X13082213Y-12175930D01*
X13110784Y-12161644D01*
X13153641Y-12161644D01*
X13182213Y-12175930D01*
X13196498Y-12190216D01*
X13210784Y-12218787D01*
X13210784Y-12304501D01*
X13196498Y-12333073D01*
X13182213Y-12347359D01*
X13153641Y-12361644D01*
X13110784Y-12361644D01*
X13382213Y-12361644D02*
X13353641Y-12347359D01*
X13339356Y-12318787D01*
X13339356Y-12061644D01*
X13610784Y-12347359D02*
X13582213Y-12361644D01*
X13525070Y-12361644D01*
X13496498Y-12347359D01*
X13482213Y-12318787D01*
X13482213Y-12204501D01*
X13496498Y-12175930D01*
X13525070Y-12161644D01*
X13582213Y-12161644D01*
X13610784Y-12175930D01*
X13625070Y-12204501D01*
X13625070Y-12233073D01*
X13482213Y-12261644D01*
X13739356Y-12347359D02*
X13767927Y-12361644D01*
X13825070Y-12361644D01*
X13853641Y-12347359D01*
X13867927Y-12318787D01*
X13867927Y-12304501D01*
X13853641Y-12275930D01*
X13825070Y-12261644D01*
X13782213Y-12261644D01*
X13753641Y-12247359D01*
X13739356Y-12218787D01*
X13739356Y-12204501D01*
X13753641Y-12175930D01*
X13782213Y-12161644D01*
X13825070Y-12161644D01*
X13853641Y-12175930D01*
X13967927Y-12475930D02*
X13982213Y-12461644D01*
X14010784Y-12418787D01*
X14025070Y-12390216D01*
X14039356Y-12347359D01*
X14053641Y-12275930D01*
X14053641Y-12218787D01*
X14039356Y-12147359D01*
X14025070Y-12104501D01*
X14010784Y-12075930D01*
X13982213Y-12033073D01*
X13967927Y-12018787D01*
X6859270Y-12571130D02*
X6859270Y-12672730D01*
X6808470Y-12621930D02*
X6910070Y-12621930D01*
X7353641Y-12757644D02*
X7182213Y-12757644D01*
X7267927Y-12757644D02*
X7267927Y-12457644D01*
X7239356Y-12500501D01*
X7210784Y-12529073D01*
X7182213Y-12543359D01*
X7482213Y-12729073D02*
X7496498Y-12743359D01*
X7482213Y-12757644D01*
X7467927Y-12743359D01*
X7482213Y-12729073D01*
X7482213Y-12757644D01*
X7682213Y-12457644D02*
X7710784Y-12457644D01*
X7739356Y-12471930D01*
X7753641Y-12486216D01*
X7767927Y-12514787D01*
X7782213Y-12571930D01*
X7782213Y-12643359D01*
X7767927Y-12700501D01*
X7753641Y-12729073D01*
X7739356Y-12743359D01*
X7710784Y-12757644D01*
X7682213Y-12757644D01*
X7653641Y-12743359D01*
X7639356Y-12729073D01*
X7625070Y-12700501D01*
X7610784Y-12643359D01*
X7610784Y-12571930D01*
X7625070Y-12514787D01*
X7639356Y-12486216D01*
X7653641Y-12471930D01*
X7682213Y-12457644D01*
X8067927Y-12757644D02*
X7896498Y-12757644D01*
X7982213Y-12757644D02*
X7982213Y-12457644D01*
X7953641Y-12500501D01*
X7925070Y-12529073D01*
X7896498Y-12543359D01*
X8325070Y-12457644D02*
X8267927Y-12457644D01*
X8239356Y-12471930D01*
X8225070Y-12486216D01*
X8196498Y-12529073D01*
X8182213Y-12586216D01*
X8182213Y-12700501D01*
X8196498Y-12729073D01*
X8210784Y-12743359D01*
X8239356Y-12757644D01*
X8296498Y-12757644D01*
X8325070Y-12743359D01*
X8339356Y-12729073D01*
X8353641Y-12700501D01*
X8353641Y-12629073D01*
X8339356Y-12600501D01*
X8325070Y-12586216D01*
X8296498Y-12571930D01*
X8239356Y-12571930D01*
X8210784Y-12586216D01*
X8196498Y-12600501D01*
X8182213Y-12629073D01*
X8482213Y-12757644D02*
X8482213Y-12557644D01*
X8482213Y-12586216D02*
X8496498Y-12571930D01*
X8525070Y-12557644D01*
X8567927Y-12557644D01*
X8596498Y-12571930D01*
X8610784Y-12600501D01*
X8610784Y-12757644D01*
X8610784Y-12600501D02*
X8625070Y-12571930D01*
X8653641Y-12557644D01*
X8696498Y-12557644D01*
X8725070Y-12571930D01*
X8739356Y-12600501D01*
X8739356Y-12757644D01*
X8882213Y-12757644D02*
X8882213Y-12557644D01*
X8882213Y-12586216D02*
X8896498Y-12571930D01*
X8925070Y-12557644D01*
X8967927Y-12557644D01*
X8996498Y-12571930D01*
X9010784Y-12600501D01*
X9010784Y-12757644D01*
X9010784Y-12600501D02*
X9025070Y-12571930D01*
X9053641Y-12557644D01*
X9096498Y-12557644D01*
X9125070Y-12571930D01*
X9139356Y-12600501D01*
X9139356Y-12757644D01*
X9725070Y-12443359D02*
X9467927Y-12829073D01*
X10110784Y-12457644D02*
X10139356Y-12457644D01*
X10167927Y-12471930D01*
X10182213Y-12486216D01*
X10196498Y-12514787D01*
X10210784Y-12571930D01*
X10210784Y-12643359D01*
X10196498Y-12700501D01*
X10182213Y-12729073D01*
X10167927Y-12743359D01*
X10139356Y-12757644D01*
X10110784Y-12757644D01*
X10082213Y-12743359D01*
X10067927Y-12729073D01*
X10053641Y-12700501D01*
X10039356Y-12643359D01*
X10039356Y-12571930D01*
X10053641Y-12514787D01*
X10067927Y-12486216D01*
X10082213Y-12471930D01*
X10110784Y-12457644D01*
X10339356Y-12729073D02*
X10353641Y-12743359D01*
X10339356Y-12757644D01*
X10325070Y-12743359D01*
X10339356Y-12729073D01*
X10339356Y-12757644D01*
X10539356Y-12457644D02*
X10567927Y-12457644D01*
X10596498Y-12471930D01*
X10610784Y-12486216D01*
X10625070Y-12514787D01*
X10639356Y-12571930D01*
X10639356Y-12643359D01*
X10625070Y-12700501D01*
X10610784Y-12729073D01*
X10596498Y-12743359D01*
X10567927Y-12757644D01*
X10539356Y-12757644D01*
X10510784Y-12743359D01*
X10496498Y-12729073D01*
X10482213Y-12700501D01*
X10467927Y-12643359D01*
X10467927Y-12571930D01*
X10482213Y-12514787D01*
X10496498Y-12486216D01*
X10510784Y-12471930D01*
X10539356Y-12457644D01*
X10896498Y-12557644D02*
X10896498Y-12757644D01*
X10825070Y-12443359D02*
X10753641Y-12657644D01*
X10939356Y-12657644D01*
X11110784Y-12457644D02*
X11139356Y-12457644D01*
X11167927Y-12471930D01*
X11182213Y-12486216D01*
X11196498Y-12514787D01*
X11210784Y-12571930D01*
X11210784Y-12643359D01*
X11196498Y-12700501D01*
X11182213Y-12729073D01*
X11167927Y-12743359D01*
X11139356Y-12757644D01*
X11110784Y-12757644D01*
X11082213Y-12743359D01*
X11067927Y-12729073D01*
X11053641Y-12700501D01*
X11039356Y-12643359D01*
X11039356Y-12571930D01*
X11053641Y-12514787D01*
X11067927Y-12486216D01*
X11082213Y-12471930D01*
X11110784Y-12457644D01*
X11396498Y-12457644D02*
X11425070Y-12457644D01*
X11453641Y-12471930D01*
X11467927Y-12486216D01*
X11482213Y-12514787D01*
X11496498Y-12571930D01*
X11496498Y-12643359D01*
X11482213Y-12700501D01*
X11467927Y-12729073D01*
X11453641Y-12743359D01*
X11425070Y-12757644D01*
X11396498Y-12757644D01*
X11367927Y-12743359D01*
X11353641Y-12729073D01*
X11339356Y-12700501D01*
X11325070Y-12643359D01*
X11325070Y-12571930D01*
X11339356Y-12514787D01*
X11353641Y-12486216D01*
X11367927Y-12471930D01*
X11396498Y-12457644D01*
X11610784Y-12457644D02*
X11610784Y-12514787D01*
X11725070Y-12457644D02*
X11725070Y-12514787D01*
X12167927Y-12871930D02*
X12153641Y-12857644D01*
X12125070Y-12814787D01*
X12110784Y-12786216D01*
X12096498Y-12743359D01*
X12082213Y-12671930D01*
X12082213Y-12614787D01*
X12096498Y-12543359D01*
X12110784Y-12500501D01*
X12125070Y-12471930D01*
X12153641Y-12429073D01*
X12167927Y-12414787D01*
X12267927Y-12486216D02*
X12282213Y-12471930D01*
X12310784Y-12457644D01*
X12382213Y-12457644D01*
X12410784Y-12471930D01*
X12425070Y-12486216D01*
X12439356Y-12514787D01*
X12439356Y-12543359D01*
X12425070Y-12586216D01*
X12253641Y-12757644D01*
X12439356Y-12757644D01*
X12539356Y-12457644D02*
X12739356Y-12457644D01*
X12610784Y-12757644D01*
X13082213Y-12757644D02*
X13082213Y-12457644D01*
X13210784Y-12757644D02*
X13210784Y-12600501D01*
X13196498Y-12571930D01*
X13167927Y-12557644D01*
X13125070Y-12557644D01*
X13096498Y-12571930D01*
X13082213Y-12586216D01*
X13396498Y-12757644D02*
X13367927Y-12743359D01*
X13353641Y-12729073D01*
X13339356Y-12700501D01*
X13339356Y-12614787D01*
X13353641Y-12586216D01*
X13367927Y-12571930D01*
X13396498Y-12557644D01*
X13439356Y-12557644D01*
X13467927Y-12571930D01*
X13482213Y-12586216D01*
X13496498Y-12614787D01*
X13496498Y-12700501D01*
X13482213Y-12729073D01*
X13467927Y-12743359D01*
X13439356Y-12757644D01*
X13396498Y-12757644D01*
X13667927Y-12757644D02*
X13639356Y-12743359D01*
X13625070Y-12714787D01*
X13625070Y-12457644D01*
X13896498Y-12743359D02*
X13867927Y-12757644D01*
X13810784Y-12757644D01*
X13782213Y-12743359D01*
X13767927Y-12714787D01*
X13767927Y-12600501D01*
X13782213Y-12571930D01*
X13810784Y-12557644D01*
X13867927Y-12557644D01*
X13896498Y-12571930D01*
X13910784Y-12600501D01*
X13910784Y-12629073D01*
X13767927Y-12657644D01*
X14025070Y-12743359D02*
X14053641Y-12757644D01*
X14110784Y-12757644D01*
X14139356Y-12743359D01*
X14153641Y-12714787D01*
X14153641Y-12700501D01*
X14139356Y-12671930D01*
X14110784Y-12657644D01*
X14067927Y-12657644D01*
X14039356Y-12643359D01*
X14025070Y-12614787D01*
X14025070Y-12600501D01*
X14039356Y-12571930D01*
X14067927Y-12557644D01*
X14110784Y-12557644D01*
X14139356Y-12571930D01*
X14253641Y-12871930D02*
X14267927Y-12857644D01*
X14296498Y-12814787D01*
X14310784Y-12786216D01*
X14325070Y-12743359D01*
X14339356Y-12671930D01*
X14339356Y-12614787D01*
X14325070Y-12543359D01*
X14310784Y-12500501D01*
X14296498Y-12471930D01*
X14267927Y-12429073D01*
X14253641Y-12414787D01*
X6889568Y-13067428D02*
X6889568Y-12968432D01*
X6790572Y-12968432D01*
X6790572Y-13067428D01*
X6889568Y-13067428D01*
X7353641Y-13153644D02*
X7182213Y-13153644D01*
X7267927Y-13153644D02*
X7267927Y-12853644D01*
X7239356Y-12896501D01*
X7210784Y-12925073D01*
X7182213Y-12939359D01*
X7482213Y-13125073D02*
X7496498Y-13139359D01*
X7482213Y-13153644D01*
X7467927Y-13139359D01*
X7482213Y-13125073D01*
X7482213Y-13153644D01*
X7753641Y-12953644D02*
X7753641Y-13153644D01*
X7682213Y-12839359D02*
X7610784Y-13053644D01*
X7796498Y-13053644D01*
X7967927Y-12853644D02*
X7996498Y-12853644D01*
X8025070Y-12867930D01*
X8039356Y-12882216D01*
X8053641Y-12910787D01*
X8067927Y-12967930D01*
X8067927Y-13039359D01*
X8053641Y-13096501D01*
X8039356Y-13125073D01*
X8025070Y-13139359D01*
X7996498Y-13153644D01*
X7967927Y-13153644D01*
X7939356Y-13139359D01*
X7925070Y-13125073D01*
X7910784Y-13096501D01*
X7896498Y-13039359D01*
X7896498Y-12967930D01*
X7910784Y-12910787D01*
X7925070Y-12882216D01*
X7939356Y-12867930D01*
X7967927Y-12853644D01*
X8253641Y-12853644D02*
X8282213Y-12853644D01*
X8310784Y-12867930D01*
X8325070Y-12882216D01*
X8339356Y-12910787D01*
X8353641Y-12967930D01*
X8353641Y-13039359D01*
X8339356Y-13096501D01*
X8325070Y-13125073D01*
X8310784Y-13139359D01*
X8282213Y-13153644D01*
X8253641Y-13153644D01*
X8225070Y-13139359D01*
X8210784Y-13125073D01*
X8196498Y-13096501D01*
X8182213Y-13039359D01*
X8182213Y-12967930D01*
X8196498Y-12910787D01*
X8210784Y-12882216D01*
X8225070Y-12867930D01*
X8253641Y-12853644D01*
X8482213Y-13153644D02*
X8482213Y-12953644D01*
X8482213Y-12982216D02*
X8496498Y-12967930D01*
X8525070Y-12953644D01*
X8567927Y-12953644D01*
X8596498Y-12967930D01*
X8610784Y-12996501D01*
X8610784Y-13153644D01*
X8610784Y-12996501D02*
X8625070Y-12967930D01*
X8653641Y-12953644D01*
X8696498Y-12953644D01*
X8725070Y-12967930D01*
X8739356Y-12996501D01*
X8739356Y-13153644D01*
X8882213Y-13153644D02*
X8882213Y-12953644D01*
X8882213Y-12982216D02*
X8896498Y-12967930D01*
X8925070Y-12953644D01*
X8967927Y-12953644D01*
X8996498Y-12967930D01*
X9010784Y-12996501D01*
X9010784Y-13153644D01*
X9010784Y-12996501D02*
X9025070Y-12967930D01*
X9053641Y-12953644D01*
X9096498Y-12953644D01*
X9125070Y-12967930D01*
X9139356Y-12996501D01*
X9139356Y-13153644D01*
X9725070Y-12839359D02*
X9467927Y-13225073D01*
X10110784Y-12853644D02*
X10139356Y-12853644D01*
X10167927Y-12867930D01*
X10182213Y-12882216D01*
X10196498Y-12910787D01*
X10210784Y-12967930D01*
X10210784Y-13039359D01*
X10196498Y-13096501D01*
X10182213Y-13125073D01*
X10167927Y-13139359D01*
X10139356Y-13153644D01*
X10110784Y-13153644D01*
X10082213Y-13139359D01*
X10067927Y-13125073D01*
X10053641Y-13096501D01*
X10039356Y-13039359D01*
X10039356Y-12967930D01*
X10053641Y-12910787D01*
X10067927Y-12882216D01*
X10082213Y-12867930D01*
X10110784Y-12853644D01*
X10339356Y-13125073D02*
X10353641Y-13139359D01*
X10339356Y-13153644D01*
X10325070Y-13139359D01*
X10339356Y-13125073D01*
X10339356Y-13153644D01*
X10539356Y-12853644D02*
X10567927Y-12853644D01*
X10596498Y-12867930D01*
X10610784Y-12882216D01*
X10625070Y-12910787D01*
X10639356Y-12967930D01*
X10639356Y-13039359D01*
X10625070Y-13096501D01*
X10610784Y-13125073D01*
X10596498Y-13139359D01*
X10567927Y-13153644D01*
X10539356Y-13153644D01*
X10510784Y-13139359D01*
X10496498Y-13125073D01*
X10482213Y-13096501D01*
X10467927Y-13039359D01*
X10467927Y-12967930D01*
X10482213Y-12910787D01*
X10496498Y-12882216D01*
X10510784Y-12867930D01*
X10539356Y-12853644D01*
X10910784Y-12853644D02*
X10767927Y-12853644D01*
X10753641Y-12996501D01*
X10767927Y-12982216D01*
X10796498Y-12967930D01*
X10867927Y-12967930D01*
X10896498Y-12982216D01*
X10910784Y-12996501D01*
X10925070Y-13025073D01*
X10925070Y-13096501D01*
X10910784Y-13125073D01*
X10896498Y-13139359D01*
X10867927Y-13153644D01*
X10796498Y-13153644D01*
X10767927Y-13139359D01*
X10753641Y-13125073D01*
X11196498Y-12853644D02*
X11053641Y-12853644D01*
X11039356Y-12996501D01*
X11053641Y-12982216D01*
X11082213Y-12967930D01*
X11153641Y-12967930D01*
X11182213Y-12982216D01*
X11196498Y-12996501D01*
X11210784Y-13025073D01*
X11210784Y-13096501D01*
X11196498Y-13125073D01*
X11182213Y-13139359D01*
X11153641Y-13153644D01*
X11082213Y-13153644D01*
X11053641Y-13139359D01*
X11039356Y-13125073D01*
X11496498Y-13153644D02*
X11325070Y-13153644D01*
X11410784Y-13153644D02*
X11410784Y-12853644D01*
X11382213Y-12896501D01*
X11353641Y-12925073D01*
X11325070Y-12939359D01*
X11610784Y-12853644D02*
X11610784Y-12910787D01*
X11725070Y-12853644D02*
X11725070Y-12910787D01*
X12167927Y-13267930D02*
X12153641Y-13253644D01*
X12125070Y-13210787D01*
X12110784Y-13182216D01*
X12096498Y-13139359D01*
X12082213Y-13067930D01*
X12082213Y-13010787D01*
X12096498Y-12939359D01*
X12110784Y-12896501D01*
X12125070Y-12867930D01*
X12153641Y-12825073D01*
X12167927Y-12810787D01*
X12267927Y-12882216D02*
X12282213Y-12867930D01*
X12310784Y-12853644D01*
X12382213Y-12853644D01*
X12410784Y-12867930D01*
X12425070Y-12882216D01*
X12439356Y-12910787D01*
X12439356Y-12939359D01*
X12425070Y-12982216D01*
X12253641Y-13153644D01*
X12439356Y-13153644D01*
X12796498Y-13153644D02*
X12796498Y-12853644D01*
X12925070Y-13153644D02*
X12925070Y-12996501D01*
X12910784Y-12967930D01*
X12882213Y-12953644D01*
X12839356Y-12953644D01*
X12810784Y-12967930D01*
X12796498Y-12982216D01*
X13110784Y-13153644D02*
X13082213Y-13139359D01*
X13067927Y-13125073D01*
X13053641Y-13096501D01*
X13053641Y-13010787D01*
X13067927Y-12982216D01*
X13082213Y-12967930D01*
X13110784Y-12953644D01*
X13153641Y-12953644D01*
X13182213Y-12967930D01*
X13196498Y-12982216D01*
X13210784Y-13010787D01*
X13210784Y-13096501D01*
X13196498Y-13125073D01*
X13182213Y-13139359D01*
X13153641Y-13153644D01*
X13110784Y-13153644D01*
X13382213Y-13153644D02*
X13353641Y-13139359D01*
X13339356Y-13110787D01*
X13339356Y-12853644D01*
X13610784Y-13139359D02*
X13582213Y-13153644D01*
X13525070Y-13153644D01*
X13496498Y-13139359D01*
X13482213Y-13110787D01*
X13482213Y-12996501D01*
X13496498Y-12967930D01*
X13525070Y-12953644D01*
X13582213Y-12953644D01*
X13610784Y-12967930D01*
X13625070Y-12996501D01*
X13625070Y-13025073D01*
X13482213Y-13053644D01*
X13739356Y-13139359D02*
X13767927Y-13153644D01*
X13825070Y-13153644D01*
X13853641Y-13139359D01*
X13867927Y-13110787D01*
X13867927Y-13096501D01*
X13853641Y-13067930D01*
X13825070Y-13053644D01*
X13782213Y-13053644D01*
X13753641Y-13039359D01*
X13739356Y-13010787D01*
X13739356Y-12996501D01*
X13753641Y-12967930D01*
X13782213Y-12953644D01*
X13825070Y-12953644D01*
X13853641Y-12967930D01*
X13967927Y-13267930D02*
X13982213Y-13253644D01*
X14010784Y-13210787D01*
X14025070Y-13182216D01*
X14039356Y-13139359D01*
X14053641Y-13067930D01*
X14053641Y-13010787D01*
X14039356Y-12939359D01*
X14025070Y-12896501D01*
X14010784Y-12867930D01*
X13982213Y-12825073D01*
X13967927Y-12810787D01*
X6832600Y-13491400D02*
X6910070Y-13413930D01*
X6832600Y-13336460D01*
X6755130Y-13413930D01*
X6832600Y-13491400D01*
X7353641Y-13549644D02*
X7182213Y-13549644D01*
X7267927Y-13549644D02*
X7267927Y-13249644D01*
X7239356Y-13292501D01*
X7210784Y-13321073D01*
X7182213Y-13335359D01*
X7482213Y-13521073D02*
X7496498Y-13535359D01*
X7482213Y-13549644D01*
X7467927Y-13535359D01*
X7482213Y-13521073D01*
X7482213Y-13549644D01*
X7767927Y-13249644D02*
X7625070Y-13249644D01*
X7610784Y-13392501D01*
X7625070Y-13378216D01*
X7653641Y-13363930D01*
X7725070Y-13363930D01*
X7753641Y-13378216D01*
X7767927Y-13392501D01*
X7782213Y-13421073D01*
X7782213Y-13492501D01*
X7767927Y-13521073D01*
X7753641Y-13535359D01*
X7725070Y-13549644D01*
X7653641Y-13549644D01*
X7625070Y-13535359D01*
X7610784Y-13521073D01*
X8039356Y-13349644D02*
X8039356Y-13549644D01*
X7967927Y-13235359D02*
X7896498Y-13449644D01*
X8082213Y-13449644D01*
X8210784Y-13549644D02*
X8267927Y-13549644D01*
X8296498Y-13535359D01*
X8310784Y-13521073D01*
X8339356Y-13478216D01*
X8353641Y-13421073D01*
X8353641Y-13306787D01*
X8339356Y-13278216D01*
X8325070Y-13263930D01*
X8296498Y-13249644D01*
X8239356Y-13249644D01*
X8210784Y-13263930D01*
X8196498Y-13278216D01*
X8182213Y-13306787D01*
X8182213Y-13378216D01*
X8196498Y-13406787D01*
X8210784Y-13421073D01*
X8239356Y-13435359D01*
X8296498Y-13435359D01*
X8325070Y-13421073D01*
X8339356Y-13406787D01*
X8353641Y-13378216D01*
X8482213Y-13549644D02*
X8482213Y-13349644D01*
X8482213Y-13378216D02*
X8496498Y-13363930D01*
X8525070Y-13349644D01*
X8567927Y-13349644D01*
X8596498Y-13363930D01*
X8610784Y-13392501D01*
X8610784Y-13549644D01*
X8610784Y-13392501D02*
X8625070Y-13363930D01*
X8653641Y-13349644D01*
X8696498Y-13349644D01*
X8725070Y-13363930D01*
X8739356Y-13392501D01*
X8739356Y-13549644D01*
X8882213Y-13549644D02*
X8882213Y-13349644D01*
X8882213Y-13378216D02*
X8896498Y-13363930D01*
X8925070Y-13349644D01*
X8967927Y-13349644D01*
X8996498Y-13363930D01*
X9010784Y-13392501D01*
X9010784Y-13549644D01*
X9010784Y-13392501D02*
X9025070Y-13363930D01*
X9053641Y-13349644D01*
X9096498Y-13349644D01*
X9125070Y-13363930D01*
X9139356Y-13392501D01*
X9139356Y-13549644D01*
X9725070Y-13235359D02*
X9467927Y-13621073D01*
X10110784Y-13249644D02*
X10139356Y-13249644D01*
X10167927Y-13263930D01*
X10182213Y-13278216D01*
X10196498Y-13306787D01*
X10210784Y-13363930D01*
X10210784Y-13435359D01*
X10196498Y-13492501D01*
X10182213Y-13521073D01*
X10167927Y-13535359D01*
X10139356Y-13549644D01*
X10110784Y-13549644D01*
X10082213Y-13535359D01*
X10067927Y-13521073D01*
X10053641Y-13492501D01*
X10039356Y-13435359D01*
X10039356Y-13363930D01*
X10053641Y-13306787D01*
X10067927Y-13278216D01*
X10082213Y-13263930D01*
X10110784Y-13249644D01*
X10339356Y-13521073D02*
X10353641Y-13535359D01*
X10339356Y-13549644D01*
X10325070Y-13535359D01*
X10339356Y-13521073D01*
X10339356Y-13549644D01*
X10539356Y-13249644D02*
X10567927Y-13249644D01*
X10596498Y-13263930D01*
X10610784Y-13278216D01*
X10625070Y-13306787D01*
X10639356Y-13363930D01*
X10639356Y-13435359D01*
X10625070Y-13492501D01*
X10610784Y-13521073D01*
X10596498Y-13535359D01*
X10567927Y-13549644D01*
X10539356Y-13549644D01*
X10510784Y-13535359D01*
X10496498Y-13521073D01*
X10482213Y-13492501D01*
X10467927Y-13435359D01*
X10467927Y-13363930D01*
X10482213Y-13306787D01*
X10496498Y-13278216D01*
X10510784Y-13263930D01*
X10539356Y-13249644D01*
X10896498Y-13249644D02*
X10839356Y-13249644D01*
X10810784Y-13263930D01*
X10796498Y-13278216D01*
X10767927Y-13321073D01*
X10753641Y-13378216D01*
X10753641Y-13492501D01*
X10767927Y-13521073D01*
X10782213Y-13535359D01*
X10810784Y-13549644D01*
X10867927Y-13549644D01*
X10896498Y-13535359D01*
X10910784Y-13521073D01*
X10925070Y-13492501D01*
X10925070Y-13421073D01*
X10910784Y-13392501D01*
X10896498Y-13378216D01*
X10867927Y-13363930D01*
X10810784Y-13363930D01*
X10782213Y-13378216D01*
X10767927Y-13392501D01*
X10753641Y-13421073D01*
X11210784Y-13549644D02*
X11039356Y-13549644D01*
X11125070Y-13549644D02*
X11125070Y-13249644D01*
X11096498Y-13292501D01*
X11067927Y-13321073D01*
X11039356Y-13335359D01*
X11396498Y-13249644D02*
X11425070Y-13249644D01*
X11453641Y-13263930D01*
X11467927Y-13278216D01*
X11482213Y-13306787D01*
X11496498Y-13363930D01*
X11496498Y-13435359D01*
X11482213Y-13492501D01*
X11467927Y-13521073D01*
X11453641Y-13535359D01*
X11425070Y-13549644D01*
X11396498Y-13549644D01*
X11367927Y-13535359D01*
X11353641Y-13521073D01*
X11339356Y-13492501D01*
X11325070Y-13435359D01*
X11325070Y-13363930D01*
X11339356Y-13306787D01*
X11353641Y-13278216D01*
X11367927Y-13263930D01*
X11396498Y-13249644D01*
X11610784Y-13249644D02*
X11610784Y-13306787D01*
X11725070Y-13249644D02*
X11725070Y-13306787D01*
X12167927Y-13663930D02*
X12153641Y-13649644D01*
X12125070Y-13606787D01*
X12110784Y-13578216D01*
X12096498Y-13535359D01*
X12082213Y-13463930D01*
X12082213Y-13406787D01*
X12096498Y-13335359D01*
X12110784Y-13292501D01*
X12125070Y-13263930D01*
X12153641Y-13221073D01*
X12167927Y-13206787D01*
X12267927Y-13278216D02*
X12282213Y-13263930D01*
X12310784Y-13249644D01*
X12382213Y-13249644D01*
X12410784Y-13263930D01*
X12425070Y-13278216D01*
X12439356Y-13306787D01*
X12439356Y-13335359D01*
X12425070Y-13378216D01*
X12253641Y-13549644D01*
X12439356Y-13549644D01*
X12610784Y-13378216D02*
X12582213Y-13363930D01*
X12567927Y-13349644D01*
X12553641Y-13321073D01*
X12553641Y-13306787D01*
X12567927Y-13278216D01*
X12582213Y-13263930D01*
X12610784Y-13249644D01*
X12667927Y-13249644D01*
X12696498Y-13263930D01*
X12710784Y-13278216D01*
X12725070Y-13306787D01*
X12725070Y-13321073D01*
X12710784Y-13349644D01*
X12696498Y-13363930D01*
X12667927Y-13378216D01*
X12610784Y-13378216D01*
X12582213Y-13392501D01*
X12567927Y-13406787D01*
X12553641Y-13435359D01*
X12553641Y-13492501D01*
X12567927Y-13521073D01*
X12582213Y-13535359D01*
X12610784Y-13549644D01*
X12667927Y-13549644D01*
X12696498Y-13535359D01*
X12710784Y-13521073D01*
X12725070Y-13492501D01*
X12725070Y-13435359D01*
X12710784Y-13406787D01*
X12696498Y-13392501D01*
X12667927Y-13378216D01*
X13082213Y-13549644D02*
X13082213Y-13249644D01*
X13210784Y-13549644D02*
X13210784Y-13392501D01*
X13196498Y-13363930D01*
X13167927Y-13349644D01*
X13125070Y-13349644D01*
X13096498Y-13363930D01*
X13082213Y-13378216D01*
X13396498Y-13549644D02*
X13367927Y-13535359D01*
X13353641Y-13521073D01*
X13339356Y-13492501D01*
X13339356Y-13406787D01*
X13353641Y-13378216D01*
X13367927Y-13363930D01*
X13396498Y-13349644D01*
X13439356Y-13349644D01*
X13467927Y-13363930D01*
X13482213Y-13378216D01*
X13496498Y-13406787D01*
X13496498Y-13492501D01*
X13482213Y-13521073D01*
X13467927Y-13535359D01*
X13439356Y-13549644D01*
X13396498Y-13549644D01*
X13667927Y-13549644D02*
X13639356Y-13535359D01*
X13625070Y-13506787D01*
X13625070Y-13249644D01*
X13896498Y-13535359D02*
X13867927Y-13549644D01*
X13810784Y-13549644D01*
X13782213Y-13535359D01*
X13767927Y-13506787D01*
X13767927Y-13392501D01*
X13782213Y-13363930D01*
X13810784Y-13349644D01*
X13867927Y-13349644D01*
X13896498Y-13363930D01*
X13910784Y-13392501D01*
X13910784Y-13421073D01*
X13767927Y-13449644D01*
X14025070Y-13535359D02*
X14053641Y-13549644D01*
X14110784Y-13549644D01*
X14139356Y-13535359D01*
X14153641Y-13506787D01*
X14153641Y-13492501D01*
X14139356Y-13463930D01*
X14110784Y-13449644D01*
X14067927Y-13449644D01*
X14039356Y-13435359D01*
X14025070Y-13406787D01*
X14025070Y-13392501D01*
X14039356Y-13363930D01*
X14067927Y-13349644D01*
X14110784Y-13349644D01*
X14139356Y-13363930D01*
X14253641Y-13663930D02*
X14267927Y-13649644D01*
X14296498Y-13606787D01*
X14310784Y-13578216D01*
X14325070Y-13535359D01*
X14339356Y-13463930D01*
X14339356Y-13406787D01*
X14325070Y-13335359D01*
X14310784Y-13292501D01*
X14296498Y-13263930D01*
X14267927Y-13221073D01*
X14253641Y-13206787D01*
X6740070Y-13724930D02*
X6910070Y-13894930D01*
X6910070Y-13724930D02*
X6740070Y-13894930D01*
X6910070Y-13809930D02*
G75*
G03*
X6910070Y-13809930I-85000J0D01*
G01*
X7353641Y-13945644D02*
X7182213Y-13945644D01*
X7267927Y-13945644D02*
X7267927Y-13645644D01*
X7239356Y-13688501D01*
X7210784Y-13717073D01*
X7182213Y-13731359D01*
X7482213Y-13917073D02*
X7496498Y-13931359D01*
X7482213Y-13945644D01*
X7467927Y-13931359D01*
X7482213Y-13917073D01*
X7482213Y-13945644D01*
X7596498Y-13645644D02*
X7796498Y-13645644D01*
X7667927Y-13945644D01*
X7967927Y-13645644D02*
X7996498Y-13645644D01*
X8025070Y-13659930D01*
X8039356Y-13674216D01*
X8053641Y-13702787D01*
X8067927Y-13759930D01*
X8067927Y-13831359D01*
X8053641Y-13888501D01*
X8039356Y-13917073D01*
X8025070Y-13931359D01*
X7996498Y-13945644D01*
X7967927Y-13945644D01*
X7939356Y-13931359D01*
X7925070Y-13917073D01*
X7910784Y-13888501D01*
X7896498Y-13831359D01*
X7896498Y-13759930D01*
X7910784Y-13702787D01*
X7925070Y-13674216D01*
X7939356Y-13659930D01*
X7967927Y-13645644D01*
X8253641Y-13645644D02*
X8282213Y-13645644D01*
X8310784Y-13659930D01*
X8325070Y-13674216D01*
X8339356Y-13702787D01*
X8353641Y-13759930D01*
X8353641Y-13831359D01*
X8339356Y-13888501D01*
X8325070Y-13917073D01*
X8310784Y-13931359D01*
X8282213Y-13945644D01*
X8253641Y-13945644D01*
X8225070Y-13931359D01*
X8210784Y-13917073D01*
X8196498Y-13888501D01*
X8182213Y-13831359D01*
X8182213Y-13759930D01*
X8196498Y-13702787D01*
X8210784Y-13674216D01*
X8225070Y-13659930D01*
X8253641Y-13645644D01*
X8482213Y-13945644D02*
X8482213Y-13745644D01*
X8482213Y-13774216D02*
X8496498Y-13759930D01*
X8525070Y-13745644D01*
X8567927Y-13745644D01*
X8596498Y-13759930D01*
X8610784Y-13788501D01*
X8610784Y-13945644D01*
X8610784Y-13788501D02*
X8625070Y-13759930D01*
X8653641Y-13745644D01*
X8696498Y-13745644D01*
X8725070Y-13759930D01*
X8739356Y-13788501D01*
X8739356Y-13945644D01*
X8882213Y-13945644D02*
X8882213Y-13745644D01*
X8882213Y-13774216D02*
X8896498Y-13759930D01*
X8925070Y-13745644D01*
X8967927Y-13745644D01*
X8996498Y-13759930D01*
X9010784Y-13788501D01*
X9010784Y-13945644D01*
X9010784Y-13788501D02*
X9025070Y-13759930D01*
X9053641Y-13745644D01*
X9096498Y-13745644D01*
X9125070Y-13759930D01*
X9139356Y-13788501D01*
X9139356Y-13945644D01*
X9725070Y-13631359D02*
X9467927Y-14017073D01*
X10110784Y-13645644D02*
X10139356Y-13645644D01*
X10167927Y-13659930D01*
X10182213Y-13674216D01*
X10196498Y-13702787D01*
X10210784Y-13759930D01*
X10210784Y-13831359D01*
X10196498Y-13888501D01*
X10182213Y-13917073D01*
X10167927Y-13931359D01*
X10139356Y-13945644D01*
X10110784Y-13945644D01*
X10082213Y-13931359D01*
X10067927Y-13917073D01*
X10053641Y-13888501D01*
X10039356Y-13831359D01*
X10039356Y-13759930D01*
X10053641Y-13702787D01*
X10067927Y-13674216D01*
X10082213Y-13659930D01*
X10110784Y-13645644D01*
X10339356Y-13917073D02*
X10353641Y-13931359D01*
X10339356Y-13945644D01*
X10325070Y-13931359D01*
X10339356Y-13917073D01*
X10339356Y-13945644D01*
X10539356Y-13645644D02*
X10567927Y-13645644D01*
X10596498Y-13659930D01*
X10610784Y-13674216D01*
X10625070Y-13702787D01*
X10639356Y-13759930D01*
X10639356Y-13831359D01*
X10625070Y-13888501D01*
X10610784Y-13917073D01*
X10596498Y-13931359D01*
X10567927Y-13945644D01*
X10539356Y-13945644D01*
X10510784Y-13931359D01*
X10496498Y-13917073D01*
X10482213Y-13888501D01*
X10467927Y-13831359D01*
X10467927Y-13759930D01*
X10482213Y-13702787D01*
X10496498Y-13674216D01*
X10510784Y-13659930D01*
X10539356Y-13645644D01*
X10896498Y-13645644D02*
X10839356Y-13645644D01*
X10810784Y-13659930D01*
X10796498Y-13674216D01*
X10767927Y-13717073D01*
X10753641Y-13774216D01*
X10753641Y-13888501D01*
X10767927Y-13917073D01*
X10782213Y-13931359D01*
X10810784Y-13945644D01*
X10867927Y-13945644D01*
X10896498Y-13931359D01*
X10910784Y-13917073D01*
X10925070Y-13888501D01*
X10925070Y-13817073D01*
X10910784Y-13788501D01*
X10896498Y-13774216D01*
X10867927Y-13759930D01*
X10810784Y-13759930D01*
X10782213Y-13774216D01*
X10767927Y-13788501D01*
X10753641Y-13817073D01*
X11182213Y-13645644D02*
X11125070Y-13645644D01*
X11096498Y-13659930D01*
X11082213Y-13674216D01*
X11053641Y-13717073D01*
X11039356Y-13774216D01*
X11039356Y-13888501D01*
X11053641Y-13917073D01*
X11067927Y-13931359D01*
X11096498Y-13945644D01*
X11153641Y-13945644D01*
X11182213Y-13931359D01*
X11196498Y-13917073D01*
X11210784Y-13888501D01*
X11210784Y-13817073D01*
X11196498Y-13788501D01*
X11182213Y-13774216D01*
X11153641Y-13759930D01*
X11096498Y-13759930D01*
X11067927Y-13774216D01*
X11053641Y-13788501D01*
X11039356Y-13817073D01*
X11353641Y-13945644D02*
X11410784Y-13945644D01*
X11439356Y-13931359D01*
X11453641Y-13917073D01*
X11482213Y-13874216D01*
X11496498Y-13817073D01*
X11496498Y-13702787D01*
X11482213Y-13674216D01*
X11467927Y-13659930D01*
X11439356Y-13645644D01*
X11382213Y-13645644D01*
X11353641Y-13659930D01*
X11339356Y-13674216D01*
X11325070Y-13702787D01*
X11325070Y-13774216D01*
X11339356Y-13802787D01*
X11353641Y-13817073D01*
X11382213Y-13831359D01*
X11439356Y-13831359D01*
X11467927Y-13817073D01*
X11482213Y-13802787D01*
X11496498Y-13774216D01*
X11610784Y-13645644D02*
X11610784Y-13702787D01*
X11725070Y-13645644D02*
X11725070Y-13702787D01*
X12167927Y-14059930D02*
X12153641Y-14045644D01*
X12125070Y-14002787D01*
X12110784Y-13974216D01*
X12096498Y-13931359D01*
X12082213Y-13859930D01*
X12082213Y-13802787D01*
X12096498Y-13731359D01*
X12110784Y-13688501D01*
X12125070Y-13659930D01*
X12153641Y-13617073D01*
X12167927Y-13602787D01*
X12267927Y-13674216D02*
X12282213Y-13659930D01*
X12310784Y-13645644D01*
X12382213Y-13645644D01*
X12410784Y-13659930D01*
X12425070Y-13674216D01*
X12439356Y-13702787D01*
X12439356Y-13731359D01*
X12425070Y-13774216D01*
X12253641Y-13945644D01*
X12439356Y-13945644D01*
X12796498Y-13945644D02*
X12796498Y-13645644D01*
X12925070Y-13945644D02*
X12925070Y-13788501D01*
X12910784Y-13759930D01*
X12882213Y-13745644D01*
X12839356Y-13745644D01*
X12810784Y-13759930D01*
X12796498Y-13774216D01*
X13110784Y-13945644D02*
X13082213Y-13931359D01*
X13067927Y-13917073D01*
X13053641Y-13888501D01*
X13053641Y-13802787D01*
X13067927Y-13774216D01*
X13082213Y-13759930D01*
X13110784Y-13745644D01*
X13153641Y-13745644D01*
X13182213Y-13759930D01*
X13196498Y-13774216D01*
X13210784Y-13802787D01*
X13210784Y-13888501D01*
X13196498Y-13917073D01*
X13182213Y-13931359D01*
X13153641Y-13945644D01*
X13110784Y-13945644D01*
X13382213Y-13945644D02*
X13353641Y-13931359D01*
X13339356Y-13902787D01*
X13339356Y-13645644D01*
X13610784Y-13931359D02*
X13582213Y-13945644D01*
X13525070Y-13945644D01*
X13496498Y-13931359D01*
X13482213Y-13902787D01*
X13482213Y-13788501D01*
X13496498Y-13759930D01*
X13525070Y-13745644D01*
X13582213Y-13745644D01*
X13610784Y-13759930D01*
X13625070Y-13788501D01*
X13625070Y-13817073D01*
X13482213Y-13845644D01*
X13739356Y-13931359D02*
X13767927Y-13945644D01*
X13825070Y-13945644D01*
X13853641Y-13931359D01*
X13867927Y-13902787D01*
X13867927Y-13888501D01*
X13853641Y-13859930D01*
X13825070Y-13845644D01*
X13782213Y-13845644D01*
X13753641Y-13831359D01*
X13739356Y-13802787D01*
X13739356Y-13788501D01*
X13753641Y-13759930D01*
X13782213Y-13745644D01*
X13825070Y-13745644D01*
X13853641Y-13759930D01*
X13967927Y-14059930D02*
X13982213Y-14045644D01*
X14010784Y-14002787D01*
X14025070Y-13974216D01*
X14039356Y-13931359D01*
X14053641Y-13859930D01*
X14053641Y-13802787D01*
X14039356Y-13731359D01*
X14025070Y-13688501D01*
X14010784Y-13659930D01*
X13982213Y-13617073D01*
X13967927Y-13602787D01*
X6615430Y-14058610D02*
X6910070Y-14353250D01*
X6910070Y-14058610D02*
X6615430Y-14353250D01*
X6762750Y-14058610D02*
X6762750Y-14353250D01*
X6615430Y-14205930D02*
X6910070Y-14205930D01*
X7182213Y-14070216D02*
X7196498Y-14055930D01*
X7225070Y-14041644D01*
X7296498Y-14041644D01*
X7325070Y-14055930D01*
X7339356Y-14070216D01*
X7353641Y-14098787D01*
X7353641Y-14127359D01*
X7339356Y-14170216D01*
X7167927Y-14341644D01*
X7353641Y-14341644D01*
X7482213Y-14313073D02*
X7496498Y-14327359D01*
X7482213Y-14341644D01*
X7467927Y-14327359D01*
X7482213Y-14313073D01*
X7482213Y-14341644D01*
X7639356Y-14341644D02*
X7696498Y-14341644D01*
X7725070Y-14327359D01*
X7739356Y-14313073D01*
X7767927Y-14270216D01*
X7782213Y-14213073D01*
X7782213Y-14098787D01*
X7767927Y-14070216D01*
X7753641Y-14055930D01*
X7725070Y-14041644D01*
X7667927Y-14041644D01*
X7639356Y-14055930D01*
X7625070Y-14070216D01*
X7610784Y-14098787D01*
X7610784Y-14170216D01*
X7625070Y-14198787D01*
X7639356Y-14213073D01*
X7667927Y-14227359D01*
X7725070Y-14227359D01*
X7753641Y-14213073D01*
X7767927Y-14198787D01*
X7782213Y-14170216D01*
X8039356Y-14141644D02*
X8039356Y-14341644D01*
X7967927Y-14027359D02*
X7896498Y-14241644D01*
X8082213Y-14241644D01*
X8325070Y-14041644D02*
X8267927Y-14041644D01*
X8239356Y-14055930D01*
X8225070Y-14070216D01*
X8196498Y-14113073D01*
X8182213Y-14170216D01*
X8182213Y-14284501D01*
X8196498Y-14313073D01*
X8210784Y-14327359D01*
X8239356Y-14341644D01*
X8296498Y-14341644D01*
X8325070Y-14327359D01*
X8339356Y-14313073D01*
X8353641Y-14284501D01*
X8353641Y-14213073D01*
X8339356Y-14184501D01*
X8325070Y-14170216D01*
X8296498Y-14155930D01*
X8239356Y-14155930D01*
X8210784Y-14170216D01*
X8196498Y-14184501D01*
X8182213Y-14213073D01*
X8482213Y-14341644D02*
X8482213Y-14141644D01*
X8482213Y-14170216D02*
X8496498Y-14155930D01*
X8525070Y-14141644D01*
X8567927Y-14141644D01*
X8596498Y-14155930D01*
X8610784Y-14184501D01*
X8610784Y-14341644D01*
X8610784Y-14184501D02*
X8625070Y-14155930D01*
X8653641Y-14141644D01*
X8696498Y-14141644D01*
X8725070Y-14155930D01*
X8739356Y-14184501D01*
X8739356Y-14341644D01*
X8882213Y-14341644D02*
X8882213Y-14141644D01*
X8882213Y-14170216D02*
X8896498Y-14155930D01*
X8925070Y-14141644D01*
X8967927Y-14141644D01*
X8996498Y-14155930D01*
X9010784Y-14184501D01*
X9010784Y-14341644D01*
X9010784Y-14184501D02*
X9025070Y-14155930D01*
X9053641Y-14141644D01*
X9096498Y-14141644D01*
X9125070Y-14155930D01*
X9139356Y-14184501D01*
X9139356Y-14341644D01*
X9725070Y-14027359D02*
X9467927Y-14413073D01*
X10110784Y-14041644D02*
X10139356Y-14041644D01*
X10167927Y-14055930D01*
X10182213Y-14070216D01*
X10196498Y-14098787D01*
X10210784Y-14155930D01*
X10210784Y-14227359D01*
X10196498Y-14284501D01*
X10182213Y-14313073D01*
X10167927Y-14327359D01*
X10139356Y-14341644D01*
X10110784Y-14341644D01*
X10082213Y-14327359D01*
X10067927Y-14313073D01*
X10053641Y-14284501D01*
X10039356Y-14227359D01*
X10039356Y-14155930D01*
X10053641Y-14098787D01*
X10067927Y-14070216D01*
X10082213Y-14055930D01*
X10110784Y-14041644D01*
X10339356Y-14313073D02*
X10353641Y-14327359D01*
X10339356Y-14341644D01*
X10325070Y-14327359D01*
X10339356Y-14313073D01*
X10339356Y-14341644D01*
X10639356Y-14341644D02*
X10467927Y-14341644D01*
X10553641Y-14341644D02*
X10553641Y-14041644D01*
X10525070Y-14084501D01*
X10496498Y-14113073D01*
X10467927Y-14127359D01*
X10925070Y-14341644D02*
X10753641Y-14341644D01*
X10839356Y-14341644D02*
X10839356Y-14041644D01*
X10810784Y-14084501D01*
X10782213Y-14113073D01*
X10753641Y-14127359D01*
X11182213Y-14041644D02*
X11125070Y-14041644D01*
X11096498Y-14055930D01*
X11082213Y-14070216D01*
X11053641Y-14113073D01*
X11039356Y-14170216D01*
X11039356Y-14284501D01*
X11053641Y-14313073D01*
X11067927Y-14327359D01*
X11096498Y-14341644D01*
X11153641Y-14341644D01*
X11182213Y-14327359D01*
X11196498Y-14313073D01*
X11210784Y-14284501D01*
X11210784Y-14213073D01*
X11196498Y-14184501D01*
X11182213Y-14170216D01*
X11153641Y-14155930D01*
X11096498Y-14155930D01*
X11067927Y-14170216D01*
X11053641Y-14184501D01*
X11039356Y-14213073D01*
X11396498Y-14041644D02*
X11425070Y-14041644D01*
X11453641Y-14055930D01*
X11467927Y-14070216D01*
X11482213Y-14098787D01*
X11496498Y-14155930D01*
X11496498Y-14227359D01*
X11482213Y-14284501D01*
X11467927Y-14313073D01*
X11453641Y-14327359D01*
X11425070Y-14341644D01*
X11396498Y-14341644D01*
X11367927Y-14327359D01*
X11353641Y-14313073D01*
X11339356Y-14284501D01*
X11325070Y-14227359D01*
X11325070Y-14155930D01*
X11339356Y-14098787D01*
X11353641Y-14070216D01*
X11367927Y-14055930D01*
X11396498Y-14041644D01*
X11610784Y-14041644D02*
X11610784Y-14098787D01*
X11725070Y-14041644D02*
X11725070Y-14098787D01*
X12167927Y-14455930D02*
X12153641Y-14441644D01*
X12125070Y-14398787D01*
X12110784Y-14370216D01*
X12096498Y-14327359D01*
X12082213Y-14255930D01*
X12082213Y-14198787D01*
X12096498Y-14127359D01*
X12110784Y-14084501D01*
X12125070Y-14055930D01*
X12153641Y-14013073D01*
X12167927Y-13998787D01*
X12410784Y-14041644D02*
X12353641Y-14041644D01*
X12325070Y-14055930D01*
X12310784Y-14070216D01*
X12282213Y-14113073D01*
X12267927Y-14170216D01*
X12267927Y-14284501D01*
X12282213Y-14313073D01*
X12296498Y-14327359D01*
X12325070Y-14341644D01*
X12382213Y-14341644D01*
X12410784Y-14327359D01*
X12425070Y-14313073D01*
X12439356Y-14284501D01*
X12439356Y-14213073D01*
X12425070Y-14184501D01*
X12410784Y-14170216D01*
X12382213Y-14155930D01*
X12325070Y-14155930D01*
X12296498Y-14170216D01*
X12282213Y-14184501D01*
X12267927Y-14213073D01*
X12796498Y-14341644D02*
X12796498Y-14041644D01*
X12925070Y-14341644D02*
X12925070Y-14184501D01*
X12910784Y-14155930D01*
X12882213Y-14141644D01*
X12839356Y-14141644D01*
X12810784Y-14155930D01*
X12796498Y-14170216D01*
X13110784Y-14341644D02*
X13082213Y-14327359D01*
X13067927Y-14313073D01*
X13053641Y-14284501D01*
X13053641Y-14198787D01*
X13067927Y-14170216D01*
X13082213Y-14155930D01*
X13110784Y-14141644D01*
X13153641Y-14141644D01*
X13182213Y-14155930D01*
X13196498Y-14170216D01*
X13210784Y-14198787D01*
X13210784Y-14284501D01*
X13196498Y-14313073D01*
X13182213Y-14327359D01*
X13153641Y-14341644D01*
X13110784Y-14341644D01*
X13382213Y-14341644D02*
X13353641Y-14327359D01*
X13339356Y-14298787D01*
X13339356Y-14041644D01*
X13610784Y-14327359D02*
X13582213Y-14341644D01*
X13525070Y-14341644D01*
X13496498Y-14327359D01*
X13482213Y-14298787D01*
X13482213Y-14184501D01*
X13496498Y-14155930D01*
X13525070Y-14141644D01*
X13582213Y-14141644D01*
X13610784Y-14155930D01*
X13625070Y-14184501D01*
X13625070Y-14213073D01*
X13482213Y-14241644D01*
X13739356Y-14327359D02*
X13767927Y-14341644D01*
X13825070Y-14341644D01*
X13853641Y-14327359D01*
X13867927Y-14298787D01*
X13867927Y-14284501D01*
X13853641Y-14255930D01*
X13825070Y-14241644D01*
X13782213Y-14241644D01*
X13753641Y-14227359D01*
X13739356Y-14198787D01*
X13739356Y-14184501D01*
X13753641Y-14155930D01*
X13782213Y-14141644D01*
X13825070Y-14141644D01*
X13853641Y-14155930D01*
X13967927Y-14455930D02*
X13982213Y-14441644D01*
X14010784Y-14398787D01*
X14025070Y-14370216D01*
X14039356Y-14327359D01*
X14053641Y-14255930D01*
X14053641Y-14198787D01*
X14039356Y-14127359D01*
X14025070Y-14084501D01*
X14010784Y-14055930D01*
X13982213Y-14013073D01*
X13967927Y-13998787D01*
X6579870Y-14465470D02*
X6910070Y-14795670D01*
X6910070Y-14465470D02*
X6579870Y-14795670D01*
X6861714Y-14747314D02*
X6861714Y-14513826D01*
X6628225Y-14513826D01*
X6628225Y-14747314D01*
X6861714Y-14747314D01*
X7167927Y-14466284D02*
X7353641Y-14466284D01*
X7253641Y-14580570D01*
X7296498Y-14580570D01*
X7325070Y-14594856D01*
X7339356Y-14609141D01*
X7353641Y-14637713D01*
X7353641Y-14709141D01*
X7339356Y-14737713D01*
X7325070Y-14751999D01*
X7296498Y-14766284D01*
X7210784Y-14766284D01*
X7182213Y-14751999D01*
X7167927Y-14737713D01*
X7482213Y-14737713D02*
X7496498Y-14751999D01*
X7482213Y-14766284D01*
X7467927Y-14751999D01*
X7482213Y-14737713D01*
X7482213Y-14766284D01*
X7596498Y-14466284D02*
X7782213Y-14466284D01*
X7682213Y-14580570D01*
X7725070Y-14580570D01*
X7753641Y-14594856D01*
X7767927Y-14609141D01*
X7782213Y-14637713D01*
X7782213Y-14709141D01*
X7767927Y-14737713D01*
X7753641Y-14751999D01*
X7725070Y-14766284D01*
X7639356Y-14766284D01*
X7610784Y-14751999D01*
X7596498Y-14737713D01*
X7967927Y-14466284D02*
X7996498Y-14466284D01*
X8025070Y-14480570D01*
X8039356Y-14494856D01*
X8053641Y-14523427D01*
X8067927Y-14580570D01*
X8067927Y-14651999D01*
X8053641Y-14709141D01*
X8039356Y-14737713D01*
X8025070Y-14751999D01*
X7996498Y-14766284D01*
X7967927Y-14766284D01*
X7939356Y-14751999D01*
X7925070Y-14737713D01*
X7910784Y-14709141D01*
X7896498Y-14651999D01*
X7896498Y-14580570D01*
X7910784Y-14523427D01*
X7925070Y-14494856D01*
X7939356Y-14480570D01*
X7967927Y-14466284D01*
X8182213Y-14494856D02*
X8196498Y-14480570D01*
X8225070Y-14466284D01*
X8296498Y-14466284D01*
X8325070Y-14480570D01*
X8339356Y-14494856D01*
X8353641Y-14523427D01*
X8353641Y-14551999D01*
X8339356Y-14594856D01*
X8167927Y-14766284D01*
X8353641Y-14766284D01*
X8482213Y-14766284D02*
X8482213Y-14566284D01*
X8482213Y-14594856D02*
X8496498Y-14580570D01*
X8525070Y-14566284D01*
X8567927Y-14566284D01*
X8596498Y-14580570D01*
X8610784Y-14609141D01*
X8610784Y-14766284D01*
X8610784Y-14609141D02*
X8625070Y-14580570D01*
X8653641Y-14566284D01*
X8696498Y-14566284D01*
X8725070Y-14580570D01*
X8739356Y-14609141D01*
X8739356Y-14766284D01*
X8882213Y-14766284D02*
X8882213Y-14566284D01*
X8882213Y-14594856D02*
X8896498Y-14580570D01*
X8925070Y-14566284D01*
X8967927Y-14566284D01*
X8996498Y-14580570D01*
X9010784Y-14609141D01*
X9010784Y-14766284D01*
X9010784Y-14609141D02*
X9025070Y-14580570D01*
X9053641Y-14566284D01*
X9096498Y-14566284D01*
X9125070Y-14580570D01*
X9139356Y-14609141D01*
X9139356Y-14766284D01*
X9725070Y-14451999D02*
X9467927Y-14837713D01*
X10110784Y-14466284D02*
X10139356Y-14466284D01*
X10167927Y-14480570D01*
X10182213Y-14494856D01*
X10196498Y-14523427D01*
X10210784Y-14580570D01*
X10210784Y-14651999D01*
X10196498Y-14709141D01*
X10182213Y-14737713D01*
X10167927Y-14751999D01*
X10139356Y-14766284D01*
X10110784Y-14766284D01*
X10082213Y-14751999D01*
X10067927Y-14737713D01*
X10053641Y-14709141D01*
X10039356Y-14651999D01*
X10039356Y-14580570D01*
X10053641Y-14523427D01*
X10067927Y-14494856D01*
X10082213Y-14480570D01*
X10110784Y-14466284D01*
X10339356Y-14737713D02*
X10353641Y-14751999D01*
X10339356Y-14766284D01*
X10325070Y-14751999D01*
X10339356Y-14737713D01*
X10339356Y-14766284D01*
X10639356Y-14766284D02*
X10467927Y-14766284D01*
X10553641Y-14766284D02*
X10553641Y-14466284D01*
X10525070Y-14509141D01*
X10496498Y-14537713D01*
X10467927Y-14551999D01*
X10739356Y-14466284D02*
X10925070Y-14466284D01*
X10825070Y-14580570D01*
X10867927Y-14580570D01*
X10896498Y-14594856D01*
X10910784Y-14609141D01*
X10925070Y-14637713D01*
X10925070Y-14709141D01*
X10910784Y-14737713D01*
X10896498Y-14751999D01*
X10867927Y-14766284D01*
X10782213Y-14766284D01*
X10753641Y-14751999D01*
X10739356Y-14737713D01*
X11110784Y-14466284D02*
X11139356Y-14466284D01*
X11167927Y-14480570D01*
X11182213Y-14494856D01*
X11196498Y-14523427D01*
X11210784Y-14580570D01*
X11210784Y-14651999D01*
X11196498Y-14709141D01*
X11182213Y-14737713D01*
X11167927Y-14751999D01*
X11139356Y-14766284D01*
X11110784Y-14766284D01*
X11082213Y-14751999D01*
X11067927Y-14737713D01*
X11053641Y-14709141D01*
X11039356Y-14651999D01*
X11039356Y-14580570D01*
X11053641Y-14523427D01*
X11067927Y-14494856D01*
X11082213Y-14480570D01*
X11110784Y-14466284D01*
X11396498Y-14466284D02*
X11425070Y-14466284D01*
X11453641Y-14480570D01*
X11467927Y-14494856D01*
X11482213Y-14523427D01*
X11496498Y-14580570D01*
X11496498Y-14651999D01*
X11482213Y-14709141D01*
X11467927Y-14737713D01*
X11453641Y-14751999D01*
X11425070Y-14766284D01*
X11396498Y-14766284D01*
X11367927Y-14751999D01*
X11353641Y-14737713D01*
X11339356Y-14709141D01*
X11325070Y-14651999D01*
X11325070Y-14580570D01*
X11339356Y-14523427D01*
X11353641Y-14494856D01*
X11367927Y-14480570D01*
X11396498Y-14466284D01*
X11610784Y-14466284D02*
X11610784Y-14523427D01*
X11725070Y-14466284D02*
X11725070Y-14523427D01*
X12167927Y-14880570D02*
X12153641Y-14866284D01*
X12125070Y-14823427D01*
X12110784Y-14794856D01*
X12096498Y-14751999D01*
X12082213Y-14680570D01*
X12082213Y-14623427D01*
X12096498Y-14551999D01*
X12110784Y-14509141D01*
X12125070Y-14480570D01*
X12153641Y-14437713D01*
X12167927Y-14423427D01*
X12410784Y-14566284D02*
X12410784Y-14766284D01*
X12339356Y-14451999D02*
X12267927Y-14666284D01*
X12453641Y-14666284D01*
X12796498Y-14766284D02*
X12796498Y-14466284D01*
X12925070Y-14766284D02*
X12925070Y-14609141D01*
X12910784Y-14580570D01*
X12882213Y-14566284D01*
X12839356Y-14566284D01*
X12810784Y-14580570D01*
X12796498Y-14594856D01*
X13110784Y-14766284D02*
X13082213Y-14751999D01*
X13067927Y-14737713D01*
X13053641Y-14709141D01*
X13053641Y-14623427D01*
X13067927Y-14594856D01*
X13082213Y-14580570D01*
X13110784Y-14566284D01*
X13153641Y-14566284D01*
X13182213Y-14580570D01*
X13196498Y-14594856D01*
X13210784Y-14623427D01*
X13210784Y-14709141D01*
X13196498Y-14737713D01*
X13182213Y-14751999D01*
X13153641Y-14766284D01*
X13110784Y-14766284D01*
X13382213Y-14766284D02*
X13353641Y-14751999D01*
X13339356Y-14723427D01*
X13339356Y-14466284D01*
X13610784Y-14751999D02*
X13582213Y-14766284D01*
X13525070Y-14766284D01*
X13496498Y-14751999D01*
X13482213Y-14723427D01*
X13482213Y-14609141D01*
X13496498Y-14580570D01*
X13525070Y-14566284D01*
X13582213Y-14566284D01*
X13610784Y-14580570D01*
X13625070Y-14609141D01*
X13625070Y-14637713D01*
X13482213Y-14666284D01*
X13739356Y-14751999D02*
X13767927Y-14766284D01*
X13825070Y-14766284D01*
X13853641Y-14751999D01*
X13867927Y-14723427D01*
X13867927Y-14709141D01*
X13853641Y-14680570D01*
X13825070Y-14666284D01*
X13782213Y-14666284D01*
X13753641Y-14651999D01*
X13739356Y-14623427D01*
X13739356Y-14609141D01*
X13753641Y-14580570D01*
X13782213Y-14566284D01*
X13825070Y-14566284D01*
X13853641Y-14580570D01*
X13967927Y-14880570D02*
X13982213Y-14866284D01*
X14010784Y-14823427D01*
X14025070Y-14794856D01*
X14039356Y-14751999D01*
X14053641Y-14680570D01*
X14053641Y-14623427D01*
X14039356Y-14551999D01*
X14025070Y-14509141D01*
X14010784Y-14480570D01*
X13982213Y-14437713D01*
X13967927Y-14423427D01*
M02*
