%TF.GenerationSoftware,KiCad,Pcbnew,5.1.10*%
%TF.CreationDate,2021-11-12T09:27:16-05:00*%
%TF.ProjectId,mouse_reach_controller,6d6f7573-655f-4726-9561-63685f636f6e,1.0*%
%TF.SameCoordinates,Original*%
%TF.FileFunction,Legend,Bot*%
%TF.FilePolarity,Positive*%
%FSLAX46Y46*%
G04 Gerber Fmt 4.6, Leading zero omitted, Abs format (unit mm)*
G04 Created by KiCad (PCBNEW 5.1.10) date 2021-11-12 09:27:16*
%MOMM*%
%LPD*%
G01*
G04 APERTURE LIST*
%ADD10C,3.810000*%
%ADD11O,1.524000X2.032000*%
%ADD12R,1.524000X2.032000*%
%ADD13O,2.540000X2.184400*%
%ADD14R,2.540000X2.184400*%
%ADD15C,2.100000*%
%ADD16C,3.556000*%
%ADD17C,2.540000*%
G04 APERTURE END LIST*
%LPC*%
D10*
%TO.C,P1*%
X123126500Y-58166000D03*
X151193500Y-58166000D03*
D11*
X132080000Y-59944000D03*
X132080000Y-56896000D03*
X134620000Y-59944000D03*
X134620000Y-56896000D03*
X137160000Y-59944000D03*
X137160000Y-56896000D03*
X139700000Y-59944000D03*
X139700000Y-56896000D03*
X142240000Y-59944000D03*
D12*
X142240000Y-56896000D03*
%TD*%
D10*
%TO.C,P2*%
X156146500Y-58166000D03*
X184213500Y-58166000D03*
D11*
X165100000Y-59944000D03*
X165100000Y-56896000D03*
X167640000Y-59944000D03*
X167640000Y-56896000D03*
X170180000Y-59944000D03*
X170180000Y-56896000D03*
X172720000Y-59944000D03*
X172720000Y-56896000D03*
X175260000Y-59944000D03*
D12*
X175260000Y-56896000D03*
%TD*%
D10*
%TO.C,P3*%
X189166500Y-58166000D03*
X217233500Y-58166000D03*
D11*
X198120000Y-59944000D03*
X198120000Y-56896000D03*
X200660000Y-59944000D03*
X200660000Y-56896000D03*
X203200000Y-59944000D03*
X203200000Y-56896000D03*
X205740000Y-59944000D03*
X205740000Y-56896000D03*
X208280000Y-59944000D03*
D12*
X208280000Y-56896000D03*
%TD*%
D13*
%TO.C,TEENSY1*%
X92710000Y-53975000D03*
X92710000Y-56515000D03*
X92710000Y-59055000D03*
X92710000Y-61595000D03*
X92710000Y-64135000D03*
X92710000Y-66675000D03*
X92710000Y-69215000D03*
X92710000Y-71755000D03*
X92710000Y-74295000D03*
X92710000Y-76835000D03*
X92710000Y-79375000D03*
X92710000Y-81915000D03*
X92710000Y-84455000D03*
X92710000Y-86995000D03*
X77470000Y-86995000D03*
X77470000Y-84455000D03*
X77470000Y-81915000D03*
X77470000Y-79375000D03*
X77470000Y-76835000D03*
X77470000Y-74295000D03*
X77470000Y-71755000D03*
X77470000Y-69215000D03*
X77470000Y-66675000D03*
X77470000Y-64135000D03*
X77470000Y-61595000D03*
X77470000Y-59055000D03*
X77470000Y-56515000D03*
D14*
X77470000Y-53975000D03*
%TD*%
D15*
%TO.C,J1*%
X114300000Y-56840000D03*
X114300000Y-63840000D03*
%TD*%
D16*
%TO.C,MH1*%
X72390000Y-54610000D03*
%TD*%
%TO.C,MH2*%
X224790000Y-54610000D03*
%TD*%
%TO.C,MH3*%
X224790000Y-105410000D03*
%TD*%
%TO.C,MH4*%
X72390000Y-105410000D03*
%TD*%
D17*
%TO.C,T1*%
X104140000Y-61595000D03*
X99060000Y-61595000D03*
%TD*%
M02*
