<?xml version="1.0" standalone="no"?>
 <!DOCTYPE svg PUBLIC "-//W3C//DTD SVG 1.1//EN" 
 "http://www.w3.org/Graphics/SVG/1.1/DTD/svg11.dtd"> 
<svg
  xmlns:svg="http://www.w3.org/2000/svg"
  xmlns="http://www.w3.org/2000/svg"
  xmlns:xlink="http://www.w3.org/1999/xlink"
  version="1.1"
  width="17.109440cm" height="6.817360cm" viewBox="0 0 67360 26840">
<title>SVG Picture created as mouse_reach_controller-Dwgs_User.svg date 2022/02/22 11:03:20 </title>
  <desc>Picture generated by PCBNEW </desc>
<g style="fill:#000000; fill-opacity:1;stroke:#000000; stroke-opacity:1;
stroke-linecap:round; stroke-linejoin:round;"
 transform="translate(0 0) scale(1 1)">
</g>
<g style="fill:#000000; fill-opacity:0.0; 
stroke:#000000; stroke-width:-0.000393701; stroke-opacity:1; 
stroke-linecap:round; stroke-linejoin:round;">
</g>
<g style="fill:#C2C2C2; fill-opacity:0.0; 
stroke:#C2C2C2; stroke-width:-0.000393701; stroke-opacity:1; 
stroke-linecap:round; stroke-linejoin:round;">
</g>
<g style="fill:#C2C2C2; fill-opacity:0.0; 
stroke:#C2C2C2; stroke-width:59.0551; stroke-opacity:1; 
stroke-linecap:round; stroke-linejoin:round;">
<text x="32091.7" y="495.079"
textLength="2970.89" font-size="524.934" lengthAdjust="spacingAndGlyphs"
text-anchor="middle" opacity="0">6.3000 in</text>
<path d="M30901 82
L30826 82
L30788 101
L30769 120
L30732 176
L30713 251
L30713 401
L30732 438
L30751 457
L30788 476
L30863 476
L30901 457
L30919 438
L30938 401
L30938 307
L30919 270
L30901 251
L30863 232
L30788 232
L30751 251
L30732 270
L30713 307
" />
<path d="M31107 438
L31126 457
L31107 476
L31088 457
L31107 438
L31107 476
" />
<path d="M31257 82
L31501 82
L31369 232
L31426 232
L31463 251
L31482 270
L31501 307
L31501 401
L31482 438
L31463 457
L31426 476
L31313 476
L31276 457
L31257 438
" />
<path d="M31744 82
L31782 82
L31819 101
L31838 120
L31857 157
L31876 232
L31876 326
L31857 401
L31838 438
L31819 457
L31782 476
L31744 476
L31707 457
L31688 438
L31669 401
L31651 326
L31651 232
L31669 157
L31688 120
L31707 101
L31744 82
" />
<path d="M32119 82
L32157 82
L32194 101
L32213 120
L32232 157
L32251 232
L32251 326
L32232 401
L32213 438
L32194 457
L32157 476
L32119 476
L32082 457
L32063 438
L32044 401
L32026 326
L32026 232
L32044 157
L32063 120
L32082 101
L32119 82
" />
<path d="M32494 82
L32532 82
L32569 101
L32588 120
L32607 157
L32625 232
L32625 326
L32607 401
L32588 438
L32569 457
L32532 476
L32494 476
L32457 457
L32438 438
L32419 401
L32401 326
L32401 232
L32419 157
L32438 120
L32457 101
L32494 82
" />
<path d="M33094 476
L33094 213
" />
<path d="M33094 82
L33075 101
L33094 120
L33113 101
L33094 82
L33094 120
" />
<path d="M33282 213
L33282 476
" />
<path d="M33282 251
L33300 232
L33338 213
L33394 213
L33432 232
L33450 270
L33450 476
" />
</g>
<g style="fill:#C2C2C2; fill-opacity:0.0; 
stroke:#C2C2C2; stroke-width:90; stroke-opacity:1; 
stroke-linecap:round; stroke-linejoin:round;">
<path d="M591 840
L63591 840
" />
<path d="M591 4840
L591 610
" />
<path d="M63591 4840
L63591 610
" />
<path d="M63591 840
L63148 1071
" />
<path d="M63591 840
L63148 610
" />
<path d="M591 840
L1035 1071
" />
<path d="M591 840
L1035 610
" />
</g>
<g style="fill:#C2C2C2; fill-opacity:0.0; 
stroke:#C2C2C2; stroke-width:59.0551; stroke-opacity:1; 
stroke-linecap:round; stroke-linejoin:round;">
<g transform="rotate(-90 65884.4 14841)">
<text x="65884.4" y="15037.8"
textLength="2982.66" font-size="524.934" lengthAdjust="spacingAndGlyphs"
text-anchor="middle" opacity="0">2.3000 in</text>
</g>
<path d="M65706 16218
L65687 16200
L65668 16162
L65668 16068
L65687 16031
L65706 16012
L65743 15993
L65781 15993
L65837 16012
L66062 16237
L66062 15993
" />
<path d="M66025 15825
L66043 15806
L66062 15825
L66043 15843
L66025 15825
L66062 15825
" />
<path d="M65668 15675
L65668 15431
L65818 15562
L65818 15506
L65837 15469
L65856 15450
L65893 15431
L65987 15431
L66025 15450
L66043 15469
L66062 15506
L66062 15619
L66043 15656
L66025 15675
" />
<path d="M65668 15187
L65668 15150
L65687 15112
L65706 15094
L65743 15075
L65818 15056
L65912 15056
L65987 15075
L66025 15094
L66043 15112
L66062 15150
L66062 15187
L66043 15225
L66025 15244
L65987 15262
L65912 15281
L65818 15281
L65743 15262
L65706 15244
L65687 15225
L65668 15187
" />
<path d="M65668 14812
L65668 14775
L65687 14737
L65706 14719
L65743 14700
L65818 14681
L65912 14681
L65987 14700
L66025 14719
L66043 14737
L66062 14775
L66062 14812
L66043 14850
L66025 14869
L65987 14887
L65912 14906
L65818 14906
L65743 14887
L65706 14869
L65687 14850
L65668 14812
" />
<path d="M65668 14437
L65668 14400
L65687 14362
L65706 14344
L65743 14325
L65818 14306
L65912 14306
L65987 14325
L66025 14344
L66043 14362
L66062 14400
L66062 14437
L66043 14475
L66025 14494
L65987 14512
L65912 14531
L65818 14531
L65743 14512
L65706 14494
L65687 14475
L65668 14437
" />
<path d="M66062 13837
L65800 13837
" />
<path d="M65668 13837
L65687 13856
L65706 13837
L65687 13819
L65668 13837
L65706 13837
" />
<path d="M65800 13650
L66062 13650
" />
<path d="M65837 13650
L65818 13631
L65800 13594
L65800 13538
L65818 13500
L65856 13481
L66062 13481
" />
</g>
<g style="fill:#C2C2C2; fill-opacity:0.0; 
stroke:#C2C2C2; stroke-width:90; stroke-opacity:1; 
stroke-linecap:round; stroke-linejoin:round;">
<path d="M65341 26340
L65341 3340
" />
<path d="M61841 26340
L65572 26340
" />
<path d="M61841 3340
L65572 3340
" />
<path d="M65341 3340
L65572 3784
" />
<path d="M65341 3340
L65110 3784
" />
<path d="M65341 26340
L65572 25897
" />
<path d="M65341 26340
L65110 25897
" />
</g>
<g style="fill:#C2C2C2; fill-opacity:0.0; 
stroke:#C2C2C2; stroke-width:59.0551; stroke-opacity:1; 
stroke-linecap:round; stroke-linejoin:round;">
<g transform="rotate(-90 64884.4 14841)">
<text x="64884.4" y="15037.8"
textLength="2982.66" font-size="524.934" lengthAdjust="spacingAndGlyphs"
text-anchor="middle" opacity="0">2.0000 in</text>
</g>
<path d="M64706 16218
L64687 16200
L64668 16162
L64668 16068
L64687 16031
L64706 16012
L64743 15993
L64781 15993
L64837 16012
L65062 16237
L65062 15993
" />
<path d="M65025 15825
L65043 15806
L65062 15825
L65043 15843
L65025 15825
L65062 15825
" />
<path d="M64668 15562
L64668 15525
L64687 15487
L64706 15469
L64743 15450
L64818 15431
L64912 15431
L64987 15450
L65025 15469
L65043 15487
L65062 15525
L65062 15562
L65043 15600
L65025 15619
L64987 15637
L64912 15656
L64818 15656
L64743 15637
L64706 15619
L64687 15600
L64668 15562
" />
<path d="M64668 15187
L64668 15150
L64687 15112
L64706 15094
L64743 15075
L64818 15056
L64912 15056
L64987 15075
L65025 15094
L65043 15112
L65062 15150
L65062 15187
L65043 15225
L65025 15244
L64987 15262
L64912 15281
L64818 15281
L64743 15262
L64706 15244
L64687 15225
L64668 15187
" />
<path d="M64668 14812
L64668 14775
L64687 14737
L64706 14719
L64743 14700
L64818 14681
L64912 14681
L64987 14700
L65025 14719
L65043 14737
L65062 14775
L65062 14812
L65043 14850
L65025 14869
L64987 14887
L64912 14906
L64818 14906
L64743 14887
L64706 14869
L64687 14850
L64668 14812
" />
<path d="M64668 14437
L64668 14400
L64687 14362
L64706 14344
L64743 14325
L64818 14306
L64912 14306
L64987 14325
L65025 14344
L65043 14362
L65062 14400
L65062 14437
L65043 14475
L65025 14494
L64987 14512
L64912 14531
L64818 14531
L64743 14512
L64706 14494
L64687 14475
L64668 14437
" />
<path d="M65062 13837
L64800 13837
" />
<path d="M64668 13837
L64687 13856
L64706 13837
L64687 13819
L64668 13837
L64706 13837
" />
<path d="M64800 13650
L65062 13650
" />
<path d="M64837 13650
L64818 13631
L64800 13594
L64800 13538
L64818 13500
L64856 13481
L65062 13481
" />
</g>
<g style="fill:#C2C2C2; fill-opacity:0.0; 
stroke:#C2C2C2; stroke-width:90; stroke-opacity:1; 
stroke-linecap:round; stroke-linejoin:round;">
<path d="M64341 24840
L64341 4840
" />
<path d="M62091 24840
L64572 24840
" />
<path d="M62091 4840
L64572 4840
" />
<path d="M64341 4840
L64572 5284
" />
<path d="M64341 4840
L64110 5284
" />
<path d="M64341 24840
L64572 24397
" />
<path d="M64341 24840
L64110 24397
" />
</g>
<g style="fill:#C2C2C2; fill-opacity:0.0; 
stroke:#C2C2C2; stroke-width:59.0551; stroke-opacity:1; 
stroke-linecap:round; stroke-linejoin:round;">
<text x="32091.7" y="1495.08"
textLength="2982.66" font-size="524.934" lengthAdjust="spacingAndGlyphs"
text-anchor="middle" opacity="0">6.0000 in</text>
<path d="M30901 1082
L30826 1082
L30788 1101
L30769 1120
L30732 1176
L30713 1251
L30713 1401
L30732 1438
L30751 1457
L30788 1476
L30863 1476
L30901 1457
L30919 1438
L30938 1401
L30938 1307
L30919 1270
L30901 1251
L30863 1232
L30788 1232
L30751 1251
L30732 1270
L30713 1307
" />
<path d="M31107 1438
L31126 1457
L31107 1476
L31088 1457
L31107 1438
L31107 1476
" />
<path d="M31369 1082
L31407 1082
L31444 1101
L31463 1120
L31482 1157
L31501 1232
L31501 1326
L31482 1401
L31463 1438
L31444 1457
L31407 1476
L31369 1476
L31332 1457
L31313 1438
L31294 1401
L31276 1326
L31276 1232
L31294 1157
L31313 1120
L31332 1101
L31369 1082
" />
<path d="M31744 1082
L31782 1082
L31819 1101
L31838 1120
L31857 1157
L31876 1232
L31876 1326
L31857 1401
L31838 1438
L31819 1457
L31782 1476
L31744 1476
L31707 1457
L31688 1438
L31669 1401
L31651 1326
L31651 1232
L31669 1157
L31688 1120
L31707 1101
L31744 1082
" />
<path d="M32119 1082
L32157 1082
L32194 1101
L32213 1120
L32232 1157
L32251 1232
L32251 1326
L32232 1401
L32213 1438
L32194 1457
L32157 1476
L32119 1476
L32082 1457
L32063 1438
L32044 1401
L32026 1326
L32026 1232
L32044 1157
L32063 1120
L32082 1101
L32119 1082
" />
<path d="M32494 1082
L32532 1082
L32569 1101
L32588 1120
L32607 1157
L32625 1232
L32625 1326
L32607 1401
L32588 1438
L32569 1457
L32532 1476
L32494 1476
L32457 1457
L32438 1438
L32419 1401
L32401 1326
L32401 1232
L32419 1157
L32438 1120
L32457 1101
L32494 1082
" />
<path d="M33094 1476
L33094 1213
" />
<path d="M33094 1082
L33075 1101
L33094 1120
L33113 1101
L33094 1082
L33094 1120
" />
<path d="M33282 1213
L33282 1476
" />
<path d="M33282 1251
L33300 1232
L33338 1213
L33394 1213
L33432 1232
L33450 1270
L33450 1476
" />
</g>
<g style="fill:#C2C2C2; fill-opacity:0.0; 
stroke:#C2C2C2; stroke-width:90; stroke-opacity:1; 
stroke-linecap:round; stroke-linejoin:round;">
<path d="M2091 1840
L62091 1840
" />
<path d="M2091 4840
L2091 1610
" />
<path d="M62091 4840
L62091 1610
" />
<path d="M62091 1840
L61648 2071
" />
<path d="M62091 1840
L61648 1610
" />
<path d="M2091 1840
L2535 2071
" />
<path d="M2091 1840
L2535 1610
" />
<circle cx="2091.67" cy="24841" r="790.569" /> 
<circle cx="62091.7" cy="24841" r="790.569" /> 
<circle cx="62091.7" cy="4840.98" r="790.569" /> 
<circle cx="2091.67" cy="4840.98" r="750" /> 
<g >
</g>
<g >
</g>
<g >
</g>
<g >
</g>
<g >
</g>
<g >
</g>
<g >
</g>
<g >
</g>
<g >
</g>
<g >
</g>
<g >
</g>
<g >
</g>
<g >
</g>
<g >
</g>
<g >
</g>
<g >
</g>
<g >
</g>
<g >
</g>
<g >
</g>
<g >
</g>
<g >
</g>
<g >
</g>
<g >
</g>
<g >
</g>
<g >
</g>
<g >
</g>
<g >
</g>
<g >
</g>
<g >
</g>
<g >
</g>
<g >
</g>
<g >
</g>
<g >
</g>
<g >
</g>
<g >
</g>
<g >
</g>
<g >
</g>
<g >
</g>
<g >
</g>
<g >
</g>
<g >
</g>
<g >
</g>
<g >
</g>
<g >
</g>
<g >
</g>
<g >
</g>
<g >
</g>
<g >
</g>
<g >
</g>
<g >
</g>
<g >
</g>
<g >
</g>
<g >
</g>
<g >
</g>
<g >
</g>
<g >
</g>
<g >
</g>
<g >
</g>
<g >
</g>
<g >
</g>
<g >
</g>
<g >
</g>
<g >
</g>
<g >
</g>
<g >
</g>
<g >
</g>
<g >
</g>
<g >
</g>
<g >
</g>
<g >
</g>
<g >
</g>
<g >
</g>
<g >
</g>
<g >
</g>
<g >
</g>
<g >
</g>
<g >
</g>
<g >
</g>
<g >
</g>
<g >
</g>
<g >
</g>
<g >
</g>
<g >
</g>
<g >
</g>
<g >
</g>
<g >
</g>
<g >
</g>
<g >
</g>
<g >
</g>
<g >
</g>
<g >
</g>
<g >
</g>
<g >
</g>
<g >
</g>
<g >
</g>
<g >
</g>
<g >
</g>
<g >
</g>
<g >
</g>
<g >
</g>
<g >
</g>
<g >
</g>
<g >
</g>
<g >
</g>
<g >
</g>
<g >
</g>
<g >
</g>
<g >
</g>
<g >
</g>
<g >
</g>
<g >
</g>
<g >
</g>
<g >
</g>
</g>
<g style="fill:#000000; fill-opacity:0.0; 
stroke:#000000; stroke-width:90; stroke-opacity:1; 
stroke-linecap:round; stroke-linejoin:round;">
</g>
<g style="fill:#C2C200; fill-opacity:0.0; 
stroke:#C2C200; stroke-width:90; stroke-opacity:1; 
stroke-linecap:round; stroke-linejoin:round;">
<path d="M63591.7 4840.98 A1500 1500 0.0 0 0 62091.7 3340.98" />
<path d="M62091.7 26341 A1500 1500 0.0 0 0 63591.7 24841" />
<path d="M591.667 24841 A1500 1500 0.0 0 0 2091.67 26341" />
<path d="M2091.67 3340.98 A1500 1500 0.0 0 0 591.667 4840.98" />
<path d="M591 24840
L591 4840
" />
<path d="M62091 26340
L2091 26340
" />
<path d="M63591 4840
L63591 24840
" />
<path d="M2091 3340
L62091 3340
" />
<g >
</g>
<g >
</g>
<g >
</g>
<g >
</g>
<g >
</g>
<g >
</g>
<g >
</g>
<g >
</g>
<g >
</g>
<g >
</g>
<g >
</g>
<g >
</g>
<g >
</g>
<g >
</g>
<g >
</g>
<g >
</g>
<g >
</g>
<g >
</g>
<g >
</g>
<g >
</g>
<g >
</g>
<g >
</g>
<g >
</g>
<g >
</g>
<g >
</g>
<g >
</g>
<g >
</g>
<g >
</g>
<g >
</g>
<g >
</g>
<g >
</g>
<g >
</g>
<g >
</g>
<g >
</g>
<g >
</g>
<g >
</g>
<g >
</g>
<g >
</g>
<g >
</g>
<g >
</g>
<g >
</g>
<g >
</g>
<g >
</g>
<g >
</g>
<g >
</g>
<g >
</g>
<g >
</g>
<g >
</g>
<g >
</g>
<g >
</g>
<g >
</g>
<g >
</g>
<g >
</g>
<g >
</g>
<g >
</g>
<g >
</g>
<g >
</g>
<g >
</g>
<g >
</g>
<g >
</g>
<g >
</g>
<g >
</g>
<g >
</g>
<g >
</g>
<g >
</g>
<g >
</g>
<g >
</g>
<g >
</g>
<g >
</g>
<g >
</g>
<g >
</g>
<g >
</g>
<g >
</g>
<g >
</g>
<g >
</g>
<g >
</g>
<g >
</g>
<g >
</g>
<g >
</g>
<g >
</g>
<g >
</g>
<g >
</g>
<g >
</g>
<g >
</g>
<g >
</g>
<g >
</g>
<g >
</g>
<g >
</g>
<g >
</g>
<g >
</g>
<g >
</g>
<g >
</g>
<g >
</g>
<g >
</g>
<g >
</g>
<g >
</g>
<g >
</g>
<g >
</g>
<g >
</g>
<g >
</g>
<g >
</g>
<g >
</g>
<g >
</g>
<g >
</g>
<g >
</g>
<g >
</g>
<g >
</g>
<g >
</g>
<g >
</g>
<g >
</g>
<g >
</g>
<g >
</g>
<g >
</g>
</g> 
</svg>
