<?xml version="1.0" standalone="no"?>
 <!DOCTYPE svg PUBLIC "-//W3C//DTD SVG 1.1//EN" 
 "http://www.w3.org/Graphics/SVG/1.1/DTD/svg11.dtd"> 
<svg
  xmlns:svg="http://www.w3.org/2000/svg"
  xmlns="http://www.w3.org/2000/svg"
  xmlns:xlink="http://www.w3.org/1999/xlink"
  version="1.1"
  width="18.270220cm" height="7.025640cm" viewBox="0 0 71930 27660">
<title>SVG Picture created as mouse_reach_controller-Dwgs_User.svg date 2021/11/12 09:30:59 </title>
  <desc>Picture generated by PCBNEW </desc>
<g style="fill:#000000; fill-opacity:1;stroke:#000000; stroke-opacity:1;
stroke-linecap:round; stroke-linejoin:round;"
 transform="translate(0 0) scale(1 1)">
</g>
<g style="fill:#000000; fill-opacity:0.0; 
stroke:#000000; stroke-width:-0.000393701; stroke-opacity:1; 
stroke-linecap:round; stroke-linejoin:round;">
</g>
<g style="fill:#C2C2C2; fill-opacity:0.0; 
stroke:#C2C2C2; stroke-width:-0.000393701; stroke-opacity:1; 
stroke-linecap:round; stroke-linejoin:round;">
</g>
<g style="fill:#C2C2C2; fill-opacity:0.0; 
stroke:#C2C2C2; stroke-width:59.0551; stroke-opacity:1; 
stroke-linecap:round; stroke-linejoin:round;">
<g transform="rotate(-270 68202.8 15605.9)">
<text x="68202.8" y="15802.7"
textLength="3477.07" font-size="524.934" lengthAdjust="spacingAndGlyphs"
text-anchor="middle" opacity="0">50.800 mm</text>
</g>
<path d="M68418 14181
L68418 13993
L68230 13974
L68249 13993
L68268 14031
L68268 14124
L68249 14162
L68230 14181
L68193 14199
L68099 14199
L68062 14181
L68043 14162
L68024 14124
L68024 14031
L68043 13993
L68062 13974
" />
<path d="M68418 14443
L68418 14481
L68399 14518
L68380 14537
L68343 14556
L68268 14574
L68174 14574
L68099 14556
L68062 14537
L68043 14518
L68024 14481
L68024 14443
L68043 14406
L68062 14387
L68099 14368
L68174 14349
L68268 14349
L68343 14368
L68380 14387
L68399 14406
L68418 14443
" />
<path d="M68062 14743
L68043 14762
L68024 14743
L68043 14724
L68062 14743
L68024 14743
" />
<path d="M68249 14987
L68268 14949
L68287 14930
L68324 14912
L68343 14912
L68380 14930
L68399 14949
L68418 14987
L68418 15062
L68399 15099
L68380 15118
L68343 15137
L68324 15137
L68287 15118
L68268 15099
L68249 15062
L68249 14987
L68230 14949
L68212 14930
L68174 14912
L68099 14912
L68062 14930
L68043 14949
L68024 14987
L68024 15062
L68043 15099
L68062 15118
L68099 15137
L68174 15137
L68212 15118
L68230 15099
L68249 15062
" />
<path d="M68418 15380
L68418 15418
L68399 15455
L68380 15474
L68343 15493
L68268 15512
L68174 15512
L68099 15493
L68062 15474
L68043 15455
L68024 15418
L68024 15380
L68043 15343
L68062 15324
L68099 15305
L68174 15287
L68268 15287
L68343 15305
L68380 15324
L68399 15343
L68418 15380
" />
<path d="M68418 15755
L68418 15793
L68399 15830
L68380 15849
L68343 15868
L68268 15887
L68174 15887
L68099 15868
L68062 15849
L68043 15830
L68024 15793
L68024 15755
L68043 15718
L68062 15699
L68099 15680
L68174 15662
L68268 15662
L68343 15680
L68380 15699
L68399 15718
L68418 15755
" />
<path d="M68024 16355
L68287 16355
" />
<path d="M68249 16355
L68268 16374
L68287 16412
L68287 16468
L68268 16505
L68230 16524
L68024 16524
" />
<path d="M68230 16524
L68268 16543
L68287 16580
L68287 16637
L68268 16674
L68230 16693
L68024 16693
" />
<path d="M68024 16880
L68287 16880
" />
<path d="M68249 16880
L68268 16899
L68287 16936
L68287 16993
L68268 17030
L68230 17049
L68024 17049
" />
<path d="M68230 17049
L68268 17068
L68287 17105
L68287 17161
L68268 17199
L68230 17218
L68024 17218
" />
</g>
<g style="fill:#C2C2C2; fill-opacity:0.0; 
stroke:#C2C2C2; stroke-width:90; stroke-opacity:1; 
stroke-linecap:round; stroke-linejoin:round;">
<path d="M67660 5605
L67660 25605
" />
<path d="M65160 5605
L67890 5605
" />
<path d="M65160 25605
L67890 25605
" />
<path d="M67660 25605
L67429 25162
" />
<path d="M67660 25605
L67890 25162
" />
<path d="M67660 5605
L67429 6049
" />
<path d="M67660 5605
L67890 6049
" />
</g>
<g style="fill:#C2C2C2; fill-opacity:0.0; 
stroke:#C2C2C2; stroke-width:59.0551; stroke-opacity:1; 
stroke-linecap:round; stroke-linejoin:round;">
<g transform="rotate(-270 70202.8 15605.9)">
<text x="70202.8" y="15802.7"
textLength="3488.85" font-size="524.934" lengthAdjust="spacingAndGlyphs"
text-anchor="middle" opacity="0">57.150 mm</text>
</g>
<path d="M70418 14181
L70418 13993
L70230 13974
L70249 13993
L70268 14031
L70268 14124
L70249 14162
L70230 14181
L70193 14199
L70099 14199
L70062 14181
L70043 14162
L70024 14124
L70024 14031
L70043 13993
L70062 13974
" />
<path d="M70418 14331
L70418 14593
L70024 14424
" />
<path d="M70062 14743
L70043 14762
L70024 14743
L70043 14724
L70062 14743
L70024 14743
" />
<path d="M70024 15137
L70024 14912
" />
<path d="M70024 15024
L70418 15024
L70362 14987
L70324 14949
L70305 14912
" />
<path d="M70418 15493
L70418 15305
L70230 15287
L70249 15305
L70268 15343
L70268 15437
L70249 15474
L70230 15493
L70193 15512
L70099 15512
L70062 15493
L70043 15474
L70024 15437
L70024 15343
L70043 15305
L70062 15287
" />
<path d="M70418 15755
L70418 15793
L70399 15830
L70380 15849
L70343 15868
L70268 15887
L70174 15887
L70099 15868
L70062 15849
L70043 15830
L70024 15793
L70024 15755
L70043 15718
L70062 15699
L70099 15680
L70174 15662
L70268 15662
L70343 15680
L70380 15699
L70399 15718
L70418 15755
" />
<path d="M70024 16355
L70287 16355
" />
<path d="M70249 16355
L70268 16374
L70287 16412
L70287 16468
L70268 16505
L70230 16524
L70024 16524
" />
<path d="M70230 16524
L70268 16543
L70287 16580
L70287 16637
L70268 16674
L70230 16693
L70024 16693
" />
<path d="M70024 16880
L70287 16880
" />
<path d="M70249 16880
L70268 16899
L70287 16936
L70287 16993
L70268 17030
L70230 17049
L70024 17049
" />
<path d="M70230 17049
L70268 17068
L70287 17105
L70287 17161
L70268 17199
L70230 17218
L70024 17218
" />
</g>
<g style="fill:#C2C2C2; fill-opacity:0.0; 
stroke:#C2C2C2; stroke-width:90; stroke-opacity:1; 
stroke-linecap:round; stroke-linejoin:round;">
<path d="M69660 4355
L69660 26855
" />
<path d="M64910 4355
L69890 4355
" />
<path d="M64910 26855
L69890 26855
" />
<path d="M69660 26855
L69429 26412
" />
<path d="M69660 26855
L69890 26412
" />
<path d="M69660 4355
L69429 4799
" />
<path d="M69660 4355
L69890 4799
" />
<circle cx="5160" cy="25605.9" r="790.569" /> 
<circle cx="65160" cy="25605.9" r="790.569" /> 
<circle cx="65160" cy="5605.9" r="790.569" /> 
<circle cx="5160" cy="5605.9" r="750" /> 
</g>
<g style="fill:#C2C2C2; fill-opacity:0.0; 
stroke:#C2C2C2; stroke-width:59.0551; stroke-opacity:1; 
stroke-linecap:round; stroke-linejoin:round;">
<text x="35160" y="1759.99"
textLength="3863.8" font-size="524.934" lengthAdjust="spacingAndGlyphs"
text-anchor="middle" opacity="0">152.400 mm</text>
<path d="M33566 1741
L33341 1741
" />
<path d="M33453 1741
L33453 1347
L33416 1403
L33378 1441
L33341 1460
" />
<path d="M33922 1347
L33735 1347
L33716 1535
L33735 1516
L33772 1497
L33866 1497
L33903 1516
L33922 1535
L33941 1572
L33941 1666
L33922 1703
L33903 1722
L33866 1741
L33772 1741
L33735 1722
L33716 1703
" />
<path d="M34091 1385
L34110 1366
L34147 1347
L34241 1347
L34278 1366
L34297 1385
L34316 1422
L34316 1460
L34297 1516
L34072 1741
L34316 1741
" />
<path d="M34485 1703
L34503 1722
L34485 1741
L34466 1722
L34485 1703
L34485 1741
" />
<path d="M34841 1478
L34841 1741
" />
<path d="M34747 1328
L34653 1610
L34897 1610
" />
<path d="M35122 1347
L35160 1347
L35197 1366
L35216 1385
L35234 1422
L35253 1497
L35253 1591
L35234 1666
L35216 1703
L35197 1722
L35160 1741
L35122 1741
L35085 1722
L35066 1703
L35047 1666
L35028 1591
L35028 1497
L35047 1422
L35066 1385
L35085 1366
L35122 1347
" />
<path d="M35497 1347
L35534 1347
L35572 1366
L35591 1385
L35609 1422
L35628 1497
L35628 1591
L35609 1666
L35591 1703
L35572 1722
L35534 1741
L35497 1741
L35459 1722
L35441 1703
L35422 1666
L35403 1591
L35403 1497
L35422 1422
L35441 1385
L35459 1366
L35497 1347
" />
<path d="M36097 1741
L36097 1478
" />
<path d="M36097 1516
L36116 1497
L36153 1478
L36209 1478
L36247 1497
L36266 1535
L36266 1741
" />
<path d="M36266 1535
L36284 1497
L36322 1478
L36378 1478
L36416 1497
L36434 1535
L36434 1741
" />
<path d="M36622 1741
L36622 1478
" />
<path d="M36622 1516
L36641 1497
L36678 1478
L36734 1478
L36772 1497
L36791 1535
L36791 1741
" />
<path d="M36791 1535
L36809 1497
L36847 1478
L36903 1478
L36941 1497
L36959 1535
L36959 1741
" />
</g>
<g style="fill:#C2C2C2; fill-opacity:0.0; 
stroke:#C2C2C2; stroke-width:90; stroke-opacity:1; 
stroke-linecap:round; stroke-linejoin:round;">
<path d="M5160 2105
L65160 2105
" />
<path d="M5160 5605
L5160 1875
" />
<path d="M65160 5605
L65160 1875
" />
<path d="M65160 2105
L64716 2336
" />
<path d="M65160 2105
L64716 1875
" />
<path d="M5160 2105
L5603 2336
" />
<path d="M5160 2105
L5603 1875
" />
</g>
<g style="fill:#C2C2C2; fill-opacity:0.0; 
stroke:#C2C2C2; stroke-width:59.0551; stroke-opacity:1; 
stroke-linecap:round; stroke-linejoin:round;">
<g transform="rotate(-359.771 35182.7 298.228)">
<text x="35182.7" y="495.079"
textLength="3863.8" font-size="524.934" lengthAdjust="spacingAndGlyphs"
text-anchor="middle" opacity="0">158.751 mm</text>
</g>
<path d="M33588 469
L33363 469
" />
<path d="M33475 469
L33477 75
L33439 131
L33402 169
L33364 187
" />
<path d="M33946 77
L33758 76
L33739 264
L33758 245
L33795 227
L33889 227
L33926 246
L33945 265
L33964 302
L33963 396
L33944 433
L33926 452
L33888 471
L33794 470
L33757 451
L33738 433
" />
<path d="M34189 247
L34151 228
L34133 209
L34114 172
L34114 153
L34133 115
L34152 97
L34189 78
L34264 78
L34302 97
L34321 116
L34339 154
L34339 172
L34320 210
L34301 229
L34264 247
L34189 247
L34151 265
L34132 284
L34114 322
L34113 397
L34132 434
L34150 453
L34188 472
L34263 472
L34300 454
L34319 435
L34338 397
L34338 322
L34320 285
L34301 266
L34264 247
" />
<path d="M34507 436
L34525 454
L34507 473
L34488 454
L34507 436
L34507 473
" />
<path d="M34658 80
L34921 81
L34750 474
" />
<path d="M35258 82
L35071 82
L35051 269
L35070 250
L35108 232
L35201 232
L35239 251
L35257 270
L35276 307
L35276 401
L35257 439
L35238 457
L35200 476
L35107 476
L35069 457
L35050 438
" />
<path d="M35650 478
L35425 477
" />
<path d="M35538 477
L35539 84
L35502 140
L35464 177
L35426 196
" />
<path d="M36119 480
L36120 217
" />
<path d="M36120 255
L36139 236
L36176 217
L36232 218
L36270 236
L36288 274
L36288 480
" />
<path d="M36288 274
L36307 237
L36345 218
L36401 218
L36439 237
L36457 275
L36456 481
" />
<path d="M36644 482
L36645 219
" />
<path d="M36645 257
L36664 238
L36701 219
L36757 220
L36795 239
L36813 276
L36813 482
" />
<path d="M36813 276
L36832 239
L36870 220
L36926 220
L36964 239
L36982 277
L36981 483
" />
</g>
<g style="fill:#C2C2C2; fill-opacity:0.0; 
stroke:#C2C2C2; stroke-width:90; stroke-opacity:1; 
stroke-linecap:round; stroke-linejoin:round;">
<path d="M3930 715
L66430 965
" />
<path d="M3910 5855
L3931 485
" />
<path d="M66410 6105
L66431 735
" />
<path d="M66430 965
L65986 1195
" />
<path d="M66430 965
L65987 733
" />
<path d="M3930 715
L4373 948
" />
<path d="M3930 715
L4374 486
" />
<g >
</g>
<g >
</g>
<g >
</g>
<g >
</g>
<g >
</g>
<g >
</g>
<g >
</g>
<g >
</g>
<g >
</g>
<g >
</g>
<g >
</g>
<g >
</g>
<g >
</g>
<g >
</g>
<g >
</g>
<g >
</g>
<g >
</g>
<g >
</g>
<g >
</g>
<g >
</g>
<g >
</g>
<g >
</g>
<g >
</g>
<g >
</g>
<g >
</g>
<g >
</g>
<g >
</g>
<g >
</g>
<g >
</g>
<g >
</g>
<g >
</g>
<g >
</g>
<g >
</g>
<g >
</g>
<g >
</g>
<g >
</g>
<g >
</g>
<g >
</g>
<g >
</g>
<g >
</g>
<g >
</g>
<g >
</g>
<g >
</g>
<g >
</g>
<g >
</g>
<g >
</g>
<g >
</g>
<g >
</g>
<g >
</g>
<g >
</g>
<g >
</g>
<g >
</g>
</g>
<g style="fill:#000000; fill-opacity:0.0; 
stroke:#000000; stroke-width:90; stroke-opacity:1; 
stroke-linecap:round; stroke-linejoin:round;">
</g>
<g style="fill:#C2C200; fill-opacity:0.0; 
stroke:#C2C200; stroke-width:90; stroke-opacity:1; 
stroke-linecap:round; stroke-linejoin:round;">
<path d="M66410 5605.9 A1250 1250 0.0 0 0 65160 4355.9" />
<path d="M65160 26855.9 A1250 1250 0.0 0 0 66410 25605.9" />
<path d="M3910 25605.9 A1250 1250 0.0 0 0 5160 26855.9" />
<path d="M5160 4355.9 A1250 1250 0.0 0 0 3910 5605.9" />
<path d="M3910 25605
L3910 5605
" />
<path d="M65160 26855
L5160 26855
" />
<path d="M66410 5605
L66410 25605
" />
<path d="M5160 4355
L65160 4355
" />
<g >
</g>
<g >
</g>
<g >
</g>
<g >
</g>
<g >
</g>
<g >
</g>
<g >
</g>
<g >
</g>
<g >
</g>
<g >
</g>
<g >
</g>
<g >
</g>
<g >
</g>
<g >
</g>
<g >
</g>
<g >
</g>
<g >
</g>
<g >
</g>
<g >
</g>
<g >
</g>
<g >
</g>
<g >
</g>
<g >
</g>
<g >
</g>
<g >
</g>
<g >
</g>
<g >
</g>
<g >
</g>
<g >
</g>
<g >
</g>
<g >
</g>
<g >
</g>
<g >
</g>
<g >
</g>
<g >
</g>
<g >
</g>
<g >
</g>
<g >
</g>
<g >
</g>
<g >
</g>
<g >
</g>
<g >
</g>
<g >
</g>
<g >
</g>
<g >
</g>
<g >
</g>
<g >
</g>
<g >
</g>
<g >
</g>
<g >
</g>
<g >
</g>
<g >
</g>
</g> 
</svg>
