<?xml version="1.0" standalone="no"?>
 <!DOCTYPE svg PUBLIC "-//W3C//DTD SVG 1.1//EN" 
 "http://www.w3.org/Graphics/SVG/1.1/DTD/svg11.dtd"> 
<svg
  xmlns:svg="http://www.w3.org/2000/svg"
  xmlns="http://www.w3.org/2000/svg"
  xmlns:xlink="http://www.w3.org/1999/xlink"
  version="1.1"
  width="18.270220cm" height="7.025640cm" viewBox="0 0 71930 27660">
<title>SVG Picture created as mouse_reach_controller-F_SilkS.svg date 2021/11/12 09:30:59 </title>
  <desc>Picture generated by PCBNEW </desc>
<g style="fill:#000000; fill-opacity:1;stroke:#000000; stroke-opacity:1;
stroke-linecap:round; stroke-linejoin:round;"
 transform="translate(0 0) scale(1 1)">
</g>
<g style="fill:#000000; fill-opacity:0.0; 
stroke:#000000; stroke-width:-0.000393701; stroke-opacity:1; 
stroke-linecap:round; stroke-linejoin:round;">
</g>
<g style="fill:#008484; fill-opacity:0.0; 
stroke:#008484; stroke-width:-0.000393701; stroke-opacity:1; 
stroke-linecap:round; stroke-linejoin:round;">
</g>
<g style="fill:#008484; fill-opacity:0.0; 
stroke:#008484; stroke-width:200; stroke-opacity:1; 
stroke-linecap:round; stroke-linejoin:round;">
<text x="16660" y="10255.9"
textLength="4118.11" font-size="1066.67" lengthAdjust="spacingAndGlyphs"
text-anchor="middle" opacity="0">Buzzer</text>
<path d="M15117 9798
L15231 9836
L15269 9874
L15307 9951
L15307 10065
L15269 10141
L15231 10179
L15155 10217
L14850 10217
L14850 9417
L15117 9417
L15193 9455
L15231 9493
L15269 9570
L15269 9646
L15231 9722
L15193 9760
L15117 9798
L14850 9798
" />
<path d="M15993 9684
L15993 10217
" />
<path d="M15650 9684
L15650 10103
L15688 10179
L15764 10217
L15879 10217
L15955 10179
L15993 10141
" />
<path d="M16298 9684
L16717 9684
L16298 10217
L16717 10217
" />
<path d="M16945 9684
L17364 9684
L16945 10217
L17364 10217
" />
<path d="M17974 10179
L17898 10217
L17745 10217
L17669 10179
L17631 10103
L17631 9798
L17669 9722
L17745 9684
L17898 9684
L17974 9722
L18012 9798
L18012 9874
L17631 9951
" />
<path d="M18355 10217
L18355 9684
" />
<path d="M18355 9836
L18393 9760
L18431 9722
L18507 9684
L18583 9684
" />
<text x="21660" y="12005.9"
textLength="3498.1" font-size="1066.67" lengthAdjust="spacingAndGlyphs"
text-anchor="middle" opacity="0">Audio</text>
<path d="M20193 11739
L20574 11739
" />
<path d="M20117 11967
L20383 11167
L20650 11967
" />
<path d="M21260 11434
L21260 11967
" />
<path d="M20917 11434
L20917 11853
L20955 11929
L21031 11967
L21145 11967
L21221 11929
L21260 11891
" />
<path d="M21983 11967
L21983 11167
" />
<path d="M21983 11929
L21907 11967
L21755 11967
L21679 11929
L21640 11891
L21602 11815
L21602 11586
L21640 11510
L21679 11472
L21755 11434
L21907 11434
L21983 11472
" />
<path d="M22364 11967
L22364 11434
" />
<path d="M22364 11167
L22326 11205
L22364 11243
L22402 11205
L22364 11167
L22364 11243
" />
<path d="M22860 11967
L22783 11929
L22745 11891
L22707 11815
L22707 11586
L22745 11510
L22783 11472
L22860 11434
L22974 11434
L23050 11472
L23088 11510
L23126 11586
L23126 11815
L23088 11891
L23050 11929
L22974 11967
L22860 11967
" />
<text x="56660" y="10005.9"
textLength="6164.76" font-size="1066.67" lengthAdjust="spacingAndGlyphs"
text-anchor="middle" opacity="0">Stepper 2</text>
<path d="M53860 9929
L53974 9967
L54164 9967
L54240 9929
L54279 9891
L54317 9815
L54317 9739
L54279 9663
L54240 9624
L54164 9586
L54012 9548
L53936 9510
L53898 9472
L53860 9396
L53860 9320
L53898 9243
L53936 9205
L54012 9167
L54202 9167
L54317 9205
" />
<path d="M54545 9434
L54850 9434
" />
<path d="M54660 9167
L54660 9853
L54698 9929
L54774 9967
L54850 9967
" />
<path d="M55421 9929
L55345 9967
L55193 9967
L55117 9929
L55079 9853
L55079 9548
L55117 9472
L55193 9434
L55345 9434
L55421 9472
L55460 9548
L55460 9624
L55079 9701
" />
<path d="M55802 9434
L55802 10234
" />
<path d="M55802 9472
L55879 9434
L56031 9434
L56107 9472
L56145 9510
L56183 9586
L56183 9815
L56145 9891
L56107 9929
L56031 9967
L55879 9967
L55802 9929
" />
<path d="M56526 9434
L56526 10234
" />
<path d="M56526 9472
L56602 9434
L56755 9434
L56831 9472
L56869 9510
L56907 9586
L56907 9815
L56869 9891
L56831 9929
L56755 9967
L56602 9967
L56526 9929
" />
<path d="M57555 9929
L57479 9967
L57326 9967
L57250 9929
L57212 9853
L57212 9548
L57250 9472
L57326 9434
L57479 9434
L57555 9472
L57593 9548
L57593 9624
L57212 9701
" />
<path d="M57936 9967
L57936 9434
" />
<path d="M57936 9586
L57974 9510
L58012 9472
L58088 9434
L58164 9434
" />
<path d="M59002 9243
L59040 9205
L59117 9167
L59307 9167
L59383 9205
L59421 9243
L59460 9320
L59460 9396
L59421 9510
L58964 9967
L59460 9967
" />
<text x="43660" y="10005.9"
textLength="6164.76" font-size="1066.67" lengthAdjust="spacingAndGlyphs"
text-anchor="middle" opacity="0">Stepper 1</text>
<path d="M40860 9929
L40974 9967
L41164 9967
L41240 9929
L41279 9891
L41317 9815
L41317 9739
L41279 9663
L41240 9624
L41164 9586
L41012 9548
L40936 9510
L40898 9472
L40860 9396
L40860 9320
L40898 9243
L40936 9205
L41012 9167
L41202 9167
L41317 9205
" />
<path d="M41545 9434
L41850 9434
" />
<path d="M41660 9167
L41660 9853
L41698 9929
L41774 9967
L41850 9967
" />
<path d="M42421 9929
L42345 9967
L42193 9967
L42117 9929
L42079 9853
L42079 9548
L42117 9472
L42193 9434
L42345 9434
L42421 9472
L42460 9548
L42460 9624
L42079 9701
" />
<path d="M42802 9434
L42802 10234
" />
<path d="M42802 9472
L42879 9434
L43031 9434
L43107 9472
L43145 9510
L43183 9586
L43183 9815
L43145 9891
L43107 9929
L43031 9967
L42879 9967
L42802 9929
" />
<path d="M43526 9434
L43526 10234
" />
<path d="M43526 9472
L43602 9434
L43755 9434
L43831 9472
L43869 9510
L43907 9586
L43907 9815
L43869 9891
L43831 9929
L43755 9967
L43602 9967
L43526 9929
" />
<path d="M44555 9929
L44479 9967
L44326 9967
L44250 9929
L44212 9853
L44212 9548
L44250 9472
L44326 9434
L44479 9434
L44555 9472
L44593 9548
L44593 9624
L44212 9701
" />
<path d="M44936 9967
L44936 9434
" />
<path d="M44936 9586
L44974 9510
L45012 9472
L45088 9434
L45164 9434
" />
<path d="M46460 9967
L46002 9967
" />
<path d="M46231 9967
L46231 9167
L46155 9282
L46079 9358
L46002 9396
" />
<text x="30660" y="10005.9"
textLength="6164.76" font-size="1066.67" lengthAdjust="spacingAndGlyphs"
text-anchor="middle" opacity="0">Stepper 0</text>
<path d="M27860 9929
L27974 9967
L28164 9967
L28240 9929
L28279 9891
L28317 9815
L28317 9739
L28279 9663
L28240 9624
L28164 9586
L28012 9548
L27936 9510
L27898 9472
L27860 9396
L27860 9320
L27898 9243
L27936 9205
L28012 9167
L28202 9167
L28317 9205
" />
<path d="M28545 9434
L28850 9434
" />
<path d="M28660 9167
L28660 9853
L28698 9929
L28774 9967
L28850 9967
" />
<path d="M29421 9929
L29345 9967
L29193 9967
L29117 9929
L29079 9853
L29079 9548
L29117 9472
L29193 9434
L29345 9434
L29421 9472
L29460 9548
L29460 9624
L29079 9701
" />
<path d="M29802 9434
L29802 10234
" />
<path d="M29802 9472
L29879 9434
L30031 9434
L30107 9472
L30145 9510
L30183 9586
L30183 9815
L30145 9891
L30107 9929
L30031 9967
L29879 9967
L29802 9929
" />
<path d="M30526 9434
L30526 10234
" />
<path d="M30526 9472
L30602 9434
L30755 9434
L30831 9472
L30869 9510
L30907 9586
L30907 9815
L30869 9891
L30831 9929
L30755 9967
L30602 9967
L30526 9929
" />
<path d="M31555 9929
L31479 9967
L31326 9967
L31250 9929
L31212 9853
L31212 9548
L31250 9472
L31326 9434
L31479 9434
L31555 9472
L31593 9548
L31593 9624
L31212 9701
" />
<path d="M31936 9967
L31936 9434
" />
<path d="M31936 9586
L31974 9510
L32012 9472
L32088 9434
L32164 9434
" />
<path d="M33193 9167
L33269 9167
L33345 9205
L33383 9243
L33421 9320
L33460 9472
L33460 9663
L33421 9815
L33383 9891
L33345 9929
L33269 9967
L33193 9967
L33117 9929
L33079 9891
L33040 9815
L33002 9663
L33002 9472
L33040 9320
L33079 9243
L33117 9205
L33193 9167
" />
<text x="13160" y="21105.9"
textLength="14469.5" font-size="1066.67" lengthAdjust="spacingAndGlyphs"
text-anchor="middle" opacity="0">mouse_reach_controller</text>
<path d="M6245 21067
L6245 20534
" />
<path d="M6245 20610
L6283 20572
L6360 20534
L6474 20534
L6550 20572
L6588 20648
L6588 21067
" />
<path d="M6588 20648
L6626 20572
L6702 20534
L6817 20534
L6893 20572
L6931 20648
L6931 21067
" />
<path d="M7426 21067
L7350 21029
L7312 20991
L7274 20915
L7274 20686
L7312 20610
L7350 20572
L7426 20534
L7540 20534
L7617 20572
L7655 20610
L7693 20686
L7693 20915
L7655 20991
L7617 21029
L7540 21067
L7426 21067
" />
<path d="M8379 20534
L8379 21067
" />
<path d="M8036 20534
L8036 20953
L8074 21029
L8150 21067
L8264 21067
L8340 21029
L8379 20991
" />
<path d="M8721 21029
L8798 21067
L8950 21067
L9026 21029
L9064 20953
L9064 20915
L9026 20839
L8950 20801
L8836 20801
L8760 20763
L8721 20686
L8721 20648
L8760 20572
L8836 20534
L8950 20534
L9026 20572
" />
<path d="M9712 21029
L9636 21067
L9483 21067
L9407 21029
L9369 20953
L9369 20648
L9407 20572
L9483 20534
L9636 20534
L9712 20572
L9750 20648
L9750 20724
L9369 20801
" />
<path d="M9902 21143
L10512 21143
" />
<path d="M10702 21067
L10702 20534
" />
<path d="M10702 20686
L10740 20610
L10779 20572
L10855 20534
L10931 20534
" />
<path d="M11502 21029
L11426 21067
L11274 21067
L11198 21029
L11160 20953
L11160 20648
L11198 20572
L11274 20534
L11426 20534
L11502 20572
L11540 20648
L11540 20724
L11160 20801
" />
<path d="M12226 21067
L12226 20648
L12188 20572
L12112 20534
L11960 20534
L11883 20572
" />
<path d="M12226 21029
L12150 21067
L11960 21067
L11883 21029
L11845 20953
L11845 20877
L11883 20801
L11960 20763
L12150 20763
L12226 20724
" />
<path d="M12950 21029
L12874 21067
L12721 21067
L12645 21029
L12607 20991
L12569 20915
L12569 20686
L12607 20610
L12645 20572
L12721 20534
L12874 20534
L12950 20572
" />
<path d="M13293 21067
L13293 20267
" />
<path d="M13636 21067
L13636 20648
L13598 20572
L13521 20534
L13407 20534
L13331 20572
L13293 20610
" />
<path d="M13826 21143
L14436 21143
" />
<path d="M14969 21029
L14893 21067
L14740 21067
L14664 21029
L14626 20991
L14588 20915
L14588 20686
L14626 20610
L14664 20572
L14740 20534
L14893 20534
L14969 20572
" />
<path d="M15426 21067
L15350 21029
L15312 20991
L15274 20915
L15274 20686
L15312 20610
L15350 20572
L15426 20534
L15540 20534
L15617 20572
L15655 20610
L15693 20686
L15693 20915
L15655 20991
L15617 21029
L15540 21067
L15426 21067
" />
<path d="M16036 20534
L16036 21067
" />
<path d="M16036 20610
L16074 20572
L16150 20534
L16264 20534
L16340 20572
L16379 20648
L16379 21067
" />
<path d="M16645 20534
L16950 20534
" />
<path d="M16760 20267
L16760 20953
L16798 21029
L16874 21067
L16950 21067
" />
<path d="M17217 21067
L17217 20534
" />
<path d="M17217 20686
L17255 20610
L17293 20572
L17369 20534
L17445 20534
" />
<path d="M17826 21067
L17750 21029
L17712 20991
L17674 20915
L17674 20686
L17712 20610
L17750 20572
L17826 20534
L17940 20534
L18017 20572
L18055 20610
L18093 20686
L18093 20915
L18055 20991
L18017 21029
L17940 21067
L17826 21067
" />
<path d="M18550 21067
L18474 21029
L18436 20953
L18436 20267
" />
<path d="M18969 21067
L18893 21029
L18855 20953
L18855 20267
" />
<path d="M19579 21029
L19502 21067
L19350 21067
L19274 21029
L19236 20953
L19236 20648
L19274 20572
L19350 20534
L19502 20534
L19579 20572
L19617 20648
L19617 20724
L19236 20801
" />
<path d="M19960 21067
L19960 20534
" />
<path d="M19960 20686
L19998 20610
L20036 20572
L20112 20534
L20188 20534
" />
<text x="13160" y="22505.9"
textLength="15879" font-size="1066.67" lengthAdjust="spacingAndGlyphs"
text-anchor="middle" opacity="0">Janelia Research Campus</text>
<path d="M5769 21667
L5769 22239
L5731 22353
L5655 22429
L5540 22467
L5464 22467
" />
<path d="M6493 22467
L6493 22048
L6455 21972
L6379 21934
L6226 21934
L6150 21972
" />
<path d="M6493 22429
L6417 22467
L6226 22467
L6150 22429
L6112 22353
L6112 22277
L6150 22201
L6226 22163
L6417 22163
L6493 22124
" />
<path d="M6874 21934
L6874 22467
" />
<path d="M6874 22010
L6912 21972
L6988 21934
L7102 21934
L7179 21972
L7217 22048
L7217 22467
" />
<path d="M7902 22429
L7826 22467
L7674 22467
L7598 22429
L7560 22353
L7560 22048
L7598 21972
L7674 21934
L7826 21934
L7902 21972
L7940 22048
L7940 22124
L7560 22201
" />
<path d="M8398 22467
L8321 22429
L8283 22353
L8283 21667
" />
<path d="M8702 22467
L8702 21934
" />
<path d="M8702 21667
L8664 21705
L8702 21743
L8740 21705
L8702 21667
L8702 21743
" />
<path d="M9426 22467
L9426 22048
L9388 21972
L9312 21934
L9160 21934
L9083 21972
" />
<path d="M9426 22429
L9350 22467
L9160 22467
L9083 22429
L9045 22353
L9045 22277
L9083 22201
L9160 22163
L9350 22163
L9426 22124
" />
<path d="M10874 22467
L10607 22086
" />
<path d="M10417 22467
L10417 21667
L10721 21667
L10798 21705
L10836 21743
L10874 21820
L10874 21934
L10836 22010
L10798 22048
L10721 22086
L10417 22086
" />
<path d="M11521 22429
L11445 22467
L11293 22467
L11217 22429
L11179 22353
L11179 22048
L11217 21972
L11293 21934
L11445 21934
L11521 21972
L11560 22048
L11560 22124
L11179 22201
" />
<path d="M11864 22429
L11940 22467
L12093 22467
L12169 22429
L12207 22353
L12207 22315
L12169 22239
L12093 22201
L11979 22201
L11902 22163
L11864 22086
L11864 22048
L11902 21972
L11979 21934
L12093 21934
L12169 21972
" />
<path d="M12855 22429
L12779 22467
L12626 22467
L12550 22429
L12512 22353
L12512 22048
L12550 21972
L12626 21934
L12779 21934
L12855 21972
L12893 22048
L12893 22124
L12512 22201
" />
<path d="M13579 22467
L13579 22048
L13540 21972
L13464 21934
L13312 21934
L13236 21972
" />
<path d="M13579 22429
L13502 22467
L13312 22467
L13236 22429
L13198 22353
L13198 22277
L13236 22201
L13312 22163
L13502 22163
L13579 22124
" />
<path d="M13960 22467
L13960 21934
" />
<path d="M13960 22086
L13998 22010
L14036 21972
L14112 21934
L14188 21934
" />
<path d="M14798 22429
L14721 22467
L14569 22467
L14493 22429
L14455 22391
L14417 22315
L14417 22086
L14455 22010
L14493 21972
L14569 21934
L14721 21934
L14798 21972
" />
<path d="M15140 22467
L15140 21667
" />
<path d="M15483 22467
L15483 22048
L15445 21972
L15369 21934
L15255 21934
L15179 21972
L15140 22010
" />
<path d="M16931 22391
L16893 22429
L16779 22467
L16702 22467
L16588 22429
L16512 22353
L16474 22277
L16436 22124
L16436 22010
L16474 21858
L16512 21782
L16588 21705
L16702 21667
L16779 21667
L16893 21705
L16931 21743
" />
<path d="M17617 22467
L17617 22048
L17579 21972
L17502 21934
L17350 21934
L17274 21972
" />
<path d="M17617 22429
L17540 22467
L17350 22467
L17274 22429
L17236 22353
L17236 22277
L17274 22201
L17350 22163
L17540 22163
L17617 22124
" />
<path d="M17998 22467
L17998 21934
" />
<path d="M17998 22010
L18036 21972
L18112 21934
L18226 21934
L18302 21972
L18340 22048
L18340 22467
" />
<path d="M18340 22048
L18379 21972
L18455 21934
L18569 21934
L18645 21972
L18683 22048
L18683 22467
" />
<path d="M19064 21934
L19064 22734
" />
<path d="M19064 21972
L19140 21934
L19293 21934
L19369 21972
L19407 22010
L19445 22086
L19445 22315
L19407 22391
L19369 22429
L19293 22467
L19140 22467
L19064 22429
" />
<path d="M20131 21934
L20131 22467
" />
<path d="M19788 21934
L19788 22353
L19826 22429
L19902 22467
L20017 22467
L20093 22429
L20131 22391
" />
<path d="M20474 22429
L20550 22467
L20702 22467
L20779 22429
L20817 22353
L20817 22315
L20779 22239
L20702 22201
L20588 22201
L20512 22163
L20474 22086
L20474 22048
L20512 21972
L20588 21934
L20702 21934
L20779 21972
" />
<text x="13160" y="23905.9"
textLength="10583.8" font-size="1066.67" lengthAdjust="spacingAndGlyphs"
text-anchor="middle" opacity="0">11/2021 ver 1.0</text>
<path d="M8607 23867
L8150 23867
" />
<path d="M8379 23867
L8379 23067
L8302 23182
L8226 23258
L8150 23296
" />
<path d="M9369 23867
L8912 23867
" />
<path d="M9140 23867
L9140 23067
L9064 23182
L8988 23258
L8912 23296
" />
<path d="M10283 23029
L9598 24058
" />
<path d="M10512 23143
L10550 23105
L10626 23067
L10817 23067
L10893 23105
L10931 23143
L10969 23220
L10969 23296
L10931 23410
L10474 23867
L10969 23867
" />
<path d="M11464 23067
L11540 23067
L11617 23105
L11655 23143
L11693 23220
L11731 23372
L11731 23563
L11693 23715
L11655 23791
L11617 23829
L11540 23867
L11464 23867
L11388 23829
L11350 23791
L11312 23715
L11274 23563
L11274 23372
L11312 23220
L11350 23143
L11388 23105
L11464 23067
" />
<path d="M12036 23143
L12074 23105
L12150 23067
L12340 23067
L12417 23105
L12455 23143
L12493 23220
L12493 23296
L12455 23410
L11998 23867
L12493 23867
" />
<path d="M13255 23867
L12798 23867
" />
<path d="M13026 23867
L13026 23067
L12950 23182
L12874 23258
L12798 23296
" />
<path d="M14131 23334
L14321 23867
L14512 23334
" />
<path d="M15121 23829
L15045 23867
L14893 23867
L14817 23829
L14779 23753
L14779 23448
L14817 23372
L14893 23334
L15045 23334
L15121 23372
L15160 23448
L15160 23524
L14779 23601
" />
<path d="M15502 23867
L15502 23334
" />
<path d="M15502 23486
L15540 23410
L15579 23372
L15655 23334
L15731 23334
" />
<path d="M17026 23867
L16569 23867
" />
<path d="M16798 23867
L16798 23067
L16721 23182
L16645 23258
L16569 23296
" />
<path d="M17369 23791
L17407 23829
L17369 23867
L17331 23829
L17369 23791
L17369 23867
" />
<path d="M17902 23067
L17979 23067
L18055 23105
L18093 23143
L18131 23220
L18169 23372
L18169 23563
L18131 23715
L18093 23791
L18055 23829
L17979 23867
L17902 23867
L17826 23829
L17788 23791
L17750 23715
L17712 23563
L17712 23372
L17750 23220
L17788 23143
L17826 23105
L17902 23067
" />
</g>
<g style="fill:#008484; fill-opacity:0.0; 
stroke:#008484; stroke-width:150; stroke-opacity:1; 
stroke-linecap:round; stroke-linejoin:round;">
<path d="M36960 5405
L24360 5405
" />
<path d="M24360 5405
L24360 8805
" />
<path d="M24360 8805
L36960 8805
" />
<path d="M36960 5405
L36960 8805
" />
<path d="M32660 5305
L33160 4805
" />
<path d="M33160 4805
L32160 4805
" />
<path d="M32160 4805
L32660 5305
" />
<path d="M29860 5405
L29860 5205
" />
<path d="M29860 5205
L31460 5205
" />
<path d="M31460 5205
L31460 5405
" />
<path d="M49960 5405
L37360 5405
" />
<path d="M37360 5405
L37360 8805
" />
<path d="M37360 8805
L49960 8805
" />
<path d="M49960 5405
L49960 8805
" />
<path d="M45660 5305
L46160 4805
" />
<path d="M46160 4805
L45160 4805
" />
<path d="M45160 4805
L45660 5305
" />
<path d="M42860 5405
L42860 5205
" />
<path d="M42860 5205
L44460 5205
" />
<path d="M44460 5205
L44460 5405
" />
<path d="M62960 5405
L50360 5405
" />
<path d="M50360 5405
L50360 8805
" />
<path d="M50360 8805
L62960 8805
" />
<path d="M62960 5405
L62960 8805
" />
<path d="M58660 5305
L59160 4805
" />
<path d="M59160 4805
L58160 4805
" />
<path d="M58160 4805
L58660 5305
" />
<path d="M55860 5405
L55860 5205
" />
<path d="M55860 5205
L57460 5205
" />
<path d="M57460 5205
L57460 5405
" />
</g>
<g style="fill:#008484; fill-opacity:0.0; 
stroke:#008484; stroke-width:70; stroke-opacity:1; 
stroke-linecap:round; stroke-linejoin:round;">
<path d="M24760 16655
L25360 16655
" />
<path d="M24760 15555
L24760 16655
" />
<path d="M25360 15555
L24760 15555
" />
<path d="M26560 15555
L25960 15555
" />
<path d="M26560 16655
L26560 15555
" />
<path d="M25960 16655
L26560 16655
" />
<path d="M17110 10763
L17110 10448
" />
<path d="M16738 10763
L16994 10763
" />
<path d="M16994 10763
L16994 10448
" />
<path d="M16994 10448
L16738 10448
" />
<path d="M16581 10763
L16325 10763
" />
<path d="M16325 10763
L16325 10448
" />
<path d="M16325 10448
L16581 10448
" />
<path d="M12160 9355
L8160 9355
" />
<path d="M12160 13355
L12160 9355
" />
<path d="M8160 13355
L12160 13355
" />
<path d="M8160 9355
L8160 13355
" />
<path d="M7660 5855
L7660 4855
" />
<path d="M6660 5855
L7660 5855
" />
<circle cx="13160" cy="18355.9" r="500" /> 
<circle cx="13160" cy="17355.9" r="500" /> 
<circle cx="13160" cy="16355.9" r="500" /> 
<circle cx="13160" cy="15355.9" r="500" /> 
<circle cx="13160" cy="14355.9" r="500" /> 
<circle cx="13160" cy="13355.9" r="500" /> 
<circle cx="13160" cy="12355.9" r="500" /> 
<circle cx="13160" cy="11355.9" r="500" /> 
<circle cx="13160" cy="10355.9" r="500" /> 
<circle cx="13160" cy="9355.9" r="500" /> 
<circle cx="13160" cy="8355.9" r="500" /> 
<circle cx="13160" cy="7355.9" r="500" /> 
<circle cx="13160" cy="6355.9" r="500" /> 
<circle cx="13160" cy="5355.9" r="500" /> 
<circle cx="7160" cy="18355.9" r="500" /> 
<circle cx="7160" cy="17355.9" r="500" /> 
<circle cx="7160" cy="16355.9" r="500" /> 
<circle cx="7160" cy="15355.9" r="500" /> 
<circle cx="7160" cy="14355.9" r="500" /> 
<circle cx="7160" cy="13355.9" r="500" /> 
<circle cx="7160" cy="12355.9" r="500" /> 
<circle cx="7160" cy="11355.9" r="500" /> 
<circle cx="7160" cy="10355.9" r="500" /> 
<circle cx="7160" cy="9355.9" r="500" /> 
<circle cx="7160" cy="8355.9" r="500" /> 
<circle cx="7160" cy="7355.9" r="500" /> 
<circle cx="7160" cy="6355.9" r="500" /> 
</g>
<g style="fill:#008484; fill-opacity:0.0; 
stroke:#008484; stroke-width:150; stroke-opacity:1; 
stroke-linecap:round; stroke-linejoin:round;">
<circle cx="10160" cy="16855.9" r="500" /> 
<path d="M10660 17855
L10660 15855
" />
<path d="M10660 15855
L9660 15855
" />
<path d="M9660 15855
L9660 17855
" />
<path d="M9660 17855
L10660 17855
" />
<path d="M8660 4855
L8660 4355
" />
<path d="M8660 4355
L11660 4355
" />
<path d="M11660 4355
L11660 4855
" />
<path d="M6660 4855
L6660 18855
" />
<path d="M6660 18855
L13660 18855
" />
<path d="M13660 18855
L13660 4855
" />
<path d="M13660 4855
L6660 4855
" />
</g>
<g style="fill:#008484; fill-opacity:0.0; 
stroke:#008484; stroke-width:70; stroke-opacity:1; 
stroke-linecap:round; stroke-linejoin:round;">
<path d="M35317 15527
L35317 15271
" />
<path d="M35317 15271
L35002 15271
" />
<path d="M35002 15271
L35002 15527
" />
<path d="M35317 15684
L35317 15940
" />
<path d="M35317 15940
L35002 15940
" />
<path d="M35002 15940
L35002 15684
" />
<path d="M37081 22448
L36825 22448
" />
<path d="M36825 22448
L36825 22763
" />
<path d="M36825 22763
L37081 22763
" />
<path d="M37238 22448
L37494 22448
" />
<path d="M37494 22448
L37494 22763
" />
<path d="M37494 22763
L37238 22763
" />
<path d="M30738 11263
L30994 11263
" />
<path d="M30994 11263
L30994 10948
" />
<path d="M30994 10948
L30738 10948
" />
<path d="M30581 11263
L30325 11263
" />
<path d="M30325 11263
L30325 10948
" />
<path d="M30325 10948
L30581 10948
" />
<path d="M5081 9948
L4825 9948
" />
<path d="M4825 9948
L4825 10263
" />
<path d="M4825 10263
L5081 10263
" />
<path d="M5238 9948
L5494 9948
" />
<path d="M5494 9948
L5494 10263
" />
<path d="M5494 10263
L5238 10263
" />
<path d="M43738 11263
L43994 11263
" />
<path d="M43994 11263
L43994 10948
" />
<path d="M43994 10948
L43738 10948
" />
<path d="M43581 11263
L43325 11263
" />
<path d="M43325 11263
L43325 10948
" />
<path d="M43325 10948
L43581 10948
" />
<path d="M15238 16513
L15494 16513
" />
<path d="M15494 16513
L15494 16198
" />
<path d="M15494 16198
L15238 16198
" />
<path d="M15081 16513
L14825 16513
" />
<path d="M14825 16513
L14825 16198
" />
<path d="M14825 16198
L15081 16198
" />
<path d="M56738 11263
L56994 11263
" />
<path d="M56994 11263
L56994 10948
" />
<path d="M56994 10948
L56738 10948
" />
<path d="M56581 11263
L56325 11263
" />
<path d="M56325 11263
L56325 10948
" />
<path d="M56325 10948
L56581 10948
" />
<path d="M15238 14513
L15494 14513
" />
<path d="M15494 14513
L15494 14198
" />
<path d="M15494 14198
L15238 14198
" />
<path d="M15081 14513
L14825 14513
" />
<path d="M14825 14513
L14825 14198
" />
<path d="M14825 14198
L15081 14198
" />
<path d="M16581 12948
L16325 12948
" />
<path d="M16325 12948
L16325 13263
" />
<path d="M16325 13263
L16581 13263
" />
<path d="M16738 12948
L16994 12948
" />
<path d="M16994 12948
L16994 13263
" />
<path d="M16994 13263
L16738 13263
" />
<path d="M25738 18263
L25994 18263
" />
<path d="M25994 18263
L25994 17948
" />
<path d="M25994 17948
L25738 17948
" />
<path d="M25581 18263
L25325 18263
" />
<path d="M25325 18263
L25325 17948
" />
<path d="M25325 17948
L25581 17948
" />
<path d="M25581 14448
L25325 14448
" />
<path d="M25325 14448
L25325 14763
" />
<path d="M25325 14763
L25581 14763
" />
<path d="M25738 14448
L25994 14448
" />
<path d="M25994 14448
L25994 14763
" />
<path d="M25994 14763
L25738 14763
" />
<path d="M25581 13448
L25325 13448
" />
<path d="M25325 13448
L25325 13763
" />
<path d="M25325 13763
L25581 13763
" />
<path d="M25738 13448
L25994 13448
" />
<path d="M25994 13448
L25994 13763
" />
<path d="M25994 13763
L25738 13763
" />
</g>
<g style="fill:#008484; fill-opacity:0.0; 
stroke:#008484; stroke-width:150; stroke-opacity:1; 
stroke-linecap:round; stroke-linejoin:round;">
<path d="M38144 16983
L38144 14227
" />
<path d="M36175 16983
L38144 16983
" />
<path d="M36175 14227
L36175 16983
" />
<path d="M38144 14227
L36175 14227
" />
<circle cx="36471" cy="15212.2" r="139.194" /> 
</g>
<g style="fill:#008484; fill-opacity:0.0; 
stroke:#008484; stroke-width:98.4252; stroke-opacity:1; 
stroke-linecap:round; stroke-linejoin:round;">
<path d="M22841 11011
L22841 5105
" />
<path d="M20478 11011
L22841 11011
" />
<path d="M20478 5105
L20478 11011
" />
<path d="M22841 5105
L20478 5105
" />
<path d="M20478 4121
L20478 5105
" />
<path d="M22841 4121
L20478 4121
" />
<path d="M22841 5105
L22841 4121
" />
</g>
<g style="fill:#008484; fill-opacity:0.0; 
stroke:#008484; stroke-width:90; stroke-opacity:1; 
stroke-linecap:round; stroke-linejoin:round;">
<circle cx="5160" cy="5605.9" r="1000" /> 
<circle cx="65160" cy="5605.9" r="1000" /> 
<circle cx="65160" cy="25605.9" r="1000" /> 
<circle cx="5160" cy="25605.9" r="1000" /> 
</g>
<g style="fill:#008484; fill-opacity:0.0; 
stroke:#008484; stroke-width:70; stroke-opacity:1; 
stroke-linecap:round; stroke-linejoin:round;">
<path d="M28502 12184
L28502 12440
" />
<path d="M28502 12440
L28817 12440
" />
<path d="M28817 12440
L28817 12184
" />
<path d="M28502 12027
L28502 11771
" />
<path d="M28502 11771
L28817 11771
" />
<path d="M28817 11771
L28817 12027
" />
<path d="M28817 14527
L28817 14271
" />
<path d="M28817 14271
L28502 14271
" />
<path d="M28502 14271
L28502 14527
" />
<path d="M28817 14684
L28817 14940
" />
<path d="M28817 14940
L28502 14940
" />
<path d="M28502 14940
L28502 14684
" />
<path d="M41502 12184
L41502 12440
" />
<path d="M41502 12440
L41817 12440
" />
<path d="M41817 12440
L41817 12184
" />
<path d="M41502 12027
L41502 11771
" />
<path d="M41502 11771
L41817 11771
" />
<path d="M41817 11771
L41817 12027
" />
<path d="M41817 14527
L41817 14271
" />
<path d="M41817 14271
L41502 14271
" />
<path d="M41502 14271
L41502 14527
" />
<path d="M41817 14684
L41817 14940
" />
<path d="M41817 14940
L41502 14940
" />
<path d="M41502 14940
L41502 14684
" />
<path d="M54502 12184
L54502 12440
" />
<path d="M54502 12440
L54817 12440
" />
<path d="M54817 12440
L54817 12184
" />
<path d="M54502 12027
L54502 11771
" />
<path d="M54502 11771
L54817 11771
" />
<path d="M54817 11771
L54817 12027
" />
<path d="M54817 14527
L54817 14271
" />
<path d="M54817 14271
L54502 14271
" />
<path d="M54502 14271
L54502 14527
" />
<path d="M54817 14684
L54817 14940
" />
<path d="M54817 14940
L54502 14940
" />
<path d="M54502 14940
L54502 14684
" />
<path d="M15238 13513
L15494 13513
" />
<path d="M15494 13513
L15494 13198
" />
<path d="M15494 13198
L15238 13198
" />
<path d="M15081 13513
L14825 13513
" />
<path d="M14825 13513
L14825 13198
" />
<path d="M14825 13198
L15081 13198
" />
<path d="M15238 12513
L15494 12513
" />
<path d="M15494 12513
L15494 12198
" />
<path d="M15494 12198
L15238 12198
" />
<path d="M15081 12513
L14825 12513
" />
<path d="M14825 12513
L14825 12198
" />
<path d="M14825 12198
L15081 12198
" />
</g>
<g style="fill:#008484; fill-opacity:0.0; 
stroke:#008484; stroke-width:150; stroke-opacity:1; 
stroke-linecap:round; stroke-linejoin:round;">
<path d="M31427 11637
L29892 11637
" />
<path d="M31427 15574
L31427 11637
" />
<path d="M29892 15574
L31427 15574
" />
<path d="M29892 11637
L29892 15574
" />
<circle cx="30329.3" cy="12092.1" r="250" /> 
</g>
<g style="fill:#008484; fill-opacity:0.0; 
stroke:#008484; stroke-width:59.0551; stroke-opacity:1; 
stroke-linecap:round; stroke-linejoin:round;">
<path d="M4963 9302
L5356 9302
" />
<path d="M4963 8909
L4963 9302
" />
<path d="M5356 8909
L4963 8909
" />
<path d="M5356 9302
L5356 8909
" />
</g>
<g style="fill:#008484; fill-opacity:0.0; 
stroke:#008484; stroke-width:78.7402; stroke-opacity:1; 
stroke-linecap:round; stroke-linejoin:round;">
<path d="M5199 9174
L5278 9174
" />
</g>
<g style="fill:#008484; fill-opacity:0.0; 
stroke:#008484; stroke-width:150; stroke-opacity:1; 
stroke-linecap:round; stroke-linejoin:round;">
<path d="M44427 11637
L42892 11637
" />
<path d="M44427 15574
L44427 11637
" />
<path d="M42892 15574
L44427 15574
" />
<path d="M42892 11637
L42892 15574
" />
<circle cx="43329.3" cy="12092.1" r="250" /> 
</g>
<g style="fill:#008484; fill-opacity:0.0; 
stroke:#008484; stroke-width:59.0551; stroke-opacity:1; 
stroke-linecap:round; stroke-linejoin:round;">
<path d="M15356 17159
L14963 17159
" />
<path d="M15356 17552
L15356 17159
" />
<path d="M14963 17552
L15356 17552
" />
<path d="M14963 17159
L14963 17552
" />
</g>
<g style="fill:#008484; fill-opacity:0.0; 
stroke:#008484; stroke-width:78.7402; stroke-opacity:1; 
stroke-linecap:round; stroke-linejoin:round;">
<path d="M15120 17287
L15041 17287
" />
</g>
<g style="fill:#008484; fill-opacity:0.0; 
stroke:#008484; stroke-width:150; stroke-opacity:1; 
stroke-linecap:round; stroke-linejoin:round;">
<path d="M57427 11637
L55892 11637
" />
<path d="M57427 15574
L57427 11637
" />
<path d="M55892 15574
L57427 15574
" />
<path d="M55892 11637
L55892 15574
" />
<circle cx="56329.3" cy="12092.1" r="250" /> 
</g>
<g style="fill:#008484; fill-opacity:0.0; 
stroke:#008484; stroke-width:59.0551; stroke-opacity:1; 
stroke-linecap:round; stroke-linejoin:round;">
<path d="M15356 15159
L14963 15159
" />
<path d="M15356 15552
L15356 15159
" />
<path d="M14963 15552
L15356 15552
" />
<path d="M14963 15159
L14963 15552
" />
</g>
<g style="fill:#008484; fill-opacity:0.0; 
stroke:#008484; stroke-width:78.7402; stroke-opacity:1; 
stroke-linecap:round; stroke-linejoin:round;">
<path d="M15120 15287
L15041 15287
" />
</g>
<g style="fill:#008484; fill-opacity:0.0; 
stroke:#008484; stroke-width:59.0551; stroke-opacity:1; 
stroke-linecap:round; stroke-linejoin:round;">
<path d="M17014 11609
L16305 11609
" />
<path d="M16305 11609
L16305 12101
" />
<path d="M16305 12101
L17014 12101
" />
<path d="M17014 12101
L17014 11609
" />
<circle cx="16915.9" cy="11777.2" r="39.3701" /> 
<path d="M21660 20605
L21660 19605
" />
</g>
<g style="fill:#008484; fill-opacity:0.0; 
stroke:#008484; stroke-width:47.2441; stroke-opacity:1; 
stroke-linecap:round; stroke-linejoin:round;">
<path d="M38187 21446
L38187 21633
" />
<path d="M38187 21633
L38000 21633
" />
<path d="M36132 19765
L36132 19578
" />
<path d="M36132 19578
L36319 19578
" />
<path d="M36132 21446
L36132 21633
" />
<path d="M36132 21633
L36319 21633
" />
<path d="M38187 19765
L38187 19578
" />
<path d="M20819 17133
L20632 17133
" />
<path d="M20632 17133
L20632 16946
" />
<path d="M22500 15078
L22687 15078
" />
<path d="M22687 15078
L22687 15265
" />
<path d="M20819 15078
L20632 15078
" />
<path d="M20632 15078
L20632 15265
" />
<path d="M22500 17133
L22687 17133
" />
</g>
<g style="fill:#008484; fill-opacity:0.0; 
stroke:#008484; stroke-width:98.4252; stroke-opacity:1; 
stroke-linecap:round; stroke-linejoin:round;">
<path d="M19053 9143
L14266 9143
" />
<path d="M19053 4418
L14266 4418
" />
<path d="M19053 9143
L19053 4418
" />
<path d="M14266 9143
L14266 4418
" />
</g>
<g style="fill:#008484; fill-opacity:0.0; 
stroke:#008484; stroke-width:70; stroke-opacity:1; 
stroke-linecap:round; stroke-linejoin:round;">
<path d="M21325 22198
L21581 22198
" />
<path d="M21325 22513
L21325 22198
" />
<path d="M21581 22513
L21325 22513
" />
<path d="M21994 22198
L21738 22198
" />
<path d="M21994 22513
L21994 22198
" />
<path d="M21738 22513
L21994 22513
" />
<path d="M21738 21513
L21994 21513
" />
<path d="M21994 21513
L21994 21198
" />
<path d="M21994 21198
L21738 21198
" />
<path d="M21581 21513
L21325 21513
" />
<path d="M21325 21513
L21325 21198
" />
<path d="M21325 21198
L21581 21198
" />
<path d="M21325 18698
L21581 18698
" />
<path d="M21325 19013
L21325 18698
" />
<path d="M21581 19013
L21325 19013
" />
<path d="M21994 18698
L21738 18698
" />
<path d="M21994 19013
L21994 18698
" />
<path d="M21738 19013
L21994 19013
" />
<path d="M22317 13271
L22317 13527
" />
<path d="M22002 13271
L22317 13271
" />
<path d="M22002 13527
L22002 13271
" />
<path d="M22317 13940
L22317 13684
" />
<path d="M22002 13940
L22317 13940
" />
<path d="M22002 13684
L22002 13940
" />
</g>
<g style="fill:#008484; fill-opacity:0.0; 
stroke:#008484; stroke-width:100; stroke-opacity:1; 
stroke-linecap:round; stroke-linejoin:round;">
<text x="25160" y="9555.9"
textLength="1040.95" font-size="533.333" lengthAdjust="spacingAndGlyphs"
text-anchor="middle" opacity="0">P1</text>
<path d="M24864 9536
L24864 9136
L25017 9136
L25055 9155
L25074 9174
L25093 9213
L25093 9270
L25074 9308
L25055 9327
L25017 9346
L24864 9346
" />
<path d="M25474 9536
L25245 9536
" />
<path d="M25360 9536
L25360 9136
L25321 9193
L25283 9232
L25245 9251
" />
<text x="38160" y="9555.9"
textLength="910.952" font-size="533.333" lengthAdjust="spacingAndGlyphs"
text-anchor="middle" opacity="0">P2</text>
<path d="M37864 9536
L37864 9136
L38017 9136
L38055 9155
L38074 9174
L38093 9213
L38093 9270
L38074 9308
L38055 9327
L38017 9346
L37864 9346
" />
<path d="M38245 9174
L38264 9155
L38302 9136
L38398 9136
L38436 9155
L38455 9174
L38474 9213
L38474 9251
L38455 9308
L38226 9536
L38474 9536
" />
<text x="51160" y="9555.9"
textLength="910.952" font-size="533.333" lengthAdjust="spacingAndGlyphs"
text-anchor="middle" opacity="0">P3</text>
<path d="M50864 9536
L50864 9136
L51017 9136
L51055 9155
L51074 9174
L51093 9213
L51093 9270
L51074 9308
L51055 9327
L51017 9346
L50864 9346
" />
<path d="M51226 9136
L51474 9136
L51340 9289
L51398 9289
L51436 9308
L51455 9327
L51474 9365
L51474 9460
L51455 9498
L51436 9517
L51398 9536
L51283 9536
L51245 9517
L51226 9498
" />
<text x="25660" y="17205.9"
textLength="834.762" font-size="533.333" lengthAdjust="spacingAndGlyphs"
text-anchor="middle" opacity="0">L1</text>
<path d="M25593 17186
L25402 17186
L25402 16786
" />
<path d="M25936 17186
L25707 17186
" />
<path d="M25821 17186
L25821 16786
L25783 16843
L25745 16882
L25707 16901
" />
</g>
<g style="fill:#008484; fill-opacity:0.0; 
stroke:#008484; stroke-width:50; stroke-opacity:1; 
stroke-linecap:round; stroke-linejoin:round;">
<text x="16660" y="11055.9"
textLength="520.476" font-size="266.667" lengthAdjust="spacingAndGlyphs"
text-anchor="middle" opacity="0">D1</text>
<path d="M16512 11046
L16512 10846
L16560 10846
L16588 10855
L16607 10874
L16617 10893
L16626 10932
L16626 10960
L16617 10998
L16607 11017
L16588 11036
L16560 11046
L16512 11046
" />
<path d="M16817 11046
L16702 11046
" />
<path d="M16760 11046
L16760 10846
L16740 10874
L16721 10893
L16702 10903
" />
</g>
<g style="fill:#008484; fill-opacity:0.0; 
stroke:#008484; stroke-width:100; stroke-opacity:1; 
stroke-linecap:round; stroke-linejoin:round;">
<text x="10160" y="19555.9"
textLength="2617.38" font-size="533.333" lengthAdjust="spacingAndGlyphs"
text-anchor="middle" opacity="0">TEENSY1</text>
<path d="M8921 19136
L9150 19136
" />
<path d="M9036 19536
L9036 19136
" />
<path d="M9283 19327
L9417 19327
" />
<path d="M9474 19536
L9283 19536
L9283 19136
L9474 19136
" />
<path d="M9645 19327
L9779 19327
" />
<path d="M9836 19536
L9645 19536
L9645 19136
L9836 19136
" />
<path d="M10007 19536
L10007 19136
L10236 19536
L10236 19136
" />
<path d="M10407 19517
L10464 19536
L10560 19536
L10598 19517
L10617 19498
L10636 19460
L10636 19422
L10617 19384
L10598 19365
L10560 19346
L10483 19327
L10445 19308
L10426 19289
L10407 19251
L10407 19213
L10426 19174
L10445 19155
L10483 19136
L10579 19136
L10636 19155
" />
<path d="M10883 19346
L10883 19536
" />
<path d="M10750 19136
L10883 19346
L11017 19136
" />
<path d="M11360 19536
L11131 19536
" />
<path d="M11245 19536
L11245 19136
L11207 19193
L11169 19232
L11131 19251
" />
<g transform="rotate(-90 6160 11855.9)">
<text x="6160" y="12055.9"
textLength="3558.57" font-size="533.333" lengthAdjust="spacingAndGlyphs"
text-anchor="middle" opacity="0">TEENSY 4.0</text>
</g>
<path d="M5940 13532
L5940 13303
" />
<path d="M6340 13417
L5940 13417
" />
<path d="M6131 13170
L6131 13036
" />
<path d="M6340 12979
L6340 13170
L5940 13170
L5940 12979
" />
<path d="M6131 12808
L6131 12674
" />
<path d="M6340 12617
L6340 12808
L5940 12808
L5940 12617
" />
<path d="M6340 12446
L5940 12446
L6340 12217
L5940 12217
" />
<path d="M6321 12046
L6340 11989
L6340 11893
L6321 11855
L6302 11836
L6264 11817
L6226 11817
L6188 11836
L6169 11855
L6150 11893
L6131 11970
L6112 12008
L6093 12027
L6055 12046
L6017 12046
L5979 12027
L5960 12008
L5940 11970
L5940 11874
L5960 11817
" />
<path d="M6150 11570
L6340 11570
" />
<path d="M5940 11703
L6150 11570
L5940 11436
" />
<path d="M6074 10827
L6340 10827
" />
<path d="M5921 10922
L6207 11017
L6207 10770
" />
<path d="M6302 10617
L6321 10598
L6340 10617
L6321 10636
L6302 10617
L6340 10617
" />
<path d="M5940 10351
L5940 10313
L5960 10274
L5979 10255
L6017 10236
L6093 10217
L6188 10217
L6264 10236
L6302 10255
L6321 10274
L6340 10313
L6340 10351
L6321 10389
L6302 10408
L6264 10427
L6188 10446
L6093 10446
L6017 10427
L5979 10408
L5960 10389
L5940 10351
" />
</g>
<g style="fill:#008484; fill-opacity:0.0; 
stroke:#008484; stroke-width:47.5; stroke-opacity:1; 
stroke-linecap:round; stroke-linejoin:round;">
<text x="10160" y="14555.9"
textLength="5151.43" font-size="253.333" lengthAdjust="spacingAndGlyphs"
text-anchor="middle" opacity="0">&lt;- Insert Pin Rcpts This Side -&gt;</text>
<path d="M7839 14270
L7694 14384
L7839 14498
" />
<path d="M7929 14384
L8074 14384
" />
<path d="M8309 14536
L8309 14136
" />
<path d="M8400 14270
L8400 14536
" />
<path d="M8400 14308
L8409 14289
L8427 14270
L8454 14270
L8472 14289
L8481 14327
L8481 14536
" />
<path d="M8563 14517
L8581 14536
L8617 14536
L8635 14517
L8644 14479
L8644 14460
L8635 14422
L8617 14403
L8590 14403
L8572 14384
L8563 14346
L8563 14327
L8572 14289
L8590 14270
L8617 14270
L8635 14289
" />
<path d="M8798 14517
L8780 14536
L8744 14536
L8725 14517
L8716 14479
L8716 14327
L8725 14289
L8744 14270
L8780 14270
L8798 14289
L8807 14327
L8807 14365
L8716 14403
" />
<path d="M8888 14536
L8888 14270
" />
<path d="M8888 14346
L8897 14308
L8906 14289
L8925 14270
L8943 14270
" />
<path d="M8979 14270
L9051 14270
" />
<path d="M9006 14136
L9006 14479
L9015 14517
L9033 14536
L9051 14536
" />
<path d="M9259 14536
L9259 14136
L9332 14136
L9350 14155
L9359 14174
L9368 14213
L9368 14270
L9359 14308
L9350 14327
L9332 14346
L9259 14346
" />
<path d="M9449 14536
L9449 14270
" />
<path d="M9449 14136
L9440 14155
L9449 14174
L9458 14155
L9449 14136
L9449 14174
" />
<path d="M9540 14270
L9540 14536
" />
<path d="M9540 14308
L9549 14289
L9567 14270
L9594 14270
L9612 14289
L9621 14327
L9621 14536
" />
<path d="M9965 14536
L9902 14346
" />
<path d="M9856 14536
L9856 14136
L9929 14136
L9947 14155
L9956 14174
L9965 14213
L9965 14270
L9956 14308
L9947 14327
L9929 14346
L9856 14346
" />
<path d="M10128 14517
L10110 14536
L10074 14536
L10055 14517
L10046 14498
L10037 14460
L10037 14346
L10046 14308
L10055 14289
L10074 14270
L10110 14270
L10128 14289
" />
<path d="M10209 14270
L10209 14670
" />
<path d="M10209 14289
L10227 14270
L10264 14270
L10282 14289
L10291 14308
L10300 14346
L10300 14460
L10291 14498
L10282 14517
L10264 14536
L10227 14536
L10209 14517
" />
<path d="M10354 14270
L10426 14270
" />
<path d="M10381 14136
L10381 14479
L10390 14517
L10408 14536
L10426 14536
" />
<path d="M10481 14517
L10499 14536
L10535 14536
L10553 14517
L10562 14479
L10562 14460
L10553 14422
L10535 14403
L10508 14403
L10490 14384
L10481 14346
L10481 14327
L10490 14289
L10508 14270
L10535 14270
L10553 14289
" />
<path d="M10761 14136
L10870 14136
" />
<path d="M10815 14536
L10815 14136
" />
<path d="M10933 14536
L10933 14136
" />
<path d="M11015 14536
L11015 14327
L11005 14289
L10987 14270
L10960 14270
L10942 14289
L10933 14308
" />
<path d="M11105 14536
L11105 14270
" />
<path d="M11105 14136
L11096 14155
L11105 14174
L11114 14155
L11105 14136
L11105 14174
" />
<path d="M11186 14517
L11205 14536
L11241 14536
L11259 14517
L11268 14479
L11268 14460
L11259 14422
L11241 14403
L11214 14403
L11195 14384
L11186 14346
L11186 14327
L11195 14289
L11214 14270
L11241 14270
L11259 14289
" />
<path d="M11485 14517
L11512 14536
L11557 14536
L11575 14517
L11585 14498
L11594 14460
L11594 14422
L11585 14384
L11575 14365
L11557 14346
L11521 14327
L11503 14308
L11494 14289
L11485 14251
L11485 14213
L11494 14174
L11503 14155
L11521 14136
L11566 14136
L11594 14155
" />
<path d="M11675 14536
L11675 14270
" />
<path d="M11675 14136
L11666 14155
L11675 14174
L11684 14155
L11675 14136
L11675 14174
" />
<path d="M11847 14536
L11847 14136
" />
<path d="M11847 14517
L11829 14536
L11793 14536
L11775 14517
L11765 14498
L11756 14460
L11756 14346
L11765 14308
L11775 14289
L11793 14270
L11829 14270
L11847 14289
" />
<path d="M12010 14517
L11992 14536
L11955 14536
L11937 14517
L11928 14479
L11928 14327
L11937 14289
L11955 14270
L11992 14270
L12010 14289
L12019 14327
L12019 14365
L11928 14403
" />
<path d="M12245 14384
L12390 14384
" />
<path d="M12480 14270
L12625 14384
L12480 14498
" />
</g>
<g style="fill:#008484; fill-opacity:0.0; 
stroke:#008484; stroke-width:100; stroke-opacity:1; 
stroke-linecap:round; stroke-linejoin:round;">
<text x="10160" y="11055.9"
textLength="3318.89" font-size="533.333" lengthAdjust="spacingAndGlyphs"
text-anchor="middle" opacity="0">iMXRT1062</text>
<path d="M8626 11036
L8626 10770
" />
<path d="M8626 10636
L8607 10655
L8626 10674
L8645 10655
L8626 10636
L8626 10674
" />
<path d="M8817 11036
L8817 10636
L8950 10922
L9083 10636
L9083 11036
" />
<path d="M9236 10636
L9502 11036
" />
<path d="M9502 10636
L9236 11036
" />
<path d="M9883 11036
L9750 10846
" />
<path d="M9655 11036
L9655 10636
L9807 10636
L9845 10655
L9864 10674
L9883 10713
L9883 10770
L9864 10808
L9845 10827
L9807 10846
L9655 10846
" />
<path d="M9998 10636
L10226 10636
" />
<path d="M10112 11036
L10112 10636
" />
<path d="M10569 11036
L10340 11036
" />
<path d="M10455 11036
L10455 10636
L10417 10693
L10379 10732
L10340 10751
" />
<path d="M10817 10636
L10855 10636
L10893 10655
L10912 10674
L10931 10713
L10950 10789
L10950 10884
L10931 10960
L10912 10998
L10893 11017
L10855 11036
L10817 11036
L10779 11017
L10760 10998
L10740 10960
L10721 10884
L10721 10789
L10740 10713
L10760 10674
L10779 10655
L10817 10636
" />
<path d="M11293 10636
L11217 10636
L11179 10655
L11160 10674
L11121 10732
L11102 10808
L11102 10960
L11121 10998
L11140 11017
L11179 11036
L11255 11036
L11293 11017
L11312 10998
L11331 10960
L11331 10865
L11312 10827
L11293 10808
L11255 10789
L11179 10789
L11140 10808
L11121 10827
L11102 10865
" />
<path d="M11483 10674
L11502 10655
L11540 10636
L11636 10636
L11674 10655
L11693 10674
L11712 10713
L11712 10751
L11693 10808
L11464 11036
L11712 11036
" />
</g>
<g style="fill:#008484; fill-opacity:0.0; 
stroke:#008484; stroke-width:50; stroke-opacity:1; 
stroke-linecap:round; stroke-linejoin:round;">
<g transform="rotate(-90 35510 15605.9)">
<text x="35510" y="15705.9"
textLength="520.476" font-size="266.667" lengthAdjust="spacingAndGlyphs"
text-anchor="middle" opacity="0">C1</text>
</g>
<path d="M35581 15639
L35590 15648
L35600 15677
L35600 15696
L35590 15724
L35571 15743
L35552 15753
L35514 15763
L35486 15763
L35448 15753
L35429 15743
L35410 15724
L35400 15696
L35400 15677
L35410 15648
L35419 15639
" />
<path d="M35600 15448
L35600 15563
" />
<path d="M35600 15505
L35400 15505
L35429 15524
L35448 15543
L35457 15563
" />
<g transform="rotate(-90 34810 15605.9)">
<text x="34810" y="15705.9"
textLength="893.571" font-size="266.667" lengthAdjust="spacingAndGlyphs"
text-anchor="middle" opacity="0">0.1uF</text>
</g>
<path d="M34700 15934
L34700 15915
L34710 15896
L34719 15886
L34738 15877
L34776 15867
L34824 15867
L34862 15877
L34881 15886
L34890 15896
L34900 15915
L34900 15934
L34890 15953
L34881 15963
L34862 15972
L34824 15982
L34776 15982
L34738 15972
L34719 15963
L34710 15953
L34700 15934
" />
<path d="M34881 15782
L34890 15772
L34900 15782
L34890 15791
L34881 15782
L34900 15782
" />
<path d="M34900 15582
L34900 15696
" />
<path d="M34900 15639
L34700 15639
L34729 15658
L34748 15677
L34757 15696
" />
<path d="M34767 15410
L34900 15410
" />
<path d="M34767 15496
L34871 15496
L34890 15486
L34900 15467
L34900 15439
L34890 15420
L34881 15410
" />
<path d="M34795 15248
L34795 15315
" />
<path d="M34900 15315
L34700 15315
L34700 15220
" />
<text x="37160" y="22355.9"
textLength="455.476" font-size="266.667" lengthAdjust="spacingAndGlyphs"
text-anchor="middle" opacity="0">C2</text>
<path d="M37126 22327
L37117 22336
L37088 22346
L37069 22346
L37040 22336
L37021 22317
L37012 22298
L37002 22260
L37002 22232
L37012 22193
L37021 22174
L37040 22155
L37069 22146
L37088 22146
L37117 22155
L37126 22165
" />
<path d="M37202 22165
L37212 22155
L37231 22146
L37279 22146
L37298 22155
L37307 22165
L37317 22184
L37317 22203
L37307 22232
L37193 22346
L37317 22346
" />
<text x="37160" y="23055.9"
textLength="893.571" font-size="266.667" lengthAdjust="spacingAndGlyphs"
text-anchor="middle" opacity="0">0.1uF</text>
<path d="M36831 22846
L36850 22846
L36869 22855
L36879 22865
L36888 22884
L36898 22922
L36898 22970
L36888 23008
L36879 23027
L36869 23036
L36850 23046
L36831 23046
L36812 23036
L36802 23027
L36793 23008
L36783 22970
L36783 22922
L36793 22884
L36802 22865
L36812 22855
L36831 22846
" />
<path d="M36983 23027
L36993 23036
L36983 23046
L36974 23036
L36983 23027
L36983 23046
" />
<path d="M37183 23046
L37069 23046
" />
<path d="M37126 23046
L37126 22846
L37107 22874
L37088 22893
L37069 22903
" />
<path d="M37355 22913
L37355 23046
" />
<path d="M37269 22913
L37269 23017
L37279 23036
L37298 23046
L37326 23046
L37345 23036
L37355 23027
" />
<path d="M37517 22941
L37450 22941
" />
<path d="M37450 23046
L37450 22846
L37545 22846
" />
<text x="30660" y="11555.9"
textLength="455.476" font-size="266.667" lengthAdjust="spacingAndGlyphs"
text-anchor="middle" opacity="0">C3</text>
<path d="M30626 11527
L30617 11536
L30588 11546
L30569 11546
L30540 11536
L30521 11517
L30512 11498
L30502 11460
L30502 11432
L30512 11393
L30521 11374
L30540 11355
L30569 11346
L30588 11346
L30617 11355
L30626 11365
" />
<path d="M30693 11346
L30817 11346
L30750 11422
L30779 11422
L30798 11432
L30807 11441
L30817 11460
L30817 11508
L30807 11527
L30798 11536
L30779 11546
L30721 11546
L30702 11536
L30693 11527
" />
<text x="30660" y="10855.9"
textLength="893.571" font-size="266.667" lengthAdjust="spacingAndGlyphs"
text-anchor="middle" opacity="0">0.1uF</text>
<path d="M30331 10646
L30350 10646
L30369 10655
L30379 10665
L30388 10684
L30398 10722
L30398 10770
L30388 10808
L30379 10827
L30369 10836
L30350 10846
L30331 10846
L30312 10836
L30302 10827
L30293 10808
L30283 10770
L30283 10722
L30293 10684
L30302 10665
L30312 10655
L30331 10646
" />
<path d="M30483 10827
L30493 10836
L30483 10846
L30474 10836
L30483 10827
L30483 10846
" />
<path d="M30683 10846
L30569 10846
" />
<path d="M30626 10846
L30626 10646
L30607 10674
L30588 10693
L30569 10703
" />
<path d="M30855 10713
L30855 10846
" />
<path d="M30769 10713
L30769 10817
L30779 10836
L30798 10846
L30826 10846
L30845 10836
L30855 10827
" />
<path d="M31017 10741
L30950 10741
" />
<path d="M30950 10846
L30950 10646
L31045 10646
" />
<text x="5160" y="9855.9"
textLength="455.476" font-size="266.667" lengthAdjust="spacingAndGlyphs"
text-anchor="middle" opacity="0">C4</text>
<path d="M5126 9827
L5117 9836
L5088 9846
L5069 9846
L5040 9836
L5021 9817
L5012 9798
L5002 9760
L5002 9732
L5012 9693
L5021 9674
L5040 9655
L5069 9646
L5088 9646
L5117 9655
L5126 9665
" />
<path d="M5298 9713
L5298 9846
" />
<path d="M5250 9636
L5202 9779
L5326 9779
" />
<text x="5160" y="10555.9"
textLength="893.571" font-size="266.667" lengthAdjust="spacingAndGlyphs"
text-anchor="middle" opacity="0">0.1uF</text>
<path d="M4831 10346
L4850 10346
L4869 10355
L4879 10365
L4888 10384
L4898 10422
L4898 10470
L4888 10508
L4879 10527
L4869 10536
L4850 10546
L4831 10546
L4812 10536
L4802 10527
L4793 10508
L4783 10470
L4783 10422
L4793 10384
L4802 10365
L4812 10355
L4831 10346
" />
<path d="M4983 10527
L4993 10536
L4983 10546
L4974 10536
L4983 10527
L4983 10546
" />
<path d="M5183 10546
L5069 10546
" />
<path d="M5126 10546
L5126 10346
L5107 10374
L5088 10393
L5069 10403
" />
<path d="M5355 10413
L5355 10546
" />
<path d="M5269 10413
L5269 10517
L5279 10536
L5298 10546
L5326 10546
L5345 10536
L5355 10527
" />
<path d="M5517 10441
L5450 10441
" />
<path d="M5450 10546
L5450 10346
L5545 10346
" />
<text x="43660" y="11555.9"
textLength="455.476" font-size="266.667" lengthAdjust="spacingAndGlyphs"
text-anchor="middle" opacity="0">C5</text>
<path d="M43626 11527
L43617 11536
L43588 11546
L43569 11546
L43540 11536
L43521 11517
L43512 11498
L43502 11460
L43502 11432
L43512 11393
L43521 11374
L43540 11355
L43569 11346
L43588 11346
L43617 11355
L43626 11365
" />
<path d="M43807 11346
L43712 11346
L43702 11441
L43712 11432
L43731 11422
L43779 11422
L43798 11432
L43807 11441
L43817 11460
L43817 11508
L43807 11527
L43798 11536
L43779 11546
L43731 11546
L43712 11536
L43702 11527
" />
<text x="43660" y="10855.9"
textLength="893.571" font-size="266.667" lengthAdjust="spacingAndGlyphs"
text-anchor="middle" opacity="0">0.1uF</text>
<path d="M43331 10646
L43350 10646
L43369 10655
L43379 10665
L43388 10684
L43398 10722
L43398 10770
L43388 10808
L43379 10827
L43369 10836
L43350 10846
L43331 10846
L43312 10836
L43302 10827
L43293 10808
L43283 10770
L43283 10722
L43293 10684
L43302 10665
L43312 10655
L43331 10646
" />
<path d="M43483 10827
L43493 10836
L43483 10846
L43474 10836
L43483 10827
L43483 10846
" />
<path d="M43683 10846
L43569 10846
" />
<path d="M43626 10846
L43626 10646
L43607 10674
L43588 10693
L43569 10703
" />
<path d="M43855 10713
L43855 10846
" />
<path d="M43769 10713
L43769 10817
L43779 10836
L43798 10846
L43826 10846
L43845 10836
L43855 10827
" />
<path d="M44017 10741
L43950 10741
" />
<path d="M43950 10846
L43950 10646
L44045 10646
" />
<text x="15160" y="16805.9"
textLength="455.476" font-size="266.667" lengthAdjust="spacingAndGlyphs"
text-anchor="middle" opacity="0">C6</text>
<path d="M15126 16777
L15117 16786
L15088 16796
L15069 16796
L15040 16786
L15021 16767
L15012 16748
L15002 16710
L15002 16682
L15012 16643
L15021 16624
L15040 16605
L15069 16596
L15088 16596
L15117 16605
L15126 16615
" />
<path d="M15298 16596
L15260 16596
L15240 16605
L15231 16615
L15212 16643
L15202 16682
L15202 16758
L15212 16777
L15221 16786
L15240 16796
L15279 16796
L15298 16786
L15307 16777
L15317 16758
L15317 16710
L15307 16691
L15298 16682
L15279 16672
L15240 16672
L15221 16682
L15212 16691
L15202 16710
" />
<text x="15160" y="16105.9"
textLength="893.571" font-size="266.667" lengthAdjust="spacingAndGlyphs"
text-anchor="middle" opacity="0">0.1uF</text>
<path d="M14831 15896
L14850 15896
L14869 15905
L14879 15915
L14888 15934
L14898 15972
L14898 16020
L14888 16058
L14879 16077
L14869 16086
L14850 16096
L14831 16096
L14812 16086
L14802 16077
L14793 16058
L14783 16020
L14783 15972
L14793 15934
L14802 15915
L14812 15905
L14831 15896
" />
<path d="M14983 16077
L14993 16086
L14983 16096
L14974 16086
L14983 16077
L14983 16096
" />
<path d="M15183 16096
L15069 16096
" />
<path d="M15126 16096
L15126 15896
L15107 15924
L15088 15943
L15069 15953
" />
<path d="M15355 15963
L15355 16096
" />
<path d="M15269 15963
L15269 16067
L15279 16086
L15298 16096
L15326 16096
L15345 16086
L15355 16077
" />
<path d="M15517 15991
L15450 15991
" />
<path d="M15450 16096
L15450 15896
L15545 15896
" />
<text x="56660" y="11555.9"
textLength="455.476" font-size="266.667" lengthAdjust="spacingAndGlyphs"
text-anchor="middle" opacity="0">C7</text>
<path d="M56626 11527
L56617 11536
L56588 11546
L56569 11546
L56540 11536
L56521 11517
L56512 11498
L56502 11460
L56502 11432
L56512 11393
L56521 11374
L56540 11355
L56569 11346
L56588 11346
L56617 11355
L56626 11365
" />
<path d="M56693 11346
L56826 11346
L56740 11546
" />
<text x="56660" y="10855.9"
textLength="893.571" font-size="266.667" lengthAdjust="spacingAndGlyphs"
text-anchor="middle" opacity="0">0.1uF</text>
<path d="M56331 10646
L56350 10646
L56369 10655
L56379 10665
L56388 10684
L56398 10722
L56398 10770
L56388 10808
L56379 10827
L56369 10836
L56350 10846
L56331 10846
L56312 10836
L56302 10827
L56293 10808
L56283 10770
L56283 10722
L56293 10684
L56302 10665
L56312 10655
L56331 10646
" />
<path d="M56483 10827
L56493 10836
L56483 10846
L56474 10836
L56483 10827
L56483 10846
" />
<path d="M56683 10846
L56569 10846
" />
<path d="M56626 10846
L56626 10646
L56607 10674
L56588 10693
L56569 10703
" />
<path d="M56855 10713
L56855 10846
" />
<path d="M56769 10713
L56769 10817
L56779 10836
L56798 10846
L56826 10846
L56845 10836
L56855 10827
" />
<path d="M57017 10741
L56950 10741
" />
<path d="M56950 10846
L56950 10646
L57045 10646
" />
<text x="15160" y="14805.9"
textLength="455.476" font-size="266.667" lengthAdjust="spacingAndGlyphs"
text-anchor="middle" opacity="0">C8</text>
<path d="M15126 14777
L15117 14786
L15088 14796
L15069 14796
L15040 14786
L15021 14767
L15012 14748
L15002 14710
L15002 14682
L15012 14643
L15021 14624
L15040 14605
L15069 14596
L15088 14596
L15117 14605
L15126 14615
" />
<path d="M15240 14682
L15221 14672
L15212 14663
L15202 14643
L15202 14634
L15212 14615
L15221 14605
L15240 14596
L15279 14596
L15298 14605
L15307 14615
L15317 14634
L15317 14643
L15307 14663
L15298 14672
L15279 14682
L15240 14682
L15221 14691
L15212 14701
L15202 14720
L15202 14758
L15212 14777
L15221 14786
L15240 14796
L15279 14796
L15298 14786
L15307 14777
L15317 14758
L15317 14720
L15307 14701
L15298 14691
L15279 14682
" />
<text x="15160" y="14105.9"
textLength="893.571" font-size="266.667" lengthAdjust="spacingAndGlyphs"
text-anchor="middle" opacity="0">0.1uF</text>
<path d="M14831 13896
L14850 13896
L14869 13905
L14879 13915
L14888 13934
L14898 13972
L14898 14020
L14888 14058
L14879 14077
L14869 14086
L14850 14096
L14831 14096
L14812 14086
L14802 14077
L14793 14058
L14783 14020
L14783 13972
L14793 13934
L14802 13915
L14812 13905
L14831 13896
" />
<path d="M14983 14077
L14993 14086
L14983 14096
L14974 14086
L14983 14077
L14983 14096
" />
<path d="M15183 14096
L15069 14096
" />
<path d="M15126 14096
L15126 13896
L15107 13924
L15088 13943
L15069 13953
" />
<path d="M15355 13963
L15355 14096
" />
<path d="M15269 13963
L15269 14067
L15279 14086
L15298 14096
L15326 14096
L15345 14086
L15355 14077
" />
<path d="M15517 13991
L15450 13991
" />
<path d="M15450 14096
L15450 13896
L15545 13896
" />
<text x="16660" y="12855.9"
textLength="455.476" font-size="266.667" lengthAdjust="spacingAndGlyphs"
text-anchor="middle" opacity="0">C9</text>
<path d="M16626 12827
L16617 12836
L16588 12846
L16569 12846
L16540 12836
L16521 12817
L16512 12798
L16502 12760
L16502 12732
L16512 12693
L16521 12674
L16540 12655
L16569 12646
L16588 12646
L16617 12655
L16626 12665
" />
<path d="M16721 12846
L16760 12846
L16779 12836
L16788 12827
L16807 12798
L16817 12760
L16817 12684
L16807 12665
L16798 12655
L16779 12646
L16740 12646
L16721 12655
L16712 12665
L16702 12684
L16702 12732
L16712 12751
L16721 12760
L16740 12770
L16779 12770
L16798 12760
L16807 12751
L16817 12732
" />
<text x="16660" y="13555.9"
textLength="893.571" font-size="266.667" lengthAdjust="spacingAndGlyphs"
text-anchor="middle" opacity="0">2.2uF</text>
<path d="M16283 13365
L16293 13355
L16312 13346
L16360 13346
L16379 13355
L16388 13365
L16398 13384
L16398 13403
L16388 13432
L16274 13546
L16398 13546
" />
<path d="M16483 13527
L16493 13536
L16483 13546
L16474 13536
L16483 13527
L16483 13546
" />
<path d="M16569 13365
L16579 13355
L16598 13346
L16645 13346
L16664 13355
L16674 13365
L16683 13384
L16683 13403
L16674 13432
L16560 13546
L16683 13546
" />
<path d="M16855 13413
L16855 13546
" />
<path d="M16769 13413
L16769 13517
L16779 13536
L16798 13546
L16826 13546
L16845 13536
L16855 13527
" />
<path d="M17017 13441
L16950 13441
" />
<path d="M16950 13546
L16950 13346
L17045 13346
" />
<text x="25660" y="18555.9"
textLength="645.952" font-size="266.667" lengthAdjust="spacingAndGlyphs"
text-anchor="middle" opacity="0">C10</text>
<path d="M25531 18527
L25521 18536
L25493 18546
L25474 18546
L25445 18536
L25426 18517
L25417 18498
L25407 18460
L25407 18432
L25417 18393
L25426 18374
L25445 18355
L25474 18346
L25493 18346
L25521 18355
L25531 18365
" />
<path d="M25721 18546
L25607 18546
" />
<path d="M25664 18546
L25664 18346
L25645 18374
L25626 18393
L25607 18403
" />
<path d="M25845 18346
L25864 18346
L25883 18355
L25893 18365
L25902 18384
L25912 18422
L25912 18470
L25902 18508
L25893 18527
L25883 18536
L25864 18546
L25845 18546
L25826 18536
L25817 18527
L25807 18508
L25798 18470
L25798 18422
L25807 18384
L25817 18365
L25826 18355
L25845 18346
" />
<text x="25660" y="17855.9"
textLength="893.571" font-size="266.667" lengthAdjust="spacingAndGlyphs"
text-anchor="middle" opacity="0">0.1uF</text>
<path d="M25331 17646
L25350 17646
L25369 17655
L25379 17665
L25388 17684
L25398 17722
L25398 17770
L25388 17808
L25379 17827
L25369 17836
L25350 17846
L25331 17846
L25312 17836
L25302 17827
L25293 17808
L25283 17770
L25283 17722
L25293 17684
L25302 17665
L25312 17655
L25331 17646
" />
<path d="M25483 17827
L25493 17836
L25483 17846
L25474 17836
L25483 17827
L25483 17846
" />
<path d="M25683 17846
L25569 17846
" />
<path d="M25626 17846
L25626 17646
L25607 17674
L25588 17693
L25569 17703
" />
<path d="M25855 17713
L25855 17846
" />
<path d="M25769 17713
L25769 17817
L25779 17836
L25798 17846
L25826 17846
L25845 17836
L25855 17827
" />
<path d="M26017 17741
L25950 17741
" />
<path d="M25950 17846
L25950 17646
L26045 17646
" />
<text x="25660" y="14355.9"
textLength="645.952" font-size="266.667" lengthAdjust="spacingAndGlyphs"
text-anchor="middle" opacity="0">C11</text>
<path d="M25531 14327
L25521 14336
L25493 14346
L25474 14346
L25445 14336
L25426 14317
L25417 14298
L25407 14260
L25407 14232
L25417 14193
L25426 14174
L25445 14155
L25474 14146
L25493 14146
L25521 14155
L25531 14165
" />
<path d="M25721 14346
L25607 14346
" />
<path d="M25664 14346
L25664 14146
L25645 14174
L25626 14193
L25607 14203
" />
<path d="M25912 14346
L25798 14346
" />
<path d="M25855 14346
L25855 14146
L25836 14174
L25817 14193
L25798 14203
" />
<text x="25660" y="15055.9"
textLength="893.571" font-size="266.667" lengthAdjust="spacingAndGlyphs"
text-anchor="middle" opacity="0">2.2uF</text>
<path d="M25283 14865
L25293 14855
L25312 14846
L25360 14846
L25379 14855
L25388 14865
L25398 14884
L25398 14903
L25388 14932
L25274 15046
L25398 15046
" />
<path d="M25483 15027
L25493 15036
L25483 15046
L25474 15036
L25483 15027
L25483 15046
" />
<path d="M25569 14865
L25579 14855
L25598 14846
L25645 14846
L25664 14855
L25674 14865
L25683 14884
L25683 14903
L25674 14932
L25560 15046
L25683 15046
" />
<path d="M25855 14913
L25855 15046
" />
<path d="M25769 14913
L25769 15017
L25779 15036
L25798 15046
L25826 15046
L25845 15036
L25855 15027
" />
<path d="M26017 14941
L25950 14941
" />
<path d="M25950 15046
L25950 14846
L26045 14846
" />
<text x="25660" y="13355.9"
textLength="645.952" font-size="266.667" lengthAdjust="spacingAndGlyphs"
text-anchor="middle" opacity="0">C12</text>
<path d="M25531 13327
L25521 13336
L25493 13346
L25474 13346
L25445 13336
L25426 13317
L25417 13298
L25407 13260
L25407 13232
L25417 13193
L25426 13174
L25445 13155
L25474 13146
L25493 13146
L25521 13155
L25531 13165
" />
<path d="M25721 13346
L25607 13346
" />
<path d="M25664 13346
L25664 13146
L25645 13174
L25626 13193
L25607 13203
" />
<path d="M25798 13165
L25807 13155
L25826 13146
L25874 13146
L25893 13155
L25902 13165
L25912 13184
L25912 13203
L25902 13232
L25788 13346
L25912 13346
" />
<text x="25660" y="14055.9"
textLength="893.571" font-size="266.667" lengthAdjust="spacingAndGlyphs"
text-anchor="middle" opacity="0">0.1uF</text>
<path d="M25331 13846
L25350 13846
L25369 13855
L25379 13865
L25388 13884
L25398 13922
L25398 13970
L25388 14008
L25379 14027
L25369 14036
L25350 14046
L25331 14046
L25312 14036
L25302 14027
L25293 14008
L25283 13970
L25283 13922
L25293 13884
L25302 13865
L25312 13855
L25331 13846
" />
<path d="M25483 14027
L25493 14036
L25483 14046
L25474 14036
L25483 14027
L25483 14046
" />
<path d="M25683 14046
L25569 14046
" />
<path d="M25626 14046
L25626 13846
L25607 13874
L25588 13893
L25569 13903
" />
<path d="M25855 13913
L25855 14046
" />
<path d="M25769 13913
L25769 14017
L25779 14036
L25798 14046
L25826 14046
L25845 14036
L25855 14027
" />
<path d="M26017 13941
L25950 13941
" />
<path d="M25950 14046
L25950 13846
L26045 13846
" />
<g transform="rotate(-90 38510 15605.9)">
<text x="38510" y="15705.9"
textLength="817.381" font-size="266.667" lengthAdjust="spacingAndGlyphs"
text-anchor="middle" opacity="0">CLK1</text>
</g>
<path d="M38581 15820
L38590 15829
L38600 15858
L38600 15877
L38590 15905
L38571 15924
L38552 15934
L38514 15943
L38486 15943
L38448 15934
L38429 15924
L38410 15905
L38400 15877
L38400 15858
L38410 15829
L38419 15820
" />
<path d="M38600 15639
L38600 15734
L38400 15734
" />
<path d="M38600 15572
L38400 15572
" />
<path d="M38600 15458
L38486 15543
" />
<path d="M38400 15458
L38514 15572
" />
<path d="M38600 15267
L38600 15382
" />
<path d="M38600 15324
L38400 15324
L38429 15343
L38448 15363
L38457 15382
" />
</g>
<g style="fill:#008484; fill-opacity:0.0; 
stroke:#008484; stroke-width:49.2126; stroke-opacity:1; 
stroke-linecap:round; stroke-linejoin:round;">
<g transform="rotate(-90 37160 15605.9)">
<text x="37160" y="15704.3"
textLength="1480.45" font-size="262.467" lengthAdjust="spacingAndGlyphs"
text-anchor="middle" opacity="0">CTS**CB3</text>
</g>
<path d="M37230 16154
L37239 16163
L37249 16191
L37249 16210
L37239 16238
L37220 16257
L37202 16266
L37164 16276
L37136 16276
L37099 16266
L37080 16257
L37061 16238
L37052 16210
L37052 16191
L37061 16163
L37070 16154
" />
<path d="M37052 16098
L37052 15985
" />
<path d="M37249 16041
L37052 16041
" />
<path d="M37239 15929
L37249 15901
L37249 15854
L37239 15835
L37230 15826
L37211 15816
L37192 15816
L37174 15826
L37164 15835
L37155 15854
L37145 15891
L37136 15910
L37127 15919
L37108 15929
L37089 15929
L37070 15919
L37061 15910
L37052 15891
L37052 15844
L37061 15816
" />
<path d="M37052 15704
L37099 15704
" />
<path d="M37080 15751
L37099 15704
L37080 15657
" />
<path d="M37136 15732
L37099 15704
L37136 15676
" />
<path d="M37052 15554
L37099 15554
" />
<path d="M37080 15601
L37099 15554
L37080 15507
" />
<path d="M37136 15582
L37099 15554
L37136 15526
" />
<path d="M37230 15319
L37239 15329
L37249 15357
L37249 15376
L37239 15404
L37220 15423
L37202 15432
L37164 15441
L37136 15441
L37099 15432
L37080 15423
L37061 15404
L37052 15376
L37052 15357
L37061 15329
L37070 15319
" />
<path d="M37145 15170
L37155 15141
L37164 15132
L37183 15123
L37211 15123
L37230 15132
L37239 15141
L37249 15160
L37249 15235
L37052 15235
L37052 15170
L37061 15151
L37070 15141
L37089 15132
L37108 15132
L37127 15141
L37136 15151
L37145 15170
L37145 15235
" />
<path d="M37052 15057
L37052 14935
L37127 15001
L37127 14973
L37136 14954
L37145 14945
L37164 14935
L37211 14935
L37230 14945
L37239 14954
L37249 14973
L37249 15029
L37239 15048
L37230 15057
" />
</g>
<g style="fill:#008484; fill-opacity:0.0; 
stroke:#008484; stroke-width:100; stroke-opacity:1; 
stroke-linecap:round; stroke-linejoin:round;">
<g transform="rotate(-90 20085.2 7861.8)">
<text x="20085.2" y="8061.8"
textLength="749.691" font-size="533.333" lengthAdjust="spacingAndGlyphs"
text-anchor="middle" opacity="0">J1</text>
</g>
<path d="M19866 7995
L20151 7995
L20209 8014
L20247 8052
L20266 8109
L20266 8147
" />
<path d="M20266 7595
L20266 7823
" />
<path d="M20266 7709
L19866 7709
L19923 7747
L19961 7785
L19980 7823
" />
</g>
<g style="fill:#008484; fill-opacity:0.0; 
stroke:#008484; stroke-width:50; stroke-opacity:1; 
stroke-linecap:round; stroke-linejoin:round;">
<g transform="rotate(-90 28310 12105.9)">
<text x="28310" y="12205.9"
textLength="520.476" font-size="266.667" lengthAdjust="spacingAndGlyphs"
text-anchor="middle" opacity="0">R1</text>
</g>
<path d="M28400 12139
L28305 12205
" />
<path d="M28400 12253
L28200 12253
L28200 12177
L28210 12158
L28219 12148
L28238 12139
L28267 12139
L28286 12148
L28295 12158
L28305 12177
L28305 12253
" />
<path d="M28400 11948
L28400 12063
" />
<path d="M28400 12005
L28200 12005
L28229 12024
L28248 12043
L28257 12063
" />
<g transform="rotate(-90 29010 12105.9)">
<text x="29010" y="12205.9"
textLength="636.429" font-size="266.667" lengthAdjust="spacingAndGlyphs"
text-anchor="middle" opacity="0">100</text>
</g>
<path d="M29100 12239
L29100 12353
" />
<path d="M29100 12296
L28900 12296
L28929 12315
L28948 12334
L28957 12353
" />
<path d="M28900 12115
L28900 12096
L28910 12077
L28919 12067
L28938 12058
L28976 12048
L29024 12048
L29062 12058
L29081 12067
L29090 12077
L29100 12096
L29100 12115
L29090 12134
L29081 12143
L29062 12153
L29024 12163
L28976 12163
L28938 12153
L28919 12143
L28910 12134
L28900 12115
" />
<path d="M28900 11924
L28900 11905
L28910 11886
L28919 11877
L28938 11867
L28976 11858
L29024 11858
L29062 11867
L29081 11877
L29090 11886
L29100 11905
L29100 11924
L29090 11943
L29081 11953
L29062 11963
L29024 11972
L28976 11972
L28938 11963
L28919 11953
L28910 11943
L28900 11924
" />
<g transform="rotate(-90 29010 14605.9)">
<text x="29010" y="14705.9"
textLength="455.476" font-size="266.667" lengthAdjust="spacingAndGlyphs"
text-anchor="middle" opacity="0">R2</text>
</g>
<path d="M29100 14639
L29005 14705
" />
<path d="M29100 14753
L28900 14753
L28900 14677
L28910 14658
L28919 14648
L28938 14639
L28967 14639
L28986 14648
L28995 14658
L29005 14677
L29005 14753
" />
<path d="M28919 14563
L28910 14553
L28900 14534
L28900 14486
L28910 14467
L28919 14458
L28938 14448
L28957 14448
L28986 14458
L29100 14572
L29100 14448
" />
<g transform="rotate(-90 28310 14605.9)">
<text x="28310" y="14705.9"
textLength="636.429" font-size="266.667" lengthAdjust="spacingAndGlyphs"
text-anchor="middle" opacity="0">100</text>
</g>
<path d="M28400 14739
L28400 14853
" />
<path d="M28400 14796
L28200 14796
L28229 14815
L28248 14834
L28257 14853
" />
<path d="M28200 14615
L28200 14596
L28210 14577
L28219 14567
L28238 14558
L28276 14548
L28324 14548
L28362 14558
L28381 14567
L28390 14577
L28400 14596
L28400 14615
L28390 14634
L28381 14643
L28362 14653
L28324 14663
L28276 14663
L28238 14653
L28219 14643
L28210 14634
L28200 14615
" />
<path d="M28200 14424
L28200 14405
L28210 14386
L28219 14377
L28238 14367
L28276 14358
L28324 14358
L28362 14367
L28381 14377
L28390 14386
L28400 14405
L28400 14424
L28390 14443
L28381 14453
L28362 14463
L28324 14472
L28276 14472
L28238 14463
L28219 14453
L28210 14443
L28200 14424
" />
<g transform="rotate(-90 41310 12105.9)">
<text x="41310" y="12205.9"
textLength="455.476" font-size="266.667" lengthAdjust="spacingAndGlyphs"
text-anchor="middle" opacity="0">R3</text>
</g>
<path d="M41400 12139
L41305 12205
" />
<path d="M41400 12253
L41200 12253
L41200 12177
L41210 12158
L41219 12148
L41238 12139
L41267 12139
L41286 12148
L41295 12158
L41305 12177
L41305 12253
" />
<path d="M41200 12072
L41200 11948
L41276 12015
L41276 11986
L41286 11967
L41295 11958
L41314 11948
L41362 11948
L41381 11958
L41390 11967
L41400 11986
L41400 12043
L41390 12063
L41381 12072
" />
<g transform="rotate(-90 42010 12105.9)">
<text x="42010" y="12205.9"
textLength="636.429" font-size="266.667" lengthAdjust="spacingAndGlyphs"
text-anchor="middle" opacity="0">100</text>
</g>
<path d="M42100 12239
L42100 12353
" />
<path d="M42100 12296
L41900 12296
L41929 12315
L41948 12334
L41957 12353
" />
<path d="M41900 12115
L41900 12096
L41910 12077
L41919 12067
L41938 12058
L41976 12048
L42024 12048
L42062 12058
L42081 12067
L42090 12077
L42100 12096
L42100 12115
L42090 12134
L42081 12143
L42062 12153
L42024 12163
L41976 12163
L41938 12153
L41919 12143
L41910 12134
L41900 12115
" />
<path d="M41900 11924
L41900 11905
L41910 11886
L41919 11877
L41938 11867
L41976 11858
L42024 11858
L42062 11867
L42081 11877
L42090 11886
L42100 11905
L42100 11924
L42090 11943
L42081 11953
L42062 11963
L42024 11972
L41976 11972
L41938 11963
L41919 11953
L41910 11943
L41900 11924
" />
<g transform="rotate(-90 42010 14605.9)">
<text x="42010" y="14705.9"
textLength="455.476" font-size="266.667" lengthAdjust="spacingAndGlyphs"
text-anchor="middle" opacity="0">R4</text>
</g>
<path d="M42100 14639
L42005 14705
" />
<path d="M42100 14753
L41900 14753
L41900 14677
L41910 14658
L41919 14648
L41938 14639
L41967 14639
L41986 14648
L41995 14658
L42005 14677
L42005 14753
" />
<path d="M41967 14467
L42100 14467
" />
<path d="M41890 14515
L42033 14563
L42033 14439
" />
<g transform="rotate(-90 41310 14605.9)">
<text x="41310" y="14705.9"
textLength="636.429" font-size="266.667" lengthAdjust="spacingAndGlyphs"
text-anchor="middle" opacity="0">100</text>
</g>
<path d="M41400 14739
L41400 14853
" />
<path d="M41400 14796
L41200 14796
L41229 14815
L41248 14834
L41257 14853
" />
<path d="M41200 14615
L41200 14596
L41210 14577
L41219 14567
L41238 14558
L41276 14548
L41324 14548
L41362 14558
L41381 14567
L41390 14577
L41400 14596
L41400 14615
L41390 14634
L41381 14643
L41362 14653
L41324 14663
L41276 14663
L41238 14653
L41219 14643
L41210 14634
L41200 14615
" />
<path d="M41200 14424
L41200 14405
L41210 14386
L41219 14377
L41238 14367
L41276 14358
L41324 14358
L41362 14367
L41381 14377
L41390 14386
L41400 14405
L41400 14424
L41390 14443
L41381 14453
L41362 14463
L41324 14472
L41276 14472
L41238 14463
L41219 14453
L41210 14443
L41200 14424
" />
<g transform="rotate(-90 54310 12105.9)">
<text x="54310" y="12205.9"
textLength="455.476" font-size="266.667" lengthAdjust="spacingAndGlyphs"
text-anchor="middle" opacity="0">R5</text>
</g>
<path d="M54400 12139
L54305 12205
" />
<path d="M54400 12253
L54200 12253
L54200 12177
L54210 12158
L54219 12148
L54238 12139
L54267 12139
L54286 12148
L54295 12158
L54305 12177
L54305 12253
" />
<path d="M54200 11958
L54200 12053
L54295 12063
L54286 12053
L54276 12034
L54276 11986
L54286 11967
L54295 11958
L54314 11948
L54362 11948
L54381 11958
L54390 11967
L54400 11986
L54400 12034
L54390 12053
L54381 12063
" />
<g transform="rotate(-90 55010 12105.9)">
<text x="55010" y="12205.9"
textLength="636.429" font-size="266.667" lengthAdjust="spacingAndGlyphs"
text-anchor="middle" opacity="0">100</text>
</g>
<path d="M55100 12239
L55100 12353
" />
<path d="M55100 12296
L54900 12296
L54929 12315
L54948 12334
L54957 12353
" />
<path d="M54900 12115
L54900 12096
L54910 12077
L54919 12067
L54938 12058
L54976 12048
L55024 12048
L55062 12058
L55081 12067
L55090 12077
L55100 12096
L55100 12115
L55090 12134
L55081 12143
L55062 12153
L55024 12163
L54976 12163
L54938 12153
L54919 12143
L54910 12134
L54900 12115
" />
<path d="M54900 11924
L54900 11905
L54910 11886
L54919 11877
L54938 11867
L54976 11858
L55024 11858
L55062 11867
L55081 11877
L55090 11886
L55100 11905
L55100 11924
L55090 11943
L55081 11953
L55062 11963
L55024 11972
L54976 11972
L54938 11963
L54919 11953
L54910 11943
L54900 11924
" />
<g transform="rotate(-90 55010 14605.9)">
<text x="55010" y="14705.9"
textLength="455.476" font-size="266.667" lengthAdjust="spacingAndGlyphs"
text-anchor="middle" opacity="0">R6</text>
</g>
<path d="M55100 14639
L55005 14705
" />
<path d="M55100 14753
L54900 14753
L54900 14677
L54910 14658
L54919 14648
L54938 14639
L54967 14639
L54986 14648
L54995 14658
L55005 14677
L55005 14753
" />
<path d="M54900 14467
L54900 14505
L54910 14524
L54919 14534
L54948 14553
L54986 14563
L55062 14563
L55081 14553
L55090 14543
L55100 14524
L55100 14486
L55090 14467
L55081 14458
L55062 14448
L55014 14448
L54995 14458
L54986 14467
L54976 14486
L54976 14524
L54986 14543
L54995 14553
L55014 14563
" />
<g transform="rotate(-90 54310 14605.9)">
<text x="54310" y="14705.9"
textLength="636.429" font-size="266.667" lengthAdjust="spacingAndGlyphs"
text-anchor="middle" opacity="0">100</text>
</g>
<path d="M54400 14739
L54400 14853
" />
<path d="M54400 14796
L54200 14796
L54229 14815
L54248 14834
L54257 14853
" />
<path d="M54200 14615
L54200 14596
L54210 14577
L54219 14567
L54238 14558
L54276 14548
L54324 14548
L54362 14558
L54381 14567
L54390 14577
L54400 14596
L54400 14615
L54390 14634
L54381 14643
L54362 14653
L54324 14663
L54276 14663
L54238 14653
L54219 14643
L54210 14634
L54200 14615
" />
<path d="M54200 14424
L54200 14405
L54210 14386
L54219 14377
L54238 14367
L54276 14358
L54324 14358
L54362 14367
L54381 14377
L54390 14386
L54400 14405
L54400 14424
L54390 14443
L54381 14453
L54362 14463
L54324 14472
L54276 14472
L54238 14463
L54219 14453
L54210 14443
L54200 14424
" />
<text x="15160" y="13805.9"
textLength="455.476" font-size="266.667" lengthAdjust="spacingAndGlyphs"
text-anchor="middle" opacity="0">R7</text>
<path d="M15126 13796
L15060 13701
" />
<path d="M15012 13796
L15012 13596
L15088 13596
L15107 13605
L15117 13615
L15126 13634
L15126 13663
L15117 13682
L15107 13691
L15088 13701
L15012 13701
" />
<path d="M15193 13596
L15326 13596
L15240 13796
" />
<text x="15160" y="13105.9"
textLength="893.571" font-size="266.667" lengthAdjust="spacingAndGlyphs"
text-anchor="middle" opacity="0">2.21k</text>
<path d="M14783 12915
L14793 12905
L14812 12896
L14860 12896
L14879 12905
L14888 12915
L14898 12934
L14898 12953
L14888 12982
L14774 13096
L14898 13096
" />
<path d="M14983 13077
L14993 13086
L14983 13096
L14974 13086
L14983 13077
L14983 13096
" />
<path d="M15069 12915
L15079 12905
L15098 12896
L15145 12896
L15164 12905
L15174 12915
L15183 12934
L15183 12953
L15174 12982
L15060 13096
L15183 13096
" />
<path d="M15374 13096
L15260 13096
" />
<path d="M15317 13096
L15317 12896
L15298 12924
L15279 12943
L15260 12953
" />
<path d="M15460 13096
L15460 12896
" />
<path d="M15479 13020
L15536 13096
" />
<path d="M15536 12963
L15460 13039
" />
<text x="15160" y="12805.9"
textLength="455.476" font-size="266.667" lengthAdjust="spacingAndGlyphs"
text-anchor="middle" opacity="0">R8</text>
<path d="M15126 12796
L15060 12701
" />
<path d="M15012 12796
L15012 12596
L15088 12596
L15107 12605
L15117 12615
L15126 12634
L15126 12663
L15117 12682
L15107 12691
L15088 12701
L15012 12701
" />
<path d="M15240 12682
L15221 12672
L15212 12663
L15202 12643
L15202 12634
L15212 12615
L15221 12605
L15240 12596
L15279 12596
L15298 12605
L15307 12615
L15317 12634
L15317 12643
L15307 12663
L15298 12672
L15279 12682
L15240 12682
L15221 12691
L15212 12701
L15202 12720
L15202 12758
L15212 12777
L15221 12786
L15240 12796
L15279 12796
L15298 12786
L15307 12777
L15317 12758
L15317 12720
L15307 12701
L15298 12691
L15279 12682
" />
<text x="15160" y="12105.9"
textLength="893.571" font-size="266.667" lengthAdjust="spacingAndGlyphs"
text-anchor="middle" opacity="0">2.21k</text>
<path d="M14783 11915
L14793 11905
L14812 11896
L14860 11896
L14879 11905
L14888 11915
L14898 11934
L14898 11953
L14888 11982
L14774 12096
L14898 12096
" />
<path d="M14983 12077
L14993 12086
L14983 12096
L14974 12086
L14983 12077
L14983 12096
" />
<path d="M15069 11915
L15079 11905
L15098 11896
L15145 11896
L15164 11905
L15174 11915
L15183 11934
L15183 11953
L15174 11982
L15060 12096
L15183 12096
" />
<path d="M15374 12096
L15260 12096
" />
<path d="M15317 12096
L15317 11896
L15298 11924
L15279 11943
L15260 11953
" />
<path d="M15460 12096
L15460 11896
" />
<path d="M15479 12020
L15536 12096
" />
<path d="M15536 11963
L15460 12039
" />
</g>
<g style="fill:#008484; fill-opacity:0.0; 
stroke:#008484; stroke-width:100; stroke-opacity:1; 
stroke-linecap:round; stroke-linejoin:round;">
<text x="30660" y="16155.9"
textLength="865" font-size="533.333" lengthAdjust="spacingAndGlyphs"
text-anchor="middle" opacity="0">U2</text>
<path d="M30355 15736
L30355 16060
L30374 16098
L30393 16117
L30431 16136
L30507 16136
L30545 16117
L30564 16098
L30583 16060
L30583 15736
" />
<path d="M30755 15774
L30774 15755
L30812 15736
L30907 15736
L30945 15755
L30964 15774
L30983 15813
L30983 15851
L30964 15908
L30736 16136
L30983 16136
" />
</g>
<g style="fill:#008484; fill-opacity:0.0; 
stroke:#008484; stroke-width:25; stroke-opacity:1; 
stroke-linecap:round; stroke-linejoin:round;">
<text x="5160" y="8840.94"
textLength="330" font-size="133.333" lengthAdjust="spacingAndGlyphs"
text-anchor="middle" opacity="0">U3</text>
<path d="M5083 8736
L5083 8817
L5088 8826
L5093 8831
L5102 8836
L5121 8836
L5131 8831
L5136 8826
L5140 8817
L5140 8736
" />
<path d="M5179 8736
L5240 8736
L5207 8774
L5221 8774
L5231 8779
L5236 8783
L5240 8793
L5240 8817
L5236 8826
L5231 8831
L5221 8836
L5193 8836
L5183 8831
L5179 8826
" />
</g>
<g style="fill:#008484; fill-opacity:0.0; 
stroke:#008484; stroke-width:100; stroke-opacity:1; 
stroke-linecap:round; stroke-linejoin:round;">
<text x="43660" y="16155.9"
textLength="832.5" font-size="533.333" lengthAdjust="spacingAndGlyphs"
text-anchor="middle" opacity="0">U4</text>
<path d="M43355 15736
L43355 16060
L43374 16098
L43393 16117
L43431 16136
L43507 16136
L43545 16117
L43564 16098
L43583 16060
L43583 15736
" />
<path d="M43945 15870
L43945 16136
" />
<path d="M43850 15717
L43755 16003
L44002 16003
" />
</g>
<g style="fill:#008484; fill-opacity:0.0; 
stroke:#008484; stroke-width:25; stroke-opacity:1; 
stroke-linecap:round; stroke-linejoin:round;">
<text x="15160" y="17720.9"
textLength="330" font-size="133.333" lengthAdjust="spacingAndGlyphs"
text-anchor="middle" opacity="0">U5</text>
<path d="M15083 17616
L15083 17697
L15088 17706
L15093 17711
L15102 17716
L15121 17716
L15131 17711
L15136 17706
L15140 17697
L15140 17616
" />
<path d="M15236 17616
L15188 17616
L15183 17663
L15188 17658
L15198 17654
L15221 17654
L15231 17658
L15236 17663
L15240 17673
L15240 17697
L15236 17706
L15231 17711
L15221 17716
L15198 17716
L15188 17711
L15183 17706
" />
</g>
<g style="fill:#008484; fill-opacity:0.0; 
stroke:#008484; stroke-width:100; stroke-opacity:1; 
stroke-linecap:round; stroke-linejoin:round;">
<text x="56660" y="16155.9"
textLength="832.5" font-size="533.333" lengthAdjust="spacingAndGlyphs"
text-anchor="middle" opacity="0">U6</text>
<path d="M56355 15736
L56355 16060
L56374 16098
L56393 16117
L56431 16136
L56507 16136
L56545 16117
L56564 16098
L56583 16060
L56583 15736
" />
<path d="M56945 15736
L56869 15736
L56831 15755
L56812 15774
L56774 15832
L56755 15908
L56755 16060
L56774 16098
L56793 16117
L56831 16136
L56907 16136
L56945 16117
L56964 16098
L56983 16060
L56983 15965
L56964 15927
L56945 15908
L56907 15889
L56831 15889
L56793 15908
L56774 15927
L56755 15965
" />
</g>
<g style="fill:#008484; fill-opacity:0.0; 
stroke:#008484; stroke-width:25; stroke-opacity:1; 
stroke-linecap:round; stroke-linejoin:round;">
<text x="15160" y="15720.9"
textLength="330" font-size="133.333" lengthAdjust="spacingAndGlyphs"
text-anchor="middle" opacity="0">U7</text>
<path d="M15083 15616
L15083 15697
L15088 15706
L15093 15711
L15102 15716
L15121 15716
L15131 15711
L15136 15706
L15140 15697
L15140 15616
" />
<path d="M15179 15616
L15245 15616
L15202 15716
" />
</g>
<g style="fill:#008484; fill-opacity:0.0; 
stroke:#008484; stroke-width:50; stroke-opacity:1; 
stroke-linecap:round; stroke-linejoin:round;">
<g transform="rotate(-90 16110 11855.9)">
<text x="16110" y="11955.9"
textLength="432.5" font-size="266.667" lengthAdjust="spacingAndGlyphs"
text-anchor="middle" opacity="0">U8</text>
</g>
<path d="M16000 12008
L16162 12008
L16181 11998
L16190 11989
L16200 11970
L16200 11932
L16190 11913
L16181 11903
L16162 11893
L16000 11893
" />
<path d="M16086 11770
L16076 11789
L16067 11798
L16048 11808
L16038 11808
L16019 11798
L16010 11789
L16000 11770
L16000 11732
L16010 11713
L16019 11703
L16038 11693
L16048 11693
L16067 11703
L16076 11713
L16086 11732
L16086 11770
L16095 11789
L16105 11798
L16124 11808
L16162 11808
L16181 11798
L16190 11789
L16200 11770
L16200 11732
L16190 11713
L16181 11703
L16162 11693
L16124 11693
L16105 11703
L16095 11713
L16086 11732
" />
</g>
<g style="fill:#008484; fill-opacity:0.0; 
stroke:#008484; stroke-width:100; stroke-opacity:1; 
stroke-linecap:round; stroke-linejoin:round;">
<g transform="rotate(-90 22660 20105.9)">
<text x="22660" y="20305.9"
textLength="865" font-size="533.333" lengthAdjust="spacingAndGlyphs"
text-anchor="middle" opacity="0">U9</text>
</g>
<path d="M22440 20410
L22764 20410
L22802 20391
L22821 20372
L22840 20334
L22840 20258
L22821 20220
L22802 20201
L22764 20182
L22440 20182
" />
<path d="M22840 19972
L22840 19896
L22821 19858
L22802 19839
L22745 19801
L22669 19782
L22517 19782
L22479 19801
L22460 19820
L22440 19858
L22440 19934
L22460 19972
L22479 19991
L22517 20010
L22612 20010
L22650 19991
L22669 19972
L22688 19934
L22688 19858
L22669 19820
L22650 19801
L22612 19782
" />
<g transform="rotate(-90 38663.9 20605.9)">
<text x="38663.9" y="20805.9"
textLength="930" font-size="533.333" lengthAdjust="spacingAndGlyphs"
text-anchor="middle" opacity="0">U1</text>
</g>
<path d="M38444 20910
L38768 20910
L38806 20891
L38825 20872
L38844 20834
L38844 20758
L38825 20720
L38806 20701
L38768 20682
L38444 20682
" />
<path d="M38844 20282
L38844 20510
" />
<path d="M38844 20396
L38444 20396
L38502 20434
L38540 20472
L38559 20510
" />
<g transform="rotate(-90 35656.1 20605.9)">
<text x="35656.1" y="20805.9"
textLength="2434.76" font-size="533.333" lengthAdjust="spacingAndGlyphs"
text-anchor="middle" opacity="0">TMC429</text>
</g>
<path d="M35437 21720
L35437 21491
" />
<path d="M35837 21605
L35437 21605
" />
<path d="M35837 21358
L35437 21358
L35722 21224
L35437 21091
L35837 21091
" />
<path d="M35798 20672
L35817 20691
L35837 20748
L35837 20786
L35817 20843
L35779 20882
L35741 20901
L35665 20920
L35608 20920
L35532 20901
L35494 20882
L35456 20843
L35437 20786
L35437 20748
L35456 20691
L35475 20672
" />
<path d="M35570 20329
L35837 20329
" />
<path d="M35417 20424
L35703 20520
L35703 20272
" />
<path d="M35475 20139
L35456 20120
L35437 20082
L35437 19986
L35456 19948
L35475 19929
L35513 19910
L35551 19910
L35608 19929
L35837 20158
L35837 19910
" />
<path d="M35837 19720
L35837 19643
L35817 19605
L35798 19586
L35741 19548
L35665 19529
L35513 19529
L35475 19548
L35456 19567
L35437 19605
L35437 19682
L35456 19720
L35475 19739
L35513 19758
L35608 19758
L35646 19739
L35665 19720
L35684 19682
L35684 19605
L35665 19567
L35646 19548
L35608 19529
" />
<text x="21660" y="17809.8"
textLength="1310.95" font-size="533.333" lengthAdjust="spacingAndGlyphs"
text-anchor="middle" opacity="0">U10</text>
<path d="M21164 17390
L21164 17714
L21183 17752
L21202 17771
L21240 17790
L21317 17790
L21355 17771
L21374 17752
L21393 17714
L21393 17390
" />
<path d="M21793 17790
L21564 17790
" />
<path d="M21679 17790
L21679 17390
L21640 17447
L21602 17486
L21564 17505
" />
<path d="M22040 17390
L22079 17390
L22117 17409
L22136 17428
L22155 17466
L22174 17543
L22174 17638
L22155 17714
L22136 17752
L22117 17771
L22079 17790
L22040 17790
L22002 17771
L21983 17752
L21964 17714
L21945 17638
L21945 17543
L21964 17466
L21983 17428
L22002 17409
L22040 17390
" />
<text x="21660" y="14802"
textLength="3063.33" font-size="533.333" lengthAdjust="spacingAndGlyphs"
text-anchor="middle" opacity="0">SGTL5000</text>
<path d="M20269 14763
L20326 14782
L20421 14782
L20460 14763
L20479 14744
L20498 14706
L20498 14668
L20479 14630
L20460 14611
L20421 14592
L20345 14573
L20307 14554
L20288 14535
L20269 14497
L20269 14459
L20288 14421
L20307 14401
L20345 14382
L20440 14382
L20498 14401
" />
<path d="M20879 14401
L20840 14382
L20783 14382
L20726 14401
L20688 14440
L20669 14478
L20650 14554
L20650 14611
L20669 14687
L20688 14725
L20726 14763
L20783 14782
L20821 14782
L20879 14763
L20898 14744
L20898 14611
L20821 14611
" />
<path d="M21012 14382
L21240 14382
" />
<path d="M21126 14782
L21126 14382
" />
<path d="M21564 14782
L21374 14782
L21374 14382
" />
<path d="M21888 14382
L21698 14382
L21679 14573
L21698 14554
L21736 14535
L21831 14535
L21869 14554
L21888 14573
L21907 14611
L21907 14706
L21888 14744
L21869 14763
L21831 14782
L21736 14782
L21698 14763
L21679 14744
" />
<path d="M22155 14382
L22193 14382
L22231 14401
L22250 14421
L22269 14459
L22288 14535
L22288 14630
L22269 14706
L22250 14744
L22231 14763
L22193 14782
L22155 14782
L22117 14763
L22098 14744
L22079 14706
L22060 14630
L22060 14535
L22079 14459
L22098 14421
L22117 14401
L22155 14382
" />
<path d="M22536 14382
L22574 14382
L22612 14401
L22631 14421
L22650 14459
L22669 14535
L22669 14630
L22650 14706
L22631 14744
L22612 14763
L22574 14782
L22536 14782
L22498 14763
L22479 14744
L22460 14706
L22440 14630
L22440 14535
L22460 14459
L22479 14421
L22498 14401
L22536 14382
" />
<path d="M22917 14382
L22955 14382
L22993 14401
L23012 14421
L23031 14459
L23050 14535
L23050 14630
L23031 14706
L23012 14744
L22993 14763
L22955 14782
L22917 14782
L22879 14763
L22860 14744
L22840 14706
L22821 14630
L22821 14535
L22840 14459
L22860 14421
L22879 14401
L22917 14382
" />
<g transform="rotate(-90 19410 8355.9)">
<text x="19410" y="8555.9"
textLength="815.714" font-size="533.333" lengthAdjust="spacingAndGlyphs"
text-anchor="middle" opacity="0">T1</text>
</g>
<path d="M19190 8660
L19190 8432
" />
<path d="M19590 8546
L19190 8546
" />
<path d="M19590 8089
L19590 8317
" />
<path d="M19590 8203
L19190 8203
L19248 8241
L19286 8279
L19305 8317
" />
</g>
<g style="fill:#008484; fill-opacity:0.0; 
stroke:#008484; stroke-width:50; stroke-opacity:1; 
stroke-linecap:round; stroke-linejoin:round;">
<text x="21660" y="22805.9"
textLength="710.952" font-size="266.667" lengthAdjust="spacingAndGlyphs"
text-anchor="middle" opacity="0">C13</text>
<path d="M21531 22777
L21521 22786
L21493 22796
L21474 22796
L21445 22786
L21426 22767
L21417 22748
L21407 22710
L21407 22682
L21417 22643
L21426 22624
L21445 22605
L21474 22596
L21493 22596
L21521 22605
L21531 22615
" />
<path d="M21721 22796
L21607 22796
" />
<path d="M21664 22796
L21664 22596
L21645 22624
L21626 22643
L21607 22653
" />
<path d="M21788 22596
L21912 22596
L21845 22672
L21874 22672
L21893 22682
L21902 22691
L21912 22710
L21912 22758
L21902 22777
L21893 22786
L21874 22796
L21817 22796
L21798 22786
L21788 22777
" />
<text x="21660" y="22105.9"
textLength="893.571" font-size="266.667" lengthAdjust="spacingAndGlyphs"
text-anchor="middle" opacity="0">2.2uF</text>
<path d="M21283 21915
L21293 21905
L21312 21896
L21360 21896
L21379 21905
L21388 21915
L21398 21934
L21398 21953
L21388 21982
L21274 22096
L21398 22096
" />
<path d="M21483 22077
L21493 22086
L21483 22096
L21474 22086
L21483 22077
L21483 22096
" />
<path d="M21569 21915
L21579 21905
L21598 21896
L21645 21896
L21664 21905
L21674 21915
L21683 21934
L21683 21953
L21674 21982
L21560 22096
L21683 22096
" />
<path d="M21855 21963
L21855 22096
" />
<path d="M21769 21963
L21769 22067
L21779 22086
L21798 22096
L21826 22096
L21845 22086
L21855 22077
" />
<path d="M22017 21991
L21950 21991
" />
<path d="M21950 22096
L21950 21896
L22045 21896
" />
<text x="21660" y="21805.9"
textLength="645.952" font-size="266.667" lengthAdjust="spacingAndGlyphs"
text-anchor="middle" opacity="0">C14</text>
<path d="M21531 21777
L21521 21786
L21493 21796
L21474 21796
L21445 21786
L21426 21767
L21417 21748
L21407 21710
L21407 21682
L21417 21643
L21426 21624
L21445 21605
L21474 21596
L21493 21596
L21521 21605
L21531 21615
" />
<path d="M21721 21796
L21607 21796
" />
<path d="M21664 21796
L21664 21596
L21645 21624
L21626 21643
L21607 21653
" />
<path d="M21893 21663
L21893 21796
" />
<path d="M21845 21586
L21798 21729
L21921 21729
" />
<text x="21660" y="21105.9"
textLength="893.571" font-size="266.667" lengthAdjust="spacingAndGlyphs"
text-anchor="middle" opacity="0">0.1uF</text>
<path d="M21331 20896
L21350 20896
L21369 20905
L21379 20915
L21388 20934
L21398 20972
L21398 21020
L21388 21058
L21379 21077
L21369 21086
L21350 21096
L21331 21096
L21312 21086
L21302 21077
L21293 21058
L21283 21020
L21283 20972
L21293 20934
L21302 20915
L21312 20905
L21331 20896
" />
<path d="M21483 21077
L21493 21086
L21483 21096
L21474 21086
L21483 21077
L21483 21096
" />
<path d="M21683 21096
L21569 21096
" />
<path d="M21626 21096
L21626 20896
L21607 20924
L21588 20943
L21569 20953
" />
<path d="M21855 20963
L21855 21096
" />
<path d="M21769 20963
L21769 21067
L21779 21086
L21798 21096
L21826 21096
L21845 21086
L21855 21077
" />
<path d="M22017 20991
L21950 20991
" />
<path d="M21950 21096
L21950 20896
L22045 20896
" />
<text x="21660" y="19305.9"
textLength="645.952" font-size="266.667" lengthAdjust="spacingAndGlyphs"
text-anchor="middle" opacity="0">C15</text>
<path d="M21531 19277
L21521 19286
L21493 19296
L21474 19296
L21445 19286
L21426 19267
L21417 19248
L21407 19210
L21407 19182
L21417 19143
L21426 19124
L21445 19105
L21474 19096
L21493 19096
L21521 19105
L21531 19115
" />
<path d="M21721 19296
L21607 19296
" />
<path d="M21664 19296
L21664 19096
L21645 19124
L21626 19143
L21607 19153
" />
<path d="M21902 19096
L21807 19096
L21798 19191
L21807 19182
L21826 19172
L21874 19172
L21893 19182
L21902 19191
L21912 19210
L21912 19258
L21902 19277
L21893 19286
L21874 19296
L21826 19296
L21807 19286
L21798 19277
" />
<text x="21660" y="18605.9"
textLength="893.571" font-size="266.667" lengthAdjust="spacingAndGlyphs"
text-anchor="middle" opacity="0">2.2uF</text>
<path d="M21283 18415
L21293 18405
L21312 18396
L21360 18396
L21379 18405
L21388 18415
L21398 18434
L21398 18453
L21388 18482
L21274 18596
L21398 18596
" />
<path d="M21483 18577
L21493 18586
L21483 18596
L21474 18586
L21483 18577
L21483 18596
" />
<path d="M21569 18415
L21579 18405
L21598 18396
L21645 18396
L21664 18405
L21674 18415
L21683 18434
L21683 18453
L21674 18482
L21560 18596
L21683 18596
" />
<path d="M21855 18463
L21855 18596
" />
<path d="M21769 18463
L21769 18567
L21779 18586
L21798 18596
L21826 18596
L21845 18586
L21855 18577
" />
<path d="M22017 18491
L21950 18491
" />
<path d="M21950 18596
L21950 18396
L22045 18396
" />
<g transform="rotate(-90 21810 13605.9)">
<text x="21810" y="13705.9"
textLength="645.952" font-size="266.667" lengthAdjust="spacingAndGlyphs"
text-anchor="middle" opacity="0">C16</text>
</g>
<path d="M21881 13734
L21890 13743
L21900 13772
L21900 13791
L21890 13820
L21871 13839
L21852 13848
L21814 13858
L21786 13858
L21748 13848
L21729 13839
L21710 13820
L21700 13791
L21700 13772
L21710 13743
L21719 13734
" />
<path d="M21900 13543
L21900 13658
" />
<path d="M21900 13601
L21700 13601
L21729 13620
L21748 13639
L21757 13658
" />
<path d="M21700 13372
L21700 13410
L21710 13429
L21719 13439
L21748 13458
L21786 13467
L21862 13467
L21881 13458
L21890 13448
L21900 13429
L21900 13391
L21890 13372
L21881 13363
L21862 13353
L21814 13353
L21795 13363
L21786 13372
L21776 13391
L21776 13429
L21786 13448
L21795 13458
L21814 13467
" />
<g transform="rotate(-90 22510 13605.9)">
<text x="22510" y="13705.9"
textLength="1084.05" font-size="266.667" lengthAdjust="spacingAndGlyphs"
text-anchor="middle" opacity="0">0.15uF</text>
</g>
<path d="M22400 14029
L22400 14010
L22410 13991
L22419 13982
L22438 13972
L22476 13963
L22524 13963
L22562 13972
L22581 13982
L22590 13991
L22600 14010
L22600 14029
L22590 14048
L22581 14058
L22562 14067
L22524 14077
L22476 14077
L22438 14067
L22419 14058
L22410 14048
L22400 14029
" />
<path d="M22581 13877
L22590 13867
L22600 13877
L22590 13886
L22581 13877
L22600 13877
" />
<path d="M22600 13677
L22600 13791
" />
<path d="M22600 13734
L22400 13734
L22429 13753
L22448 13772
L22457 13791
" />
<path d="M22400 13496
L22400 13591
L22495 13601
L22486 13591
L22476 13572
L22476 13524
L22486 13505
L22495 13496
L22514 13486
L22562 13486
L22581 13496
L22590 13505
L22600 13524
L22600 13572
L22590 13591
L22581 13601
" />
<path d="M22467 13315
L22600 13315
" />
<path d="M22467 13401
L22571 13401
L22590 13391
L22600 13372
L22600 13343
L22590 13324
L22581 13315
" />
<path d="M22495 13153
L22495 13220
" />
<path d="M22600 13220
L22400 13220
L22400 13124
" />
<g >
</g>
</g>
<g style="fill:#000000; fill-opacity:0.0; 
stroke:#000000; stroke-width:50; stroke-opacity:1; 
stroke-linecap:round; stroke-linejoin:round;">
</g>
<g style="fill:#C2C200; fill-opacity:0.0; 
stroke:#C2C200; stroke-width:50; stroke-opacity:1; 
stroke-linecap:round; stroke-linejoin:round;">
</g>
<g style="fill:#C2C200; fill-opacity:0.0; 
stroke:#C2C200; stroke-width:90; stroke-opacity:1; 
stroke-linecap:round; stroke-linejoin:round;">
<path d="M66410 5605.9 A1250 1250 0.0 0 0 65160 4355.9" />
<path d="M65160 26855.9 A1250 1250 0.0 0 0 66410 25605.9" />
<path d="M3910 25605.9 A1250 1250 0.0 0 0 5160 26855.9" />
<path d="M5160 4355.9 A1250 1250 0.0 0 0 3910 5605.9" />
<path d="M3910 25605
L3910 5605
" />
<path d="M65160 26855
L5160 26855
" />
<path d="M66410 5605
L66410 25605
" />
<path d="M5160 4355
L65160 4355
" />
<g >
</g>
<g >
</g>
<g >
</g>
<g >
</g>
<g >
</g>
<g >
</g>
<g >
</g>
<g >
</g>
<g >
</g>
<g >
</g>
<g >
</g>
<g >
</g>
<g >
</g>
<g >
</g>
<g >
</g>
<g >
</g>
<g >
</g>
<g >
</g>
<g >
</g>
<g >
</g>
<g >
</g>
<g >
</g>
<g >
</g>
<g >
</g>
<g >
</g>
<g >
</g>
<g >
</g>
<g >
</g>
<g >
</g>
<g >
</g>
<g >
</g>
<g >
</g>
<g >
</g>
<g >
</g>
<g >
</g>
<g >
</g>
<g >
</g>
<g >
</g>
<g >
</g>
<g >
</g>
<g >
</g>
<g >
</g>
<g >
</g>
<g >
</g>
<g >
</g>
<g >
</g>
<g >
</g>
<g >
</g>
<g >
</g>
<g >
</g>
<g >
</g>
<g >
</g>
</g> 
</svg>
