%TF.GenerationSoftware,KiCad,Pcbnew,5.1.10*%
%TF.CreationDate,2021-11-12T09:27:16-05:00*%
%TF.ProjectId,mouse_reach_controller,6d6f7573-655f-4726-9561-63685f636f6e,1.0*%
%TF.SameCoordinates,Original*%
%TF.FileFunction,Legend,Top*%
%TF.FilePolarity,Positive*%
%FSLAX46Y46*%
G04 Gerber Fmt 4.6, Leading zero omitted, Abs format (unit mm)*
G04 Created by KiCad (PCBNEW 5.1.10) date 2021-11-12 09:27:16*
%MOMM*%
%LPD*%
G01*
G04 APERTURE LIST*
%ADD10C,0.508000*%
%ADD11C,0.381000*%
%ADD12C,0.177800*%
%ADD13C,0.250000*%
%ADD14C,0.228600*%
%ADD15C,0.150000*%
%ADD16C,0.200000*%
%ADD17C,0.120000*%
%ADD18C,0.254000*%
%ADD19C,0.127000*%
%ADD20C,0.120650*%
%ADD21C,0.125000*%
%ADD22C,0.063500*%
%ADD23C,3.810000*%
%ADD24O,1.524000X2.032000*%
%ADD25R,1.524000X2.032000*%
%ADD26R,1.270000X2.540000*%
%ADD27R,0.600000X0.700000*%
%ADD28O,2.540000X2.184400*%
%ADD29R,2.540000X2.184400*%
%ADD30R,0.700000X0.600000*%
%ADD31R,2.000000X1.800000*%
%ADD32C,1.000000*%
%ADD33R,2.800000X2.200000*%
%ADD34R,2.800000X2.800000*%
%ADD35C,2.100000*%
%ADD36C,3.556000*%
%ADD37R,1.550000X0.600000*%
%ADD38R,0.570000X0.200000*%
%ADD39R,0.470000X1.000000*%
%ADD40R,1.000760X0.701040*%
%ADD41R,3.300000X3.300000*%
%ADD42C,2.540000*%
G04 APERTURE END LIST*
D10*
X97681142Y-65259857D02*
X97971428Y-65356619D01*
X98068190Y-65453380D01*
X98164952Y-65646904D01*
X98164952Y-65937190D01*
X98068190Y-66130714D01*
X97971428Y-66227476D01*
X97777904Y-66324238D01*
X97003809Y-66324238D01*
X97003809Y-64292238D01*
X97681142Y-64292238D01*
X97874666Y-64389000D01*
X97971428Y-64485761D01*
X98068190Y-64679285D01*
X98068190Y-64872809D01*
X97971428Y-65066333D01*
X97874666Y-65163095D01*
X97681142Y-65259857D01*
X97003809Y-65259857D01*
X99906666Y-64969571D02*
X99906666Y-66324238D01*
X99035809Y-64969571D02*
X99035809Y-66033952D01*
X99132571Y-66227476D01*
X99326095Y-66324238D01*
X99616380Y-66324238D01*
X99809904Y-66227476D01*
X99906666Y-66130714D01*
X100680761Y-64969571D02*
X101745142Y-64969571D01*
X100680761Y-66324238D01*
X101745142Y-66324238D01*
X102325714Y-64969571D02*
X103390095Y-64969571D01*
X102325714Y-66324238D01*
X103390095Y-66324238D01*
X104938285Y-66227476D02*
X104744761Y-66324238D01*
X104357714Y-66324238D01*
X104164190Y-66227476D01*
X104067428Y-66033952D01*
X104067428Y-65259857D01*
X104164190Y-65066333D01*
X104357714Y-64969571D01*
X104744761Y-64969571D01*
X104938285Y-65066333D01*
X105035047Y-65259857D01*
X105035047Y-65453380D01*
X104067428Y-65646904D01*
X105905904Y-66324238D02*
X105905904Y-64969571D01*
X105905904Y-65356619D02*
X106002666Y-65163095D01*
X106099428Y-65066333D01*
X106292952Y-64969571D01*
X106486476Y-64969571D01*
X110574666Y-70188666D02*
X111542285Y-70188666D01*
X110381142Y-70769238D02*
X111058476Y-68737238D01*
X111735809Y-70769238D01*
X113284000Y-69414571D02*
X113284000Y-70769238D01*
X112413142Y-69414571D02*
X112413142Y-70478952D01*
X112509904Y-70672476D01*
X112703428Y-70769238D01*
X112993714Y-70769238D01*
X113187238Y-70672476D01*
X113284000Y-70575714D01*
X115122476Y-70769238D02*
X115122476Y-68737238D01*
X115122476Y-70672476D02*
X114928952Y-70769238D01*
X114541904Y-70769238D01*
X114348380Y-70672476D01*
X114251619Y-70575714D01*
X114154857Y-70382190D01*
X114154857Y-69801619D01*
X114251619Y-69608095D01*
X114348380Y-69511333D01*
X114541904Y-69414571D01*
X114928952Y-69414571D01*
X115122476Y-69511333D01*
X116090095Y-70769238D02*
X116090095Y-69414571D01*
X116090095Y-68737238D02*
X115993333Y-68834000D01*
X116090095Y-68930761D01*
X116186857Y-68834000D01*
X116090095Y-68737238D01*
X116090095Y-68930761D01*
X117348000Y-70769238D02*
X117154476Y-70672476D01*
X117057714Y-70575714D01*
X116960952Y-70382190D01*
X116960952Y-69801619D01*
X117057714Y-69608095D01*
X117154476Y-69511333D01*
X117348000Y-69414571D01*
X117638285Y-69414571D01*
X117831809Y-69511333D01*
X117928571Y-69608095D01*
X118025333Y-69801619D01*
X118025333Y-70382190D01*
X117928571Y-70575714D01*
X117831809Y-70672476D01*
X117638285Y-70769238D01*
X117348000Y-70769238D01*
X196088000Y-65592476D02*
X196378285Y-65689238D01*
X196862095Y-65689238D01*
X197055619Y-65592476D01*
X197152380Y-65495714D01*
X197249142Y-65302190D01*
X197249142Y-65108666D01*
X197152380Y-64915142D01*
X197055619Y-64818380D01*
X196862095Y-64721619D01*
X196475047Y-64624857D01*
X196281523Y-64528095D01*
X196184761Y-64431333D01*
X196088000Y-64237809D01*
X196088000Y-64044285D01*
X196184761Y-63850761D01*
X196281523Y-63754000D01*
X196475047Y-63657238D01*
X196958857Y-63657238D01*
X197249142Y-63754000D01*
X197829714Y-64334571D02*
X198603809Y-64334571D01*
X198120000Y-63657238D02*
X198120000Y-65398952D01*
X198216761Y-65592476D01*
X198410285Y-65689238D01*
X198603809Y-65689238D01*
X200055238Y-65592476D02*
X199861714Y-65689238D01*
X199474666Y-65689238D01*
X199281142Y-65592476D01*
X199184380Y-65398952D01*
X199184380Y-64624857D01*
X199281142Y-64431333D01*
X199474666Y-64334571D01*
X199861714Y-64334571D01*
X200055238Y-64431333D01*
X200152000Y-64624857D01*
X200152000Y-64818380D01*
X199184380Y-65011904D01*
X201022857Y-64334571D02*
X201022857Y-66366571D01*
X201022857Y-64431333D02*
X201216380Y-64334571D01*
X201603428Y-64334571D01*
X201796952Y-64431333D01*
X201893714Y-64528095D01*
X201990476Y-64721619D01*
X201990476Y-65302190D01*
X201893714Y-65495714D01*
X201796952Y-65592476D01*
X201603428Y-65689238D01*
X201216380Y-65689238D01*
X201022857Y-65592476D01*
X202861333Y-64334571D02*
X202861333Y-66366571D01*
X202861333Y-64431333D02*
X203054857Y-64334571D01*
X203441904Y-64334571D01*
X203635428Y-64431333D01*
X203732190Y-64528095D01*
X203828952Y-64721619D01*
X203828952Y-65302190D01*
X203732190Y-65495714D01*
X203635428Y-65592476D01*
X203441904Y-65689238D01*
X203054857Y-65689238D01*
X202861333Y-65592476D01*
X205473904Y-65592476D02*
X205280380Y-65689238D01*
X204893333Y-65689238D01*
X204699809Y-65592476D01*
X204603047Y-65398952D01*
X204603047Y-64624857D01*
X204699809Y-64431333D01*
X204893333Y-64334571D01*
X205280380Y-64334571D01*
X205473904Y-64431333D01*
X205570666Y-64624857D01*
X205570666Y-64818380D01*
X204603047Y-65011904D01*
X206441523Y-65689238D02*
X206441523Y-64334571D01*
X206441523Y-64721619D02*
X206538285Y-64528095D01*
X206635047Y-64431333D01*
X206828571Y-64334571D01*
X207022095Y-64334571D01*
X209150857Y-63850761D02*
X209247619Y-63754000D01*
X209441142Y-63657238D01*
X209924952Y-63657238D01*
X210118476Y-63754000D01*
X210215238Y-63850761D01*
X210312000Y-64044285D01*
X210312000Y-64237809D01*
X210215238Y-64528095D01*
X209054095Y-65689238D01*
X210312000Y-65689238D01*
X163068000Y-65592476D02*
X163358285Y-65689238D01*
X163842095Y-65689238D01*
X164035619Y-65592476D01*
X164132380Y-65495714D01*
X164229142Y-65302190D01*
X164229142Y-65108666D01*
X164132380Y-64915142D01*
X164035619Y-64818380D01*
X163842095Y-64721619D01*
X163455047Y-64624857D01*
X163261523Y-64528095D01*
X163164761Y-64431333D01*
X163068000Y-64237809D01*
X163068000Y-64044285D01*
X163164761Y-63850761D01*
X163261523Y-63754000D01*
X163455047Y-63657238D01*
X163938857Y-63657238D01*
X164229142Y-63754000D01*
X164809714Y-64334571D02*
X165583809Y-64334571D01*
X165100000Y-63657238D02*
X165100000Y-65398952D01*
X165196761Y-65592476D01*
X165390285Y-65689238D01*
X165583809Y-65689238D01*
X167035238Y-65592476D02*
X166841714Y-65689238D01*
X166454666Y-65689238D01*
X166261142Y-65592476D01*
X166164380Y-65398952D01*
X166164380Y-64624857D01*
X166261142Y-64431333D01*
X166454666Y-64334571D01*
X166841714Y-64334571D01*
X167035238Y-64431333D01*
X167132000Y-64624857D01*
X167132000Y-64818380D01*
X166164380Y-65011904D01*
X168002857Y-64334571D02*
X168002857Y-66366571D01*
X168002857Y-64431333D02*
X168196380Y-64334571D01*
X168583428Y-64334571D01*
X168776952Y-64431333D01*
X168873714Y-64528095D01*
X168970476Y-64721619D01*
X168970476Y-65302190D01*
X168873714Y-65495714D01*
X168776952Y-65592476D01*
X168583428Y-65689238D01*
X168196380Y-65689238D01*
X168002857Y-65592476D01*
X169841333Y-64334571D02*
X169841333Y-66366571D01*
X169841333Y-64431333D02*
X170034857Y-64334571D01*
X170421904Y-64334571D01*
X170615428Y-64431333D01*
X170712190Y-64528095D01*
X170808952Y-64721619D01*
X170808952Y-65302190D01*
X170712190Y-65495714D01*
X170615428Y-65592476D01*
X170421904Y-65689238D01*
X170034857Y-65689238D01*
X169841333Y-65592476D01*
X172453904Y-65592476D02*
X172260380Y-65689238D01*
X171873333Y-65689238D01*
X171679809Y-65592476D01*
X171583047Y-65398952D01*
X171583047Y-64624857D01*
X171679809Y-64431333D01*
X171873333Y-64334571D01*
X172260380Y-64334571D01*
X172453904Y-64431333D01*
X172550666Y-64624857D01*
X172550666Y-64818380D01*
X171583047Y-65011904D01*
X173421523Y-65689238D02*
X173421523Y-64334571D01*
X173421523Y-64721619D02*
X173518285Y-64528095D01*
X173615047Y-64431333D01*
X173808571Y-64334571D01*
X174002095Y-64334571D01*
X177292000Y-65689238D02*
X176130857Y-65689238D01*
X176711428Y-65689238D02*
X176711428Y-63657238D01*
X176517904Y-63947523D01*
X176324380Y-64141047D01*
X176130857Y-64237809D01*
X130048000Y-65592476D02*
X130338285Y-65689238D01*
X130822095Y-65689238D01*
X131015619Y-65592476D01*
X131112380Y-65495714D01*
X131209142Y-65302190D01*
X131209142Y-65108666D01*
X131112380Y-64915142D01*
X131015619Y-64818380D01*
X130822095Y-64721619D01*
X130435047Y-64624857D01*
X130241523Y-64528095D01*
X130144761Y-64431333D01*
X130048000Y-64237809D01*
X130048000Y-64044285D01*
X130144761Y-63850761D01*
X130241523Y-63754000D01*
X130435047Y-63657238D01*
X130918857Y-63657238D01*
X131209142Y-63754000D01*
X131789714Y-64334571D02*
X132563809Y-64334571D01*
X132080000Y-63657238D02*
X132080000Y-65398952D01*
X132176761Y-65592476D01*
X132370285Y-65689238D01*
X132563809Y-65689238D01*
X134015238Y-65592476D02*
X133821714Y-65689238D01*
X133434666Y-65689238D01*
X133241142Y-65592476D01*
X133144380Y-65398952D01*
X133144380Y-64624857D01*
X133241142Y-64431333D01*
X133434666Y-64334571D01*
X133821714Y-64334571D01*
X134015238Y-64431333D01*
X134112000Y-64624857D01*
X134112000Y-64818380D01*
X133144380Y-65011904D01*
X134982857Y-64334571D02*
X134982857Y-66366571D01*
X134982857Y-64431333D02*
X135176380Y-64334571D01*
X135563428Y-64334571D01*
X135756952Y-64431333D01*
X135853714Y-64528095D01*
X135950476Y-64721619D01*
X135950476Y-65302190D01*
X135853714Y-65495714D01*
X135756952Y-65592476D01*
X135563428Y-65689238D01*
X135176380Y-65689238D01*
X134982857Y-65592476D01*
X136821333Y-64334571D02*
X136821333Y-66366571D01*
X136821333Y-64431333D02*
X137014857Y-64334571D01*
X137401904Y-64334571D01*
X137595428Y-64431333D01*
X137692190Y-64528095D01*
X137788952Y-64721619D01*
X137788952Y-65302190D01*
X137692190Y-65495714D01*
X137595428Y-65592476D01*
X137401904Y-65689238D01*
X137014857Y-65689238D01*
X136821333Y-65592476D01*
X139433904Y-65592476D02*
X139240380Y-65689238D01*
X138853333Y-65689238D01*
X138659809Y-65592476D01*
X138563047Y-65398952D01*
X138563047Y-64624857D01*
X138659809Y-64431333D01*
X138853333Y-64334571D01*
X139240380Y-64334571D01*
X139433904Y-64431333D01*
X139530666Y-64624857D01*
X139530666Y-64818380D01*
X138563047Y-65011904D01*
X140401523Y-65689238D02*
X140401523Y-64334571D01*
X140401523Y-64721619D02*
X140498285Y-64528095D01*
X140595047Y-64431333D01*
X140788571Y-64334571D01*
X140982095Y-64334571D01*
X143594666Y-63657238D02*
X143788190Y-63657238D01*
X143981714Y-63754000D01*
X144078476Y-63850761D01*
X144175238Y-64044285D01*
X144272000Y-64431333D01*
X144272000Y-64915142D01*
X144175238Y-65302190D01*
X144078476Y-65495714D01*
X143981714Y-65592476D01*
X143788190Y-65689238D01*
X143594666Y-65689238D01*
X143401142Y-65592476D01*
X143304380Y-65495714D01*
X143207619Y-65302190D01*
X143110857Y-64915142D01*
X143110857Y-64431333D01*
X143207619Y-64044285D01*
X143304380Y-63850761D01*
X143401142Y-63754000D01*
X143594666Y-63657238D01*
X75147714Y-93883238D02*
X75147714Y-92528571D01*
X75147714Y-92722095D02*
X75244476Y-92625333D01*
X75438000Y-92528571D01*
X75728285Y-92528571D01*
X75921809Y-92625333D01*
X76018571Y-92818857D01*
X76018571Y-93883238D01*
X76018571Y-92818857D02*
X76115333Y-92625333D01*
X76308857Y-92528571D01*
X76599142Y-92528571D01*
X76792666Y-92625333D01*
X76889428Y-92818857D01*
X76889428Y-93883238D01*
X78147333Y-93883238D02*
X77953809Y-93786476D01*
X77857047Y-93689714D01*
X77760285Y-93496190D01*
X77760285Y-92915619D01*
X77857047Y-92722095D01*
X77953809Y-92625333D01*
X78147333Y-92528571D01*
X78437619Y-92528571D01*
X78631142Y-92625333D01*
X78727904Y-92722095D01*
X78824666Y-92915619D01*
X78824666Y-93496190D01*
X78727904Y-93689714D01*
X78631142Y-93786476D01*
X78437619Y-93883238D01*
X78147333Y-93883238D01*
X80566380Y-92528571D02*
X80566380Y-93883238D01*
X79695523Y-92528571D02*
X79695523Y-93592952D01*
X79792285Y-93786476D01*
X79985809Y-93883238D01*
X80276095Y-93883238D01*
X80469619Y-93786476D01*
X80566380Y-93689714D01*
X81437238Y-93786476D02*
X81630761Y-93883238D01*
X82017809Y-93883238D01*
X82211333Y-93786476D01*
X82308095Y-93592952D01*
X82308095Y-93496190D01*
X82211333Y-93302666D01*
X82017809Y-93205904D01*
X81727523Y-93205904D01*
X81534000Y-93109142D01*
X81437238Y-92915619D01*
X81437238Y-92818857D01*
X81534000Y-92625333D01*
X81727523Y-92528571D01*
X82017809Y-92528571D01*
X82211333Y-92625333D01*
X83953047Y-93786476D02*
X83759523Y-93883238D01*
X83372476Y-93883238D01*
X83178952Y-93786476D01*
X83082190Y-93592952D01*
X83082190Y-92818857D01*
X83178952Y-92625333D01*
X83372476Y-92528571D01*
X83759523Y-92528571D01*
X83953047Y-92625333D01*
X84049809Y-92818857D01*
X84049809Y-93012380D01*
X83082190Y-93205904D01*
X84436857Y-94076761D02*
X85985047Y-94076761D01*
X86468857Y-93883238D02*
X86468857Y-92528571D01*
X86468857Y-92915619D02*
X86565619Y-92722095D01*
X86662380Y-92625333D01*
X86855904Y-92528571D01*
X87049428Y-92528571D01*
X88500857Y-93786476D02*
X88307333Y-93883238D01*
X87920285Y-93883238D01*
X87726761Y-93786476D01*
X87630000Y-93592952D01*
X87630000Y-92818857D01*
X87726761Y-92625333D01*
X87920285Y-92528571D01*
X88307333Y-92528571D01*
X88500857Y-92625333D01*
X88597619Y-92818857D01*
X88597619Y-93012380D01*
X87630000Y-93205904D01*
X90339333Y-93883238D02*
X90339333Y-92818857D01*
X90242571Y-92625333D01*
X90049047Y-92528571D01*
X89662000Y-92528571D01*
X89468476Y-92625333D01*
X90339333Y-93786476D02*
X90145809Y-93883238D01*
X89662000Y-93883238D01*
X89468476Y-93786476D01*
X89371714Y-93592952D01*
X89371714Y-93399428D01*
X89468476Y-93205904D01*
X89662000Y-93109142D01*
X90145809Y-93109142D01*
X90339333Y-93012380D01*
X92177809Y-93786476D02*
X91984285Y-93883238D01*
X91597238Y-93883238D01*
X91403714Y-93786476D01*
X91306952Y-93689714D01*
X91210190Y-93496190D01*
X91210190Y-92915619D01*
X91306952Y-92722095D01*
X91403714Y-92625333D01*
X91597238Y-92528571D01*
X91984285Y-92528571D01*
X92177809Y-92625333D01*
X93048666Y-93883238D02*
X93048666Y-91851238D01*
X93919523Y-93883238D02*
X93919523Y-92818857D01*
X93822761Y-92625333D01*
X93629238Y-92528571D01*
X93338952Y-92528571D01*
X93145428Y-92625333D01*
X93048666Y-92722095D01*
X94403333Y-94076761D02*
X95951523Y-94076761D01*
X97306190Y-93786476D02*
X97112666Y-93883238D01*
X96725619Y-93883238D01*
X96532095Y-93786476D01*
X96435333Y-93689714D01*
X96338571Y-93496190D01*
X96338571Y-92915619D01*
X96435333Y-92722095D01*
X96532095Y-92625333D01*
X96725619Y-92528571D01*
X97112666Y-92528571D01*
X97306190Y-92625333D01*
X98467333Y-93883238D02*
X98273809Y-93786476D01*
X98177047Y-93689714D01*
X98080285Y-93496190D01*
X98080285Y-92915619D01*
X98177047Y-92722095D01*
X98273809Y-92625333D01*
X98467333Y-92528571D01*
X98757619Y-92528571D01*
X98951142Y-92625333D01*
X99047904Y-92722095D01*
X99144666Y-92915619D01*
X99144666Y-93496190D01*
X99047904Y-93689714D01*
X98951142Y-93786476D01*
X98757619Y-93883238D01*
X98467333Y-93883238D01*
X100015523Y-92528571D02*
X100015523Y-93883238D01*
X100015523Y-92722095D02*
X100112285Y-92625333D01*
X100305809Y-92528571D01*
X100596095Y-92528571D01*
X100789619Y-92625333D01*
X100886380Y-92818857D01*
X100886380Y-93883238D01*
X101563714Y-92528571D02*
X102337809Y-92528571D01*
X101854000Y-91851238D02*
X101854000Y-93592952D01*
X101950761Y-93786476D01*
X102144285Y-93883238D01*
X102337809Y-93883238D01*
X103015142Y-93883238D02*
X103015142Y-92528571D01*
X103015142Y-92915619D02*
X103111904Y-92722095D01*
X103208666Y-92625333D01*
X103402190Y-92528571D01*
X103595714Y-92528571D01*
X104563333Y-93883238D02*
X104369809Y-93786476D01*
X104273047Y-93689714D01*
X104176285Y-93496190D01*
X104176285Y-92915619D01*
X104273047Y-92722095D01*
X104369809Y-92625333D01*
X104563333Y-92528571D01*
X104853619Y-92528571D01*
X105047142Y-92625333D01*
X105143904Y-92722095D01*
X105240666Y-92915619D01*
X105240666Y-93496190D01*
X105143904Y-93689714D01*
X105047142Y-93786476D01*
X104853619Y-93883238D01*
X104563333Y-93883238D01*
X106401809Y-93883238D02*
X106208285Y-93786476D01*
X106111523Y-93592952D01*
X106111523Y-91851238D01*
X107466190Y-93883238D02*
X107272666Y-93786476D01*
X107175904Y-93592952D01*
X107175904Y-91851238D01*
X109014380Y-93786476D02*
X108820857Y-93883238D01*
X108433809Y-93883238D01*
X108240285Y-93786476D01*
X108143523Y-93592952D01*
X108143523Y-92818857D01*
X108240285Y-92625333D01*
X108433809Y-92528571D01*
X108820857Y-92528571D01*
X109014380Y-92625333D01*
X109111142Y-92818857D01*
X109111142Y-93012380D01*
X108143523Y-93205904D01*
X109982000Y-93883238D02*
X109982000Y-92528571D01*
X109982000Y-92915619D02*
X110078761Y-92722095D01*
X110175523Y-92625333D01*
X110369047Y-92528571D01*
X110562571Y-92528571D01*
X73938190Y-95407238D02*
X73938190Y-96858666D01*
X73841428Y-97148952D01*
X73647904Y-97342476D01*
X73357619Y-97439238D01*
X73164095Y-97439238D01*
X75776666Y-97439238D02*
X75776666Y-96374857D01*
X75679904Y-96181333D01*
X75486380Y-96084571D01*
X75099333Y-96084571D01*
X74905809Y-96181333D01*
X75776666Y-97342476D02*
X75583142Y-97439238D01*
X75099333Y-97439238D01*
X74905809Y-97342476D01*
X74809047Y-97148952D01*
X74809047Y-96955428D01*
X74905809Y-96761904D01*
X75099333Y-96665142D01*
X75583142Y-96665142D01*
X75776666Y-96568380D01*
X76744285Y-96084571D02*
X76744285Y-97439238D01*
X76744285Y-96278095D02*
X76841047Y-96181333D01*
X77034571Y-96084571D01*
X77324857Y-96084571D01*
X77518380Y-96181333D01*
X77615142Y-96374857D01*
X77615142Y-97439238D01*
X79356857Y-97342476D02*
X79163333Y-97439238D01*
X78776285Y-97439238D01*
X78582761Y-97342476D01*
X78486000Y-97148952D01*
X78486000Y-96374857D01*
X78582761Y-96181333D01*
X78776285Y-96084571D01*
X79163333Y-96084571D01*
X79356857Y-96181333D01*
X79453619Y-96374857D01*
X79453619Y-96568380D01*
X78486000Y-96761904D01*
X80614761Y-97439238D02*
X80421238Y-97342476D01*
X80324476Y-97148952D01*
X80324476Y-95407238D01*
X81388857Y-97439238D02*
X81388857Y-96084571D01*
X81388857Y-95407238D02*
X81292095Y-95504000D01*
X81388857Y-95600761D01*
X81485619Y-95504000D01*
X81388857Y-95407238D01*
X81388857Y-95600761D01*
X83227333Y-97439238D02*
X83227333Y-96374857D01*
X83130571Y-96181333D01*
X82937047Y-96084571D01*
X82550000Y-96084571D01*
X82356476Y-96181333D01*
X83227333Y-97342476D02*
X83033809Y-97439238D01*
X82550000Y-97439238D01*
X82356476Y-97342476D01*
X82259714Y-97148952D01*
X82259714Y-96955428D01*
X82356476Y-96761904D01*
X82550000Y-96665142D01*
X83033809Y-96665142D01*
X83227333Y-96568380D01*
X86904285Y-97439238D02*
X86226952Y-96471619D01*
X85743142Y-97439238D02*
X85743142Y-95407238D01*
X86517238Y-95407238D01*
X86710761Y-95504000D01*
X86807523Y-95600761D01*
X86904285Y-95794285D01*
X86904285Y-96084571D01*
X86807523Y-96278095D01*
X86710761Y-96374857D01*
X86517238Y-96471619D01*
X85743142Y-96471619D01*
X88549238Y-97342476D02*
X88355714Y-97439238D01*
X87968666Y-97439238D01*
X87775142Y-97342476D01*
X87678380Y-97148952D01*
X87678380Y-96374857D01*
X87775142Y-96181333D01*
X87968666Y-96084571D01*
X88355714Y-96084571D01*
X88549238Y-96181333D01*
X88646000Y-96374857D01*
X88646000Y-96568380D01*
X87678380Y-96761904D01*
X89420095Y-97342476D02*
X89613619Y-97439238D01*
X90000666Y-97439238D01*
X90194190Y-97342476D01*
X90290952Y-97148952D01*
X90290952Y-97052190D01*
X90194190Y-96858666D01*
X90000666Y-96761904D01*
X89710380Y-96761904D01*
X89516857Y-96665142D01*
X89420095Y-96471619D01*
X89420095Y-96374857D01*
X89516857Y-96181333D01*
X89710380Y-96084571D01*
X90000666Y-96084571D01*
X90194190Y-96181333D01*
X91935904Y-97342476D02*
X91742380Y-97439238D01*
X91355333Y-97439238D01*
X91161809Y-97342476D01*
X91065047Y-97148952D01*
X91065047Y-96374857D01*
X91161809Y-96181333D01*
X91355333Y-96084571D01*
X91742380Y-96084571D01*
X91935904Y-96181333D01*
X92032666Y-96374857D01*
X92032666Y-96568380D01*
X91065047Y-96761904D01*
X93774380Y-97439238D02*
X93774380Y-96374857D01*
X93677619Y-96181333D01*
X93484095Y-96084571D01*
X93097047Y-96084571D01*
X92903523Y-96181333D01*
X93774380Y-97342476D02*
X93580857Y-97439238D01*
X93097047Y-97439238D01*
X92903523Y-97342476D01*
X92806761Y-97148952D01*
X92806761Y-96955428D01*
X92903523Y-96761904D01*
X93097047Y-96665142D01*
X93580857Y-96665142D01*
X93774380Y-96568380D01*
X94742000Y-97439238D02*
X94742000Y-96084571D01*
X94742000Y-96471619D02*
X94838761Y-96278095D01*
X94935523Y-96181333D01*
X95129047Y-96084571D01*
X95322571Y-96084571D01*
X96870761Y-97342476D02*
X96677238Y-97439238D01*
X96290190Y-97439238D01*
X96096666Y-97342476D01*
X95999904Y-97245714D01*
X95903142Y-97052190D01*
X95903142Y-96471619D01*
X95999904Y-96278095D01*
X96096666Y-96181333D01*
X96290190Y-96084571D01*
X96677238Y-96084571D01*
X96870761Y-96181333D01*
X97741619Y-97439238D02*
X97741619Y-95407238D01*
X98612476Y-97439238D02*
X98612476Y-96374857D01*
X98515714Y-96181333D01*
X98322190Y-96084571D01*
X98031904Y-96084571D01*
X97838380Y-96181333D01*
X97741619Y-96278095D01*
X102289428Y-97245714D02*
X102192666Y-97342476D01*
X101902380Y-97439238D01*
X101708857Y-97439238D01*
X101418571Y-97342476D01*
X101225047Y-97148952D01*
X101128285Y-96955428D01*
X101031523Y-96568380D01*
X101031523Y-96278095D01*
X101128285Y-95891047D01*
X101225047Y-95697523D01*
X101418571Y-95504000D01*
X101708857Y-95407238D01*
X101902380Y-95407238D01*
X102192666Y-95504000D01*
X102289428Y-95600761D01*
X104031142Y-97439238D02*
X104031142Y-96374857D01*
X103934380Y-96181333D01*
X103740857Y-96084571D01*
X103353809Y-96084571D01*
X103160285Y-96181333D01*
X104031142Y-97342476D02*
X103837619Y-97439238D01*
X103353809Y-97439238D01*
X103160285Y-97342476D01*
X103063523Y-97148952D01*
X103063523Y-96955428D01*
X103160285Y-96761904D01*
X103353809Y-96665142D01*
X103837619Y-96665142D01*
X104031142Y-96568380D01*
X104998761Y-97439238D02*
X104998761Y-96084571D01*
X104998761Y-96278095D02*
X105095523Y-96181333D01*
X105289047Y-96084571D01*
X105579333Y-96084571D01*
X105772857Y-96181333D01*
X105869619Y-96374857D01*
X105869619Y-97439238D01*
X105869619Y-96374857D02*
X105966380Y-96181333D01*
X106159904Y-96084571D01*
X106450190Y-96084571D01*
X106643714Y-96181333D01*
X106740476Y-96374857D01*
X106740476Y-97439238D01*
X107708095Y-96084571D02*
X107708095Y-98116571D01*
X107708095Y-96181333D02*
X107901619Y-96084571D01*
X108288666Y-96084571D01*
X108482190Y-96181333D01*
X108578952Y-96278095D01*
X108675714Y-96471619D01*
X108675714Y-97052190D01*
X108578952Y-97245714D01*
X108482190Y-97342476D01*
X108288666Y-97439238D01*
X107901619Y-97439238D01*
X107708095Y-97342476D01*
X110417428Y-96084571D02*
X110417428Y-97439238D01*
X109546571Y-96084571D02*
X109546571Y-97148952D01*
X109643333Y-97342476D01*
X109836857Y-97439238D01*
X110127142Y-97439238D01*
X110320666Y-97342476D01*
X110417428Y-97245714D01*
X111288285Y-97342476D02*
X111481809Y-97439238D01*
X111868857Y-97439238D01*
X112062380Y-97342476D01*
X112159142Y-97148952D01*
X112159142Y-97052190D01*
X112062380Y-96858666D01*
X111868857Y-96761904D01*
X111578571Y-96761904D01*
X111385047Y-96665142D01*
X111288285Y-96471619D01*
X111288285Y-96374857D01*
X111385047Y-96181333D01*
X111578571Y-96084571D01*
X111868857Y-96084571D01*
X112062380Y-96181333D01*
X81146952Y-100995238D02*
X79985809Y-100995238D01*
X80566380Y-100995238D02*
X80566380Y-98963238D01*
X80372857Y-99253523D01*
X80179333Y-99447047D01*
X79985809Y-99543809D01*
X83082190Y-100995238D02*
X81921047Y-100995238D01*
X82501619Y-100995238D02*
X82501619Y-98963238D01*
X82308095Y-99253523D01*
X82114571Y-99447047D01*
X81921047Y-99543809D01*
X85404476Y-98866476D02*
X83662761Y-101479047D01*
X85985047Y-99156761D02*
X86081809Y-99060000D01*
X86275333Y-98963238D01*
X86759142Y-98963238D01*
X86952666Y-99060000D01*
X87049428Y-99156761D01*
X87146190Y-99350285D01*
X87146190Y-99543809D01*
X87049428Y-99834095D01*
X85888285Y-100995238D01*
X87146190Y-100995238D01*
X88404095Y-98963238D02*
X88597619Y-98963238D01*
X88791142Y-99060000D01*
X88887904Y-99156761D01*
X88984666Y-99350285D01*
X89081428Y-99737333D01*
X89081428Y-100221142D01*
X88984666Y-100608190D01*
X88887904Y-100801714D01*
X88791142Y-100898476D01*
X88597619Y-100995238D01*
X88404095Y-100995238D01*
X88210571Y-100898476D01*
X88113809Y-100801714D01*
X88017047Y-100608190D01*
X87920285Y-100221142D01*
X87920285Y-99737333D01*
X88017047Y-99350285D01*
X88113809Y-99156761D01*
X88210571Y-99060000D01*
X88404095Y-98963238D01*
X89855523Y-99156761D02*
X89952285Y-99060000D01*
X90145809Y-98963238D01*
X90629619Y-98963238D01*
X90823142Y-99060000D01*
X90919904Y-99156761D01*
X91016666Y-99350285D01*
X91016666Y-99543809D01*
X90919904Y-99834095D01*
X89758761Y-100995238D01*
X91016666Y-100995238D01*
X92951904Y-100995238D02*
X91790761Y-100995238D01*
X92371333Y-100995238D02*
X92371333Y-98963238D01*
X92177809Y-99253523D01*
X91984285Y-99447047D01*
X91790761Y-99543809D01*
X95177428Y-99640571D02*
X95661238Y-100995238D01*
X96145047Y-99640571D01*
X97693238Y-100898476D02*
X97499714Y-100995238D01*
X97112666Y-100995238D01*
X96919142Y-100898476D01*
X96822380Y-100704952D01*
X96822380Y-99930857D01*
X96919142Y-99737333D01*
X97112666Y-99640571D01*
X97499714Y-99640571D01*
X97693238Y-99737333D01*
X97790000Y-99930857D01*
X97790000Y-100124380D01*
X96822380Y-100317904D01*
X98660857Y-100995238D02*
X98660857Y-99640571D01*
X98660857Y-100027619D02*
X98757619Y-99834095D01*
X98854380Y-99737333D01*
X99047904Y-99640571D01*
X99241428Y-99640571D01*
X102531333Y-100995238D02*
X101370190Y-100995238D01*
X101950761Y-100995238D02*
X101950761Y-98963238D01*
X101757238Y-99253523D01*
X101563714Y-99447047D01*
X101370190Y-99543809D01*
X103402190Y-100801714D02*
X103498952Y-100898476D01*
X103402190Y-100995238D01*
X103305428Y-100898476D01*
X103402190Y-100801714D01*
X103402190Y-100995238D01*
X104756857Y-98963238D02*
X104950380Y-98963238D01*
X105143904Y-99060000D01*
X105240666Y-99156761D01*
X105337428Y-99350285D01*
X105434190Y-99737333D01*
X105434190Y-100221142D01*
X105337428Y-100608190D01*
X105240666Y-100801714D01*
X105143904Y-100898476D01*
X104950380Y-100995238D01*
X104756857Y-100995238D01*
X104563333Y-100898476D01*
X104466571Y-100801714D01*
X104369809Y-100608190D01*
X104273047Y-100221142D01*
X104273047Y-99737333D01*
X104369809Y-99350285D01*
X104466571Y-99156761D01*
X104563333Y-99060000D01*
X104756857Y-98963238D01*
D11*
%TO.C,P1*%
X153162000Y-54102000D02*
X121158000Y-54102000D01*
X121158000Y-54102000D02*
X121158000Y-62738000D01*
X121158000Y-62738000D02*
X153162000Y-62738000D01*
X153162000Y-54102000D02*
X153162000Y-62738000D01*
X142240000Y-53848000D02*
X143510000Y-52578000D01*
X143510000Y-52578000D02*
X140970000Y-52578000D01*
X140970000Y-52578000D02*
X142240000Y-53848000D01*
X135128000Y-54102000D02*
X135128000Y-53594000D01*
X135128000Y-53594000D02*
X139192000Y-53594000D01*
X139192000Y-53594000D02*
X139192000Y-54102000D01*
%TO.C,P2*%
X186182000Y-54102000D02*
X154178000Y-54102000D01*
X154178000Y-54102000D02*
X154178000Y-62738000D01*
X154178000Y-62738000D02*
X186182000Y-62738000D01*
X186182000Y-54102000D02*
X186182000Y-62738000D01*
X175260000Y-53848000D02*
X176530000Y-52578000D01*
X176530000Y-52578000D02*
X173990000Y-52578000D01*
X173990000Y-52578000D02*
X175260000Y-53848000D01*
X168148000Y-54102000D02*
X168148000Y-53594000D01*
X168148000Y-53594000D02*
X172212000Y-53594000D01*
X172212000Y-53594000D02*
X172212000Y-54102000D01*
%TO.C,P3*%
X219202000Y-54102000D02*
X187198000Y-54102000D01*
X187198000Y-54102000D02*
X187198000Y-62738000D01*
X187198000Y-62738000D02*
X219202000Y-62738000D01*
X219202000Y-54102000D02*
X219202000Y-62738000D01*
X208280000Y-53848000D02*
X209550000Y-52578000D01*
X209550000Y-52578000D02*
X207010000Y-52578000D01*
X207010000Y-52578000D02*
X208280000Y-53848000D01*
X201168000Y-54102000D02*
X201168000Y-53594000D01*
X201168000Y-53594000D02*
X205232000Y-53594000D01*
X205232000Y-53594000D02*
X205232000Y-54102000D01*
D12*
%TO.C,L1*%
X122174000Y-82677000D02*
X123698000Y-82677000D01*
X122174000Y-79883000D02*
X122174000Y-82677000D01*
X123698000Y-79883000D02*
X122174000Y-79883000D01*
X126746000Y-79883000D02*
X125222000Y-79883000D01*
X126746000Y-82677000D02*
X126746000Y-79883000D01*
X125222000Y-82677000D02*
X126746000Y-82677000D01*
%TO.C,D1*%
X102743000Y-67710000D02*
X102743000Y-66910000D01*
X101800000Y-67710000D02*
X102450000Y-67710000D01*
X102450000Y-67710000D02*
X102450000Y-66910000D01*
X102450000Y-66910000D02*
X101800000Y-66910000D01*
X101400000Y-67710000D02*
X100750000Y-67710000D01*
X100750000Y-67710000D02*
X100750000Y-66910000D01*
X100750000Y-66910000D02*
X101400000Y-66910000D01*
%TO.C,TEENSY1*%
X90170000Y-64135000D02*
X80010000Y-64135000D01*
X90170000Y-74295000D02*
X90170000Y-64135000D01*
X80010000Y-74295000D02*
X90170000Y-74295000D01*
X80010000Y-64135000D02*
X80010000Y-74295000D01*
X78740000Y-55245000D02*
X78740000Y-52705000D01*
X76200000Y-55245000D02*
X78740000Y-55245000D01*
X93980000Y-86995000D02*
G75*
G03*
X93980000Y-86995000I-1270000J0D01*
G01*
X93980000Y-84455000D02*
G75*
G03*
X93980000Y-84455000I-1270000J0D01*
G01*
X93980000Y-81915000D02*
G75*
G03*
X93980000Y-81915000I-1270000J0D01*
G01*
X93980000Y-79375000D02*
G75*
G03*
X93980000Y-79375000I-1270000J0D01*
G01*
X93980000Y-76835000D02*
G75*
G03*
X93980000Y-76835000I-1270000J0D01*
G01*
X93980000Y-74295000D02*
G75*
G03*
X93980000Y-74295000I-1270000J0D01*
G01*
X93980000Y-71755000D02*
G75*
G03*
X93980000Y-71755000I-1270000J0D01*
G01*
X93980000Y-69215000D02*
G75*
G03*
X93980000Y-69215000I-1270000J0D01*
G01*
X93980000Y-66675000D02*
G75*
G03*
X93980000Y-66675000I-1270000J0D01*
G01*
X93980000Y-64135000D02*
G75*
G03*
X93980000Y-64135000I-1270000J0D01*
G01*
X93980000Y-61595000D02*
G75*
G03*
X93980000Y-61595000I-1270000J0D01*
G01*
X93980000Y-59055000D02*
G75*
G03*
X93980000Y-59055000I-1270000J0D01*
G01*
X93980000Y-56515000D02*
G75*
G03*
X93980000Y-56515000I-1270000J0D01*
G01*
X93980000Y-53975000D02*
G75*
G03*
X93980000Y-53975000I-1270000J0D01*
G01*
X78740000Y-86995000D02*
G75*
G03*
X78740000Y-86995000I-1270000J0D01*
G01*
X78740000Y-84455000D02*
G75*
G03*
X78740000Y-84455000I-1270000J0D01*
G01*
X78740000Y-81915000D02*
G75*
G03*
X78740000Y-81915000I-1270000J0D01*
G01*
X78740000Y-79375000D02*
G75*
G03*
X78740000Y-79375000I-1270000J0D01*
G01*
X78740000Y-76835000D02*
G75*
G03*
X78740000Y-76835000I-1270000J0D01*
G01*
X78740000Y-74295000D02*
G75*
G03*
X78740000Y-74295000I-1270000J0D01*
G01*
X78740000Y-71755000D02*
G75*
G03*
X78740000Y-71755000I-1270000J0D01*
G01*
X78740000Y-69215000D02*
G75*
G03*
X78740000Y-69215000I-1270000J0D01*
G01*
X78740000Y-66675000D02*
G75*
G03*
X78740000Y-66675000I-1270000J0D01*
G01*
X78740000Y-64135000D02*
G75*
G03*
X78740000Y-64135000I-1270000J0D01*
G01*
X78740000Y-61595000D02*
G75*
G03*
X78740000Y-61595000I-1270000J0D01*
G01*
X78740000Y-59055000D02*
G75*
G03*
X78740000Y-59055000I-1270000J0D01*
G01*
X78740000Y-56515000D02*
G75*
G03*
X78740000Y-56515000I-1270000J0D01*
G01*
D11*
X86360000Y-83185000D02*
G75*
G03*
X86360000Y-83185000I-1270000J0D01*
G01*
X86360000Y-85725000D02*
X86360000Y-80645000D01*
X86360000Y-80645000D02*
X83820000Y-80645000D01*
X83820000Y-80645000D02*
X83820000Y-85725000D01*
X83820000Y-85725000D02*
X86360000Y-85725000D01*
X81280000Y-52705000D02*
X81280000Y-51435000D01*
X81280000Y-51435000D02*
X88900000Y-51435000D01*
X88900000Y-51435000D02*
X88900000Y-52705000D01*
X76200000Y-52705000D02*
X76200000Y-88265000D01*
X76200000Y-88265000D02*
X93980000Y-88265000D01*
X93980000Y-88265000D02*
X93980000Y-52705000D01*
X93980000Y-52705000D02*
X76200000Y-52705000D01*
D12*
%TO.C,C1*%
X148990000Y-79810000D02*
X148990000Y-79160000D01*
X148990000Y-79160000D02*
X148190000Y-79160000D01*
X148190000Y-79160000D02*
X148190000Y-79810000D01*
X148990000Y-80210000D02*
X148990000Y-80860000D01*
X148990000Y-80860000D02*
X148190000Y-80860000D01*
X148190000Y-80860000D02*
X148190000Y-80210000D01*
%TO.C,C2*%
X153470000Y-97390000D02*
X152820000Y-97390000D01*
X152820000Y-97390000D02*
X152820000Y-98190000D01*
X152820000Y-98190000D02*
X153470000Y-98190000D01*
X153870000Y-97390000D02*
X154520000Y-97390000D01*
X154520000Y-97390000D02*
X154520000Y-98190000D01*
X154520000Y-98190000D02*
X153870000Y-98190000D01*
%TO.C,C3*%
X137360000Y-68980000D02*
X138010000Y-68980000D01*
X138010000Y-68980000D02*
X138010000Y-68180000D01*
X138010000Y-68180000D02*
X137360000Y-68180000D01*
X136960000Y-68980000D02*
X136310000Y-68980000D01*
X136310000Y-68980000D02*
X136310000Y-68180000D01*
X136310000Y-68180000D02*
X136960000Y-68180000D01*
%TO.C,C4*%
X72190000Y-65640000D02*
X71540000Y-65640000D01*
X71540000Y-65640000D02*
X71540000Y-66440000D01*
X71540000Y-66440000D02*
X72190000Y-66440000D01*
X72590000Y-65640000D02*
X73240000Y-65640000D01*
X73240000Y-65640000D02*
X73240000Y-66440000D01*
X73240000Y-66440000D02*
X72590000Y-66440000D01*
%TO.C,C5*%
X170380000Y-68980000D02*
X171030000Y-68980000D01*
X171030000Y-68980000D02*
X171030000Y-68180000D01*
X171030000Y-68180000D02*
X170380000Y-68180000D01*
X169980000Y-68980000D02*
X169330000Y-68980000D01*
X169330000Y-68980000D02*
X169330000Y-68180000D01*
X169330000Y-68180000D02*
X169980000Y-68180000D01*
%TO.C,C6*%
X97990000Y-82315000D02*
X98640000Y-82315000D01*
X98640000Y-82315000D02*
X98640000Y-81515000D01*
X98640000Y-81515000D02*
X97990000Y-81515000D01*
X97590000Y-82315000D02*
X96940000Y-82315000D01*
X96940000Y-82315000D02*
X96940000Y-81515000D01*
X96940000Y-81515000D02*
X97590000Y-81515000D01*
%TO.C,C7*%
X203400000Y-68980000D02*
X204050000Y-68980000D01*
X204050000Y-68980000D02*
X204050000Y-68180000D01*
X204050000Y-68180000D02*
X203400000Y-68180000D01*
X203000000Y-68980000D02*
X202350000Y-68980000D01*
X202350000Y-68980000D02*
X202350000Y-68180000D01*
X202350000Y-68180000D02*
X203000000Y-68180000D01*
%TO.C,C8*%
X97990000Y-77235000D02*
X98640000Y-77235000D01*
X98640000Y-77235000D02*
X98640000Y-76435000D01*
X98640000Y-76435000D02*
X97990000Y-76435000D01*
X97590000Y-77235000D02*
X96940000Y-77235000D01*
X96940000Y-77235000D02*
X96940000Y-76435000D01*
X96940000Y-76435000D02*
X97590000Y-76435000D01*
%TO.C,C9*%
X101400000Y-73260000D02*
X100750000Y-73260000D01*
X100750000Y-73260000D02*
X100750000Y-74060000D01*
X100750000Y-74060000D02*
X101400000Y-74060000D01*
X101800000Y-73260000D02*
X102450000Y-73260000D01*
X102450000Y-73260000D02*
X102450000Y-74060000D01*
X102450000Y-74060000D02*
X101800000Y-74060000D01*
%TO.C,C10*%
X124660000Y-86760000D02*
X125310000Y-86760000D01*
X125310000Y-86760000D02*
X125310000Y-85960000D01*
X125310000Y-85960000D02*
X124660000Y-85960000D01*
X124260000Y-86760000D02*
X123610000Y-86760000D01*
X123610000Y-86760000D02*
X123610000Y-85960000D01*
X123610000Y-85960000D02*
X124260000Y-85960000D01*
%TO.C,C11*%
X124260000Y-77070000D02*
X123610000Y-77070000D01*
X123610000Y-77070000D02*
X123610000Y-77870000D01*
X123610000Y-77870000D02*
X124260000Y-77870000D01*
X124660000Y-77070000D02*
X125310000Y-77070000D01*
X125310000Y-77070000D02*
X125310000Y-77870000D01*
X125310000Y-77870000D02*
X124660000Y-77870000D01*
%TO.C,C12*%
X124260000Y-74530000D02*
X123610000Y-74530000D01*
X123610000Y-74530000D02*
X123610000Y-75330000D01*
X123610000Y-75330000D02*
X124260000Y-75330000D01*
X124660000Y-74530000D02*
X125310000Y-74530000D01*
X125310000Y-74530000D02*
X125310000Y-75330000D01*
X125310000Y-75330000D02*
X124660000Y-75330000D01*
D11*
%TO.C,CLK1*%
X156170000Y-83510000D02*
X156170000Y-76510000D01*
X151170000Y-83510000D02*
X156170000Y-83510000D01*
X151170000Y-76510000D02*
X151170000Y-83510000D01*
X156170000Y-76510000D02*
X151170000Y-76510000D01*
X152273553Y-79010000D02*
G75*
G03*
X152273553Y-79010000I-353553J0D01*
G01*
D13*
%TO.C,J1*%
X117300000Y-68340000D02*
X117300000Y-53340000D01*
X111300000Y-68340000D02*
X117300000Y-68340000D01*
X111300000Y-53340000D02*
X111300000Y-68340000D01*
X117300000Y-53340000D02*
X111300000Y-53340000D01*
X111300000Y-50840000D02*
X111300000Y-53340000D01*
X117300000Y-50840000D02*
X111300000Y-50840000D01*
X117300000Y-53340000D02*
X117300000Y-50840000D01*
D14*
%TO.C,MH1*%
X74930000Y-54610000D02*
G75*
G03*
X74930000Y-54610000I-2540000J0D01*
G01*
%TO.C,MH2*%
X227330000Y-54610000D02*
G75*
G03*
X227330000Y-54610000I-2540000J0D01*
G01*
%TO.C,MH3*%
X227330000Y-105410000D02*
G75*
G03*
X227330000Y-105410000I-2540000J0D01*
G01*
%TO.C,MH4*%
X74930000Y-105410000D02*
G75*
G03*
X74930000Y-105410000I-2540000J0D01*
G01*
D12*
%TO.C,R1*%
X131680000Y-71320000D02*
X131680000Y-71970000D01*
X131680000Y-71970000D02*
X132480000Y-71970000D01*
X132480000Y-71970000D02*
X132480000Y-71320000D01*
X131680000Y-70920000D02*
X131680000Y-70270000D01*
X131680000Y-70270000D02*
X132480000Y-70270000D01*
X132480000Y-70270000D02*
X132480000Y-70920000D01*
%TO.C,R2*%
X132480000Y-77270000D02*
X132480000Y-76620000D01*
X132480000Y-76620000D02*
X131680000Y-76620000D01*
X131680000Y-76620000D02*
X131680000Y-77270000D01*
X132480000Y-77670000D02*
X132480000Y-78320000D01*
X132480000Y-78320000D02*
X131680000Y-78320000D01*
X131680000Y-78320000D02*
X131680000Y-77670000D01*
%TO.C,R3*%
X164700000Y-71320000D02*
X164700000Y-71970000D01*
X164700000Y-71970000D02*
X165500000Y-71970000D01*
X165500000Y-71970000D02*
X165500000Y-71320000D01*
X164700000Y-70920000D02*
X164700000Y-70270000D01*
X164700000Y-70270000D02*
X165500000Y-70270000D01*
X165500000Y-70270000D02*
X165500000Y-70920000D01*
%TO.C,R4*%
X165500000Y-77270000D02*
X165500000Y-76620000D01*
X165500000Y-76620000D02*
X164700000Y-76620000D01*
X164700000Y-76620000D02*
X164700000Y-77270000D01*
X165500000Y-77670000D02*
X165500000Y-78320000D01*
X165500000Y-78320000D02*
X164700000Y-78320000D01*
X164700000Y-78320000D02*
X164700000Y-77670000D01*
%TO.C,R5*%
X197720000Y-71320000D02*
X197720000Y-71970000D01*
X197720000Y-71970000D02*
X198520000Y-71970000D01*
X198520000Y-71970000D02*
X198520000Y-71320000D01*
X197720000Y-70920000D02*
X197720000Y-70270000D01*
X197720000Y-70270000D02*
X198520000Y-70270000D01*
X198520000Y-70270000D02*
X198520000Y-70920000D01*
%TO.C,R6*%
X198520000Y-77270000D02*
X198520000Y-76620000D01*
X198520000Y-76620000D02*
X197720000Y-76620000D01*
X197720000Y-76620000D02*
X197720000Y-77270000D01*
X198520000Y-77670000D02*
X198520000Y-78320000D01*
X198520000Y-78320000D02*
X197720000Y-78320000D01*
X197720000Y-78320000D02*
X197720000Y-77670000D01*
%TO.C,R7*%
X97990000Y-74695000D02*
X98640000Y-74695000D01*
X98640000Y-74695000D02*
X98640000Y-73895000D01*
X98640000Y-73895000D02*
X97990000Y-73895000D01*
X97590000Y-74695000D02*
X96940000Y-74695000D01*
X96940000Y-74695000D02*
X96940000Y-73895000D01*
X96940000Y-73895000D02*
X97590000Y-73895000D01*
%TO.C,R8*%
X97990000Y-72155000D02*
X98640000Y-72155000D01*
X98640000Y-72155000D02*
X98640000Y-71355000D01*
X98640000Y-71355000D02*
X97990000Y-71355000D01*
X97590000Y-72155000D02*
X96940000Y-72155000D01*
X96940000Y-72155000D02*
X96940000Y-71355000D01*
X96940000Y-71355000D02*
X97590000Y-71355000D01*
D11*
%TO.C,U2*%
X139110000Y-69930000D02*
X135210000Y-69930000D01*
X139110000Y-79930000D02*
X139110000Y-69930000D01*
X135210000Y-79930000D02*
X139110000Y-79930000D01*
X135210000Y-69930000D02*
X135210000Y-79930000D01*
X136955000Y-71085000D02*
G75*
G03*
X136955000Y-71085000I-635000J0D01*
G01*
D15*
%TO.C,U3*%
X71890000Y-64000000D02*
X72890000Y-64000000D01*
X71890000Y-63000000D02*
X71890000Y-64000000D01*
X72890000Y-63000000D02*
X71890000Y-63000000D01*
X72890000Y-64000000D02*
X72890000Y-63000000D01*
D16*
X72490000Y-63675000D02*
X72690000Y-63675000D01*
D11*
%TO.C,U4*%
X172130000Y-69930000D02*
X168230000Y-69930000D01*
X172130000Y-79930000D02*
X172130000Y-69930000D01*
X168230000Y-79930000D02*
X172130000Y-79930000D01*
X168230000Y-69930000D02*
X168230000Y-79930000D01*
X169975000Y-71085000D02*
G75*
G03*
X169975000Y-71085000I-635000J0D01*
G01*
D15*
%TO.C,U5*%
X98290000Y-83955000D02*
X97290000Y-83955000D01*
X98290000Y-84955000D02*
X98290000Y-83955000D01*
X97290000Y-84955000D02*
X98290000Y-84955000D01*
X97290000Y-83955000D02*
X97290000Y-84955000D01*
D16*
X97690000Y-84280000D02*
X97490000Y-84280000D01*
D11*
%TO.C,U6*%
X205150000Y-69930000D02*
X201250000Y-69930000D01*
X205150000Y-79930000D02*
X205150000Y-69930000D01*
X201250000Y-79930000D02*
X205150000Y-79930000D01*
X201250000Y-69930000D02*
X201250000Y-79930000D01*
X202995000Y-71085000D02*
G75*
G03*
X202995000Y-71085000I-635000J0D01*
G01*
D15*
%TO.C,U7*%
X98290000Y-78875000D02*
X97290000Y-78875000D01*
X98290000Y-79875000D02*
X98290000Y-78875000D01*
X97290000Y-79875000D02*
X98290000Y-79875000D01*
X97290000Y-78875000D02*
X97290000Y-79875000D01*
D16*
X97690000Y-79200000D02*
X97490000Y-79200000D01*
D15*
%TO.C,U8*%
X102500000Y-69860000D02*
X100700000Y-69860000D01*
X100700000Y-69860000D02*
X100700000Y-71110000D01*
X100700000Y-71110000D02*
X102500000Y-71110000D01*
X102500000Y-71110000D02*
X102500000Y-69860000D01*
X102350000Y-70285000D02*
G75*
G03*
X102350000Y-70285000I-100000J0D01*
G01*
%TO.C,U9*%
X114300000Y-92710000D02*
X114300000Y-90170000D01*
D17*
%TO.C,U1*%
X156280000Y-94845000D02*
X156280000Y-95320000D01*
X156280000Y-95320000D02*
X155805000Y-95320000D01*
X151060000Y-90575000D02*
X151060000Y-90100000D01*
X151060000Y-90100000D02*
X151535000Y-90100000D01*
X151060000Y-94845000D02*
X151060000Y-95320000D01*
X151060000Y-95320000D02*
X151535000Y-95320000D01*
X156280000Y-90575000D02*
X156280000Y-90100000D01*
%TO.C,U10*%
X112165000Y-83890000D02*
X111690000Y-83890000D01*
X111690000Y-83890000D02*
X111690000Y-83415000D01*
X116435000Y-78670000D02*
X116910000Y-78670000D01*
X116910000Y-78670000D02*
X116910000Y-79145000D01*
X112165000Y-78670000D02*
X111690000Y-78670000D01*
X111690000Y-78670000D02*
X111690000Y-79145000D01*
X116435000Y-83890000D02*
X116910000Y-83890000D01*
D13*
%TO.C,T1*%
X107680000Y-63595000D02*
X95520000Y-63595000D01*
X107680000Y-51595000D02*
X95520000Y-51595000D01*
X107680000Y-63595000D02*
X107680000Y-51595000D01*
X95520000Y-63595000D02*
X95520000Y-51595000D01*
D12*
%TO.C,C13*%
X113450000Y-96755000D02*
X114100000Y-96755000D01*
X113450000Y-97555000D02*
X113450000Y-96755000D01*
X114100000Y-97555000D02*
X113450000Y-97555000D01*
X115150000Y-96755000D02*
X114500000Y-96755000D01*
X115150000Y-97555000D02*
X115150000Y-96755000D01*
X114500000Y-97555000D02*
X115150000Y-97555000D01*
%TO.C,C14*%
X114500000Y-95015000D02*
X115150000Y-95015000D01*
X115150000Y-95015000D02*
X115150000Y-94215000D01*
X115150000Y-94215000D02*
X114500000Y-94215000D01*
X114100000Y-95015000D02*
X113450000Y-95015000D01*
X113450000Y-95015000D02*
X113450000Y-94215000D01*
X113450000Y-94215000D02*
X114100000Y-94215000D01*
%TO.C,C15*%
X113450000Y-87865000D02*
X114100000Y-87865000D01*
X113450000Y-88665000D02*
X113450000Y-87865000D01*
X114100000Y-88665000D02*
X113450000Y-88665000D01*
X115150000Y-87865000D02*
X114500000Y-87865000D01*
X115150000Y-88665000D02*
X115150000Y-87865000D01*
X114500000Y-88665000D02*
X115150000Y-88665000D01*
%TO.C,C16*%
X115970000Y-74080000D02*
X115970000Y-74730000D01*
X115170000Y-74080000D02*
X115970000Y-74080000D01*
X115170000Y-74730000D02*
X115170000Y-74080000D01*
X115970000Y-75780000D02*
X115970000Y-75130000D01*
X115170000Y-75780000D02*
X115970000Y-75780000D01*
X115170000Y-75130000D02*
X115170000Y-75780000D01*
%TO.C,P1*%
D18*
X122440095Y-64594619D02*
X122440095Y-63578619D01*
X122827142Y-63578619D01*
X122923904Y-63627000D01*
X122972285Y-63675380D01*
X123020666Y-63772142D01*
X123020666Y-63917285D01*
X122972285Y-64014047D01*
X122923904Y-64062428D01*
X122827142Y-64110809D01*
X122440095Y-64110809D01*
X123988285Y-64594619D02*
X123407714Y-64594619D01*
X123698000Y-64594619D02*
X123698000Y-63578619D01*
X123601238Y-63723761D01*
X123504476Y-63820523D01*
X123407714Y-63868904D01*
%TO.C,P2*%
X155460095Y-64594619D02*
X155460095Y-63578619D01*
X155847142Y-63578619D01*
X155943904Y-63627000D01*
X155992285Y-63675380D01*
X156040666Y-63772142D01*
X156040666Y-63917285D01*
X155992285Y-64014047D01*
X155943904Y-64062428D01*
X155847142Y-64110809D01*
X155460095Y-64110809D01*
X156427714Y-63675380D02*
X156476095Y-63627000D01*
X156572857Y-63578619D01*
X156814761Y-63578619D01*
X156911523Y-63627000D01*
X156959904Y-63675380D01*
X157008285Y-63772142D01*
X157008285Y-63868904D01*
X156959904Y-64014047D01*
X156379333Y-64594619D01*
X157008285Y-64594619D01*
%TO.C,P3*%
X188480095Y-64594619D02*
X188480095Y-63578619D01*
X188867142Y-63578619D01*
X188963904Y-63627000D01*
X189012285Y-63675380D01*
X189060666Y-63772142D01*
X189060666Y-63917285D01*
X189012285Y-64014047D01*
X188963904Y-64062428D01*
X188867142Y-64110809D01*
X188480095Y-64110809D01*
X189399333Y-63578619D02*
X190028285Y-63578619D01*
X189689619Y-63965666D01*
X189834761Y-63965666D01*
X189931523Y-64014047D01*
X189979904Y-64062428D01*
X190028285Y-64159190D01*
X190028285Y-64401095D01*
X189979904Y-64497857D01*
X189931523Y-64546238D01*
X189834761Y-64594619D01*
X189544476Y-64594619D01*
X189447714Y-64546238D01*
X189399333Y-64497857D01*
%TO.C,L1*%
X124290666Y-84025619D02*
X123806857Y-84025619D01*
X123806857Y-83009619D01*
X125161523Y-84025619D02*
X124580952Y-84025619D01*
X124871238Y-84025619D02*
X124871238Y-83009619D01*
X124774476Y-83154761D01*
X124677714Y-83251523D01*
X124580952Y-83299904D01*
%TO.C,D1*%
D19*
X101225047Y-68428809D02*
X101225047Y-67920809D01*
X101346000Y-67920809D01*
X101418571Y-67945000D01*
X101466952Y-67993380D01*
X101491142Y-68041761D01*
X101515333Y-68138523D01*
X101515333Y-68211095D01*
X101491142Y-68307857D01*
X101466952Y-68356238D01*
X101418571Y-68404619D01*
X101346000Y-68428809D01*
X101225047Y-68428809D01*
X101999142Y-68428809D02*
X101708857Y-68428809D01*
X101854000Y-68428809D02*
X101854000Y-67920809D01*
X101805619Y-67993380D01*
X101757238Y-68041761D01*
X101708857Y-68065952D01*
%TO.C,TEENSY1*%
D18*
X81945238Y-88978619D02*
X82525809Y-88978619D01*
X82235523Y-89994619D02*
X82235523Y-88978619D01*
X82864476Y-89462428D02*
X83203142Y-89462428D01*
X83348285Y-89994619D02*
X82864476Y-89994619D01*
X82864476Y-88978619D01*
X83348285Y-88978619D01*
X83783714Y-89462428D02*
X84122380Y-89462428D01*
X84267523Y-89994619D02*
X83783714Y-89994619D01*
X83783714Y-88978619D01*
X84267523Y-88978619D01*
X84702952Y-89994619D02*
X84702952Y-88978619D01*
X85283523Y-89994619D01*
X85283523Y-88978619D01*
X85718952Y-89946238D02*
X85864095Y-89994619D01*
X86106000Y-89994619D01*
X86202761Y-89946238D01*
X86251142Y-89897857D01*
X86299523Y-89801095D01*
X86299523Y-89704333D01*
X86251142Y-89607571D01*
X86202761Y-89559190D01*
X86106000Y-89510809D01*
X85912476Y-89462428D01*
X85815714Y-89414047D01*
X85767333Y-89365666D01*
X85718952Y-89268904D01*
X85718952Y-89172142D01*
X85767333Y-89075380D01*
X85815714Y-89027000D01*
X85912476Y-88978619D01*
X86154380Y-88978619D01*
X86299523Y-89027000D01*
X86928476Y-89510809D02*
X86928476Y-89994619D01*
X86589809Y-88978619D02*
X86928476Y-89510809D01*
X87267142Y-88978619D01*
X88138000Y-89994619D02*
X87557428Y-89994619D01*
X87847714Y-89994619D02*
X87847714Y-88978619D01*
X87750952Y-89123761D01*
X87654190Y-89220523D01*
X87557428Y-89268904D01*
X74373619Y-74742523D02*
X74373619Y-74161952D01*
X75389619Y-74452238D02*
X74373619Y-74452238D01*
X74857428Y-73823285D02*
X74857428Y-73484619D01*
X75389619Y-73339476D02*
X75389619Y-73823285D01*
X74373619Y-73823285D01*
X74373619Y-73339476D01*
X74857428Y-72904047D02*
X74857428Y-72565380D01*
X75389619Y-72420238D02*
X75389619Y-72904047D01*
X74373619Y-72904047D01*
X74373619Y-72420238D01*
X75389619Y-71984809D02*
X74373619Y-71984809D01*
X75389619Y-71404238D01*
X74373619Y-71404238D01*
X75341238Y-70968809D02*
X75389619Y-70823666D01*
X75389619Y-70581761D01*
X75341238Y-70485000D01*
X75292857Y-70436619D01*
X75196095Y-70388238D01*
X75099333Y-70388238D01*
X75002571Y-70436619D01*
X74954190Y-70485000D01*
X74905809Y-70581761D01*
X74857428Y-70775285D01*
X74809047Y-70872047D01*
X74760666Y-70920428D01*
X74663904Y-70968809D01*
X74567142Y-70968809D01*
X74470380Y-70920428D01*
X74422000Y-70872047D01*
X74373619Y-70775285D01*
X74373619Y-70533380D01*
X74422000Y-70388238D01*
X74905809Y-69759285D02*
X75389619Y-69759285D01*
X74373619Y-70097952D02*
X74905809Y-69759285D01*
X74373619Y-69420619D01*
X74712285Y-67872428D02*
X75389619Y-67872428D01*
X74325238Y-68114333D02*
X75050952Y-68356238D01*
X75050952Y-67727285D01*
X75292857Y-67340238D02*
X75341238Y-67291857D01*
X75389619Y-67340238D01*
X75341238Y-67388619D01*
X75292857Y-67340238D01*
X75389619Y-67340238D01*
X74373619Y-66662904D02*
X74373619Y-66566142D01*
X74422000Y-66469380D01*
X74470380Y-66421000D01*
X74567142Y-66372619D01*
X74760666Y-66324238D01*
X75002571Y-66324238D01*
X75196095Y-66372619D01*
X75292857Y-66421000D01*
X75341238Y-66469380D01*
X75389619Y-66566142D01*
X75389619Y-66662904D01*
X75341238Y-66759666D01*
X75292857Y-66808047D01*
X75196095Y-66856428D01*
X75002571Y-66904809D01*
X74760666Y-66904809D01*
X74567142Y-66856428D01*
X74470380Y-66808047D01*
X74422000Y-66759666D01*
X74373619Y-66662904D01*
D20*
X79195385Y-76617285D02*
X78827690Y-76907571D01*
X79195385Y-77197857D01*
X79425195Y-76907571D02*
X79792890Y-76907571D01*
X80390395Y-77294619D02*
X80390395Y-76278619D01*
X80620204Y-76617285D02*
X80620204Y-77294619D01*
X80620204Y-76714047D02*
X80643185Y-76665666D01*
X80689147Y-76617285D01*
X80758090Y-76617285D01*
X80804052Y-76665666D01*
X80827033Y-76762428D01*
X80827033Y-77294619D01*
X81033861Y-77246238D02*
X81079823Y-77294619D01*
X81171747Y-77294619D01*
X81217709Y-77246238D01*
X81240690Y-77149476D01*
X81240690Y-77101095D01*
X81217709Y-77004333D01*
X81171747Y-76955952D01*
X81102804Y-76955952D01*
X81056842Y-76907571D01*
X81033861Y-76810809D01*
X81033861Y-76762428D01*
X81056842Y-76665666D01*
X81102804Y-76617285D01*
X81171747Y-76617285D01*
X81217709Y-76665666D01*
X81631366Y-77246238D02*
X81585404Y-77294619D01*
X81493480Y-77294619D01*
X81447519Y-77246238D01*
X81424538Y-77149476D01*
X81424538Y-76762428D01*
X81447519Y-76665666D01*
X81493480Y-76617285D01*
X81585404Y-76617285D01*
X81631366Y-76665666D01*
X81654347Y-76762428D01*
X81654347Y-76859190D01*
X81424538Y-76955952D01*
X81861176Y-77294619D02*
X81861176Y-76617285D01*
X81861176Y-76810809D02*
X81884157Y-76714047D01*
X81907138Y-76665666D01*
X81953100Y-76617285D01*
X81999061Y-76617285D01*
X82090985Y-76617285D02*
X82274833Y-76617285D01*
X82159928Y-76278619D02*
X82159928Y-77149476D01*
X82182909Y-77246238D01*
X82228871Y-77294619D01*
X82274833Y-77294619D01*
X82803395Y-77294619D02*
X82803395Y-76278619D01*
X82987242Y-76278619D01*
X83033204Y-76327000D01*
X83056185Y-76375380D01*
X83079166Y-76472142D01*
X83079166Y-76617285D01*
X83056185Y-76714047D01*
X83033204Y-76762428D01*
X82987242Y-76810809D01*
X82803395Y-76810809D01*
X83285995Y-77294619D02*
X83285995Y-76617285D01*
X83285995Y-76278619D02*
X83263014Y-76327000D01*
X83285995Y-76375380D01*
X83308976Y-76327000D01*
X83285995Y-76278619D01*
X83285995Y-76375380D01*
X83515804Y-76617285D02*
X83515804Y-77294619D01*
X83515804Y-76714047D02*
X83538785Y-76665666D01*
X83584747Y-76617285D01*
X83653690Y-76617285D01*
X83699652Y-76665666D01*
X83722633Y-76762428D01*
X83722633Y-77294619D01*
X84595909Y-77294619D02*
X84435042Y-76810809D01*
X84320138Y-77294619D02*
X84320138Y-76278619D01*
X84503985Y-76278619D01*
X84549947Y-76327000D01*
X84572928Y-76375380D01*
X84595909Y-76472142D01*
X84595909Y-76617285D01*
X84572928Y-76714047D01*
X84549947Y-76762428D01*
X84503985Y-76810809D01*
X84320138Y-76810809D01*
X85009566Y-77246238D02*
X84963604Y-77294619D01*
X84871680Y-77294619D01*
X84825719Y-77246238D01*
X84802738Y-77197857D01*
X84779757Y-77101095D01*
X84779757Y-76810809D01*
X84802738Y-76714047D01*
X84825719Y-76665666D01*
X84871680Y-76617285D01*
X84963604Y-76617285D01*
X85009566Y-76665666D01*
X85216395Y-76617285D02*
X85216395Y-77633285D01*
X85216395Y-76665666D02*
X85262357Y-76617285D01*
X85354280Y-76617285D01*
X85400242Y-76665666D01*
X85423223Y-76714047D01*
X85446204Y-76810809D01*
X85446204Y-77101095D01*
X85423223Y-77197857D01*
X85400242Y-77246238D01*
X85354280Y-77294619D01*
X85262357Y-77294619D01*
X85216395Y-77246238D01*
X85584090Y-76617285D02*
X85767938Y-76617285D01*
X85653033Y-76278619D02*
X85653033Y-77149476D01*
X85676014Y-77246238D01*
X85721976Y-77294619D01*
X85767938Y-77294619D01*
X85905823Y-77246238D02*
X85951785Y-77294619D01*
X86043709Y-77294619D01*
X86089671Y-77246238D01*
X86112652Y-77149476D01*
X86112652Y-77101095D01*
X86089671Y-77004333D01*
X86043709Y-76955952D01*
X85974766Y-76955952D01*
X85928804Y-76907571D01*
X85905823Y-76810809D01*
X85905823Y-76762428D01*
X85928804Y-76665666D01*
X85974766Y-76617285D01*
X86043709Y-76617285D01*
X86089671Y-76665666D01*
X86618233Y-76278619D02*
X86894004Y-76278619D01*
X86756119Y-77294619D02*
X86756119Y-76278619D01*
X87054871Y-77294619D02*
X87054871Y-76278619D01*
X87261700Y-77294619D02*
X87261700Y-76762428D01*
X87238719Y-76665666D01*
X87192757Y-76617285D01*
X87123814Y-76617285D01*
X87077852Y-76665666D01*
X87054871Y-76714047D01*
X87491509Y-77294619D02*
X87491509Y-76617285D01*
X87491509Y-76278619D02*
X87468528Y-76327000D01*
X87491509Y-76375380D01*
X87514490Y-76327000D01*
X87491509Y-76278619D01*
X87491509Y-76375380D01*
X87698338Y-77246238D02*
X87744300Y-77294619D01*
X87836223Y-77294619D01*
X87882185Y-77246238D01*
X87905166Y-77149476D01*
X87905166Y-77101095D01*
X87882185Y-77004333D01*
X87836223Y-76955952D01*
X87767280Y-76955952D01*
X87721319Y-76907571D01*
X87698338Y-76810809D01*
X87698338Y-76762428D01*
X87721319Y-76665666D01*
X87767280Y-76617285D01*
X87836223Y-76617285D01*
X87882185Y-76665666D01*
X88456709Y-77246238D02*
X88525652Y-77294619D01*
X88640557Y-77294619D01*
X88686519Y-77246238D01*
X88709500Y-77197857D01*
X88732480Y-77101095D01*
X88732480Y-77004333D01*
X88709500Y-76907571D01*
X88686519Y-76859190D01*
X88640557Y-76810809D01*
X88548633Y-76762428D01*
X88502671Y-76714047D01*
X88479690Y-76665666D01*
X88456709Y-76568904D01*
X88456709Y-76472142D01*
X88479690Y-76375380D01*
X88502671Y-76327000D01*
X88548633Y-76278619D01*
X88663538Y-76278619D01*
X88732480Y-76327000D01*
X88939309Y-77294619D02*
X88939309Y-76617285D01*
X88939309Y-76278619D02*
X88916328Y-76327000D01*
X88939309Y-76375380D01*
X88962290Y-76327000D01*
X88939309Y-76278619D01*
X88939309Y-76375380D01*
X89375947Y-77294619D02*
X89375947Y-76278619D01*
X89375947Y-77246238D02*
X89329985Y-77294619D01*
X89238061Y-77294619D01*
X89192100Y-77246238D01*
X89169119Y-77197857D01*
X89146138Y-77101095D01*
X89146138Y-76810809D01*
X89169119Y-76714047D01*
X89192100Y-76665666D01*
X89238061Y-76617285D01*
X89329985Y-76617285D01*
X89375947Y-76665666D01*
X89789604Y-77246238D02*
X89743642Y-77294619D01*
X89651719Y-77294619D01*
X89605757Y-77246238D01*
X89582776Y-77149476D01*
X89582776Y-76762428D01*
X89605757Y-76665666D01*
X89651719Y-76617285D01*
X89743642Y-76617285D01*
X89789604Y-76665666D01*
X89812585Y-76762428D01*
X89812585Y-76859190D01*
X89582776Y-76955952D01*
X90387109Y-76907571D02*
X90754804Y-76907571D01*
X90984614Y-76617285D02*
X91352309Y-76907571D01*
X90984614Y-77197857D01*
D18*
X81195333Y-68404619D02*
X81195333Y-67727285D01*
X81195333Y-67388619D02*
X81146952Y-67437000D01*
X81195333Y-67485380D01*
X81243714Y-67437000D01*
X81195333Y-67388619D01*
X81195333Y-67485380D01*
X81679142Y-68404619D02*
X81679142Y-67388619D01*
X82017809Y-68114333D01*
X82356476Y-67388619D01*
X82356476Y-68404619D01*
X82743523Y-67388619D02*
X83420857Y-68404619D01*
X83420857Y-67388619D02*
X82743523Y-68404619D01*
X84388476Y-68404619D02*
X84049809Y-67920809D01*
X83807904Y-68404619D02*
X83807904Y-67388619D01*
X84194952Y-67388619D01*
X84291714Y-67437000D01*
X84340095Y-67485380D01*
X84388476Y-67582142D01*
X84388476Y-67727285D01*
X84340095Y-67824047D01*
X84291714Y-67872428D01*
X84194952Y-67920809D01*
X83807904Y-67920809D01*
X84678761Y-67388619D02*
X85259333Y-67388619D01*
X84969047Y-68404619D02*
X84969047Y-67388619D01*
X86130190Y-68404619D02*
X85549619Y-68404619D01*
X85839904Y-68404619D02*
X85839904Y-67388619D01*
X85743142Y-67533761D01*
X85646380Y-67630523D01*
X85549619Y-67678904D01*
X86759142Y-67388619D02*
X86855904Y-67388619D01*
X86952666Y-67437000D01*
X87001047Y-67485380D01*
X87049428Y-67582142D01*
X87097809Y-67775666D01*
X87097809Y-68017571D01*
X87049428Y-68211095D01*
X87001047Y-68307857D01*
X86952666Y-68356238D01*
X86855904Y-68404619D01*
X86759142Y-68404619D01*
X86662380Y-68356238D01*
X86614000Y-68307857D01*
X86565619Y-68211095D01*
X86517238Y-68017571D01*
X86517238Y-67775666D01*
X86565619Y-67582142D01*
X86614000Y-67485380D01*
X86662380Y-67437000D01*
X86759142Y-67388619D01*
X87968666Y-67388619D02*
X87775142Y-67388619D01*
X87678380Y-67437000D01*
X87630000Y-67485380D01*
X87533238Y-67630523D01*
X87484857Y-67824047D01*
X87484857Y-68211095D01*
X87533238Y-68307857D01*
X87581619Y-68356238D01*
X87678380Y-68404619D01*
X87871904Y-68404619D01*
X87968666Y-68356238D01*
X88017047Y-68307857D01*
X88065428Y-68211095D01*
X88065428Y-67969190D01*
X88017047Y-67872428D01*
X87968666Y-67824047D01*
X87871904Y-67775666D01*
X87678380Y-67775666D01*
X87581619Y-67824047D01*
X87533238Y-67872428D01*
X87484857Y-67969190D01*
X88452476Y-67485380D02*
X88500857Y-67437000D01*
X88597619Y-67388619D01*
X88839523Y-67388619D01*
X88936285Y-67437000D01*
X88984666Y-67485380D01*
X89033047Y-67582142D01*
X89033047Y-67678904D01*
X88984666Y-67824047D01*
X88404095Y-68404619D01*
X89033047Y-68404619D01*
%TO.C,C1*%
D19*
X149660428Y-80094666D02*
X149684619Y-80118857D01*
X149708809Y-80191428D01*
X149708809Y-80239809D01*
X149684619Y-80312380D01*
X149636238Y-80360761D01*
X149587857Y-80384952D01*
X149491095Y-80409142D01*
X149418523Y-80409142D01*
X149321761Y-80384952D01*
X149273380Y-80360761D01*
X149225000Y-80312380D01*
X149200809Y-80239809D01*
X149200809Y-80191428D01*
X149225000Y-80118857D01*
X149249190Y-80094666D01*
X149708809Y-79610857D02*
X149708809Y-79901142D01*
X149708809Y-79756000D02*
X149200809Y-79756000D01*
X149273380Y-79804380D01*
X149321761Y-79852761D01*
X149345952Y-79901142D01*
X147422809Y-80844571D02*
X147422809Y-80796190D01*
X147447000Y-80747809D01*
X147471190Y-80723619D01*
X147519571Y-80699428D01*
X147616333Y-80675238D01*
X147737285Y-80675238D01*
X147834047Y-80699428D01*
X147882428Y-80723619D01*
X147906619Y-80747809D01*
X147930809Y-80796190D01*
X147930809Y-80844571D01*
X147906619Y-80892952D01*
X147882428Y-80917142D01*
X147834047Y-80941333D01*
X147737285Y-80965523D01*
X147616333Y-80965523D01*
X147519571Y-80941333D01*
X147471190Y-80917142D01*
X147447000Y-80892952D01*
X147422809Y-80844571D01*
X147882428Y-80457523D02*
X147906619Y-80433333D01*
X147930809Y-80457523D01*
X147906619Y-80481714D01*
X147882428Y-80457523D01*
X147930809Y-80457523D01*
X147930809Y-79949523D02*
X147930809Y-80239809D01*
X147930809Y-80094666D02*
X147422809Y-80094666D01*
X147495380Y-80143047D01*
X147543761Y-80191428D01*
X147567952Y-80239809D01*
X147592142Y-79514095D02*
X147930809Y-79514095D01*
X147592142Y-79731809D02*
X147858238Y-79731809D01*
X147906619Y-79707619D01*
X147930809Y-79659238D01*
X147930809Y-79586666D01*
X147906619Y-79538285D01*
X147882428Y-79514095D01*
X147664714Y-79102857D02*
X147664714Y-79272190D01*
X147930809Y-79272190D02*
X147422809Y-79272190D01*
X147422809Y-79030285D01*
%TO.C,C2*%
X153585333Y-97082428D02*
X153561142Y-97106619D01*
X153488571Y-97130809D01*
X153440190Y-97130809D01*
X153367619Y-97106619D01*
X153319238Y-97058238D01*
X153295047Y-97009857D01*
X153270857Y-96913095D01*
X153270857Y-96840523D01*
X153295047Y-96743761D01*
X153319238Y-96695380D01*
X153367619Y-96647000D01*
X153440190Y-96622809D01*
X153488571Y-96622809D01*
X153561142Y-96647000D01*
X153585333Y-96671190D01*
X153778857Y-96671190D02*
X153803047Y-96647000D01*
X153851428Y-96622809D01*
X153972380Y-96622809D01*
X154020761Y-96647000D01*
X154044952Y-96671190D01*
X154069142Y-96719571D01*
X154069142Y-96767952D01*
X154044952Y-96840523D01*
X153754666Y-97130809D01*
X154069142Y-97130809D01*
X152835428Y-98400809D02*
X152883809Y-98400809D01*
X152932190Y-98425000D01*
X152956380Y-98449190D01*
X152980571Y-98497571D01*
X153004761Y-98594333D01*
X153004761Y-98715285D01*
X152980571Y-98812047D01*
X152956380Y-98860428D01*
X152932190Y-98884619D01*
X152883809Y-98908809D01*
X152835428Y-98908809D01*
X152787047Y-98884619D01*
X152762857Y-98860428D01*
X152738666Y-98812047D01*
X152714476Y-98715285D01*
X152714476Y-98594333D01*
X152738666Y-98497571D01*
X152762857Y-98449190D01*
X152787047Y-98425000D01*
X152835428Y-98400809D01*
X153222476Y-98860428D02*
X153246666Y-98884619D01*
X153222476Y-98908809D01*
X153198285Y-98884619D01*
X153222476Y-98860428D01*
X153222476Y-98908809D01*
X153730476Y-98908809D02*
X153440190Y-98908809D01*
X153585333Y-98908809D02*
X153585333Y-98400809D01*
X153536952Y-98473380D01*
X153488571Y-98521761D01*
X153440190Y-98545952D01*
X154165904Y-98570142D02*
X154165904Y-98908809D01*
X153948190Y-98570142D02*
X153948190Y-98836238D01*
X153972380Y-98884619D01*
X154020761Y-98908809D01*
X154093333Y-98908809D01*
X154141714Y-98884619D01*
X154165904Y-98860428D01*
X154577142Y-98642714D02*
X154407809Y-98642714D01*
X154407809Y-98908809D02*
X154407809Y-98400809D01*
X154649714Y-98400809D01*
%TO.C,C3*%
X137075333Y-69650428D02*
X137051142Y-69674619D01*
X136978571Y-69698809D01*
X136930190Y-69698809D01*
X136857619Y-69674619D01*
X136809238Y-69626238D01*
X136785047Y-69577857D01*
X136760857Y-69481095D01*
X136760857Y-69408523D01*
X136785047Y-69311761D01*
X136809238Y-69263380D01*
X136857619Y-69215000D01*
X136930190Y-69190809D01*
X136978571Y-69190809D01*
X137051142Y-69215000D01*
X137075333Y-69239190D01*
X137244666Y-69190809D02*
X137559142Y-69190809D01*
X137389809Y-69384333D01*
X137462380Y-69384333D01*
X137510761Y-69408523D01*
X137534952Y-69432714D01*
X137559142Y-69481095D01*
X137559142Y-69602047D01*
X137534952Y-69650428D01*
X137510761Y-69674619D01*
X137462380Y-69698809D01*
X137317238Y-69698809D01*
X137268857Y-69674619D01*
X137244666Y-69650428D01*
X136325428Y-67412809D02*
X136373809Y-67412809D01*
X136422190Y-67437000D01*
X136446380Y-67461190D01*
X136470571Y-67509571D01*
X136494761Y-67606333D01*
X136494761Y-67727285D01*
X136470571Y-67824047D01*
X136446380Y-67872428D01*
X136422190Y-67896619D01*
X136373809Y-67920809D01*
X136325428Y-67920809D01*
X136277047Y-67896619D01*
X136252857Y-67872428D01*
X136228666Y-67824047D01*
X136204476Y-67727285D01*
X136204476Y-67606333D01*
X136228666Y-67509571D01*
X136252857Y-67461190D01*
X136277047Y-67437000D01*
X136325428Y-67412809D01*
X136712476Y-67872428D02*
X136736666Y-67896619D01*
X136712476Y-67920809D01*
X136688285Y-67896619D01*
X136712476Y-67872428D01*
X136712476Y-67920809D01*
X137220476Y-67920809D02*
X136930190Y-67920809D01*
X137075333Y-67920809D02*
X137075333Y-67412809D01*
X137026952Y-67485380D01*
X136978571Y-67533761D01*
X136930190Y-67557952D01*
X137655904Y-67582142D02*
X137655904Y-67920809D01*
X137438190Y-67582142D02*
X137438190Y-67848238D01*
X137462380Y-67896619D01*
X137510761Y-67920809D01*
X137583333Y-67920809D01*
X137631714Y-67896619D01*
X137655904Y-67872428D01*
X138067142Y-67654714D02*
X137897809Y-67654714D01*
X137897809Y-67920809D02*
X137897809Y-67412809D01*
X138139714Y-67412809D01*
%TO.C,C4*%
X72305333Y-65332428D02*
X72281142Y-65356619D01*
X72208571Y-65380809D01*
X72160190Y-65380809D01*
X72087619Y-65356619D01*
X72039238Y-65308238D01*
X72015047Y-65259857D01*
X71990857Y-65163095D01*
X71990857Y-65090523D01*
X72015047Y-64993761D01*
X72039238Y-64945380D01*
X72087619Y-64897000D01*
X72160190Y-64872809D01*
X72208571Y-64872809D01*
X72281142Y-64897000D01*
X72305333Y-64921190D01*
X72740761Y-65042142D02*
X72740761Y-65380809D01*
X72619809Y-64848619D02*
X72498857Y-65211476D01*
X72813333Y-65211476D01*
X71555428Y-66650809D02*
X71603809Y-66650809D01*
X71652190Y-66675000D01*
X71676380Y-66699190D01*
X71700571Y-66747571D01*
X71724761Y-66844333D01*
X71724761Y-66965285D01*
X71700571Y-67062047D01*
X71676380Y-67110428D01*
X71652190Y-67134619D01*
X71603809Y-67158809D01*
X71555428Y-67158809D01*
X71507047Y-67134619D01*
X71482857Y-67110428D01*
X71458666Y-67062047D01*
X71434476Y-66965285D01*
X71434476Y-66844333D01*
X71458666Y-66747571D01*
X71482857Y-66699190D01*
X71507047Y-66675000D01*
X71555428Y-66650809D01*
X71942476Y-67110428D02*
X71966666Y-67134619D01*
X71942476Y-67158809D01*
X71918285Y-67134619D01*
X71942476Y-67110428D01*
X71942476Y-67158809D01*
X72450476Y-67158809D02*
X72160190Y-67158809D01*
X72305333Y-67158809D02*
X72305333Y-66650809D01*
X72256952Y-66723380D01*
X72208571Y-66771761D01*
X72160190Y-66795952D01*
X72885904Y-66820142D02*
X72885904Y-67158809D01*
X72668190Y-66820142D02*
X72668190Y-67086238D01*
X72692380Y-67134619D01*
X72740761Y-67158809D01*
X72813333Y-67158809D01*
X72861714Y-67134619D01*
X72885904Y-67110428D01*
X73297142Y-66892714D02*
X73127809Y-66892714D01*
X73127809Y-67158809D02*
X73127809Y-66650809D01*
X73369714Y-66650809D01*
%TO.C,C5*%
X170095333Y-69650428D02*
X170071142Y-69674619D01*
X169998571Y-69698809D01*
X169950190Y-69698809D01*
X169877619Y-69674619D01*
X169829238Y-69626238D01*
X169805047Y-69577857D01*
X169780857Y-69481095D01*
X169780857Y-69408523D01*
X169805047Y-69311761D01*
X169829238Y-69263380D01*
X169877619Y-69215000D01*
X169950190Y-69190809D01*
X169998571Y-69190809D01*
X170071142Y-69215000D01*
X170095333Y-69239190D01*
X170554952Y-69190809D02*
X170313047Y-69190809D01*
X170288857Y-69432714D01*
X170313047Y-69408523D01*
X170361428Y-69384333D01*
X170482380Y-69384333D01*
X170530761Y-69408523D01*
X170554952Y-69432714D01*
X170579142Y-69481095D01*
X170579142Y-69602047D01*
X170554952Y-69650428D01*
X170530761Y-69674619D01*
X170482380Y-69698809D01*
X170361428Y-69698809D01*
X170313047Y-69674619D01*
X170288857Y-69650428D01*
X169345428Y-67412809D02*
X169393809Y-67412809D01*
X169442190Y-67437000D01*
X169466380Y-67461190D01*
X169490571Y-67509571D01*
X169514761Y-67606333D01*
X169514761Y-67727285D01*
X169490571Y-67824047D01*
X169466380Y-67872428D01*
X169442190Y-67896619D01*
X169393809Y-67920809D01*
X169345428Y-67920809D01*
X169297047Y-67896619D01*
X169272857Y-67872428D01*
X169248666Y-67824047D01*
X169224476Y-67727285D01*
X169224476Y-67606333D01*
X169248666Y-67509571D01*
X169272857Y-67461190D01*
X169297047Y-67437000D01*
X169345428Y-67412809D01*
X169732476Y-67872428D02*
X169756666Y-67896619D01*
X169732476Y-67920809D01*
X169708285Y-67896619D01*
X169732476Y-67872428D01*
X169732476Y-67920809D01*
X170240476Y-67920809D02*
X169950190Y-67920809D01*
X170095333Y-67920809D02*
X170095333Y-67412809D01*
X170046952Y-67485380D01*
X169998571Y-67533761D01*
X169950190Y-67557952D01*
X170675904Y-67582142D02*
X170675904Y-67920809D01*
X170458190Y-67582142D02*
X170458190Y-67848238D01*
X170482380Y-67896619D01*
X170530761Y-67920809D01*
X170603333Y-67920809D01*
X170651714Y-67896619D01*
X170675904Y-67872428D01*
X171087142Y-67654714D02*
X170917809Y-67654714D01*
X170917809Y-67920809D02*
X170917809Y-67412809D01*
X171159714Y-67412809D01*
%TO.C,C6*%
X97705333Y-82985428D02*
X97681142Y-83009619D01*
X97608571Y-83033809D01*
X97560190Y-83033809D01*
X97487619Y-83009619D01*
X97439238Y-82961238D01*
X97415047Y-82912857D01*
X97390857Y-82816095D01*
X97390857Y-82743523D01*
X97415047Y-82646761D01*
X97439238Y-82598380D01*
X97487619Y-82550000D01*
X97560190Y-82525809D01*
X97608571Y-82525809D01*
X97681142Y-82550000D01*
X97705333Y-82574190D01*
X98140761Y-82525809D02*
X98044000Y-82525809D01*
X97995619Y-82550000D01*
X97971428Y-82574190D01*
X97923047Y-82646761D01*
X97898857Y-82743523D01*
X97898857Y-82937047D01*
X97923047Y-82985428D01*
X97947238Y-83009619D01*
X97995619Y-83033809D01*
X98092380Y-83033809D01*
X98140761Y-83009619D01*
X98164952Y-82985428D01*
X98189142Y-82937047D01*
X98189142Y-82816095D01*
X98164952Y-82767714D01*
X98140761Y-82743523D01*
X98092380Y-82719333D01*
X97995619Y-82719333D01*
X97947238Y-82743523D01*
X97923047Y-82767714D01*
X97898857Y-82816095D01*
X96955428Y-80747809D02*
X97003809Y-80747809D01*
X97052190Y-80772000D01*
X97076380Y-80796190D01*
X97100571Y-80844571D01*
X97124761Y-80941333D01*
X97124761Y-81062285D01*
X97100571Y-81159047D01*
X97076380Y-81207428D01*
X97052190Y-81231619D01*
X97003809Y-81255809D01*
X96955428Y-81255809D01*
X96907047Y-81231619D01*
X96882857Y-81207428D01*
X96858666Y-81159047D01*
X96834476Y-81062285D01*
X96834476Y-80941333D01*
X96858666Y-80844571D01*
X96882857Y-80796190D01*
X96907047Y-80772000D01*
X96955428Y-80747809D01*
X97342476Y-81207428D02*
X97366666Y-81231619D01*
X97342476Y-81255809D01*
X97318285Y-81231619D01*
X97342476Y-81207428D01*
X97342476Y-81255809D01*
X97850476Y-81255809D02*
X97560190Y-81255809D01*
X97705333Y-81255809D02*
X97705333Y-80747809D01*
X97656952Y-80820380D01*
X97608571Y-80868761D01*
X97560190Y-80892952D01*
X98285904Y-80917142D02*
X98285904Y-81255809D01*
X98068190Y-80917142D02*
X98068190Y-81183238D01*
X98092380Y-81231619D01*
X98140761Y-81255809D01*
X98213333Y-81255809D01*
X98261714Y-81231619D01*
X98285904Y-81207428D01*
X98697142Y-80989714D02*
X98527809Y-80989714D01*
X98527809Y-81255809D02*
X98527809Y-80747809D01*
X98769714Y-80747809D01*
%TO.C,C7*%
X203115333Y-69650428D02*
X203091142Y-69674619D01*
X203018571Y-69698809D01*
X202970190Y-69698809D01*
X202897619Y-69674619D01*
X202849238Y-69626238D01*
X202825047Y-69577857D01*
X202800857Y-69481095D01*
X202800857Y-69408523D01*
X202825047Y-69311761D01*
X202849238Y-69263380D01*
X202897619Y-69215000D01*
X202970190Y-69190809D01*
X203018571Y-69190809D01*
X203091142Y-69215000D01*
X203115333Y-69239190D01*
X203284666Y-69190809D02*
X203623333Y-69190809D01*
X203405619Y-69698809D01*
X202365428Y-67412809D02*
X202413809Y-67412809D01*
X202462190Y-67437000D01*
X202486380Y-67461190D01*
X202510571Y-67509571D01*
X202534761Y-67606333D01*
X202534761Y-67727285D01*
X202510571Y-67824047D01*
X202486380Y-67872428D01*
X202462190Y-67896619D01*
X202413809Y-67920809D01*
X202365428Y-67920809D01*
X202317047Y-67896619D01*
X202292857Y-67872428D01*
X202268666Y-67824047D01*
X202244476Y-67727285D01*
X202244476Y-67606333D01*
X202268666Y-67509571D01*
X202292857Y-67461190D01*
X202317047Y-67437000D01*
X202365428Y-67412809D01*
X202752476Y-67872428D02*
X202776666Y-67896619D01*
X202752476Y-67920809D01*
X202728285Y-67896619D01*
X202752476Y-67872428D01*
X202752476Y-67920809D01*
X203260476Y-67920809D02*
X202970190Y-67920809D01*
X203115333Y-67920809D02*
X203115333Y-67412809D01*
X203066952Y-67485380D01*
X203018571Y-67533761D01*
X202970190Y-67557952D01*
X203695904Y-67582142D02*
X203695904Y-67920809D01*
X203478190Y-67582142D02*
X203478190Y-67848238D01*
X203502380Y-67896619D01*
X203550761Y-67920809D01*
X203623333Y-67920809D01*
X203671714Y-67896619D01*
X203695904Y-67872428D01*
X204107142Y-67654714D02*
X203937809Y-67654714D01*
X203937809Y-67920809D02*
X203937809Y-67412809D01*
X204179714Y-67412809D01*
%TO.C,C8*%
X97705333Y-77905428D02*
X97681142Y-77929619D01*
X97608571Y-77953809D01*
X97560190Y-77953809D01*
X97487619Y-77929619D01*
X97439238Y-77881238D01*
X97415047Y-77832857D01*
X97390857Y-77736095D01*
X97390857Y-77663523D01*
X97415047Y-77566761D01*
X97439238Y-77518380D01*
X97487619Y-77470000D01*
X97560190Y-77445809D01*
X97608571Y-77445809D01*
X97681142Y-77470000D01*
X97705333Y-77494190D01*
X97995619Y-77663523D02*
X97947238Y-77639333D01*
X97923047Y-77615142D01*
X97898857Y-77566761D01*
X97898857Y-77542571D01*
X97923047Y-77494190D01*
X97947238Y-77470000D01*
X97995619Y-77445809D01*
X98092380Y-77445809D01*
X98140761Y-77470000D01*
X98164952Y-77494190D01*
X98189142Y-77542571D01*
X98189142Y-77566761D01*
X98164952Y-77615142D01*
X98140761Y-77639333D01*
X98092380Y-77663523D01*
X97995619Y-77663523D01*
X97947238Y-77687714D01*
X97923047Y-77711904D01*
X97898857Y-77760285D01*
X97898857Y-77857047D01*
X97923047Y-77905428D01*
X97947238Y-77929619D01*
X97995619Y-77953809D01*
X98092380Y-77953809D01*
X98140761Y-77929619D01*
X98164952Y-77905428D01*
X98189142Y-77857047D01*
X98189142Y-77760285D01*
X98164952Y-77711904D01*
X98140761Y-77687714D01*
X98092380Y-77663523D01*
X96955428Y-75667809D02*
X97003809Y-75667809D01*
X97052190Y-75692000D01*
X97076380Y-75716190D01*
X97100571Y-75764571D01*
X97124761Y-75861333D01*
X97124761Y-75982285D01*
X97100571Y-76079047D01*
X97076380Y-76127428D01*
X97052190Y-76151619D01*
X97003809Y-76175809D01*
X96955428Y-76175809D01*
X96907047Y-76151619D01*
X96882857Y-76127428D01*
X96858666Y-76079047D01*
X96834476Y-75982285D01*
X96834476Y-75861333D01*
X96858666Y-75764571D01*
X96882857Y-75716190D01*
X96907047Y-75692000D01*
X96955428Y-75667809D01*
X97342476Y-76127428D02*
X97366666Y-76151619D01*
X97342476Y-76175809D01*
X97318285Y-76151619D01*
X97342476Y-76127428D01*
X97342476Y-76175809D01*
X97850476Y-76175809D02*
X97560190Y-76175809D01*
X97705333Y-76175809D02*
X97705333Y-75667809D01*
X97656952Y-75740380D01*
X97608571Y-75788761D01*
X97560190Y-75812952D01*
X98285904Y-75837142D02*
X98285904Y-76175809D01*
X98068190Y-75837142D02*
X98068190Y-76103238D01*
X98092380Y-76151619D01*
X98140761Y-76175809D01*
X98213333Y-76175809D01*
X98261714Y-76151619D01*
X98285904Y-76127428D01*
X98697142Y-75909714D02*
X98527809Y-75909714D01*
X98527809Y-76175809D02*
X98527809Y-75667809D01*
X98769714Y-75667809D01*
%TO.C,C9*%
X101515333Y-72952428D02*
X101491142Y-72976619D01*
X101418571Y-73000809D01*
X101370190Y-73000809D01*
X101297619Y-72976619D01*
X101249238Y-72928238D01*
X101225047Y-72879857D01*
X101200857Y-72783095D01*
X101200857Y-72710523D01*
X101225047Y-72613761D01*
X101249238Y-72565380D01*
X101297619Y-72517000D01*
X101370190Y-72492809D01*
X101418571Y-72492809D01*
X101491142Y-72517000D01*
X101515333Y-72541190D01*
X101757238Y-73000809D02*
X101854000Y-73000809D01*
X101902380Y-72976619D01*
X101926571Y-72952428D01*
X101974952Y-72879857D01*
X101999142Y-72783095D01*
X101999142Y-72589571D01*
X101974952Y-72541190D01*
X101950761Y-72517000D01*
X101902380Y-72492809D01*
X101805619Y-72492809D01*
X101757238Y-72517000D01*
X101733047Y-72541190D01*
X101708857Y-72589571D01*
X101708857Y-72710523D01*
X101733047Y-72758904D01*
X101757238Y-72783095D01*
X101805619Y-72807285D01*
X101902380Y-72807285D01*
X101950761Y-72783095D01*
X101974952Y-72758904D01*
X101999142Y-72710523D01*
X100644476Y-74319190D02*
X100668666Y-74295000D01*
X100717047Y-74270809D01*
X100838000Y-74270809D01*
X100886380Y-74295000D01*
X100910571Y-74319190D01*
X100934761Y-74367571D01*
X100934761Y-74415952D01*
X100910571Y-74488523D01*
X100620285Y-74778809D01*
X100934761Y-74778809D01*
X101152476Y-74730428D02*
X101176666Y-74754619D01*
X101152476Y-74778809D01*
X101128285Y-74754619D01*
X101152476Y-74730428D01*
X101152476Y-74778809D01*
X101370190Y-74319190D02*
X101394380Y-74295000D01*
X101442761Y-74270809D01*
X101563714Y-74270809D01*
X101612095Y-74295000D01*
X101636285Y-74319190D01*
X101660476Y-74367571D01*
X101660476Y-74415952D01*
X101636285Y-74488523D01*
X101346000Y-74778809D01*
X101660476Y-74778809D01*
X102095904Y-74440142D02*
X102095904Y-74778809D01*
X101878190Y-74440142D02*
X101878190Y-74706238D01*
X101902380Y-74754619D01*
X101950761Y-74778809D01*
X102023333Y-74778809D01*
X102071714Y-74754619D01*
X102095904Y-74730428D01*
X102507142Y-74512714D02*
X102337809Y-74512714D01*
X102337809Y-74778809D02*
X102337809Y-74270809D01*
X102579714Y-74270809D01*
%TO.C,C10*%
X124133428Y-87430428D02*
X124109238Y-87454619D01*
X124036666Y-87478809D01*
X123988285Y-87478809D01*
X123915714Y-87454619D01*
X123867333Y-87406238D01*
X123843142Y-87357857D01*
X123818952Y-87261095D01*
X123818952Y-87188523D01*
X123843142Y-87091761D01*
X123867333Y-87043380D01*
X123915714Y-86995000D01*
X123988285Y-86970809D01*
X124036666Y-86970809D01*
X124109238Y-86995000D01*
X124133428Y-87019190D01*
X124617238Y-87478809D02*
X124326952Y-87478809D01*
X124472095Y-87478809D02*
X124472095Y-86970809D01*
X124423714Y-87043380D01*
X124375333Y-87091761D01*
X124326952Y-87115952D01*
X124931714Y-86970809D02*
X124980095Y-86970809D01*
X125028476Y-86995000D01*
X125052666Y-87019190D01*
X125076857Y-87067571D01*
X125101047Y-87164333D01*
X125101047Y-87285285D01*
X125076857Y-87382047D01*
X125052666Y-87430428D01*
X125028476Y-87454619D01*
X124980095Y-87478809D01*
X124931714Y-87478809D01*
X124883333Y-87454619D01*
X124859142Y-87430428D01*
X124834952Y-87382047D01*
X124810761Y-87285285D01*
X124810761Y-87164333D01*
X124834952Y-87067571D01*
X124859142Y-87019190D01*
X124883333Y-86995000D01*
X124931714Y-86970809D01*
X123625428Y-85192809D02*
X123673809Y-85192809D01*
X123722190Y-85217000D01*
X123746380Y-85241190D01*
X123770571Y-85289571D01*
X123794761Y-85386333D01*
X123794761Y-85507285D01*
X123770571Y-85604047D01*
X123746380Y-85652428D01*
X123722190Y-85676619D01*
X123673809Y-85700809D01*
X123625428Y-85700809D01*
X123577047Y-85676619D01*
X123552857Y-85652428D01*
X123528666Y-85604047D01*
X123504476Y-85507285D01*
X123504476Y-85386333D01*
X123528666Y-85289571D01*
X123552857Y-85241190D01*
X123577047Y-85217000D01*
X123625428Y-85192809D01*
X124012476Y-85652428D02*
X124036666Y-85676619D01*
X124012476Y-85700809D01*
X123988285Y-85676619D01*
X124012476Y-85652428D01*
X124012476Y-85700809D01*
X124520476Y-85700809D02*
X124230190Y-85700809D01*
X124375333Y-85700809D02*
X124375333Y-85192809D01*
X124326952Y-85265380D01*
X124278571Y-85313761D01*
X124230190Y-85337952D01*
X124955904Y-85362142D02*
X124955904Y-85700809D01*
X124738190Y-85362142D02*
X124738190Y-85628238D01*
X124762380Y-85676619D01*
X124810761Y-85700809D01*
X124883333Y-85700809D01*
X124931714Y-85676619D01*
X124955904Y-85652428D01*
X125367142Y-85434714D02*
X125197809Y-85434714D01*
X125197809Y-85700809D02*
X125197809Y-85192809D01*
X125439714Y-85192809D01*
%TO.C,C11*%
X124133428Y-76762428D02*
X124109238Y-76786619D01*
X124036666Y-76810809D01*
X123988285Y-76810809D01*
X123915714Y-76786619D01*
X123867333Y-76738238D01*
X123843142Y-76689857D01*
X123818952Y-76593095D01*
X123818952Y-76520523D01*
X123843142Y-76423761D01*
X123867333Y-76375380D01*
X123915714Y-76327000D01*
X123988285Y-76302809D01*
X124036666Y-76302809D01*
X124109238Y-76327000D01*
X124133428Y-76351190D01*
X124617238Y-76810809D02*
X124326952Y-76810809D01*
X124472095Y-76810809D02*
X124472095Y-76302809D01*
X124423714Y-76375380D01*
X124375333Y-76423761D01*
X124326952Y-76447952D01*
X125101047Y-76810809D02*
X124810761Y-76810809D01*
X124955904Y-76810809D02*
X124955904Y-76302809D01*
X124907523Y-76375380D01*
X124859142Y-76423761D01*
X124810761Y-76447952D01*
X123504476Y-78129190D02*
X123528666Y-78105000D01*
X123577047Y-78080809D01*
X123698000Y-78080809D01*
X123746380Y-78105000D01*
X123770571Y-78129190D01*
X123794761Y-78177571D01*
X123794761Y-78225952D01*
X123770571Y-78298523D01*
X123480285Y-78588809D01*
X123794761Y-78588809D01*
X124012476Y-78540428D02*
X124036666Y-78564619D01*
X124012476Y-78588809D01*
X123988285Y-78564619D01*
X124012476Y-78540428D01*
X124012476Y-78588809D01*
X124230190Y-78129190D02*
X124254380Y-78105000D01*
X124302761Y-78080809D01*
X124423714Y-78080809D01*
X124472095Y-78105000D01*
X124496285Y-78129190D01*
X124520476Y-78177571D01*
X124520476Y-78225952D01*
X124496285Y-78298523D01*
X124206000Y-78588809D01*
X124520476Y-78588809D01*
X124955904Y-78250142D02*
X124955904Y-78588809D01*
X124738190Y-78250142D02*
X124738190Y-78516238D01*
X124762380Y-78564619D01*
X124810761Y-78588809D01*
X124883333Y-78588809D01*
X124931714Y-78564619D01*
X124955904Y-78540428D01*
X125367142Y-78322714D02*
X125197809Y-78322714D01*
X125197809Y-78588809D02*
X125197809Y-78080809D01*
X125439714Y-78080809D01*
%TO.C,C12*%
X124133428Y-74222428D02*
X124109238Y-74246619D01*
X124036666Y-74270809D01*
X123988285Y-74270809D01*
X123915714Y-74246619D01*
X123867333Y-74198238D01*
X123843142Y-74149857D01*
X123818952Y-74053095D01*
X123818952Y-73980523D01*
X123843142Y-73883761D01*
X123867333Y-73835380D01*
X123915714Y-73787000D01*
X123988285Y-73762809D01*
X124036666Y-73762809D01*
X124109238Y-73787000D01*
X124133428Y-73811190D01*
X124617238Y-74270809D02*
X124326952Y-74270809D01*
X124472095Y-74270809D02*
X124472095Y-73762809D01*
X124423714Y-73835380D01*
X124375333Y-73883761D01*
X124326952Y-73907952D01*
X124810761Y-73811190D02*
X124834952Y-73787000D01*
X124883333Y-73762809D01*
X125004285Y-73762809D01*
X125052666Y-73787000D01*
X125076857Y-73811190D01*
X125101047Y-73859571D01*
X125101047Y-73907952D01*
X125076857Y-73980523D01*
X124786571Y-74270809D01*
X125101047Y-74270809D01*
X123625428Y-75540809D02*
X123673809Y-75540809D01*
X123722190Y-75565000D01*
X123746380Y-75589190D01*
X123770571Y-75637571D01*
X123794761Y-75734333D01*
X123794761Y-75855285D01*
X123770571Y-75952047D01*
X123746380Y-76000428D01*
X123722190Y-76024619D01*
X123673809Y-76048809D01*
X123625428Y-76048809D01*
X123577047Y-76024619D01*
X123552857Y-76000428D01*
X123528666Y-75952047D01*
X123504476Y-75855285D01*
X123504476Y-75734333D01*
X123528666Y-75637571D01*
X123552857Y-75589190D01*
X123577047Y-75565000D01*
X123625428Y-75540809D01*
X124012476Y-76000428D02*
X124036666Y-76024619D01*
X124012476Y-76048809D01*
X123988285Y-76024619D01*
X124012476Y-76000428D01*
X124012476Y-76048809D01*
X124520476Y-76048809D02*
X124230190Y-76048809D01*
X124375333Y-76048809D02*
X124375333Y-75540809D01*
X124326952Y-75613380D01*
X124278571Y-75661761D01*
X124230190Y-75685952D01*
X124955904Y-75710142D02*
X124955904Y-76048809D01*
X124738190Y-75710142D02*
X124738190Y-75976238D01*
X124762380Y-76024619D01*
X124810761Y-76048809D01*
X124883333Y-76048809D01*
X124931714Y-76024619D01*
X124955904Y-76000428D01*
X125367142Y-75782714D02*
X125197809Y-75782714D01*
X125197809Y-76048809D02*
X125197809Y-75540809D01*
X125439714Y-75540809D01*
%TO.C,CLK1*%
X157280428Y-80554285D02*
X157304619Y-80578476D01*
X157328809Y-80651047D01*
X157328809Y-80699428D01*
X157304619Y-80772000D01*
X157256238Y-80820380D01*
X157207857Y-80844571D01*
X157111095Y-80868761D01*
X157038523Y-80868761D01*
X156941761Y-80844571D01*
X156893380Y-80820380D01*
X156845000Y-80772000D01*
X156820809Y-80699428D01*
X156820809Y-80651047D01*
X156845000Y-80578476D01*
X156869190Y-80554285D01*
X157328809Y-80094666D02*
X157328809Y-80336571D01*
X156820809Y-80336571D01*
X157328809Y-79925333D02*
X156820809Y-79925333D01*
X157328809Y-79635047D02*
X157038523Y-79852761D01*
X156820809Y-79635047D02*
X157111095Y-79925333D01*
X157328809Y-79151238D02*
X157328809Y-79441523D01*
X157328809Y-79296380D02*
X156820809Y-79296380D01*
X156893380Y-79344761D01*
X156941761Y-79393142D01*
X156965952Y-79441523D01*
D21*
X153848571Y-81402857D02*
X153872380Y-81426666D01*
X153896190Y-81498095D01*
X153896190Y-81545714D01*
X153872380Y-81617142D01*
X153824761Y-81664761D01*
X153777142Y-81688571D01*
X153681904Y-81712380D01*
X153610476Y-81712380D01*
X153515238Y-81688571D01*
X153467619Y-81664761D01*
X153420000Y-81617142D01*
X153396190Y-81545714D01*
X153396190Y-81498095D01*
X153420000Y-81426666D01*
X153443809Y-81402857D01*
X153396190Y-81260000D02*
X153396190Y-80974285D01*
X153896190Y-81117142D02*
X153396190Y-81117142D01*
X153872380Y-80831428D02*
X153896190Y-80760000D01*
X153896190Y-80640952D01*
X153872380Y-80593333D01*
X153848571Y-80569523D01*
X153800952Y-80545714D01*
X153753333Y-80545714D01*
X153705714Y-80569523D01*
X153681904Y-80593333D01*
X153658095Y-80640952D01*
X153634285Y-80736190D01*
X153610476Y-80783809D01*
X153586666Y-80807619D01*
X153539047Y-80831428D01*
X153491428Y-80831428D01*
X153443809Y-80807619D01*
X153420000Y-80783809D01*
X153396190Y-80736190D01*
X153396190Y-80617142D01*
X153420000Y-80545714D01*
X153396190Y-80260000D02*
X153515238Y-80260000D01*
X153467619Y-80379047D02*
X153515238Y-80260000D01*
X153467619Y-80140952D01*
X153610476Y-80331428D02*
X153515238Y-80260000D01*
X153610476Y-80188571D01*
X153396190Y-79879047D02*
X153515238Y-79879047D01*
X153467619Y-79998095D02*
X153515238Y-79879047D01*
X153467619Y-79760000D01*
X153610476Y-79950476D02*
X153515238Y-79879047D01*
X153610476Y-79807619D01*
X153848571Y-79283809D02*
X153872380Y-79307619D01*
X153896190Y-79379047D01*
X153896190Y-79426666D01*
X153872380Y-79498095D01*
X153824761Y-79545714D01*
X153777142Y-79569523D01*
X153681904Y-79593333D01*
X153610476Y-79593333D01*
X153515238Y-79569523D01*
X153467619Y-79545714D01*
X153420000Y-79498095D01*
X153396190Y-79426666D01*
X153396190Y-79379047D01*
X153420000Y-79307619D01*
X153443809Y-79283809D01*
X153634285Y-78902857D02*
X153658095Y-78831428D01*
X153681904Y-78807619D01*
X153729523Y-78783809D01*
X153800952Y-78783809D01*
X153848571Y-78807619D01*
X153872380Y-78831428D01*
X153896190Y-78879047D01*
X153896190Y-79069523D01*
X153396190Y-79069523D01*
X153396190Y-78902857D01*
X153420000Y-78855238D01*
X153443809Y-78831428D01*
X153491428Y-78807619D01*
X153539047Y-78807619D01*
X153586666Y-78831428D01*
X153610476Y-78855238D01*
X153634285Y-78902857D01*
X153634285Y-79069523D01*
X153396190Y-78617142D02*
X153396190Y-78307619D01*
X153586666Y-78474285D01*
X153586666Y-78402857D01*
X153610476Y-78355238D01*
X153634285Y-78331428D01*
X153681904Y-78307619D01*
X153800952Y-78307619D01*
X153848571Y-78331428D01*
X153872380Y-78355238D01*
X153896190Y-78402857D01*
X153896190Y-78545714D01*
X153872380Y-78593333D01*
X153848571Y-78617142D01*
%TO.C,J1*%
D18*
X109743619Y-60678666D02*
X110469333Y-60678666D01*
X110614476Y-60727047D01*
X110711238Y-60823809D01*
X110759619Y-60968952D01*
X110759619Y-61065714D01*
X110759619Y-59662666D02*
X110759619Y-60243238D01*
X110759619Y-59952952D02*
X109743619Y-59952952D01*
X109888761Y-60049714D01*
X109985523Y-60146476D01*
X110033904Y-60243238D01*
%TO.C,R1*%
D19*
X131420809Y-71204666D02*
X131178904Y-71374000D01*
X131420809Y-71494952D02*
X130912809Y-71494952D01*
X130912809Y-71301428D01*
X130937000Y-71253047D01*
X130961190Y-71228857D01*
X131009571Y-71204666D01*
X131082142Y-71204666D01*
X131130523Y-71228857D01*
X131154714Y-71253047D01*
X131178904Y-71301428D01*
X131178904Y-71494952D01*
X131420809Y-70720857D02*
X131420809Y-71011142D01*
X131420809Y-70866000D02*
X130912809Y-70866000D01*
X130985380Y-70914380D01*
X131033761Y-70962761D01*
X131057952Y-71011142D01*
X133198809Y-71458666D02*
X133198809Y-71748952D01*
X133198809Y-71603809D02*
X132690809Y-71603809D01*
X132763380Y-71652190D01*
X132811761Y-71700571D01*
X132835952Y-71748952D01*
X132690809Y-71144190D02*
X132690809Y-71095809D01*
X132715000Y-71047428D01*
X132739190Y-71023238D01*
X132787571Y-70999047D01*
X132884333Y-70974857D01*
X133005285Y-70974857D01*
X133102047Y-70999047D01*
X133150428Y-71023238D01*
X133174619Y-71047428D01*
X133198809Y-71095809D01*
X133198809Y-71144190D01*
X133174619Y-71192571D01*
X133150428Y-71216761D01*
X133102047Y-71240952D01*
X133005285Y-71265142D01*
X132884333Y-71265142D01*
X132787571Y-71240952D01*
X132739190Y-71216761D01*
X132715000Y-71192571D01*
X132690809Y-71144190D01*
X132690809Y-70660380D02*
X132690809Y-70612000D01*
X132715000Y-70563619D01*
X132739190Y-70539428D01*
X132787571Y-70515238D01*
X132884333Y-70491047D01*
X133005285Y-70491047D01*
X133102047Y-70515238D01*
X133150428Y-70539428D01*
X133174619Y-70563619D01*
X133198809Y-70612000D01*
X133198809Y-70660380D01*
X133174619Y-70708761D01*
X133150428Y-70732952D01*
X133102047Y-70757142D01*
X133005285Y-70781333D01*
X132884333Y-70781333D01*
X132787571Y-70757142D01*
X132739190Y-70732952D01*
X132715000Y-70708761D01*
X132690809Y-70660380D01*
%TO.C,R2*%
X133198809Y-77554666D02*
X132956904Y-77724000D01*
X133198809Y-77844952D02*
X132690809Y-77844952D01*
X132690809Y-77651428D01*
X132715000Y-77603047D01*
X132739190Y-77578857D01*
X132787571Y-77554666D01*
X132860142Y-77554666D01*
X132908523Y-77578857D01*
X132932714Y-77603047D01*
X132956904Y-77651428D01*
X132956904Y-77844952D01*
X132739190Y-77361142D02*
X132715000Y-77336952D01*
X132690809Y-77288571D01*
X132690809Y-77167619D01*
X132715000Y-77119238D01*
X132739190Y-77095047D01*
X132787571Y-77070857D01*
X132835952Y-77070857D01*
X132908523Y-77095047D01*
X133198809Y-77385333D01*
X133198809Y-77070857D01*
X131420809Y-77808666D02*
X131420809Y-78098952D01*
X131420809Y-77953809D02*
X130912809Y-77953809D01*
X130985380Y-78002190D01*
X131033761Y-78050571D01*
X131057952Y-78098952D01*
X130912809Y-77494190D02*
X130912809Y-77445809D01*
X130937000Y-77397428D01*
X130961190Y-77373238D01*
X131009571Y-77349047D01*
X131106333Y-77324857D01*
X131227285Y-77324857D01*
X131324047Y-77349047D01*
X131372428Y-77373238D01*
X131396619Y-77397428D01*
X131420809Y-77445809D01*
X131420809Y-77494190D01*
X131396619Y-77542571D01*
X131372428Y-77566761D01*
X131324047Y-77590952D01*
X131227285Y-77615142D01*
X131106333Y-77615142D01*
X131009571Y-77590952D01*
X130961190Y-77566761D01*
X130937000Y-77542571D01*
X130912809Y-77494190D01*
X130912809Y-77010380D02*
X130912809Y-76962000D01*
X130937000Y-76913619D01*
X130961190Y-76889428D01*
X131009571Y-76865238D01*
X131106333Y-76841047D01*
X131227285Y-76841047D01*
X131324047Y-76865238D01*
X131372428Y-76889428D01*
X131396619Y-76913619D01*
X131420809Y-76962000D01*
X131420809Y-77010380D01*
X131396619Y-77058761D01*
X131372428Y-77082952D01*
X131324047Y-77107142D01*
X131227285Y-77131333D01*
X131106333Y-77131333D01*
X131009571Y-77107142D01*
X130961190Y-77082952D01*
X130937000Y-77058761D01*
X130912809Y-77010380D01*
%TO.C,R3*%
X164440809Y-71204666D02*
X164198904Y-71374000D01*
X164440809Y-71494952D02*
X163932809Y-71494952D01*
X163932809Y-71301428D01*
X163957000Y-71253047D01*
X163981190Y-71228857D01*
X164029571Y-71204666D01*
X164102142Y-71204666D01*
X164150523Y-71228857D01*
X164174714Y-71253047D01*
X164198904Y-71301428D01*
X164198904Y-71494952D01*
X163932809Y-71035333D02*
X163932809Y-70720857D01*
X164126333Y-70890190D01*
X164126333Y-70817619D01*
X164150523Y-70769238D01*
X164174714Y-70745047D01*
X164223095Y-70720857D01*
X164344047Y-70720857D01*
X164392428Y-70745047D01*
X164416619Y-70769238D01*
X164440809Y-70817619D01*
X164440809Y-70962761D01*
X164416619Y-71011142D01*
X164392428Y-71035333D01*
X166218809Y-71458666D02*
X166218809Y-71748952D01*
X166218809Y-71603809D02*
X165710809Y-71603809D01*
X165783380Y-71652190D01*
X165831761Y-71700571D01*
X165855952Y-71748952D01*
X165710809Y-71144190D02*
X165710809Y-71095809D01*
X165735000Y-71047428D01*
X165759190Y-71023238D01*
X165807571Y-70999047D01*
X165904333Y-70974857D01*
X166025285Y-70974857D01*
X166122047Y-70999047D01*
X166170428Y-71023238D01*
X166194619Y-71047428D01*
X166218809Y-71095809D01*
X166218809Y-71144190D01*
X166194619Y-71192571D01*
X166170428Y-71216761D01*
X166122047Y-71240952D01*
X166025285Y-71265142D01*
X165904333Y-71265142D01*
X165807571Y-71240952D01*
X165759190Y-71216761D01*
X165735000Y-71192571D01*
X165710809Y-71144190D01*
X165710809Y-70660380D02*
X165710809Y-70612000D01*
X165735000Y-70563619D01*
X165759190Y-70539428D01*
X165807571Y-70515238D01*
X165904333Y-70491047D01*
X166025285Y-70491047D01*
X166122047Y-70515238D01*
X166170428Y-70539428D01*
X166194619Y-70563619D01*
X166218809Y-70612000D01*
X166218809Y-70660380D01*
X166194619Y-70708761D01*
X166170428Y-70732952D01*
X166122047Y-70757142D01*
X166025285Y-70781333D01*
X165904333Y-70781333D01*
X165807571Y-70757142D01*
X165759190Y-70732952D01*
X165735000Y-70708761D01*
X165710809Y-70660380D01*
%TO.C,R4*%
X166218809Y-77554666D02*
X165976904Y-77724000D01*
X166218809Y-77844952D02*
X165710809Y-77844952D01*
X165710809Y-77651428D01*
X165735000Y-77603047D01*
X165759190Y-77578857D01*
X165807571Y-77554666D01*
X165880142Y-77554666D01*
X165928523Y-77578857D01*
X165952714Y-77603047D01*
X165976904Y-77651428D01*
X165976904Y-77844952D01*
X165880142Y-77119238D02*
X166218809Y-77119238D01*
X165686619Y-77240190D02*
X166049476Y-77361142D01*
X166049476Y-77046666D01*
X164440809Y-77808666D02*
X164440809Y-78098952D01*
X164440809Y-77953809D02*
X163932809Y-77953809D01*
X164005380Y-78002190D01*
X164053761Y-78050571D01*
X164077952Y-78098952D01*
X163932809Y-77494190D02*
X163932809Y-77445809D01*
X163957000Y-77397428D01*
X163981190Y-77373238D01*
X164029571Y-77349047D01*
X164126333Y-77324857D01*
X164247285Y-77324857D01*
X164344047Y-77349047D01*
X164392428Y-77373238D01*
X164416619Y-77397428D01*
X164440809Y-77445809D01*
X164440809Y-77494190D01*
X164416619Y-77542571D01*
X164392428Y-77566761D01*
X164344047Y-77590952D01*
X164247285Y-77615142D01*
X164126333Y-77615142D01*
X164029571Y-77590952D01*
X163981190Y-77566761D01*
X163957000Y-77542571D01*
X163932809Y-77494190D01*
X163932809Y-77010380D02*
X163932809Y-76962000D01*
X163957000Y-76913619D01*
X163981190Y-76889428D01*
X164029571Y-76865238D01*
X164126333Y-76841047D01*
X164247285Y-76841047D01*
X164344047Y-76865238D01*
X164392428Y-76889428D01*
X164416619Y-76913619D01*
X164440809Y-76962000D01*
X164440809Y-77010380D01*
X164416619Y-77058761D01*
X164392428Y-77082952D01*
X164344047Y-77107142D01*
X164247285Y-77131333D01*
X164126333Y-77131333D01*
X164029571Y-77107142D01*
X163981190Y-77082952D01*
X163957000Y-77058761D01*
X163932809Y-77010380D01*
%TO.C,R5*%
X197460809Y-71204666D02*
X197218904Y-71374000D01*
X197460809Y-71494952D02*
X196952809Y-71494952D01*
X196952809Y-71301428D01*
X196977000Y-71253047D01*
X197001190Y-71228857D01*
X197049571Y-71204666D01*
X197122142Y-71204666D01*
X197170523Y-71228857D01*
X197194714Y-71253047D01*
X197218904Y-71301428D01*
X197218904Y-71494952D01*
X196952809Y-70745047D02*
X196952809Y-70986952D01*
X197194714Y-71011142D01*
X197170523Y-70986952D01*
X197146333Y-70938571D01*
X197146333Y-70817619D01*
X197170523Y-70769238D01*
X197194714Y-70745047D01*
X197243095Y-70720857D01*
X197364047Y-70720857D01*
X197412428Y-70745047D01*
X197436619Y-70769238D01*
X197460809Y-70817619D01*
X197460809Y-70938571D01*
X197436619Y-70986952D01*
X197412428Y-71011142D01*
X199238809Y-71458666D02*
X199238809Y-71748952D01*
X199238809Y-71603809D02*
X198730809Y-71603809D01*
X198803380Y-71652190D01*
X198851761Y-71700571D01*
X198875952Y-71748952D01*
X198730809Y-71144190D02*
X198730809Y-71095809D01*
X198755000Y-71047428D01*
X198779190Y-71023238D01*
X198827571Y-70999047D01*
X198924333Y-70974857D01*
X199045285Y-70974857D01*
X199142047Y-70999047D01*
X199190428Y-71023238D01*
X199214619Y-71047428D01*
X199238809Y-71095809D01*
X199238809Y-71144190D01*
X199214619Y-71192571D01*
X199190428Y-71216761D01*
X199142047Y-71240952D01*
X199045285Y-71265142D01*
X198924333Y-71265142D01*
X198827571Y-71240952D01*
X198779190Y-71216761D01*
X198755000Y-71192571D01*
X198730809Y-71144190D01*
X198730809Y-70660380D02*
X198730809Y-70612000D01*
X198755000Y-70563619D01*
X198779190Y-70539428D01*
X198827571Y-70515238D01*
X198924333Y-70491047D01*
X199045285Y-70491047D01*
X199142047Y-70515238D01*
X199190428Y-70539428D01*
X199214619Y-70563619D01*
X199238809Y-70612000D01*
X199238809Y-70660380D01*
X199214619Y-70708761D01*
X199190428Y-70732952D01*
X199142047Y-70757142D01*
X199045285Y-70781333D01*
X198924333Y-70781333D01*
X198827571Y-70757142D01*
X198779190Y-70732952D01*
X198755000Y-70708761D01*
X198730809Y-70660380D01*
%TO.C,R6*%
X199238809Y-77554666D02*
X198996904Y-77724000D01*
X199238809Y-77844952D02*
X198730809Y-77844952D01*
X198730809Y-77651428D01*
X198755000Y-77603047D01*
X198779190Y-77578857D01*
X198827571Y-77554666D01*
X198900142Y-77554666D01*
X198948523Y-77578857D01*
X198972714Y-77603047D01*
X198996904Y-77651428D01*
X198996904Y-77844952D01*
X198730809Y-77119238D02*
X198730809Y-77216000D01*
X198755000Y-77264380D01*
X198779190Y-77288571D01*
X198851761Y-77336952D01*
X198948523Y-77361142D01*
X199142047Y-77361142D01*
X199190428Y-77336952D01*
X199214619Y-77312761D01*
X199238809Y-77264380D01*
X199238809Y-77167619D01*
X199214619Y-77119238D01*
X199190428Y-77095047D01*
X199142047Y-77070857D01*
X199021095Y-77070857D01*
X198972714Y-77095047D01*
X198948523Y-77119238D01*
X198924333Y-77167619D01*
X198924333Y-77264380D01*
X198948523Y-77312761D01*
X198972714Y-77336952D01*
X199021095Y-77361142D01*
X197460809Y-77808666D02*
X197460809Y-78098952D01*
X197460809Y-77953809D02*
X196952809Y-77953809D01*
X197025380Y-78002190D01*
X197073761Y-78050571D01*
X197097952Y-78098952D01*
X196952809Y-77494190D02*
X196952809Y-77445809D01*
X196977000Y-77397428D01*
X197001190Y-77373238D01*
X197049571Y-77349047D01*
X197146333Y-77324857D01*
X197267285Y-77324857D01*
X197364047Y-77349047D01*
X197412428Y-77373238D01*
X197436619Y-77397428D01*
X197460809Y-77445809D01*
X197460809Y-77494190D01*
X197436619Y-77542571D01*
X197412428Y-77566761D01*
X197364047Y-77590952D01*
X197267285Y-77615142D01*
X197146333Y-77615142D01*
X197049571Y-77590952D01*
X197001190Y-77566761D01*
X196977000Y-77542571D01*
X196952809Y-77494190D01*
X196952809Y-77010380D02*
X196952809Y-76962000D01*
X196977000Y-76913619D01*
X197001190Y-76889428D01*
X197049571Y-76865238D01*
X197146333Y-76841047D01*
X197267285Y-76841047D01*
X197364047Y-76865238D01*
X197412428Y-76889428D01*
X197436619Y-76913619D01*
X197460809Y-76962000D01*
X197460809Y-77010380D01*
X197436619Y-77058761D01*
X197412428Y-77082952D01*
X197364047Y-77107142D01*
X197267285Y-77131333D01*
X197146333Y-77131333D01*
X197049571Y-77107142D01*
X197001190Y-77082952D01*
X196977000Y-77058761D01*
X196952809Y-77010380D01*
%TO.C,R7*%
X97705333Y-75413809D02*
X97536000Y-75171904D01*
X97415047Y-75413809D02*
X97415047Y-74905809D01*
X97608571Y-74905809D01*
X97656952Y-74930000D01*
X97681142Y-74954190D01*
X97705333Y-75002571D01*
X97705333Y-75075142D01*
X97681142Y-75123523D01*
X97656952Y-75147714D01*
X97608571Y-75171904D01*
X97415047Y-75171904D01*
X97874666Y-74905809D02*
X98213333Y-74905809D01*
X97995619Y-75413809D01*
X96834476Y-73176190D02*
X96858666Y-73152000D01*
X96907047Y-73127809D01*
X97028000Y-73127809D01*
X97076380Y-73152000D01*
X97100571Y-73176190D01*
X97124761Y-73224571D01*
X97124761Y-73272952D01*
X97100571Y-73345523D01*
X96810285Y-73635809D01*
X97124761Y-73635809D01*
X97342476Y-73587428D02*
X97366666Y-73611619D01*
X97342476Y-73635809D01*
X97318285Y-73611619D01*
X97342476Y-73587428D01*
X97342476Y-73635809D01*
X97560190Y-73176190D02*
X97584380Y-73152000D01*
X97632761Y-73127809D01*
X97753714Y-73127809D01*
X97802095Y-73152000D01*
X97826285Y-73176190D01*
X97850476Y-73224571D01*
X97850476Y-73272952D01*
X97826285Y-73345523D01*
X97536000Y-73635809D01*
X97850476Y-73635809D01*
X98334285Y-73635809D02*
X98044000Y-73635809D01*
X98189142Y-73635809D02*
X98189142Y-73127809D01*
X98140761Y-73200380D01*
X98092380Y-73248761D01*
X98044000Y-73272952D01*
X98552000Y-73635809D02*
X98552000Y-73127809D01*
X98600380Y-73442285D02*
X98745523Y-73635809D01*
X98745523Y-73297142D02*
X98552000Y-73490666D01*
%TO.C,R8*%
X97705333Y-72873809D02*
X97536000Y-72631904D01*
X97415047Y-72873809D02*
X97415047Y-72365809D01*
X97608571Y-72365809D01*
X97656952Y-72390000D01*
X97681142Y-72414190D01*
X97705333Y-72462571D01*
X97705333Y-72535142D01*
X97681142Y-72583523D01*
X97656952Y-72607714D01*
X97608571Y-72631904D01*
X97415047Y-72631904D01*
X97995619Y-72583523D02*
X97947238Y-72559333D01*
X97923047Y-72535142D01*
X97898857Y-72486761D01*
X97898857Y-72462571D01*
X97923047Y-72414190D01*
X97947238Y-72390000D01*
X97995619Y-72365809D01*
X98092380Y-72365809D01*
X98140761Y-72390000D01*
X98164952Y-72414190D01*
X98189142Y-72462571D01*
X98189142Y-72486761D01*
X98164952Y-72535142D01*
X98140761Y-72559333D01*
X98092380Y-72583523D01*
X97995619Y-72583523D01*
X97947238Y-72607714D01*
X97923047Y-72631904D01*
X97898857Y-72680285D01*
X97898857Y-72777047D01*
X97923047Y-72825428D01*
X97947238Y-72849619D01*
X97995619Y-72873809D01*
X98092380Y-72873809D01*
X98140761Y-72849619D01*
X98164952Y-72825428D01*
X98189142Y-72777047D01*
X98189142Y-72680285D01*
X98164952Y-72631904D01*
X98140761Y-72607714D01*
X98092380Y-72583523D01*
X96834476Y-70636190D02*
X96858666Y-70612000D01*
X96907047Y-70587809D01*
X97028000Y-70587809D01*
X97076380Y-70612000D01*
X97100571Y-70636190D01*
X97124761Y-70684571D01*
X97124761Y-70732952D01*
X97100571Y-70805523D01*
X96810285Y-71095809D01*
X97124761Y-71095809D01*
X97342476Y-71047428D02*
X97366666Y-71071619D01*
X97342476Y-71095809D01*
X97318285Y-71071619D01*
X97342476Y-71047428D01*
X97342476Y-71095809D01*
X97560190Y-70636190D02*
X97584380Y-70612000D01*
X97632761Y-70587809D01*
X97753714Y-70587809D01*
X97802095Y-70612000D01*
X97826285Y-70636190D01*
X97850476Y-70684571D01*
X97850476Y-70732952D01*
X97826285Y-70805523D01*
X97536000Y-71095809D01*
X97850476Y-71095809D01*
X98334285Y-71095809D02*
X98044000Y-71095809D01*
X98189142Y-71095809D02*
X98189142Y-70587809D01*
X98140761Y-70660380D01*
X98092380Y-70708761D01*
X98044000Y-70732952D01*
X98552000Y-71095809D02*
X98552000Y-70587809D01*
X98600380Y-70902285D02*
X98745523Y-71095809D01*
X98745523Y-70757142D02*
X98552000Y-70950666D01*
%TO.C,U2*%
D18*
X136385904Y-80342619D02*
X136385904Y-81165095D01*
X136434285Y-81261857D01*
X136482666Y-81310238D01*
X136579428Y-81358619D01*
X136772952Y-81358619D01*
X136869714Y-81310238D01*
X136918095Y-81261857D01*
X136966476Y-81165095D01*
X136966476Y-80342619D01*
X137401904Y-80439380D02*
X137450285Y-80391000D01*
X137547047Y-80342619D01*
X137788952Y-80342619D01*
X137885714Y-80391000D01*
X137934095Y-80439380D01*
X137982476Y-80536142D01*
X137982476Y-80632904D01*
X137934095Y-80778047D01*
X137353523Y-81358619D01*
X137982476Y-81358619D01*
%TO.C,U3*%
D22*
X72196476Y-62560904D02*
X72196476Y-62766523D01*
X72208571Y-62790714D01*
X72220666Y-62802809D01*
X72244857Y-62814904D01*
X72293238Y-62814904D01*
X72317428Y-62802809D01*
X72329523Y-62790714D01*
X72341619Y-62766523D01*
X72341619Y-62560904D01*
X72438380Y-62560904D02*
X72595619Y-62560904D01*
X72510952Y-62657666D01*
X72547238Y-62657666D01*
X72571428Y-62669761D01*
X72583523Y-62681857D01*
X72595619Y-62706047D01*
X72595619Y-62766523D01*
X72583523Y-62790714D01*
X72571428Y-62802809D01*
X72547238Y-62814904D01*
X72474666Y-62814904D01*
X72450476Y-62802809D01*
X72438380Y-62790714D01*
%TO.C,U4*%
D18*
X169405904Y-80342619D02*
X169405904Y-81165095D01*
X169454285Y-81261857D01*
X169502666Y-81310238D01*
X169599428Y-81358619D01*
X169792952Y-81358619D01*
X169889714Y-81310238D01*
X169938095Y-81261857D01*
X169986476Y-81165095D01*
X169986476Y-80342619D01*
X170905714Y-80681285D02*
X170905714Y-81358619D01*
X170663809Y-80294238D02*
X170421904Y-81019952D01*
X171050857Y-81019952D01*
%TO.C,U5*%
D22*
X97596476Y-85115904D02*
X97596476Y-85321523D01*
X97608571Y-85345714D01*
X97620666Y-85357809D01*
X97644857Y-85369904D01*
X97693238Y-85369904D01*
X97717428Y-85357809D01*
X97729523Y-85345714D01*
X97741619Y-85321523D01*
X97741619Y-85115904D01*
X97983523Y-85115904D02*
X97862571Y-85115904D01*
X97850476Y-85236857D01*
X97862571Y-85224761D01*
X97886761Y-85212666D01*
X97947238Y-85212666D01*
X97971428Y-85224761D01*
X97983523Y-85236857D01*
X97995619Y-85261047D01*
X97995619Y-85321523D01*
X97983523Y-85345714D01*
X97971428Y-85357809D01*
X97947238Y-85369904D01*
X97886761Y-85369904D01*
X97862571Y-85357809D01*
X97850476Y-85345714D01*
%TO.C,U6*%
D18*
X202425904Y-80342619D02*
X202425904Y-81165095D01*
X202474285Y-81261857D01*
X202522666Y-81310238D01*
X202619428Y-81358619D01*
X202812952Y-81358619D01*
X202909714Y-81310238D01*
X202958095Y-81261857D01*
X203006476Y-81165095D01*
X203006476Y-80342619D01*
X203925714Y-80342619D02*
X203732190Y-80342619D01*
X203635428Y-80391000D01*
X203587047Y-80439380D01*
X203490285Y-80584523D01*
X203441904Y-80778047D01*
X203441904Y-81165095D01*
X203490285Y-81261857D01*
X203538666Y-81310238D01*
X203635428Y-81358619D01*
X203828952Y-81358619D01*
X203925714Y-81310238D01*
X203974095Y-81261857D01*
X204022476Y-81165095D01*
X204022476Y-80923190D01*
X203974095Y-80826428D01*
X203925714Y-80778047D01*
X203828952Y-80729666D01*
X203635428Y-80729666D01*
X203538666Y-80778047D01*
X203490285Y-80826428D01*
X203441904Y-80923190D01*
%TO.C,U7*%
D22*
X97596476Y-80035904D02*
X97596476Y-80241523D01*
X97608571Y-80265714D01*
X97620666Y-80277809D01*
X97644857Y-80289904D01*
X97693238Y-80289904D01*
X97717428Y-80277809D01*
X97729523Y-80265714D01*
X97741619Y-80241523D01*
X97741619Y-80035904D01*
X97838380Y-80035904D02*
X98007714Y-80035904D01*
X97898857Y-80289904D01*
%TO.C,U8*%
D19*
X99924809Y-70872047D02*
X100336047Y-70872047D01*
X100384428Y-70847857D01*
X100408619Y-70823666D01*
X100432809Y-70775285D01*
X100432809Y-70678523D01*
X100408619Y-70630142D01*
X100384428Y-70605952D01*
X100336047Y-70581761D01*
X99924809Y-70581761D01*
X100142523Y-70267285D02*
X100118333Y-70315666D01*
X100094142Y-70339857D01*
X100045761Y-70364047D01*
X100021571Y-70364047D01*
X99973190Y-70339857D01*
X99949000Y-70315666D01*
X99924809Y-70267285D01*
X99924809Y-70170523D01*
X99949000Y-70122142D01*
X99973190Y-70097952D01*
X100021571Y-70073761D01*
X100045761Y-70073761D01*
X100094142Y-70097952D01*
X100118333Y-70122142D01*
X100142523Y-70170523D01*
X100142523Y-70267285D01*
X100166714Y-70315666D01*
X100190904Y-70339857D01*
X100239285Y-70364047D01*
X100336047Y-70364047D01*
X100384428Y-70339857D01*
X100408619Y-70315666D01*
X100432809Y-70267285D01*
X100432809Y-70170523D01*
X100408619Y-70122142D01*
X100384428Y-70097952D01*
X100336047Y-70073761D01*
X100239285Y-70073761D01*
X100190904Y-70097952D01*
X100166714Y-70122142D01*
X100142523Y-70170523D01*
%TO.C,U9*%
D18*
X116283619Y-92214095D02*
X117106095Y-92214095D01*
X117202857Y-92165714D01*
X117251238Y-92117333D01*
X117299619Y-92020571D01*
X117299619Y-91827047D01*
X117251238Y-91730285D01*
X117202857Y-91681904D01*
X117106095Y-91633523D01*
X116283619Y-91633523D01*
X117299619Y-91101333D02*
X117299619Y-90907809D01*
X117251238Y-90811047D01*
X117202857Y-90762666D01*
X117057714Y-90665904D01*
X116864190Y-90617523D01*
X116477142Y-90617523D01*
X116380380Y-90665904D01*
X116332000Y-90714285D01*
X116283619Y-90811047D01*
X116283619Y-91004571D01*
X116332000Y-91101333D01*
X116380380Y-91149714D01*
X116477142Y-91198095D01*
X116719047Y-91198095D01*
X116815809Y-91149714D01*
X116864190Y-91101333D01*
X116912571Y-91004571D01*
X116912571Y-90811047D01*
X116864190Y-90714285D01*
X116815809Y-90665904D01*
X116719047Y-90617523D01*
%TO.C,U1*%
X156933619Y-93484095D02*
X157756095Y-93484095D01*
X157852857Y-93435714D01*
X157901238Y-93387333D01*
X157949619Y-93290571D01*
X157949619Y-93097047D01*
X157901238Y-93000285D01*
X157852857Y-92951904D01*
X157756095Y-92903523D01*
X156933619Y-92903523D01*
X157949619Y-91887523D02*
X157949619Y-92468095D01*
X157949619Y-92177809D02*
X156933619Y-92177809D01*
X157078761Y-92274571D01*
X157175523Y-92371333D01*
X157223904Y-92468095D01*
X149293619Y-95540285D02*
X149293619Y-94959714D01*
X150309619Y-95250000D02*
X149293619Y-95250000D01*
X150309619Y-94621047D02*
X149293619Y-94621047D01*
X150019333Y-94282380D01*
X149293619Y-93943714D01*
X150309619Y-93943714D01*
X150212857Y-92879333D02*
X150261238Y-92927714D01*
X150309619Y-93072857D01*
X150309619Y-93169619D01*
X150261238Y-93314761D01*
X150164476Y-93411523D01*
X150067714Y-93459904D01*
X149874190Y-93508285D01*
X149729047Y-93508285D01*
X149535523Y-93459904D01*
X149438761Y-93411523D01*
X149342000Y-93314761D01*
X149293619Y-93169619D01*
X149293619Y-93072857D01*
X149342000Y-92927714D01*
X149390380Y-92879333D01*
X149632285Y-92008476D02*
X150309619Y-92008476D01*
X149245238Y-92250380D02*
X149970952Y-92492285D01*
X149970952Y-91863333D01*
X149390380Y-91524666D02*
X149342000Y-91476285D01*
X149293619Y-91379523D01*
X149293619Y-91137619D01*
X149342000Y-91040857D01*
X149390380Y-90992476D01*
X149487142Y-90944095D01*
X149583904Y-90944095D01*
X149729047Y-90992476D01*
X150309619Y-91573047D01*
X150309619Y-90944095D01*
X150309619Y-90460285D02*
X150309619Y-90266761D01*
X150261238Y-90170000D01*
X150212857Y-90121619D01*
X150067714Y-90024857D01*
X149874190Y-89976476D01*
X149487142Y-89976476D01*
X149390380Y-90024857D01*
X149342000Y-90073238D01*
X149293619Y-90170000D01*
X149293619Y-90363523D01*
X149342000Y-90460285D01*
X149390380Y-90508666D01*
X149487142Y-90557047D01*
X149729047Y-90557047D01*
X149825809Y-90508666D01*
X149874190Y-90460285D01*
X149922571Y-90363523D01*
X149922571Y-90170000D01*
X149874190Y-90073238D01*
X149825809Y-90024857D01*
X149729047Y-89976476D01*
%TO.C,U10*%
X113042095Y-84543619D02*
X113042095Y-85366095D01*
X113090476Y-85462857D01*
X113138857Y-85511238D01*
X113235619Y-85559619D01*
X113429142Y-85559619D01*
X113525904Y-85511238D01*
X113574285Y-85462857D01*
X113622666Y-85366095D01*
X113622666Y-84543619D01*
X114638666Y-85559619D02*
X114058095Y-85559619D01*
X114348380Y-85559619D02*
X114348380Y-84543619D01*
X114251619Y-84688761D01*
X114154857Y-84785523D01*
X114058095Y-84833904D01*
X115267619Y-84543619D02*
X115364380Y-84543619D01*
X115461142Y-84592000D01*
X115509523Y-84640380D01*
X115557904Y-84737142D01*
X115606285Y-84930666D01*
X115606285Y-85172571D01*
X115557904Y-85366095D01*
X115509523Y-85462857D01*
X115461142Y-85511238D01*
X115364380Y-85559619D01*
X115267619Y-85559619D01*
X115170857Y-85511238D01*
X115122476Y-85462857D01*
X115074095Y-85366095D01*
X115025714Y-85172571D01*
X115025714Y-84930666D01*
X115074095Y-84737142D01*
X115122476Y-84640380D01*
X115170857Y-84592000D01*
X115267619Y-84543619D01*
X110768190Y-77871238D02*
X110913333Y-77919619D01*
X111155238Y-77919619D01*
X111252000Y-77871238D01*
X111300380Y-77822857D01*
X111348761Y-77726095D01*
X111348761Y-77629333D01*
X111300380Y-77532571D01*
X111252000Y-77484190D01*
X111155238Y-77435809D01*
X110961714Y-77387428D01*
X110864952Y-77339047D01*
X110816571Y-77290666D01*
X110768190Y-77193904D01*
X110768190Y-77097142D01*
X110816571Y-77000380D01*
X110864952Y-76952000D01*
X110961714Y-76903619D01*
X111203619Y-76903619D01*
X111348761Y-76952000D01*
X112316380Y-76952000D02*
X112219619Y-76903619D01*
X112074476Y-76903619D01*
X111929333Y-76952000D01*
X111832571Y-77048761D01*
X111784190Y-77145523D01*
X111735809Y-77339047D01*
X111735809Y-77484190D01*
X111784190Y-77677714D01*
X111832571Y-77774476D01*
X111929333Y-77871238D01*
X112074476Y-77919619D01*
X112171238Y-77919619D01*
X112316380Y-77871238D01*
X112364761Y-77822857D01*
X112364761Y-77484190D01*
X112171238Y-77484190D01*
X112655047Y-76903619D02*
X113235619Y-76903619D01*
X112945333Y-77919619D02*
X112945333Y-76903619D01*
X114058095Y-77919619D02*
X113574285Y-77919619D01*
X113574285Y-76903619D01*
X114880571Y-76903619D02*
X114396761Y-76903619D01*
X114348380Y-77387428D01*
X114396761Y-77339047D01*
X114493523Y-77290666D01*
X114735428Y-77290666D01*
X114832190Y-77339047D01*
X114880571Y-77387428D01*
X114928952Y-77484190D01*
X114928952Y-77726095D01*
X114880571Y-77822857D01*
X114832190Y-77871238D01*
X114735428Y-77919619D01*
X114493523Y-77919619D01*
X114396761Y-77871238D01*
X114348380Y-77822857D01*
X115557904Y-76903619D02*
X115654666Y-76903619D01*
X115751428Y-76952000D01*
X115799809Y-77000380D01*
X115848190Y-77097142D01*
X115896571Y-77290666D01*
X115896571Y-77532571D01*
X115848190Y-77726095D01*
X115799809Y-77822857D01*
X115751428Y-77871238D01*
X115654666Y-77919619D01*
X115557904Y-77919619D01*
X115461142Y-77871238D01*
X115412761Y-77822857D01*
X115364380Y-77726095D01*
X115316000Y-77532571D01*
X115316000Y-77290666D01*
X115364380Y-77097142D01*
X115412761Y-77000380D01*
X115461142Y-76952000D01*
X115557904Y-76903619D01*
X116525523Y-76903619D02*
X116622285Y-76903619D01*
X116719047Y-76952000D01*
X116767428Y-77000380D01*
X116815809Y-77097142D01*
X116864190Y-77290666D01*
X116864190Y-77532571D01*
X116815809Y-77726095D01*
X116767428Y-77822857D01*
X116719047Y-77871238D01*
X116622285Y-77919619D01*
X116525523Y-77919619D01*
X116428761Y-77871238D01*
X116380380Y-77822857D01*
X116332000Y-77726095D01*
X116283619Y-77532571D01*
X116283619Y-77290666D01*
X116332000Y-77097142D01*
X116380380Y-77000380D01*
X116428761Y-76952000D01*
X116525523Y-76903619D01*
X117493142Y-76903619D02*
X117589904Y-76903619D01*
X117686666Y-76952000D01*
X117735047Y-77000380D01*
X117783428Y-77097142D01*
X117831809Y-77290666D01*
X117831809Y-77532571D01*
X117783428Y-77726095D01*
X117735047Y-77822857D01*
X117686666Y-77871238D01*
X117589904Y-77919619D01*
X117493142Y-77919619D01*
X117396380Y-77871238D01*
X117348000Y-77822857D01*
X117299619Y-77726095D01*
X117251238Y-77532571D01*
X117251238Y-77290666D01*
X117299619Y-77097142D01*
X117348000Y-77000380D01*
X117396380Y-76952000D01*
X117493142Y-76903619D01*
%TO.C,T1*%
X108028619Y-62369095D02*
X108028619Y-61788523D01*
X109044619Y-62078809D02*
X108028619Y-62078809D01*
X109044619Y-60917666D02*
X109044619Y-61498238D01*
X109044619Y-61207952D02*
X108028619Y-61207952D01*
X108173761Y-61304714D01*
X108270523Y-61401476D01*
X108318904Y-61498238D01*
%TO.C,C13*%
D19*
X113973428Y-98225428D02*
X113949238Y-98249619D01*
X113876666Y-98273809D01*
X113828285Y-98273809D01*
X113755714Y-98249619D01*
X113707333Y-98201238D01*
X113683142Y-98152857D01*
X113658952Y-98056095D01*
X113658952Y-97983523D01*
X113683142Y-97886761D01*
X113707333Y-97838380D01*
X113755714Y-97790000D01*
X113828285Y-97765809D01*
X113876666Y-97765809D01*
X113949238Y-97790000D01*
X113973428Y-97814190D01*
X114457238Y-98273809D02*
X114166952Y-98273809D01*
X114312095Y-98273809D02*
X114312095Y-97765809D01*
X114263714Y-97838380D01*
X114215333Y-97886761D01*
X114166952Y-97910952D01*
X114626571Y-97765809D02*
X114941047Y-97765809D01*
X114771714Y-97959333D01*
X114844285Y-97959333D01*
X114892666Y-97983523D01*
X114916857Y-98007714D01*
X114941047Y-98056095D01*
X114941047Y-98177047D01*
X114916857Y-98225428D01*
X114892666Y-98249619D01*
X114844285Y-98273809D01*
X114699142Y-98273809D01*
X114650761Y-98249619D01*
X114626571Y-98225428D01*
X113344476Y-96036190D02*
X113368666Y-96012000D01*
X113417047Y-95987809D01*
X113538000Y-95987809D01*
X113586380Y-96012000D01*
X113610571Y-96036190D01*
X113634761Y-96084571D01*
X113634761Y-96132952D01*
X113610571Y-96205523D01*
X113320285Y-96495809D01*
X113634761Y-96495809D01*
X113852476Y-96447428D02*
X113876666Y-96471619D01*
X113852476Y-96495809D01*
X113828285Y-96471619D01*
X113852476Y-96447428D01*
X113852476Y-96495809D01*
X114070190Y-96036190D02*
X114094380Y-96012000D01*
X114142761Y-95987809D01*
X114263714Y-95987809D01*
X114312095Y-96012000D01*
X114336285Y-96036190D01*
X114360476Y-96084571D01*
X114360476Y-96132952D01*
X114336285Y-96205523D01*
X114046000Y-96495809D01*
X114360476Y-96495809D01*
X114795904Y-96157142D02*
X114795904Y-96495809D01*
X114578190Y-96157142D02*
X114578190Y-96423238D01*
X114602380Y-96471619D01*
X114650761Y-96495809D01*
X114723333Y-96495809D01*
X114771714Y-96471619D01*
X114795904Y-96447428D01*
X115207142Y-96229714D02*
X115037809Y-96229714D01*
X115037809Y-96495809D02*
X115037809Y-95987809D01*
X115279714Y-95987809D01*
%TO.C,C14*%
X113973428Y-95685428D02*
X113949238Y-95709619D01*
X113876666Y-95733809D01*
X113828285Y-95733809D01*
X113755714Y-95709619D01*
X113707333Y-95661238D01*
X113683142Y-95612857D01*
X113658952Y-95516095D01*
X113658952Y-95443523D01*
X113683142Y-95346761D01*
X113707333Y-95298380D01*
X113755714Y-95250000D01*
X113828285Y-95225809D01*
X113876666Y-95225809D01*
X113949238Y-95250000D01*
X113973428Y-95274190D01*
X114457238Y-95733809D02*
X114166952Y-95733809D01*
X114312095Y-95733809D02*
X114312095Y-95225809D01*
X114263714Y-95298380D01*
X114215333Y-95346761D01*
X114166952Y-95370952D01*
X114892666Y-95395142D02*
X114892666Y-95733809D01*
X114771714Y-95201619D02*
X114650761Y-95564476D01*
X114965238Y-95564476D01*
X113465428Y-93447809D02*
X113513809Y-93447809D01*
X113562190Y-93472000D01*
X113586380Y-93496190D01*
X113610571Y-93544571D01*
X113634761Y-93641333D01*
X113634761Y-93762285D01*
X113610571Y-93859047D01*
X113586380Y-93907428D01*
X113562190Y-93931619D01*
X113513809Y-93955809D01*
X113465428Y-93955809D01*
X113417047Y-93931619D01*
X113392857Y-93907428D01*
X113368666Y-93859047D01*
X113344476Y-93762285D01*
X113344476Y-93641333D01*
X113368666Y-93544571D01*
X113392857Y-93496190D01*
X113417047Y-93472000D01*
X113465428Y-93447809D01*
X113852476Y-93907428D02*
X113876666Y-93931619D01*
X113852476Y-93955809D01*
X113828285Y-93931619D01*
X113852476Y-93907428D01*
X113852476Y-93955809D01*
X114360476Y-93955809D02*
X114070190Y-93955809D01*
X114215333Y-93955809D02*
X114215333Y-93447809D01*
X114166952Y-93520380D01*
X114118571Y-93568761D01*
X114070190Y-93592952D01*
X114795904Y-93617142D02*
X114795904Y-93955809D01*
X114578190Y-93617142D02*
X114578190Y-93883238D01*
X114602380Y-93931619D01*
X114650761Y-93955809D01*
X114723333Y-93955809D01*
X114771714Y-93931619D01*
X114795904Y-93907428D01*
X115207142Y-93689714D02*
X115037809Y-93689714D01*
X115037809Y-93955809D02*
X115037809Y-93447809D01*
X115279714Y-93447809D01*
%TO.C,C15*%
X113973428Y-89335428D02*
X113949238Y-89359619D01*
X113876666Y-89383809D01*
X113828285Y-89383809D01*
X113755714Y-89359619D01*
X113707333Y-89311238D01*
X113683142Y-89262857D01*
X113658952Y-89166095D01*
X113658952Y-89093523D01*
X113683142Y-88996761D01*
X113707333Y-88948380D01*
X113755714Y-88900000D01*
X113828285Y-88875809D01*
X113876666Y-88875809D01*
X113949238Y-88900000D01*
X113973428Y-88924190D01*
X114457238Y-89383809D02*
X114166952Y-89383809D01*
X114312095Y-89383809D02*
X114312095Y-88875809D01*
X114263714Y-88948380D01*
X114215333Y-88996761D01*
X114166952Y-89020952D01*
X114916857Y-88875809D02*
X114674952Y-88875809D01*
X114650761Y-89117714D01*
X114674952Y-89093523D01*
X114723333Y-89069333D01*
X114844285Y-89069333D01*
X114892666Y-89093523D01*
X114916857Y-89117714D01*
X114941047Y-89166095D01*
X114941047Y-89287047D01*
X114916857Y-89335428D01*
X114892666Y-89359619D01*
X114844285Y-89383809D01*
X114723333Y-89383809D01*
X114674952Y-89359619D01*
X114650761Y-89335428D01*
X113344476Y-87146190D02*
X113368666Y-87122000D01*
X113417047Y-87097809D01*
X113538000Y-87097809D01*
X113586380Y-87122000D01*
X113610571Y-87146190D01*
X113634761Y-87194571D01*
X113634761Y-87242952D01*
X113610571Y-87315523D01*
X113320285Y-87605809D01*
X113634761Y-87605809D01*
X113852476Y-87557428D02*
X113876666Y-87581619D01*
X113852476Y-87605809D01*
X113828285Y-87581619D01*
X113852476Y-87557428D01*
X113852476Y-87605809D01*
X114070190Y-87146190D02*
X114094380Y-87122000D01*
X114142761Y-87097809D01*
X114263714Y-87097809D01*
X114312095Y-87122000D01*
X114336285Y-87146190D01*
X114360476Y-87194571D01*
X114360476Y-87242952D01*
X114336285Y-87315523D01*
X114046000Y-87605809D01*
X114360476Y-87605809D01*
X114795904Y-87267142D02*
X114795904Y-87605809D01*
X114578190Y-87267142D02*
X114578190Y-87533238D01*
X114602380Y-87581619D01*
X114650761Y-87605809D01*
X114723333Y-87605809D01*
X114771714Y-87581619D01*
X114795904Y-87557428D01*
X115207142Y-87339714D02*
X115037809Y-87339714D01*
X115037809Y-87605809D02*
X115037809Y-87097809D01*
X115279714Y-87097809D01*
%TO.C,C16*%
X114862428Y-75256571D02*
X114886619Y-75280761D01*
X114910809Y-75353333D01*
X114910809Y-75401714D01*
X114886619Y-75474285D01*
X114838238Y-75522666D01*
X114789857Y-75546857D01*
X114693095Y-75571047D01*
X114620523Y-75571047D01*
X114523761Y-75546857D01*
X114475380Y-75522666D01*
X114427000Y-75474285D01*
X114402809Y-75401714D01*
X114402809Y-75353333D01*
X114427000Y-75280761D01*
X114451190Y-75256571D01*
X114910809Y-74772761D02*
X114910809Y-75063047D01*
X114910809Y-74917904D02*
X114402809Y-74917904D01*
X114475380Y-74966285D01*
X114523761Y-75014666D01*
X114547952Y-75063047D01*
X114402809Y-74337333D02*
X114402809Y-74434095D01*
X114427000Y-74482476D01*
X114451190Y-74506666D01*
X114523761Y-74555047D01*
X114620523Y-74579238D01*
X114814047Y-74579238D01*
X114862428Y-74555047D01*
X114886619Y-74530857D01*
X114910809Y-74482476D01*
X114910809Y-74385714D01*
X114886619Y-74337333D01*
X114862428Y-74313142D01*
X114814047Y-74288952D01*
X114693095Y-74288952D01*
X114644714Y-74313142D01*
X114620523Y-74337333D01*
X114596333Y-74385714D01*
X114596333Y-74482476D01*
X114620523Y-74530857D01*
X114644714Y-74555047D01*
X114693095Y-74579238D01*
X116180809Y-76006476D02*
X116180809Y-75958095D01*
X116205000Y-75909714D01*
X116229190Y-75885523D01*
X116277571Y-75861333D01*
X116374333Y-75837142D01*
X116495285Y-75837142D01*
X116592047Y-75861333D01*
X116640428Y-75885523D01*
X116664619Y-75909714D01*
X116688809Y-75958095D01*
X116688809Y-76006476D01*
X116664619Y-76054857D01*
X116640428Y-76079047D01*
X116592047Y-76103238D01*
X116495285Y-76127428D01*
X116374333Y-76127428D01*
X116277571Y-76103238D01*
X116229190Y-76079047D01*
X116205000Y-76054857D01*
X116180809Y-76006476D01*
X116640428Y-75619428D02*
X116664619Y-75595238D01*
X116688809Y-75619428D01*
X116664619Y-75643619D01*
X116640428Y-75619428D01*
X116688809Y-75619428D01*
X116688809Y-75111428D02*
X116688809Y-75401714D01*
X116688809Y-75256571D02*
X116180809Y-75256571D01*
X116253380Y-75304952D01*
X116301761Y-75353333D01*
X116325952Y-75401714D01*
X116180809Y-74651809D02*
X116180809Y-74893714D01*
X116422714Y-74917904D01*
X116398523Y-74893714D01*
X116374333Y-74845333D01*
X116374333Y-74724380D01*
X116398523Y-74676000D01*
X116422714Y-74651809D01*
X116471095Y-74627619D01*
X116592047Y-74627619D01*
X116640428Y-74651809D01*
X116664619Y-74676000D01*
X116688809Y-74724380D01*
X116688809Y-74845333D01*
X116664619Y-74893714D01*
X116640428Y-74917904D01*
X116350142Y-74192190D02*
X116688809Y-74192190D01*
X116350142Y-74409904D02*
X116616238Y-74409904D01*
X116664619Y-74385714D01*
X116688809Y-74337333D01*
X116688809Y-74264761D01*
X116664619Y-74216380D01*
X116640428Y-74192190D01*
X116422714Y-73780952D02*
X116422714Y-73950285D01*
X116688809Y-73950285D02*
X116180809Y-73950285D01*
X116180809Y-73708380D01*
%TD*%
%LPC*%
D23*
%TO.C,P1*%
X123126500Y-58166000D03*
X151193500Y-58166000D03*
D24*
X132080000Y-59944000D03*
X132080000Y-56896000D03*
X134620000Y-59944000D03*
X134620000Y-56896000D03*
X137160000Y-59944000D03*
X137160000Y-56896000D03*
X139700000Y-59944000D03*
X139700000Y-56896000D03*
X142240000Y-59944000D03*
D25*
X142240000Y-56896000D03*
%TD*%
D23*
%TO.C,P2*%
X156146500Y-58166000D03*
X184213500Y-58166000D03*
D24*
X165100000Y-59944000D03*
X165100000Y-56896000D03*
X167640000Y-59944000D03*
X167640000Y-56896000D03*
X170180000Y-59944000D03*
X170180000Y-56896000D03*
X172720000Y-59944000D03*
X172720000Y-56896000D03*
X175260000Y-59944000D03*
D25*
X175260000Y-56896000D03*
%TD*%
D23*
%TO.C,P3*%
X189166500Y-58166000D03*
X217233500Y-58166000D03*
D24*
X198120000Y-59944000D03*
X198120000Y-56896000D03*
X200660000Y-59944000D03*
X200660000Y-56896000D03*
X203200000Y-59944000D03*
X203200000Y-56896000D03*
X205740000Y-59944000D03*
X205740000Y-56896000D03*
X208280000Y-59944000D03*
D25*
X208280000Y-56896000D03*
%TD*%
D26*
%TO.C,L1*%
X122936000Y-81280000D03*
X125984000Y-81280000D03*
%TD*%
D27*
%TO.C,D1*%
X101100000Y-67310000D03*
X102100000Y-67310000D03*
%TD*%
D28*
%TO.C,TEENSY1*%
X92710000Y-53975000D03*
X92710000Y-56515000D03*
X92710000Y-59055000D03*
X92710000Y-61595000D03*
X92710000Y-64135000D03*
X92710000Y-66675000D03*
X92710000Y-69215000D03*
X92710000Y-71755000D03*
X92710000Y-74295000D03*
X92710000Y-76835000D03*
X92710000Y-79375000D03*
X92710000Y-81915000D03*
X92710000Y-84455000D03*
X92710000Y-86995000D03*
X77470000Y-86995000D03*
X77470000Y-84455000D03*
X77470000Y-81915000D03*
X77470000Y-79375000D03*
X77470000Y-76835000D03*
X77470000Y-74295000D03*
X77470000Y-71755000D03*
X77470000Y-69215000D03*
X77470000Y-66675000D03*
X77470000Y-64135000D03*
X77470000Y-61595000D03*
X77470000Y-59055000D03*
X77470000Y-56515000D03*
D29*
X77470000Y-53975000D03*
%TD*%
D30*
%TO.C,C1*%
X148590000Y-80510000D03*
X148590000Y-79510000D03*
%TD*%
D27*
%TO.C,C2*%
X154170000Y-97790000D03*
X153170000Y-97790000D03*
%TD*%
%TO.C,C3*%
X136660000Y-68580000D03*
X137660000Y-68580000D03*
%TD*%
%TO.C,C4*%
X72890000Y-66040000D03*
X71890000Y-66040000D03*
%TD*%
%TO.C,C5*%
X169680000Y-68580000D03*
X170680000Y-68580000D03*
%TD*%
%TO.C,C6*%
X97290000Y-81915000D03*
X98290000Y-81915000D03*
%TD*%
%TO.C,C7*%
X202700000Y-68580000D03*
X203700000Y-68580000D03*
%TD*%
%TO.C,C8*%
X97290000Y-76835000D03*
X98290000Y-76835000D03*
%TD*%
%TO.C,C9*%
X102100000Y-73660000D03*
X101100000Y-73660000D03*
%TD*%
%TO.C,C10*%
X123960000Y-86360000D03*
X124960000Y-86360000D03*
%TD*%
%TO.C,C11*%
X124960000Y-77470000D03*
X123960000Y-77470000D03*
%TD*%
%TO.C,C12*%
X124960000Y-74930000D03*
X123960000Y-74930000D03*
%TD*%
D31*
%TO.C,CLK1*%
X151570000Y-77470000D03*
X151570000Y-82550000D03*
X155770000Y-82550000D03*
X155770000Y-77470000D03*
%TD*%
D32*
%TO.C,FID1*%
X72390000Y-60960000D03*
%TD*%
%TO.C,FID2*%
X224790000Y-60960000D03*
%TD*%
%TO.C,FID3*%
X224790000Y-99060000D03*
%TD*%
%TO.C,FID4*%
X72390000Y-99060000D03*
%TD*%
D33*
%TO.C,J1*%
X110600000Y-55740000D03*
X118000000Y-57740000D03*
D34*
X110600000Y-65140000D03*
D35*
X114300000Y-56840000D03*
X114300000Y-63840000D03*
%TD*%
D36*
%TO.C,MH1*%
X72390000Y-54610000D03*
%TD*%
%TO.C,MH2*%
X224790000Y-54610000D03*
%TD*%
%TO.C,MH3*%
X224790000Y-105410000D03*
%TD*%
%TO.C,MH4*%
X72390000Y-105410000D03*
%TD*%
D30*
%TO.C,R1*%
X132080000Y-70620000D03*
X132080000Y-71620000D03*
%TD*%
%TO.C,R2*%
X132080000Y-77970000D03*
X132080000Y-76970000D03*
%TD*%
%TO.C,R3*%
X165100000Y-70620000D03*
X165100000Y-71620000D03*
%TD*%
%TO.C,R4*%
X165100000Y-77970000D03*
X165100000Y-76970000D03*
%TD*%
%TO.C,R5*%
X198120000Y-70620000D03*
X198120000Y-71620000D03*
%TD*%
%TO.C,R6*%
X198120000Y-77970000D03*
X198120000Y-76970000D03*
%TD*%
D27*
%TO.C,R7*%
X97290000Y-74295000D03*
X98290000Y-74295000D03*
%TD*%
%TO.C,R8*%
X97290000Y-71755000D03*
X98290000Y-71755000D03*
%TD*%
D37*
%TO.C,U2*%
X139860000Y-70485000D03*
X139860000Y-71755000D03*
X139860000Y-73025000D03*
X139860000Y-74295000D03*
X139860000Y-75565000D03*
X139860000Y-76835000D03*
X139860000Y-78105000D03*
X139860000Y-79375000D03*
X134460000Y-79375000D03*
X134460000Y-78105000D03*
X134460000Y-76835000D03*
X134460000Y-75565000D03*
X134460000Y-74295000D03*
X134460000Y-73025000D03*
X134460000Y-71755000D03*
X134460000Y-70485000D03*
%TD*%
D38*
%TO.C,U3*%
X72025000Y-63500000D03*
X72025000Y-63850000D03*
X72025000Y-63150000D03*
X72755000Y-63150000D03*
X72755000Y-63500000D03*
X72755000Y-63850000D03*
%TD*%
D37*
%TO.C,U4*%
X172880000Y-70485000D03*
X172880000Y-71755000D03*
X172880000Y-73025000D03*
X172880000Y-74295000D03*
X172880000Y-75565000D03*
X172880000Y-76835000D03*
X172880000Y-78105000D03*
X172880000Y-79375000D03*
X167480000Y-79375000D03*
X167480000Y-78105000D03*
X167480000Y-76835000D03*
X167480000Y-75565000D03*
X167480000Y-74295000D03*
X167480000Y-73025000D03*
X167480000Y-71755000D03*
X167480000Y-70485000D03*
%TD*%
D38*
%TO.C,U5*%
X98155000Y-84455000D03*
X98155000Y-84105000D03*
X98155000Y-84805000D03*
X97425000Y-84805000D03*
X97425000Y-84455000D03*
X97425000Y-84105000D03*
%TD*%
D37*
%TO.C,U6*%
X205900000Y-70485000D03*
X205900000Y-71755000D03*
X205900000Y-73025000D03*
X205900000Y-74295000D03*
X205900000Y-75565000D03*
X205900000Y-76835000D03*
X205900000Y-78105000D03*
X205900000Y-79375000D03*
X200500000Y-79375000D03*
X200500000Y-78105000D03*
X200500000Y-76835000D03*
X200500000Y-75565000D03*
X200500000Y-74295000D03*
X200500000Y-73025000D03*
X200500000Y-71755000D03*
X200500000Y-70485000D03*
%TD*%
D38*
%TO.C,U7*%
X98155000Y-79375000D03*
X98155000Y-79025000D03*
X98155000Y-79725000D03*
X97425000Y-79725000D03*
X97425000Y-79375000D03*
X97425000Y-79025000D03*
%TD*%
D39*
%TO.C,U8*%
X101600000Y-71385000D03*
X102250000Y-71385000D03*
X100950000Y-71385000D03*
X100950000Y-69585000D03*
X101600000Y-69585000D03*
X102250000Y-69585000D03*
%TD*%
D40*
%TO.C,U9*%
X113101120Y-91440000D03*
X115498880Y-90490040D03*
X115498880Y-92389960D03*
%TD*%
D41*
%TO.C,U1*%
X153670000Y-92710000D03*
G36*
G01*
X155732500Y-90835000D02*
X156482500Y-90835000D01*
G75*
G02*
X156545000Y-90897500I0J-62500D01*
G01*
X156545000Y-91022500D01*
G75*
G02*
X156482500Y-91085000I-62500J0D01*
G01*
X155732500Y-91085000D01*
G75*
G02*
X155670000Y-91022500I0J62500D01*
G01*
X155670000Y-90897500D01*
G75*
G02*
X155732500Y-90835000I62500J0D01*
G01*
G37*
G36*
G01*
X155732500Y-91335000D02*
X156482500Y-91335000D01*
G75*
G02*
X156545000Y-91397500I0J-62500D01*
G01*
X156545000Y-91522500D01*
G75*
G02*
X156482500Y-91585000I-62500J0D01*
G01*
X155732500Y-91585000D01*
G75*
G02*
X155670000Y-91522500I0J62500D01*
G01*
X155670000Y-91397500D01*
G75*
G02*
X155732500Y-91335000I62500J0D01*
G01*
G37*
G36*
G01*
X155732500Y-91835000D02*
X156482500Y-91835000D01*
G75*
G02*
X156545000Y-91897500I0J-62500D01*
G01*
X156545000Y-92022500D01*
G75*
G02*
X156482500Y-92085000I-62500J0D01*
G01*
X155732500Y-92085000D01*
G75*
G02*
X155670000Y-92022500I0J62500D01*
G01*
X155670000Y-91897500D01*
G75*
G02*
X155732500Y-91835000I62500J0D01*
G01*
G37*
G36*
G01*
X155732500Y-92335000D02*
X156482500Y-92335000D01*
G75*
G02*
X156545000Y-92397500I0J-62500D01*
G01*
X156545000Y-92522500D01*
G75*
G02*
X156482500Y-92585000I-62500J0D01*
G01*
X155732500Y-92585000D01*
G75*
G02*
X155670000Y-92522500I0J62500D01*
G01*
X155670000Y-92397500D01*
G75*
G02*
X155732500Y-92335000I62500J0D01*
G01*
G37*
G36*
G01*
X155732500Y-92835000D02*
X156482500Y-92835000D01*
G75*
G02*
X156545000Y-92897500I0J-62500D01*
G01*
X156545000Y-93022500D01*
G75*
G02*
X156482500Y-93085000I-62500J0D01*
G01*
X155732500Y-93085000D01*
G75*
G02*
X155670000Y-93022500I0J62500D01*
G01*
X155670000Y-92897500D01*
G75*
G02*
X155732500Y-92835000I62500J0D01*
G01*
G37*
G36*
G01*
X155732500Y-93335000D02*
X156482500Y-93335000D01*
G75*
G02*
X156545000Y-93397500I0J-62500D01*
G01*
X156545000Y-93522500D01*
G75*
G02*
X156482500Y-93585000I-62500J0D01*
G01*
X155732500Y-93585000D01*
G75*
G02*
X155670000Y-93522500I0J62500D01*
G01*
X155670000Y-93397500D01*
G75*
G02*
X155732500Y-93335000I62500J0D01*
G01*
G37*
G36*
G01*
X155732500Y-93835000D02*
X156482500Y-93835000D01*
G75*
G02*
X156545000Y-93897500I0J-62500D01*
G01*
X156545000Y-94022500D01*
G75*
G02*
X156482500Y-94085000I-62500J0D01*
G01*
X155732500Y-94085000D01*
G75*
G02*
X155670000Y-94022500I0J62500D01*
G01*
X155670000Y-93897500D01*
G75*
G02*
X155732500Y-93835000I62500J0D01*
G01*
G37*
G36*
G01*
X155732500Y-94335000D02*
X156482500Y-94335000D01*
G75*
G02*
X156545000Y-94397500I0J-62500D01*
G01*
X156545000Y-94522500D01*
G75*
G02*
X156482500Y-94585000I-62500J0D01*
G01*
X155732500Y-94585000D01*
G75*
G02*
X155670000Y-94522500I0J62500D01*
G01*
X155670000Y-94397500D01*
G75*
G02*
X155732500Y-94335000I62500J0D01*
G01*
G37*
G36*
G01*
X155357500Y-94710000D02*
X155482500Y-94710000D01*
G75*
G02*
X155545000Y-94772500I0J-62500D01*
G01*
X155545000Y-95522500D01*
G75*
G02*
X155482500Y-95585000I-62500J0D01*
G01*
X155357500Y-95585000D01*
G75*
G02*
X155295000Y-95522500I0J62500D01*
G01*
X155295000Y-94772500D01*
G75*
G02*
X155357500Y-94710000I62500J0D01*
G01*
G37*
G36*
G01*
X154857500Y-94710000D02*
X154982500Y-94710000D01*
G75*
G02*
X155045000Y-94772500I0J-62500D01*
G01*
X155045000Y-95522500D01*
G75*
G02*
X154982500Y-95585000I-62500J0D01*
G01*
X154857500Y-95585000D01*
G75*
G02*
X154795000Y-95522500I0J62500D01*
G01*
X154795000Y-94772500D01*
G75*
G02*
X154857500Y-94710000I62500J0D01*
G01*
G37*
G36*
G01*
X154357500Y-94710000D02*
X154482500Y-94710000D01*
G75*
G02*
X154545000Y-94772500I0J-62500D01*
G01*
X154545000Y-95522500D01*
G75*
G02*
X154482500Y-95585000I-62500J0D01*
G01*
X154357500Y-95585000D01*
G75*
G02*
X154295000Y-95522500I0J62500D01*
G01*
X154295000Y-94772500D01*
G75*
G02*
X154357500Y-94710000I62500J0D01*
G01*
G37*
G36*
G01*
X153857500Y-94710000D02*
X153982500Y-94710000D01*
G75*
G02*
X154045000Y-94772500I0J-62500D01*
G01*
X154045000Y-95522500D01*
G75*
G02*
X153982500Y-95585000I-62500J0D01*
G01*
X153857500Y-95585000D01*
G75*
G02*
X153795000Y-95522500I0J62500D01*
G01*
X153795000Y-94772500D01*
G75*
G02*
X153857500Y-94710000I62500J0D01*
G01*
G37*
G36*
G01*
X153357500Y-94710000D02*
X153482500Y-94710000D01*
G75*
G02*
X153545000Y-94772500I0J-62500D01*
G01*
X153545000Y-95522500D01*
G75*
G02*
X153482500Y-95585000I-62500J0D01*
G01*
X153357500Y-95585000D01*
G75*
G02*
X153295000Y-95522500I0J62500D01*
G01*
X153295000Y-94772500D01*
G75*
G02*
X153357500Y-94710000I62500J0D01*
G01*
G37*
G36*
G01*
X152857500Y-94710000D02*
X152982500Y-94710000D01*
G75*
G02*
X153045000Y-94772500I0J-62500D01*
G01*
X153045000Y-95522500D01*
G75*
G02*
X152982500Y-95585000I-62500J0D01*
G01*
X152857500Y-95585000D01*
G75*
G02*
X152795000Y-95522500I0J62500D01*
G01*
X152795000Y-94772500D01*
G75*
G02*
X152857500Y-94710000I62500J0D01*
G01*
G37*
G36*
G01*
X152357500Y-94710000D02*
X152482500Y-94710000D01*
G75*
G02*
X152545000Y-94772500I0J-62500D01*
G01*
X152545000Y-95522500D01*
G75*
G02*
X152482500Y-95585000I-62500J0D01*
G01*
X152357500Y-95585000D01*
G75*
G02*
X152295000Y-95522500I0J62500D01*
G01*
X152295000Y-94772500D01*
G75*
G02*
X152357500Y-94710000I62500J0D01*
G01*
G37*
G36*
G01*
X151857500Y-94710000D02*
X151982500Y-94710000D01*
G75*
G02*
X152045000Y-94772500I0J-62500D01*
G01*
X152045000Y-95522500D01*
G75*
G02*
X151982500Y-95585000I-62500J0D01*
G01*
X151857500Y-95585000D01*
G75*
G02*
X151795000Y-95522500I0J62500D01*
G01*
X151795000Y-94772500D01*
G75*
G02*
X151857500Y-94710000I62500J0D01*
G01*
G37*
G36*
G01*
X150857500Y-94335000D02*
X151607500Y-94335000D01*
G75*
G02*
X151670000Y-94397500I0J-62500D01*
G01*
X151670000Y-94522500D01*
G75*
G02*
X151607500Y-94585000I-62500J0D01*
G01*
X150857500Y-94585000D01*
G75*
G02*
X150795000Y-94522500I0J62500D01*
G01*
X150795000Y-94397500D01*
G75*
G02*
X150857500Y-94335000I62500J0D01*
G01*
G37*
G36*
G01*
X150857500Y-93835000D02*
X151607500Y-93835000D01*
G75*
G02*
X151670000Y-93897500I0J-62500D01*
G01*
X151670000Y-94022500D01*
G75*
G02*
X151607500Y-94085000I-62500J0D01*
G01*
X150857500Y-94085000D01*
G75*
G02*
X150795000Y-94022500I0J62500D01*
G01*
X150795000Y-93897500D01*
G75*
G02*
X150857500Y-93835000I62500J0D01*
G01*
G37*
G36*
G01*
X150857500Y-93335000D02*
X151607500Y-93335000D01*
G75*
G02*
X151670000Y-93397500I0J-62500D01*
G01*
X151670000Y-93522500D01*
G75*
G02*
X151607500Y-93585000I-62500J0D01*
G01*
X150857500Y-93585000D01*
G75*
G02*
X150795000Y-93522500I0J62500D01*
G01*
X150795000Y-93397500D01*
G75*
G02*
X150857500Y-93335000I62500J0D01*
G01*
G37*
G36*
G01*
X150857500Y-92835000D02*
X151607500Y-92835000D01*
G75*
G02*
X151670000Y-92897500I0J-62500D01*
G01*
X151670000Y-93022500D01*
G75*
G02*
X151607500Y-93085000I-62500J0D01*
G01*
X150857500Y-93085000D01*
G75*
G02*
X150795000Y-93022500I0J62500D01*
G01*
X150795000Y-92897500D01*
G75*
G02*
X150857500Y-92835000I62500J0D01*
G01*
G37*
G36*
G01*
X150857500Y-92335000D02*
X151607500Y-92335000D01*
G75*
G02*
X151670000Y-92397500I0J-62500D01*
G01*
X151670000Y-92522500D01*
G75*
G02*
X151607500Y-92585000I-62500J0D01*
G01*
X150857500Y-92585000D01*
G75*
G02*
X150795000Y-92522500I0J62500D01*
G01*
X150795000Y-92397500D01*
G75*
G02*
X150857500Y-92335000I62500J0D01*
G01*
G37*
G36*
G01*
X150857500Y-91835000D02*
X151607500Y-91835000D01*
G75*
G02*
X151670000Y-91897500I0J-62500D01*
G01*
X151670000Y-92022500D01*
G75*
G02*
X151607500Y-92085000I-62500J0D01*
G01*
X150857500Y-92085000D01*
G75*
G02*
X150795000Y-92022500I0J62500D01*
G01*
X150795000Y-91897500D01*
G75*
G02*
X150857500Y-91835000I62500J0D01*
G01*
G37*
G36*
G01*
X150857500Y-91335000D02*
X151607500Y-91335000D01*
G75*
G02*
X151670000Y-91397500I0J-62500D01*
G01*
X151670000Y-91522500D01*
G75*
G02*
X151607500Y-91585000I-62500J0D01*
G01*
X150857500Y-91585000D01*
G75*
G02*
X150795000Y-91522500I0J62500D01*
G01*
X150795000Y-91397500D01*
G75*
G02*
X150857500Y-91335000I62500J0D01*
G01*
G37*
G36*
G01*
X150857500Y-90835000D02*
X151607500Y-90835000D01*
G75*
G02*
X151670000Y-90897500I0J-62500D01*
G01*
X151670000Y-91022500D01*
G75*
G02*
X151607500Y-91085000I-62500J0D01*
G01*
X150857500Y-91085000D01*
G75*
G02*
X150795000Y-91022500I0J62500D01*
G01*
X150795000Y-90897500D01*
G75*
G02*
X150857500Y-90835000I62500J0D01*
G01*
G37*
G36*
G01*
X151857500Y-89835000D02*
X151982500Y-89835000D01*
G75*
G02*
X152045000Y-89897500I0J-62500D01*
G01*
X152045000Y-90647500D01*
G75*
G02*
X151982500Y-90710000I-62500J0D01*
G01*
X151857500Y-90710000D01*
G75*
G02*
X151795000Y-90647500I0J62500D01*
G01*
X151795000Y-89897500D01*
G75*
G02*
X151857500Y-89835000I62500J0D01*
G01*
G37*
G36*
G01*
X152357500Y-89835000D02*
X152482500Y-89835000D01*
G75*
G02*
X152545000Y-89897500I0J-62500D01*
G01*
X152545000Y-90647500D01*
G75*
G02*
X152482500Y-90710000I-62500J0D01*
G01*
X152357500Y-90710000D01*
G75*
G02*
X152295000Y-90647500I0J62500D01*
G01*
X152295000Y-89897500D01*
G75*
G02*
X152357500Y-89835000I62500J0D01*
G01*
G37*
G36*
G01*
X152857500Y-89835000D02*
X152982500Y-89835000D01*
G75*
G02*
X153045000Y-89897500I0J-62500D01*
G01*
X153045000Y-90647500D01*
G75*
G02*
X152982500Y-90710000I-62500J0D01*
G01*
X152857500Y-90710000D01*
G75*
G02*
X152795000Y-90647500I0J62500D01*
G01*
X152795000Y-89897500D01*
G75*
G02*
X152857500Y-89835000I62500J0D01*
G01*
G37*
G36*
G01*
X153357500Y-89835000D02*
X153482500Y-89835000D01*
G75*
G02*
X153545000Y-89897500I0J-62500D01*
G01*
X153545000Y-90647500D01*
G75*
G02*
X153482500Y-90710000I-62500J0D01*
G01*
X153357500Y-90710000D01*
G75*
G02*
X153295000Y-90647500I0J62500D01*
G01*
X153295000Y-89897500D01*
G75*
G02*
X153357500Y-89835000I62500J0D01*
G01*
G37*
G36*
G01*
X153857500Y-89835000D02*
X153982500Y-89835000D01*
G75*
G02*
X154045000Y-89897500I0J-62500D01*
G01*
X154045000Y-90647500D01*
G75*
G02*
X153982500Y-90710000I-62500J0D01*
G01*
X153857500Y-90710000D01*
G75*
G02*
X153795000Y-90647500I0J62500D01*
G01*
X153795000Y-89897500D01*
G75*
G02*
X153857500Y-89835000I62500J0D01*
G01*
G37*
G36*
G01*
X154357500Y-89835000D02*
X154482500Y-89835000D01*
G75*
G02*
X154545000Y-89897500I0J-62500D01*
G01*
X154545000Y-90647500D01*
G75*
G02*
X154482500Y-90710000I-62500J0D01*
G01*
X154357500Y-90710000D01*
G75*
G02*
X154295000Y-90647500I0J62500D01*
G01*
X154295000Y-89897500D01*
G75*
G02*
X154357500Y-89835000I62500J0D01*
G01*
G37*
G36*
G01*
X154857500Y-89835000D02*
X154982500Y-89835000D01*
G75*
G02*
X155045000Y-89897500I0J-62500D01*
G01*
X155045000Y-90647500D01*
G75*
G02*
X154982500Y-90710000I-62500J0D01*
G01*
X154857500Y-90710000D01*
G75*
G02*
X154795000Y-90647500I0J62500D01*
G01*
X154795000Y-89897500D01*
G75*
G02*
X154857500Y-89835000I62500J0D01*
G01*
G37*
G36*
G01*
X155357500Y-89835000D02*
X155482500Y-89835000D01*
G75*
G02*
X155545000Y-89897500I0J-62500D01*
G01*
X155545000Y-90647500D01*
G75*
G02*
X155482500Y-90710000I-62500J0D01*
G01*
X155357500Y-90710000D01*
G75*
G02*
X155295000Y-90647500I0J62500D01*
G01*
X155295000Y-89897500D01*
G75*
G02*
X155357500Y-89835000I62500J0D01*
G01*
G37*
%TD*%
%TO.C,U10*%
X114300000Y-81280000D03*
G36*
G01*
X116175000Y-83342500D02*
X116175000Y-84092500D01*
G75*
G02*
X116112500Y-84155000I-62500J0D01*
G01*
X115987500Y-84155000D01*
G75*
G02*
X115925000Y-84092500I0J62500D01*
G01*
X115925000Y-83342500D01*
G75*
G02*
X115987500Y-83280000I62500J0D01*
G01*
X116112500Y-83280000D01*
G75*
G02*
X116175000Y-83342500I0J-62500D01*
G01*
G37*
G36*
G01*
X115675000Y-83342500D02*
X115675000Y-84092500D01*
G75*
G02*
X115612500Y-84155000I-62500J0D01*
G01*
X115487500Y-84155000D01*
G75*
G02*
X115425000Y-84092500I0J62500D01*
G01*
X115425000Y-83342500D01*
G75*
G02*
X115487500Y-83280000I62500J0D01*
G01*
X115612500Y-83280000D01*
G75*
G02*
X115675000Y-83342500I0J-62500D01*
G01*
G37*
G36*
G01*
X115175000Y-83342500D02*
X115175000Y-84092500D01*
G75*
G02*
X115112500Y-84155000I-62500J0D01*
G01*
X114987500Y-84155000D01*
G75*
G02*
X114925000Y-84092500I0J62500D01*
G01*
X114925000Y-83342500D01*
G75*
G02*
X114987500Y-83280000I62500J0D01*
G01*
X115112500Y-83280000D01*
G75*
G02*
X115175000Y-83342500I0J-62500D01*
G01*
G37*
G36*
G01*
X114675000Y-83342500D02*
X114675000Y-84092500D01*
G75*
G02*
X114612500Y-84155000I-62500J0D01*
G01*
X114487500Y-84155000D01*
G75*
G02*
X114425000Y-84092500I0J62500D01*
G01*
X114425000Y-83342500D01*
G75*
G02*
X114487500Y-83280000I62500J0D01*
G01*
X114612500Y-83280000D01*
G75*
G02*
X114675000Y-83342500I0J-62500D01*
G01*
G37*
G36*
G01*
X114175000Y-83342500D02*
X114175000Y-84092500D01*
G75*
G02*
X114112500Y-84155000I-62500J0D01*
G01*
X113987500Y-84155000D01*
G75*
G02*
X113925000Y-84092500I0J62500D01*
G01*
X113925000Y-83342500D01*
G75*
G02*
X113987500Y-83280000I62500J0D01*
G01*
X114112500Y-83280000D01*
G75*
G02*
X114175000Y-83342500I0J-62500D01*
G01*
G37*
G36*
G01*
X113675000Y-83342500D02*
X113675000Y-84092500D01*
G75*
G02*
X113612500Y-84155000I-62500J0D01*
G01*
X113487500Y-84155000D01*
G75*
G02*
X113425000Y-84092500I0J62500D01*
G01*
X113425000Y-83342500D01*
G75*
G02*
X113487500Y-83280000I62500J0D01*
G01*
X113612500Y-83280000D01*
G75*
G02*
X113675000Y-83342500I0J-62500D01*
G01*
G37*
G36*
G01*
X113175000Y-83342500D02*
X113175000Y-84092500D01*
G75*
G02*
X113112500Y-84155000I-62500J0D01*
G01*
X112987500Y-84155000D01*
G75*
G02*
X112925000Y-84092500I0J62500D01*
G01*
X112925000Y-83342500D01*
G75*
G02*
X112987500Y-83280000I62500J0D01*
G01*
X113112500Y-83280000D01*
G75*
G02*
X113175000Y-83342500I0J-62500D01*
G01*
G37*
G36*
G01*
X112675000Y-83342500D02*
X112675000Y-84092500D01*
G75*
G02*
X112612500Y-84155000I-62500J0D01*
G01*
X112487500Y-84155000D01*
G75*
G02*
X112425000Y-84092500I0J62500D01*
G01*
X112425000Y-83342500D01*
G75*
G02*
X112487500Y-83280000I62500J0D01*
G01*
X112612500Y-83280000D01*
G75*
G02*
X112675000Y-83342500I0J-62500D01*
G01*
G37*
G36*
G01*
X112300000Y-82967500D02*
X112300000Y-83092500D01*
G75*
G02*
X112237500Y-83155000I-62500J0D01*
G01*
X111487500Y-83155000D01*
G75*
G02*
X111425000Y-83092500I0J62500D01*
G01*
X111425000Y-82967500D01*
G75*
G02*
X111487500Y-82905000I62500J0D01*
G01*
X112237500Y-82905000D01*
G75*
G02*
X112300000Y-82967500I0J-62500D01*
G01*
G37*
G36*
G01*
X112300000Y-82467500D02*
X112300000Y-82592500D01*
G75*
G02*
X112237500Y-82655000I-62500J0D01*
G01*
X111487500Y-82655000D01*
G75*
G02*
X111425000Y-82592500I0J62500D01*
G01*
X111425000Y-82467500D01*
G75*
G02*
X111487500Y-82405000I62500J0D01*
G01*
X112237500Y-82405000D01*
G75*
G02*
X112300000Y-82467500I0J-62500D01*
G01*
G37*
G36*
G01*
X112300000Y-81967500D02*
X112300000Y-82092500D01*
G75*
G02*
X112237500Y-82155000I-62500J0D01*
G01*
X111487500Y-82155000D01*
G75*
G02*
X111425000Y-82092500I0J62500D01*
G01*
X111425000Y-81967500D01*
G75*
G02*
X111487500Y-81905000I62500J0D01*
G01*
X112237500Y-81905000D01*
G75*
G02*
X112300000Y-81967500I0J-62500D01*
G01*
G37*
G36*
G01*
X112300000Y-81467500D02*
X112300000Y-81592500D01*
G75*
G02*
X112237500Y-81655000I-62500J0D01*
G01*
X111487500Y-81655000D01*
G75*
G02*
X111425000Y-81592500I0J62500D01*
G01*
X111425000Y-81467500D01*
G75*
G02*
X111487500Y-81405000I62500J0D01*
G01*
X112237500Y-81405000D01*
G75*
G02*
X112300000Y-81467500I0J-62500D01*
G01*
G37*
G36*
G01*
X112300000Y-80967500D02*
X112300000Y-81092500D01*
G75*
G02*
X112237500Y-81155000I-62500J0D01*
G01*
X111487500Y-81155000D01*
G75*
G02*
X111425000Y-81092500I0J62500D01*
G01*
X111425000Y-80967500D01*
G75*
G02*
X111487500Y-80905000I62500J0D01*
G01*
X112237500Y-80905000D01*
G75*
G02*
X112300000Y-80967500I0J-62500D01*
G01*
G37*
G36*
G01*
X112300000Y-80467500D02*
X112300000Y-80592500D01*
G75*
G02*
X112237500Y-80655000I-62500J0D01*
G01*
X111487500Y-80655000D01*
G75*
G02*
X111425000Y-80592500I0J62500D01*
G01*
X111425000Y-80467500D01*
G75*
G02*
X111487500Y-80405000I62500J0D01*
G01*
X112237500Y-80405000D01*
G75*
G02*
X112300000Y-80467500I0J-62500D01*
G01*
G37*
G36*
G01*
X112300000Y-79967500D02*
X112300000Y-80092500D01*
G75*
G02*
X112237500Y-80155000I-62500J0D01*
G01*
X111487500Y-80155000D01*
G75*
G02*
X111425000Y-80092500I0J62500D01*
G01*
X111425000Y-79967500D01*
G75*
G02*
X111487500Y-79905000I62500J0D01*
G01*
X112237500Y-79905000D01*
G75*
G02*
X112300000Y-79967500I0J-62500D01*
G01*
G37*
G36*
G01*
X112300000Y-79467500D02*
X112300000Y-79592500D01*
G75*
G02*
X112237500Y-79655000I-62500J0D01*
G01*
X111487500Y-79655000D01*
G75*
G02*
X111425000Y-79592500I0J62500D01*
G01*
X111425000Y-79467500D01*
G75*
G02*
X111487500Y-79405000I62500J0D01*
G01*
X112237500Y-79405000D01*
G75*
G02*
X112300000Y-79467500I0J-62500D01*
G01*
G37*
G36*
G01*
X112675000Y-78467500D02*
X112675000Y-79217500D01*
G75*
G02*
X112612500Y-79280000I-62500J0D01*
G01*
X112487500Y-79280000D01*
G75*
G02*
X112425000Y-79217500I0J62500D01*
G01*
X112425000Y-78467500D01*
G75*
G02*
X112487500Y-78405000I62500J0D01*
G01*
X112612500Y-78405000D01*
G75*
G02*
X112675000Y-78467500I0J-62500D01*
G01*
G37*
G36*
G01*
X113175000Y-78467500D02*
X113175000Y-79217500D01*
G75*
G02*
X113112500Y-79280000I-62500J0D01*
G01*
X112987500Y-79280000D01*
G75*
G02*
X112925000Y-79217500I0J62500D01*
G01*
X112925000Y-78467500D01*
G75*
G02*
X112987500Y-78405000I62500J0D01*
G01*
X113112500Y-78405000D01*
G75*
G02*
X113175000Y-78467500I0J-62500D01*
G01*
G37*
G36*
G01*
X113675000Y-78467500D02*
X113675000Y-79217500D01*
G75*
G02*
X113612500Y-79280000I-62500J0D01*
G01*
X113487500Y-79280000D01*
G75*
G02*
X113425000Y-79217500I0J62500D01*
G01*
X113425000Y-78467500D01*
G75*
G02*
X113487500Y-78405000I62500J0D01*
G01*
X113612500Y-78405000D01*
G75*
G02*
X113675000Y-78467500I0J-62500D01*
G01*
G37*
G36*
G01*
X114175000Y-78467500D02*
X114175000Y-79217500D01*
G75*
G02*
X114112500Y-79280000I-62500J0D01*
G01*
X113987500Y-79280000D01*
G75*
G02*
X113925000Y-79217500I0J62500D01*
G01*
X113925000Y-78467500D01*
G75*
G02*
X113987500Y-78405000I62500J0D01*
G01*
X114112500Y-78405000D01*
G75*
G02*
X114175000Y-78467500I0J-62500D01*
G01*
G37*
G36*
G01*
X114675000Y-78467500D02*
X114675000Y-79217500D01*
G75*
G02*
X114612500Y-79280000I-62500J0D01*
G01*
X114487500Y-79280000D01*
G75*
G02*
X114425000Y-79217500I0J62500D01*
G01*
X114425000Y-78467500D01*
G75*
G02*
X114487500Y-78405000I62500J0D01*
G01*
X114612500Y-78405000D01*
G75*
G02*
X114675000Y-78467500I0J-62500D01*
G01*
G37*
G36*
G01*
X115175000Y-78467500D02*
X115175000Y-79217500D01*
G75*
G02*
X115112500Y-79280000I-62500J0D01*
G01*
X114987500Y-79280000D01*
G75*
G02*
X114925000Y-79217500I0J62500D01*
G01*
X114925000Y-78467500D01*
G75*
G02*
X114987500Y-78405000I62500J0D01*
G01*
X115112500Y-78405000D01*
G75*
G02*
X115175000Y-78467500I0J-62500D01*
G01*
G37*
G36*
G01*
X115675000Y-78467500D02*
X115675000Y-79217500D01*
G75*
G02*
X115612500Y-79280000I-62500J0D01*
G01*
X115487500Y-79280000D01*
G75*
G02*
X115425000Y-79217500I0J62500D01*
G01*
X115425000Y-78467500D01*
G75*
G02*
X115487500Y-78405000I62500J0D01*
G01*
X115612500Y-78405000D01*
G75*
G02*
X115675000Y-78467500I0J-62500D01*
G01*
G37*
G36*
G01*
X116175000Y-78467500D02*
X116175000Y-79217500D01*
G75*
G02*
X116112500Y-79280000I-62500J0D01*
G01*
X115987500Y-79280000D01*
G75*
G02*
X115925000Y-79217500I0J62500D01*
G01*
X115925000Y-78467500D01*
G75*
G02*
X115987500Y-78405000I62500J0D01*
G01*
X116112500Y-78405000D01*
G75*
G02*
X116175000Y-78467500I0J-62500D01*
G01*
G37*
G36*
G01*
X117175000Y-79467500D02*
X117175000Y-79592500D01*
G75*
G02*
X117112500Y-79655000I-62500J0D01*
G01*
X116362500Y-79655000D01*
G75*
G02*
X116300000Y-79592500I0J62500D01*
G01*
X116300000Y-79467500D01*
G75*
G02*
X116362500Y-79405000I62500J0D01*
G01*
X117112500Y-79405000D01*
G75*
G02*
X117175000Y-79467500I0J-62500D01*
G01*
G37*
G36*
G01*
X117175000Y-79967500D02*
X117175000Y-80092500D01*
G75*
G02*
X117112500Y-80155000I-62500J0D01*
G01*
X116362500Y-80155000D01*
G75*
G02*
X116300000Y-80092500I0J62500D01*
G01*
X116300000Y-79967500D01*
G75*
G02*
X116362500Y-79905000I62500J0D01*
G01*
X117112500Y-79905000D01*
G75*
G02*
X117175000Y-79967500I0J-62500D01*
G01*
G37*
G36*
G01*
X117175000Y-80467500D02*
X117175000Y-80592500D01*
G75*
G02*
X117112500Y-80655000I-62500J0D01*
G01*
X116362500Y-80655000D01*
G75*
G02*
X116300000Y-80592500I0J62500D01*
G01*
X116300000Y-80467500D01*
G75*
G02*
X116362500Y-80405000I62500J0D01*
G01*
X117112500Y-80405000D01*
G75*
G02*
X117175000Y-80467500I0J-62500D01*
G01*
G37*
G36*
G01*
X117175000Y-80967500D02*
X117175000Y-81092500D01*
G75*
G02*
X117112500Y-81155000I-62500J0D01*
G01*
X116362500Y-81155000D01*
G75*
G02*
X116300000Y-81092500I0J62500D01*
G01*
X116300000Y-80967500D01*
G75*
G02*
X116362500Y-80905000I62500J0D01*
G01*
X117112500Y-80905000D01*
G75*
G02*
X117175000Y-80967500I0J-62500D01*
G01*
G37*
G36*
G01*
X117175000Y-81467500D02*
X117175000Y-81592500D01*
G75*
G02*
X117112500Y-81655000I-62500J0D01*
G01*
X116362500Y-81655000D01*
G75*
G02*
X116300000Y-81592500I0J62500D01*
G01*
X116300000Y-81467500D01*
G75*
G02*
X116362500Y-81405000I62500J0D01*
G01*
X117112500Y-81405000D01*
G75*
G02*
X117175000Y-81467500I0J-62500D01*
G01*
G37*
G36*
G01*
X117175000Y-81967500D02*
X117175000Y-82092500D01*
G75*
G02*
X117112500Y-82155000I-62500J0D01*
G01*
X116362500Y-82155000D01*
G75*
G02*
X116300000Y-82092500I0J62500D01*
G01*
X116300000Y-81967500D01*
G75*
G02*
X116362500Y-81905000I62500J0D01*
G01*
X117112500Y-81905000D01*
G75*
G02*
X117175000Y-81967500I0J-62500D01*
G01*
G37*
G36*
G01*
X117175000Y-82467500D02*
X117175000Y-82592500D01*
G75*
G02*
X117112500Y-82655000I-62500J0D01*
G01*
X116362500Y-82655000D01*
G75*
G02*
X116300000Y-82592500I0J62500D01*
G01*
X116300000Y-82467500D01*
G75*
G02*
X116362500Y-82405000I62500J0D01*
G01*
X117112500Y-82405000D01*
G75*
G02*
X117175000Y-82467500I0J-62500D01*
G01*
G37*
G36*
G01*
X117175000Y-82967500D02*
X117175000Y-83092500D01*
G75*
G02*
X117112500Y-83155000I-62500J0D01*
G01*
X116362500Y-83155000D01*
G75*
G02*
X116300000Y-83092500I0J62500D01*
G01*
X116300000Y-82967500D01*
G75*
G02*
X116362500Y-82905000I62500J0D01*
G01*
X117112500Y-82905000D01*
G75*
G02*
X117175000Y-82967500I0J-62500D01*
G01*
G37*
%TD*%
D42*
%TO.C,T1*%
X104140000Y-61595000D03*
X99060000Y-61595000D03*
%TD*%
D27*
%TO.C,C13*%
X114800000Y-97155000D03*
X113800000Y-97155000D03*
%TD*%
%TO.C,C14*%
X113800000Y-94615000D03*
X114800000Y-94615000D03*
%TD*%
%TO.C,C15*%
X114800000Y-88265000D03*
X113800000Y-88265000D03*
%TD*%
D30*
%TO.C,C16*%
X115570000Y-75430000D03*
X115570000Y-74430000D03*
%TD*%
M02*
