<?xml version="1.0" standalone="no"?>
 <!DOCTYPE svg PUBLIC "-//W3C//DTD SVG 1.1//EN" 
 "http://www.w3.org/Graphics/SVG/1.1/DTD/svg11.dtd"> 
<svg
  xmlns:svg="http://www.w3.org/2000/svg"
  xmlns="http://www.w3.org/2000/svg"
  xmlns:xlink="http://www.w3.org/1999/xlink"
  version="1.1"
  width="17.490440cm" height="6.898640cm" viewBox="0 0 68860 27160">
<title>SVG Picture created as mouse_reach_controller-Dwgs_User.svg date 2021/12/03 14:57:30 </title>
  <desc>Picture generated by PCBNEW </desc>
<g style="fill:#000000; fill-opacity:1;stroke:#000000; stroke-opacity:1;
stroke-linecap:round; stroke-linejoin:round;"
 transform="translate(0 0) scale(1 1)">
</g>
<g style="fill:#000000; fill-opacity:0.0; 
stroke:#000000; stroke-width:-0.000393701; stroke-opacity:1; 
stroke-linecap:round; stroke-linejoin:round;">
</g>
<g style="fill:#C2C2C2; fill-opacity:0.0; 
stroke:#C2C2C2; stroke-width:-0.000393701; stroke-opacity:1; 
stroke-linecap:round; stroke-linejoin:round;">
</g>
<g style="fill:#C2C2C2; fill-opacity:0.0; 
stroke:#C2C2C2; stroke-width:59.0551; stroke-opacity:1; 
stroke-linecap:round; stroke-linejoin:round;">
<g transform="rotate(-270 65134.4 15605.9)">
<text x="65134.4" y="15802.7"
textLength="3477.07" font-size="524.934" lengthAdjust="spacingAndGlyphs"
text-anchor="middle" opacity="0">50.800 mm</text>
</g>
<path d="M65350 14181
L65350 13993
L65162 13974
L65181 13993
L65200 14031
L65200 14124
L65181 14162
L65162 14181
L65125 14199
L65031 14199
L64993 14181
L64975 14162
L64956 14124
L64956 14031
L64975 13993
L64993 13974
" />
<path d="M65350 14443
L65350 14481
L65331 14518
L65312 14537
L65275 14556
L65200 14574
L65106 14574
L65031 14556
L64993 14537
L64975 14518
L64956 14481
L64956 14443
L64975 14406
L64993 14387
L65031 14368
L65106 14349
L65200 14349
L65275 14368
L65312 14387
L65331 14406
L65350 14443
" />
<path d="M64993 14743
L64975 14762
L64956 14743
L64975 14724
L64993 14743
L64956 14743
" />
<path d="M65181 14987
L65200 14949
L65218 14930
L65256 14912
L65275 14912
L65312 14930
L65331 14949
L65350 14987
L65350 15062
L65331 15099
L65312 15118
L65275 15137
L65256 15137
L65218 15118
L65200 15099
L65181 15062
L65181 14987
L65162 14949
L65143 14930
L65106 14912
L65031 14912
L64993 14930
L64975 14949
L64956 14987
L64956 15062
L64975 15099
L64993 15118
L65031 15137
L65106 15137
L65143 15118
L65162 15099
L65181 15062
" />
<path d="M65350 15380
L65350 15418
L65331 15455
L65312 15474
L65275 15493
L65200 15512
L65106 15512
L65031 15493
L64993 15474
L64975 15455
L64956 15418
L64956 15380
L64975 15343
L64993 15324
L65031 15305
L65106 15287
L65200 15287
L65275 15305
L65312 15324
L65331 15343
L65350 15380
" />
<path d="M65350 15755
L65350 15793
L65331 15830
L65312 15849
L65275 15868
L65200 15887
L65106 15887
L65031 15868
L64993 15849
L64975 15830
L64956 15793
L64956 15755
L64975 15718
L64993 15699
L65031 15680
L65106 15662
L65200 15662
L65275 15680
L65312 15699
L65331 15718
L65350 15755
" />
<path d="M64956 16355
L65218 16355
" />
<path d="M65181 16355
L65200 16374
L65218 16412
L65218 16468
L65200 16505
L65162 16524
L64956 16524
" />
<path d="M65162 16524
L65200 16543
L65218 16580
L65218 16637
L65200 16674
L65162 16693
L64956 16693
" />
<path d="M64956 16880
L65218 16880
" />
<path d="M65181 16880
L65200 16899
L65218 16936
L65218 16993
L65200 17030
L65162 17049
L64956 17049
" />
<path d="M65162 17049
L65200 17068
L65218 17105
L65218 17161
L65200 17199
L65162 17218
L64956 17218
" />
</g>
<g style="fill:#C2C2C2; fill-opacity:0.0; 
stroke:#C2C2C2; stroke-width:90; stroke-opacity:1; 
stroke-linecap:round; stroke-linejoin:round;">
<path d="M64591 5605
L64591 25605
" />
<path d="M62091 5605
L64822 5605
" />
<path d="M62091 25605
L64822 25605
" />
<path d="M64591 25605
L64360 25162
" />
<path d="M64591 25605
L64822 25162
" />
<path d="M64591 5605
L64360 6049
" />
<path d="M64591 5605
L64822 6049
" />
</g>
<g style="fill:#C2C2C2; fill-opacity:0.0; 
stroke:#C2C2C2; stroke-width:59.0551; stroke-opacity:1; 
stroke-linecap:round; stroke-linejoin:round;">
<g transform="rotate(-270 67134.4 15605.9)">
<text x="67134.4" y="15802.7"
textLength="3488.85" font-size="524.934" lengthAdjust="spacingAndGlyphs"
text-anchor="middle" opacity="0">57.150 mm</text>
</g>
<path d="M67350 14181
L67350 13993
L67162 13974
L67181 13993
L67200 14031
L67200 14124
L67181 14162
L67162 14181
L67125 14199
L67031 14199
L66993 14181
L66975 14162
L66956 14124
L66956 14031
L66975 13993
L66993 13974
" />
<path d="M67350 14331
L67350 14593
L66956 14424
" />
<path d="M66993 14743
L66975 14762
L66956 14743
L66975 14724
L66993 14743
L66956 14743
" />
<path d="M66956 15137
L66956 14912
" />
<path d="M66956 15024
L67350 15024
L67293 14987
L67256 14949
L67237 14912
" />
<path d="M67350 15493
L67350 15305
L67162 15287
L67181 15305
L67200 15343
L67200 15437
L67181 15474
L67162 15493
L67125 15512
L67031 15512
L66993 15493
L66975 15474
L66956 15437
L66956 15343
L66975 15305
L66993 15287
" />
<path d="M67350 15755
L67350 15793
L67331 15830
L67312 15849
L67275 15868
L67200 15887
L67106 15887
L67031 15868
L66993 15849
L66975 15830
L66956 15793
L66956 15755
L66975 15718
L66993 15699
L67031 15680
L67106 15662
L67200 15662
L67275 15680
L67312 15699
L67331 15718
L67350 15755
" />
<path d="M66956 16355
L67218 16355
" />
<path d="M67181 16355
L67200 16374
L67218 16412
L67218 16468
L67200 16505
L67162 16524
L66956 16524
" />
<path d="M67162 16524
L67200 16543
L67218 16580
L67218 16637
L67200 16674
L67162 16693
L66956 16693
" />
<path d="M66956 16880
L67218 16880
" />
<path d="M67181 16880
L67200 16899
L67218 16936
L67218 16993
L67200 17030
L67162 17049
L66956 17049
" />
<path d="M67162 17049
L67200 17068
L67218 17105
L67218 17161
L67200 17199
L67162 17218
L66956 17218
" />
</g>
<g style="fill:#C2C2C2; fill-opacity:0.0; 
stroke:#C2C2C2; stroke-width:90; stroke-opacity:1; 
stroke-linecap:round; stroke-linejoin:round;">
<path d="M66591 4355
L66591 26855
" />
<path d="M61841 4355
L66822 4355
" />
<path d="M61841 26855
L66822 26855
" />
<path d="M66591 26855
L66360 26412
" />
<path d="M66591 26855
L66822 26412
" />
<path d="M66591 4355
L66360 4799
" />
<path d="M66591 4355
L66822 4799
" />
<circle cx="2091.67" cy="25605.9" r="790.569" /> 
<circle cx="62091.7" cy="25605.9" r="790.569" /> 
<circle cx="62091.7" cy="5605.9" r="790.569" /> 
<circle cx="2091.67" cy="5605.9" r="750" /> 
</g>
<g style="fill:#C2C2C2; fill-opacity:0.0; 
stroke:#C2C2C2; stroke-width:59.0551; stroke-opacity:1; 
stroke-linecap:round; stroke-linejoin:round;">
<text x="32091.7" y="1759.99"
textLength="3863.8" font-size="524.934" lengthAdjust="spacingAndGlyphs"
text-anchor="middle" opacity="0">152.400 mm</text>
<path d="M30498 1741
L30273 1741
" />
<path d="M30385 1741
L30385 1347
L30348 1403
L30310 1441
L30273 1460
" />
<path d="M30854 1347
L30666 1347
L30648 1535
L30666 1516
L30704 1497
L30798 1497
L30835 1516
L30854 1535
L30873 1572
L30873 1666
L30854 1703
L30835 1722
L30798 1741
L30704 1741
L30666 1722
L30648 1703
" />
<path d="M31023 1385
L31041 1366
L31079 1347
L31173 1347
L31210 1366
L31229 1385
L31248 1422
L31248 1460
L31229 1516
L31004 1741
L31248 1741
" />
<path d="M31416 1703
L31435 1722
L31416 1741
L31398 1722
L31416 1703
L31416 1741
" />
<path d="M31772 1478
L31772 1741
" />
<path d="M31679 1328
L31585 1610
L31829 1610
" />
<path d="M32054 1347
L32091 1347
L32129 1366
L32147 1385
L32166 1422
L32185 1497
L32185 1591
L32166 1666
L32147 1703
L32129 1722
L32091 1741
L32054 1741
L32016 1722
L31997 1703
L31979 1666
L31960 1591
L31960 1497
L31979 1422
L31997 1385
L32016 1366
L32054 1347
" />
<path d="M32429 1347
L32466 1347
L32504 1366
L32522 1385
L32541 1422
L32560 1497
L32560 1591
L32541 1666
L32522 1703
L32504 1722
L32466 1741
L32429 1741
L32391 1722
L32372 1703
L32354 1666
L32335 1591
L32335 1497
L32354 1422
L32372 1385
L32391 1366
L32429 1347
" />
<path d="M33029 1741
L33029 1478
" />
<path d="M33029 1516
L33047 1497
L33085 1478
L33141 1478
L33179 1497
L33197 1535
L33197 1741
" />
<path d="M33197 1535
L33216 1497
L33254 1478
L33310 1478
L33347 1497
L33366 1535
L33366 1741
" />
<path d="M33553 1741
L33553 1478
" />
<path d="M33553 1516
L33572 1497
L33610 1478
L33666 1478
L33703 1497
L33722 1535
L33722 1741
" />
<path d="M33722 1535
L33741 1497
L33778 1478
L33835 1478
L33872 1497
L33891 1535
L33891 1741
" />
</g>
<g style="fill:#C2C2C2; fill-opacity:0.0; 
stroke:#C2C2C2; stroke-width:90; stroke-opacity:1; 
stroke-linecap:round; stroke-linejoin:round;">
<path d="M2091 2105
L62091 2105
" />
<path d="M2091 5605
L2091 1875
" />
<path d="M62091 5605
L62091 1875
" />
<path d="M62091 2105
L61648 2336
" />
<path d="M62091 2105
L61648 1875
" />
<path d="M2091 2105
L2535 2336
" />
<path d="M2091 2105
L2535 1875
" />
</g>
<g style="fill:#C2C2C2; fill-opacity:0.0; 
stroke:#C2C2C2; stroke-width:59.0551; stroke-opacity:1; 
stroke-linecap:round; stroke-linejoin:round;">
<g transform="rotate(-359.771 32114.4 298.228)">
<text x="32114.4" y="495.079"
textLength="3863.8" font-size="524.934" lengthAdjust="spacingAndGlyphs"
text-anchor="middle" opacity="0">158.751 mm</text>
</g>
<path d="M30520 469
L30295 469
" />
<path d="M30407 469
L30409 75
L30371 131
L30333 169
L30296 187
" />
<path d="M30877 77
L30690 76
L30670 264
L30689 245
L30727 227
L30821 227
L30858 246
L30877 265
L30895 302
L30895 396
L30876 433
L30857 452
L30820 471
L30726 470
L30688 451
L30670 433
" />
<path d="M31120 247
L31083 228
L31064 209
L31046 172
L31046 153
L31065 115
L31084 97
L31121 78
L31196 78
L31234 97
L31252 116
L31271 154
L31271 172
L31252 210
L31233 229
L31195 247
L31120 247
L31083 265
L31064 284
L31045 322
L31045 397
L31063 434
L31082 453
L31120 472
L31195 472
L31232 454
L31251 435
L31270 397
L31270 322
L31252 285
L31233 266
L31195 247
" />
<path d="M31438 436
L31457 454
L31438 473
L31420 454
L31438 436
L31438 473
" />
<path d="M31590 80
L31852 81
L31682 474
" />
<path d="M32190 82
L32002 82
L31983 269
L32002 250
L32039 232
L32133 232
L32170 251
L32189 270
L32208 307
L32207 401
L32188 439
L32170 457
L32132 476
L32038 476
L32001 457
L31982 438
" />
<path d="M32582 478
L32357 477
" />
<path d="M32469 477
L32471 84
L32433 140
L32396 177
L32358 196
" />
<path d="M33051 480
L33052 217
" />
<path d="M33051 255
L33070 236
L33108 217
L33164 218
L33202 236
L33220 274
L33219 480
" />
<path d="M33220 274
L33239 237
L33277 218
L33333 218
L33370 237
L33389 275
L33388 481
" />
<path d="M33575 482
L33577 219
" />
<path d="M33576 257
L33595 238
L33633 219
L33689 220
L33726 239
L33745 276
L33744 482
" />
<path d="M33745 276
L33764 239
L33802 220
L33858 220
L33895 239
L33914 277
L33913 483
" />
</g>
<g style="fill:#C2C2C2; fill-opacity:0.0; 
stroke:#C2C2C2; stroke-width:90; stroke-opacity:1; 
stroke-linecap:round; stroke-linejoin:round;">
<path d="M862 715
L63362 965
" />
<path d="M841 5855
L863 485
" />
<path d="M63341 6105
L63363 735
" />
<path d="M63362 965
L62917 1195
" />
<path d="M63362 965
L62919 733
" />
<path d="M862 715
L1304 948
" />
<path d="M862 715
L1306 486
" />
<g >
</g>
<g >
</g>
<g >
</g>
<g >
</g>
<g >
</g>
<g >
</g>
<g >
</g>
<g >
</g>
<g >
</g>
<g >
</g>
<g >
</g>
<g >
</g>
<g >
</g>
<g >
</g>
<g >
</g>
<g >
</g>
<g >
</g>
<g >
</g>
<g >
</g>
<g >
</g>
<g >
</g>
<g >
</g>
<g >
</g>
<g >
</g>
<g >
</g>
<g >
</g>
<g >
</g>
<g >
</g>
<g >
</g>
<g >
</g>
<g >
</g>
<g >
</g>
<g >
</g>
<g >
</g>
<g >
</g>
<g >
</g>
<g >
</g>
<g >
</g>
<g >
</g>
<g >
</g>
<g >
</g>
<g >
</g>
<g >
</g>
<g >
</g>
<g >
</g>
<g >
</g>
<g >
</g>
<g >
</g>
<g >
</g>
<g >
</g>
<g >
</g>
<g >
</g>
<g >
</g>
<g >
</g>
<g >
</g>
<g >
</g>
<g >
</g>
<g >
</g>
<g >
</g>
<g >
</g>
<g >
</g>
<g >
</g>
<g >
</g>
<g >
</g>
<g >
</g>
<g >
</g>
<g >
</g>
<g >
</g>
<g >
</g>
<g >
</g>
<g >
</g>
<g >
</g>
<g >
</g>
<g >
</g>
<g >
</g>
<g >
</g>
<g >
</g>
<g >
</g>
<g >
</g>
<g >
</g>
<g >
</g>
<g >
</g>
<g >
</g>
<g >
</g>
<g >
</g>
<g >
</g>
<g >
</g>
<g >
</g>
<g >
</g>
<g >
</g>
<g >
</g>
<g >
</g>
<g >
</g>
<g >
</g>
<g >
</g>
<g >
</g>
<g >
</g>
<g >
</g>
<g >
</g>
<g >
</g>
<g >
</g>
<g >
</g>
<g >
</g>
<g >
</g>
<g >
</g>
<g >
</g>
<g >
</g>
<g >
</g>
<g >
</g>
<g >
</g>
<g >
</g>
<g >
</g>
<g >
</g>
<g >
</g>
<g >
</g>
<g >
</g>
</g>
<g style="fill:#000000; fill-opacity:0.0; 
stroke:#000000; stroke-width:90; stroke-opacity:1; 
stroke-linecap:round; stroke-linejoin:round;">
</g>
<g style="fill:#C2C200; fill-opacity:0.0; 
stroke:#C2C200; stroke-width:90; stroke-opacity:1; 
stroke-linecap:round; stroke-linejoin:round;">
<path d="M63341.7 5605.9 A1250 1250 0.0 0 0 62091.7 4355.9" />
<path d="M62091.7 26855.9 A1250 1250 0.0 0 0 63341.7 25605.9" />
<path d="M841.667 25605.9 A1250 1250 0.0 0 0 2091.67 26855.9" />
<path d="M2091.67 4355.9 A1250 1250 0.0 0 0 841.667 5605.9" />
<path d="M841 25605
L841 5605
" />
<path d="M62091 26855
L2091 26855
" />
<path d="M63341 5605
L63341 25605
" />
<path d="M2091 4355
L62091 4355
" />
<g >
</g>
<g >
</g>
<g >
</g>
<g >
</g>
<g >
</g>
<g >
</g>
<g >
</g>
<g >
</g>
<g >
</g>
<g >
</g>
<g >
</g>
<g >
</g>
<g >
</g>
<g >
</g>
<g >
</g>
<g >
</g>
<g >
</g>
<g >
</g>
<g >
</g>
<g >
</g>
<g >
</g>
<g >
</g>
<g >
</g>
<g >
</g>
<g >
</g>
<g >
</g>
<g >
</g>
<g >
</g>
<g >
</g>
<g >
</g>
<g >
</g>
<g >
</g>
<g >
</g>
<g >
</g>
<g >
</g>
<g >
</g>
<g >
</g>
<g >
</g>
<g >
</g>
<g >
</g>
<g >
</g>
<g >
</g>
<g >
</g>
<g >
</g>
<g >
</g>
<g >
</g>
<g >
</g>
<g >
</g>
<g >
</g>
<g >
</g>
<g >
</g>
<g >
</g>
<g >
</g>
<g >
</g>
<g >
</g>
<g >
</g>
<g >
</g>
<g >
</g>
<g >
</g>
<g >
</g>
<g >
</g>
<g >
</g>
<g >
</g>
<g >
</g>
<g >
</g>
<g >
</g>
<g >
</g>
<g >
</g>
<g >
</g>
<g >
</g>
<g >
</g>
<g >
</g>
<g >
</g>
<g >
</g>
<g >
</g>
<g >
</g>
<g >
</g>
<g >
</g>
<g >
</g>
<g >
</g>
<g >
</g>
<g >
</g>
<g >
</g>
<g >
</g>
<g >
</g>
<g >
</g>
<g >
</g>
<g >
</g>
<g >
</g>
<g >
</g>
<g >
</g>
<g >
</g>
<g >
</g>
<g >
</g>
<g >
</g>
<g >
</g>
<g >
</g>
<g >
</g>
<g >
</g>
<g >
</g>
<g >
</g>
<g >
</g>
<g >
</g>
<g >
</g>
<g >
</g>
<g >
</g>
<g >
</g>
<g >
</g>
<g >
</g>
<g >
</g>
<g >
</g>
<g >
</g>
<g >
</g>
<g >
</g>
<g >
</g>
<g >
</g>
</g> 
</svg>
