%FSLAX45Y45*%
G04 Gerber Fmt 4.5, Leading zero omitted, Abs format (unit mm)*
G04 Created by KiCad (PCBNEW 5.1.10) date 2021-12-03 14:56:18*
%MOMM*%
%LPD*%
G01*
G04 APERTURE LIST*
%TA.AperFunction,Profile*%
%ADD10C,0.228600*%
%TD*%
%ADD11C,0.200000*%
%ADD12C,0.300000*%
G04 APERTURE END LIST*
D10*
X22479000Y-5143500D02*
G75*
G02*
X22796500Y-5461000I0J-317500D01*
G01*
X22796500Y-10541000D02*
G75*
G02*
X22479000Y-10858500I-317500J0D01*
G01*
X7239000Y-10858500D02*
G75*
G02*
X6921500Y-10541000I0J317500D01*
G01*
X6921500Y-5461000D02*
G75*
G02*
X7239000Y-5143500I317500J0D01*
G01*
X6921500Y-10541000D02*
X6921500Y-5461000D01*
X22479000Y-10858500D02*
X7239000Y-10858500D01*
X22796500Y-5461000D02*
X22796500Y-10541000D01*
X7239000Y-5143500D02*
X22479000Y-5143500D01*
D11*
X7484710Y-6647180D02*
X7525350Y-6687820D01*
X7525350Y-6647180D02*
X7484710Y-6687820D01*
X7578050Y-5525130D02*
X7618690Y-5565770D01*
X7618690Y-5525130D02*
X7578050Y-5565770D01*
X8039750Y-6116690D02*
X8080390Y-6157330D01*
X8080390Y-6116690D02*
X8039750Y-6157330D01*
X8087640Y-9681510D02*
X8128280Y-9722150D01*
X8128280Y-9681510D02*
X8087640Y-9722150D01*
X8176080Y-10179770D02*
X8216720Y-10220410D01*
X8216720Y-10179770D02*
X8176080Y-10220410D01*
X8247380Y-10355580D02*
X8288020Y-10396220D01*
X8288020Y-10355580D02*
X8247380Y-10396220D01*
X8260280Y-9883680D02*
X8300920Y-9924320D01*
X8300920Y-9883680D02*
X8260280Y-9924320D01*
X8283010Y-10122860D02*
X8323650Y-10163500D01*
X8323650Y-10122860D02*
X8283010Y-10163500D01*
X8371930Y-9988340D02*
X8412570Y-10028980D01*
X8412570Y-9988340D02*
X8371930Y-10028980D01*
X8883420Y-8758450D02*
X8924060Y-8799090D01*
X8924060Y-8758450D02*
X8883420Y-8799090D01*
X8948350Y-9713570D02*
X8988990Y-9754210D01*
X8988990Y-9713570D02*
X8948350Y-9754210D01*
X9130050Y-10230070D02*
X9170690Y-10270710D01*
X9170690Y-10230070D02*
X9130050Y-10270710D01*
X9208160Y-10271140D02*
X9248800Y-10311780D01*
X9248800Y-10271140D02*
X9208160Y-10311780D01*
X9414900Y-9271610D02*
X9455540Y-9312250D01*
X9455540Y-9271610D02*
X9414900Y-9312250D01*
X9628510Y-7086640D02*
X9669150Y-7127280D01*
X9669150Y-7086640D02*
X9628510Y-7127280D01*
X9866620Y-7325600D02*
X9907260Y-7366240D01*
X9907260Y-7325600D02*
X9866620Y-7366240D01*
X9963430Y-10130890D02*
X10004070Y-10171530D01*
X10004070Y-10130890D02*
X9963430Y-10171530D01*
X9970990Y-7076010D02*
X10011630Y-7116650D01*
X10011630Y-7076010D02*
X9970990Y-7116650D01*
X9995240Y-10497040D02*
X10035880Y-10537680D01*
X10035880Y-10497040D02*
X9995240Y-10537680D01*
X10083770Y-8332880D02*
X10124410Y-8373520D01*
X10124410Y-8332880D02*
X10083770Y-8373520D01*
X10217540Y-10095810D02*
X10258180Y-10136450D01*
X10258180Y-10095810D02*
X10217540Y-10136450D01*
X10241650Y-7515390D02*
X10282290Y-7556030D01*
X10282290Y-7515390D02*
X10241650Y-7556030D01*
X10386410Y-9527760D02*
X10427050Y-9568400D01*
X10427050Y-9527760D02*
X10386410Y-9568400D01*
X10438680Y-7086640D02*
X10479320Y-7127280D01*
X10479320Y-7086640D02*
X10438680Y-7127280D01*
X10457180Y-10415370D02*
X10497820Y-10456010D01*
X10497820Y-10415370D02*
X10457180Y-10456010D01*
X10477910Y-9837180D02*
X10518550Y-9877820D01*
X10518550Y-9837180D02*
X10477910Y-9877820D01*
X10492210Y-8422320D02*
X10532850Y-8462960D01*
X10532850Y-8422320D02*
X10492210Y-8462960D01*
X10517160Y-9527530D02*
X10557800Y-9568170D01*
X10557800Y-9527530D02*
X10517160Y-9568170D01*
X10658320Y-10750900D02*
X10698960Y-10791540D01*
X10698960Y-10750900D02*
X10658320Y-10791540D01*
X10680810Y-7645940D02*
X10721450Y-7686580D01*
X10721450Y-7645940D02*
X10680810Y-7686580D01*
X10681940Y-9370540D02*
X10722580Y-9411180D01*
X10722580Y-9370540D02*
X10681940Y-9411180D01*
X10704760Y-7377240D02*
X10745400Y-7417880D01*
X10745400Y-7377240D02*
X10704760Y-7417880D01*
X10795050Y-7472680D02*
X10835690Y-7513320D01*
X10835690Y-7472680D02*
X10795050Y-7513320D01*
X10903620Y-10426790D02*
X10944260Y-10467430D01*
X10944260Y-10426790D02*
X10903620Y-10467430D01*
X10909960Y-8368940D02*
X10950600Y-8409580D01*
X10950600Y-8368940D02*
X10909960Y-8409580D01*
X11022130Y-8225310D02*
X11062770Y-8265950D01*
X11062770Y-8225310D02*
X11022130Y-8265950D01*
X11109610Y-10330720D02*
X11150250Y-10371360D01*
X11150250Y-10330720D02*
X11109610Y-10371360D01*
X11110620Y-10416150D02*
X11151260Y-10456790D01*
X11151260Y-10416150D02*
X11110620Y-10456790D01*
X11324490Y-8453210D02*
X11365130Y-8493850D01*
X11365130Y-8453210D02*
X11324490Y-8493850D01*
X11493670Y-8398950D02*
X11534310Y-8439590D01*
X11534310Y-8398950D02*
X11493670Y-8439590D01*
X11547790Y-7966960D02*
X11588430Y-8007600D01*
X11588430Y-7966960D02*
X11547790Y-8007600D01*
X11574010Y-10536400D02*
X11614650Y-10577040D01*
X11614650Y-10536400D02*
X11574010Y-10577040D01*
X11858630Y-7866310D02*
X11899270Y-7906950D01*
X11899270Y-7866310D02*
X11858630Y-7906950D01*
X11942640Y-7838360D02*
X11983280Y-7879000D01*
X11983280Y-7838360D02*
X11942640Y-7879000D01*
X12104230Y-7026070D02*
X12144870Y-7066710D01*
X12144870Y-7026070D02*
X12104230Y-7066710D01*
X12160070Y-7514050D02*
X12200710Y-7554690D01*
X12200710Y-7514050D02*
X12160070Y-7554690D01*
X12278830Y-7082380D02*
X12319470Y-7123020D01*
X12319470Y-7082380D02*
X12278830Y-7123020D01*
X12431400Y-7040110D02*
X12472040Y-7080750D01*
X12472040Y-7040110D02*
X12431400Y-7080750D01*
X12435550Y-7609750D02*
X12476190Y-7650390D01*
X12476190Y-7609750D02*
X12435550Y-7650390D01*
X12550610Y-7472680D02*
X12591250Y-7513320D01*
X12591250Y-7472680D02*
X12550610Y-7513320D01*
X12609470Y-7105460D02*
X12650110Y-7146100D01*
X12650110Y-7105460D02*
X12609470Y-7146100D01*
X12976380Y-7814430D02*
X13017020Y-7855070D01*
X13017020Y-7814430D02*
X12976380Y-7855070D01*
X13077880Y-10526440D02*
X13118520Y-10567080D01*
X13118520Y-10526440D02*
X13077880Y-10567080D01*
X14952510Y-10658170D02*
X14993150Y-10698810D01*
X14993150Y-10658170D02*
X14952510Y-10698810D01*
X15081830Y-10655700D02*
X15122470Y-10696340D01*
X15122470Y-10655700D02*
X15081830Y-10696340D01*
X15133360Y-10317600D02*
X15174000Y-10358240D01*
X15174000Y-10317600D02*
X15133360Y-10358240D01*
X15165190Y-9874270D02*
X15205830Y-9914910D01*
X15205830Y-9874270D02*
X15165190Y-9914910D01*
X15204090Y-10656110D02*
X15244730Y-10696750D01*
X15244730Y-10656110D02*
X15204090Y-10696750D01*
X15318150Y-10658180D02*
X15358790Y-10698820D01*
X15358790Y-10658180D02*
X15318150Y-10698820D01*
X15383430Y-10149180D02*
X15424070Y-10189820D01*
X15424070Y-10149180D02*
X15383430Y-10189820D01*
X15470820Y-9758680D02*
X15511460Y-9799320D01*
X15511460Y-9758680D02*
X15470820Y-9799320D01*
X15509150Y-8396420D02*
X15549790Y-8437060D01*
X15549790Y-8396420D02*
X15509150Y-8437060D01*
X15708170Y-8545010D02*
X15748810Y-8585650D01*
X15748810Y-8545010D02*
X15708170Y-8585650D01*
X16235260Y-7093450D02*
X16275900Y-7134090D01*
X16275900Y-7093450D02*
X16235260Y-7134090D01*
X16397120Y-8052920D02*
X16437760Y-8093560D01*
X16437760Y-8052920D02*
X16397120Y-8093560D01*
X16709100Y-8365110D02*
X16749740Y-8405750D01*
X16749740Y-8365110D02*
X16709100Y-8405750D01*
X17072510Y-8505670D02*
X17113150Y-8546310D01*
X17113150Y-8505670D02*
X17072510Y-8546310D01*
X17264380Y-5847080D02*
X17305020Y-5887720D01*
X17305020Y-5847080D02*
X17264380Y-5887720D01*
X17358440Y-7677150D02*
X17399080Y-7717790D01*
X17399080Y-7677150D02*
X17358440Y-7717790D01*
X17467580Y-5872480D02*
X17508220Y-5913120D01*
X17508220Y-5872480D02*
X17467580Y-5913120D01*
X17543780Y-6202680D02*
X17584420Y-6243320D01*
X17584420Y-6202680D02*
X17543780Y-6243320D01*
X17683480Y-6202680D02*
X17724120Y-6243320D01*
X17724120Y-6202680D02*
X17683480Y-6243320D01*
X17886680Y-6660760D02*
X17927320Y-6701400D01*
X17927320Y-6660760D02*
X17886680Y-6701400D01*
X18298980Y-7403540D02*
X18339620Y-7444180D01*
X18339620Y-7403540D02*
X18298980Y-7444180D01*
X18318760Y-6777310D02*
X18359400Y-6817950D01*
X18359400Y-6777310D02*
X18318760Y-6817950D01*
X18702060Y-6800650D02*
X18742700Y-6841290D01*
X18742700Y-6800650D02*
X18702060Y-6841290D01*
X18944890Y-10415010D02*
X18985530Y-10455650D01*
X18985530Y-10415010D02*
X18944890Y-10455650D01*
X18961680Y-10658250D02*
X19002320Y-10698890D01*
X19002320Y-10658250D02*
X18961680Y-10698890D01*
X19229470Y-10658620D02*
X19270110Y-10699260D01*
X19270110Y-10658620D02*
X19229470Y-10699260D01*
X19247210Y-7618000D02*
X19287850Y-7658640D01*
X19287850Y-7618000D02*
X19247210Y-7658640D01*
X19269550Y-7768240D02*
X19310190Y-7808880D01*
X19310190Y-7768240D02*
X19269550Y-7808880D01*
X19368800Y-9875390D02*
X19409440Y-9916030D01*
X19409440Y-9875390D02*
X19368800Y-9916030D01*
X19387900Y-10656850D02*
X19428540Y-10697490D01*
X19428540Y-10656850D02*
X19387900Y-10697490D01*
X19400690Y-7599680D02*
X19441330Y-7640320D01*
X19441330Y-7599680D02*
X19400690Y-7640320D01*
X19449920Y-7833340D02*
X19490560Y-7873980D01*
X19490560Y-7833340D02*
X19449920Y-7873980D01*
X19457420Y-7718330D02*
X19498060Y-7758970D01*
X19498060Y-7718330D02*
X19457420Y-7758970D01*
X19551510Y-7808020D02*
X19592150Y-7848660D01*
X19592150Y-7808020D02*
X19551510Y-7848660D01*
X19626610Y-7722960D02*
X19667250Y-7763600D01*
X19667250Y-7722960D02*
X19626610Y-7763600D01*
X19750270Y-7604120D02*
X19790910Y-7644760D01*
X19790910Y-7604120D02*
X19750270Y-7644760D01*
X19759230Y-7289090D02*
X19799870Y-7329730D01*
X19799870Y-7289090D02*
X19759230Y-7329730D01*
X19784480Y-7724180D02*
X19825120Y-7764820D01*
X19825120Y-7724180D02*
X19784480Y-7764820D01*
X19789440Y-7853680D02*
X19830080Y-7894320D01*
X19830080Y-7853680D02*
X19789440Y-7894320D01*
X19816270Y-7543730D02*
X19856910Y-7584370D01*
X19856910Y-7543730D02*
X19816270Y-7584370D01*
X19870430Y-7690650D02*
X19911070Y-7731290D01*
X19911070Y-7690650D02*
X19870430Y-7731290D01*
X19907750Y-8405820D02*
X19948390Y-8446460D01*
X19948390Y-8405820D02*
X19907750Y-8446460D01*
X19966040Y-7505880D02*
X20006680Y-7546520D01*
X20006680Y-7505880D02*
X19966040Y-7546520D01*
X20417110Y-6972680D02*
X20457750Y-7013320D01*
X20457750Y-6972680D02*
X20417110Y-7013320D01*
X20511510Y-7027040D02*
X20552150Y-7067680D01*
X20552150Y-7027040D02*
X20511510Y-7067680D01*
X20559710Y-7180470D02*
X20600350Y-7221110D01*
X20600350Y-7180470D02*
X20559710Y-7221110D01*
X20827920Y-7405630D02*
X20868560Y-7446270D01*
X20868560Y-7405630D02*
X20827920Y-7446270D01*
X21072170Y-7678750D02*
X21112810Y-7719390D01*
X21112810Y-7678750D02*
X21072170Y-7719390D01*
X21080490Y-8373040D02*
X21121130Y-8413680D01*
X21121130Y-8373040D02*
X21080490Y-8413680D01*
X21647040Y-6536540D02*
X21687680Y-6577180D01*
X21687680Y-6536540D02*
X21647040Y-6577180D01*
X22001540Y-6934050D02*
X22042180Y-6974690D01*
X22042180Y-6934050D02*
X22001540Y-6974690D01*
X22001540Y-7372680D02*
X22042180Y-7413320D01*
X22042180Y-7372680D02*
X22001540Y-7413320D01*
X22112030Y-6803050D02*
X22152670Y-6843690D01*
X22152670Y-6803050D02*
X22112030Y-6843690D01*
X22318500Y-8891470D02*
X22359140Y-8932110D01*
X22359140Y-8891470D02*
X22318500Y-8932110D01*
X22417900Y-7422680D02*
X22458540Y-7463320D01*
X22458540Y-7422680D02*
X22417900Y-7463320D01*
X22603970Y-9026390D02*
X22644610Y-9067030D01*
X22644610Y-9026390D02*
X22603970Y-9067030D01*
X10458450Y-6604000D02*
G75*
G03*
X10458450Y-6604000I-44450J0D01*
G01*
X10712450Y-6350000D02*
G75*
G03*
X10712450Y-6350000I-44450J0D01*
G01*
X10712450Y-6604000D02*
G75*
G03*
X10712450Y-6604000I-44450J0D01*
G01*
X10966450Y-6604000D02*
G75*
G03*
X10966450Y-6604000I-44450J0D01*
G01*
X12109450Y-9017000D02*
G75*
G03*
X12109450Y-9017000I-44450J0D01*
G01*
X12236450Y-6604000D02*
G75*
G03*
X12236450Y-6604000I-44450J0D01*
G01*
X12490450Y-6350000D02*
G75*
G03*
X12490450Y-6350000I-44450J0D01*
G01*
X12490450Y-6604000D02*
G75*
G03*
X12490450Y-6604000I-44450J0D01*
G01*
X12744450Y-6604000D02*
G75*
G03*
X12744450Y-6604000I-44450J0D01*
G01*
X16300450Y-9017000D02*
G75*
G03*
X16300450Y-9017000I-44450J0D01*
G01*
X18840450Y-6604000D02*
G75*
G03*
X18840450Y-6604000I-44450J0D01*
G01*
X19094450Y-6350000D02*
G75*
G03*
X19094450Y-6350000I-44450J0D01*
G01*
X19094450Y-6604000D02*
G75*
G03*
X19094450Y-6604000I-44450J0D01*
G01*
X19348450Y-6604000D02*
G75*
G03*
X19348450Y-6604000I-44450J0D01*
G01*
X20491450Y-9017000D02*
G75*
G03*
X20491450Y-9017000I-44450J0D01*
G01*
X11049000Y-8966200D02*
X11049000Y-9067800D01*
X10998200Y-9017000D02*
X11099800Y-9017000D01*
X11049000Y-9220200D02*
X11049000Y-9321800D01*
X10998200Y-9271000D02*
X11099800Y-9271000D01*
X11303000Y-8966200D02*
X11303000Y-9067800D01*
X11252200Y-9017000D02*
X11353800Y-9017000D01*
X11303000Y-9220200D02*
X11303000Y-9321800D01*
X11252200Y-9271000D02*
X11353800Y-9271000D01*
X11557000Y-8966200D02*
X11557000Y-9067800D01*
X11506200Y-9017000D02*
X11607800Y-9017000D01*
X11557000Y-9220200D02*
X11557000Y-9321800D01*
X11506200Y-9271000D02*
X11607800Y-9271000D01*
X11811000Y-8966200D02*
X11811000Y-9067800D01*
X11760200Y-9017000D02*
X11861800Y-9017000D01*
X11811000Y-9220200D02*
X11811000Y-9321800D01*
X11760200Y-9271000D02*
X11861800Y-9271000D01*
X12065000Y-9220200D02*
X12065000Y-9321800D01*
X12014200Y-9271000D02*
X12115800Y-9271000D01*
X15240000Y-8966200D02*
X15240000Y-9067800D01*
X15189200Y-9017000D02*
X15290800Y-9017000D01*
X15240000Y-9220200D02*
X15240000Y-9321800D01*
X15189200Y-9271000D02*
X15290800Y-9271000D01*
X15494000Y-8966200D02*
X15494000Y-9067800D01*
X15443200Y-9017000D02*
X15544800Y-9017000D01*
X15494000Y-9220200D02*
X15494000Y-9321800D01*
X15443200Y-9271000D02*
X15544800Y-9271000D01*
X15748000Y-8966200D02*
X15748000Y-9067800D01*
X15697200Y-9017000D02*
X15798800Y-9017000D01*
X15748000Y-9220200D02*
X15748000Y-9321800D01*
X15697200Y-9271000D02*
X15798800Y-9271000D01*
X16002000Y-8966200D02*
X16002000Y-9067800D01*
X15951200Y-9017000D02*
X16052800Y-9017000D01*
X16002000Y-9220200D02*
X16002000Y-9321800D01*
X15951200Y-9271000D02*
X16052800Y-9271000D01*
X16256000Y-9220200D02*
X16256000Y-9321800D01*
X16205200Y-9271000D02*
X16306800Y-9271000D01*
X19431000Y-8966200D02*
X19431000Y-9067800D01*
X19380200Y-9017000D02*
X19481800Y-9017000D01*
X19431000Y-9220200D02*
X19431000Y-9321800D01*
X19380200Y-9271000D02*
X19481800Y-9271000D01*
X19685000Y-8966200D02*
X19685000Y-9067800D01*
X19634200Y-9017000D02*
X19735800Y-9017000D01*
X19685000Y-9220200D02*
X19685000Y-9321800D01*
X19634200Y-9271000D02*
X19735800Y-9271000D01*
X19939000Y-8966200D02*
X19939000Y-9067800D01*
X19888200Y-9017000D02*
X19989800Y-9017000D01*
X19939000Y-9220200D02*
X19939000Y-9321800D01*
X19888200Y-9271000D02*
X19989800Y-9271000D01*
X20193000Y-8966200D02*
X20193000Y-9067800D01*
X20142200Y-9017000D02*
X20243800Y-9017000D01*
X20193000Y-9220200D02*
X20193000Y-9321800D01*
X20142200Y-9271000D02*
X20243800Y-9271000D01*
X20447000Y-9220200D02*
X20447000Y-9321800D01*
X20396200Y-9271000D02*
X20497800Y-9271000D01*
X15670498Y-6145498D02*
X15670498Y-6046502D01*
X15571502Y-6046502D01*
X15571502Y-6145498D01*
X15670498Y-6145498D01*
X16178498Y-6145498D02*
X16178498Y-6046502D01*
X16079502Y-6046502D01*
X16079502Y-6145498D01*
X16178498Y-6145498D01*
X20369498Y-5891498D02*
X20369498Y-5792502D01*
X20270502Y-5792502D01*
X20270502Y-5891498D01*
X20369498Y-5891498D01*
X20877498Y-5891498D02*
X20877498Y-5792502D01*
X20778502Y-5792502D01*
X20778502Y-5891498D01*
X20877498Y-5891498D01*
X21385498Y-5891498D02*
X21385498Y-5792502D01*
X21286502Y-5792502D01*
X21286502Y-5891498D01*
X21385498Y-5891498D01*
X21893498Y-5891498D02*
X21893498Y-5792502D01*
X21794502Y-5792502D01*
X21794502Y-5891498D01*
X21893498Y-5891498D01*
X7747000Y-5474970D02*
X7824470Y-5397500D01*
X7747000Y-5320030D01*
X7669530Y-5397500D01*
X7747000Y-5474970D01*
X7747000Y-5728970D02*
X7824470Y-5651500D01*
X7747000Y-5574030D01*
X7669530Y-5651500D01*
X7747000Y-5728970D01*
X7747000Y-5982970D02*
X7824470Y-5905500D01*
X7747000Y-5828030D01*
X7669530Y-5905500D01*
X7747000Y-5982970D01*
X7747000Y-6236970D02*
X7824470Y-6159500D01*
X7747000Y-6082030D01*
X7669530Y-6159500D01*
X7747000Y-6236970D01*
X7747000Y-6490970D02*
X7824470Y-6413500D01*
X7747000Y-6336030D01*
X7669530Y-6413500D01*
X7747000Y-6490970D01*
X7747000Y-6744970D02*
X7824470Y-6667500D01*
X7747000Y-6590030D01*
X7669530Y-6667500D01*
X7747000Y-6744970D01*
X7747000Y-6998970D02*
X7824470Y-6921500D01*
X7747000Y-6844030D01*
X7669530Y-6921500D01*
X7747000Y-6998970D01*
X7747000Y-7252970D02*
X7824470Y-7175500D01*
X7747000Y-7098030D01*
X7669530Y-7175500D01*
X7747000Y-7252970D01*
X7747000Y-7506970D02*
X7824470Y-7429500D01*
X7747000Y-7352030D01*
X7669530Y-7429500D01*
X7747000Y-7506970D01*
X7747000Y-7760970D02*
X7824470Y-7683500D01*
X7747000Y-7606030D01*
X7669530Y-7683500D01*
X7747000Y-7760970D01*
X7747000Y-8014970D02*
X7824470Y-7937500D01*
X7747000Y-7860030D01*
X7669530Y-7937500D01*
X7747000Y-8014970D01*
X7747000Y-8268970D02*
X7824470Y-8191500D01*
X7747000Y-8114030D01*
X7669530Y-8191500D01*
X7747000Y-8268970D01*
X7747000Y-8522970D02*
X7824470Y-8445500D01*
X7747000Y-8368030D01*
X7669530Y-8445500D01*
X7747000Y-8522970D01*
X7747000Y-8776970D02*
X7824470Y-8699500D01*
X7747000Y-8622030D01*
X7669530Y-8699500D01*
X7747000Y-8776970D01*
X9271000Y-5474970D02*
X9348470Y-5397500D01*
X9271000Y-5320030D01*
X9193530Y-5397500D01*
X9271000Y-5474970D01*
X9271000Y-5728970D02*
X9348470Y-5651500D01*
X9271000Y-5574030D01*
X9193530Y-5651500D01*
X9271000Y-5728970D01*
X9271000Y-5982970D02*
X9348470Y-5905500D01*
X9271000Y-5828030D01*
X9193530Y-5905500D01*
X9271000Y-5982970D01*
X9271000Y-6236970D02*
X9348470Y-6159500D01*
X9271000Y-6082030D01*
X9193530Y-6159500D01*
X9271000Y-6236970D01*
X9271000Y-6490970D02*
X9348470Y-6413500D01*
X9271000Y-6336030D01*
X9193530Y-6413500D01*
X9271000Y-6490970D01*
X9271000Y-6744970D02*
X9348470Y-6667500D01*
X9271000Y-6590030D01*
X9193530Y-6667500D01*
X9271000Y-6744970D01*
X9271000Y-6998970D02*
X9348470Y-6921500D01*
X9271000Y-6844030D01*
X9193530Y-6921500D01*
X9271000Y-6998970D01*
X9271000Y-7252970D02*
X9348470Y-7175500D01*
X9271000Y-7098030D01*
X9193530Y-7175500D01*
X9271000Y-7252970D01*
X9271000Y-7506970D02*
X9348470Y-7429500D01*
X9271000Y-7352030D01*
X9193530Y-7429500D01*
X9271000Y-7506970D01*
X9271000Y-7760970D02*
X9348470Y-7683500D01*
X9271000Y-7606030D01*
X9193530Y-7683500D01*
X9271000Y-7760970D01*
X9271000Y-8014970D02*
X9348470Y-7937500D01*
X9271000Y-7860030D01*
X9193530Y-7937500D01*
X9271000Y-8014970D01*
X9271000Y-8268970D02*
X9348470Y-8191500D01*
X9271000Y-8114030D01*
X9193530Y-8191500D01*
X9271000Y-8268970D01*
X9271000Y-8522970D02*
X9348470Y-8445500D01*
X9271000Y-8368030D01*
X9193530Y-8445500D01*
X9271000Y-8522970D01*
X9271000Y-8776970D02*
X9348470Y-8699500D01*
X9271000Y-8622030D01*
X9193530Y-8699500D01*
X9271000Y-8776970D01*
X17314000Y-5599000D02*
X17484000Y-5769000D01*
X17484000Y-5599000D02*
X17314000Y-5769000D01*
X17484000Y-5684000D02*
G75*
G03*
X17484000Y-5684000I-85000J0D01*
G01*
X17314000Y-6299000D02*
X17484000Y-6469000D01*
X17484000Y-6299000D02*
X17314000Y-6469000D01*
X17484000Y-6384000D02*
G75*
G03*
X17484000Y-6384000I-85000J0D01*
G01*
X14251000Y-5280000D02*
X14451000Y-5480000D01*
X14451000Y-5280000D02*
X14251000Y-5480000D01*
X14351000Y-5280000D02*
X14351000Y-5480000D01*
X14251000Y-5380000D02*
X14451000Y-5380000D01*
X10045700Y-5600700D02*
X10274300Y-5829300D01*
X10274300Y-5600700D02*
X10045700Y-5829300D01*
X10240823Y-5795823D02*
X10240823Y-5634177D01*
X10079177Y-5634177D01*
X10079177Y-5795823D01*
X10240823Y-5795823D01*
X11061700Y-5600700D02*
X11290300Y-5829300D01*
X11290300Y-5600700D02*
X11061700Y-5829300D01*
X11256823Y-5795823D02*
X11256823Y-5634177D01*
X11095177Y-5634177D01*
X11095177Y-5795823D01*
X11256823Y-5795823D01*
X11823700Y-5600700D02*
X12052300Y-5829300D01*
X12052300Y-5600700D02*
X11823700Y-5829300D01*
X12018823Y-5795823D02*
X12018823Y-5634177D01*
X11857177Y-5634177D01*
X11857177Y-5795823D01*
X12018823Y-5795823D01*
X12839700Y-5600700D02*
X13068300Y-5829300D01*
X13068300Y-5600700D02*
X12839700Y-5829300D01*
X13034823Y-5795823D02*
X13034823Y-5634177D01*
X12873177Y-5634177D01*
X12873177Y-5795823D01*
X13034823Y-5795823D01*
X18427700Y-5600700D02*
X18656300Y-5829300D01*
X18656300Y-5600700D02*
X18427700Y-5829300D01*
X18622823Y-5795823D02*
X18622823Y-5634177D01*
X18461177Y-5634177D01*
X18461177Y-5795823D01*
X18622823Y-5795823D01*
X19443700Y-5600700D02*
X19672300Y-5829300D01*
X19672300Y-5600700D02*
X19443700Y-5829300D01*
X19638823Y-5795823D02*
X19638823Y-5634177D01*
X19477177Y-5634177D01*
X19477177Y-5795823D01*
X19638823Y-5795823D01*
X10006330Y-8971280D02*
X10300970Y-9265920D01*
X10300970Y-8971280D02*
X10006330Y-9265920D01*
X10153650Y-9265920D02*
X10300970Y-9118600D01*
X10153650Y-8971280D01*
X10006330Y-9118600D01*
X10153650Y-9265920D01*
X12813030Y-8971280D02*
X13107670Y-9265920D01*
X13107670Y-8971280D02*
X12813030Y-9265920D01*
X12960350Y-9265920D02*
X13107670Y-9118600D01*
X12960350Y-8971280D01*
X12813030Y-9118600D01*
X12960350Y-9265920D01*
X14197330Y-8971280D02*
X14491970Y-9265920D01*
X14491970Y-8971280D02*
X14197330Y-9265920D01*
X14344650Y-9265920D02*
X14491970Y-9118600D01*
X14344650Y-8971280D01*
X14197330Y-9118600D01*
X14344650Y-9265920D01*
X17004030Y-8971280D02*
X17298670Y-9265920D01*
X17298670Y-8971280D02*
X17004030Y-9265920D01*
X17151350Y-9265920D02*
X17298670Y-9118600D01*
X17151350Y-8971280D01*
X17004030Y-9118600D01*
X17151350Y-9265920D01*
X18388330Y-8971280D02*
X18682970Y-9265920D01*
X18682970Y-8971280D02*
X18388330Y-9265920D01*
X18535650Y-9265920D02*
X18682970Y-9118600D01*
X18535650Y-8971280D01*
X18388330Y-9118600D01*
X18535650Y-9265920D01*
X21195030Y-8971280D02*
X21489670Y-9265920D01*
X21489670Y-8971280D02*
X21195030Y-9265920D01*
X21342350Y-9265920D02*
X21489670Y-9118600D01*
X21342350Y-8971280D01*
X21195030Y-9118600D01*
X21342350Y-9265920D01*
X7239000Y-5295900D02*
X7239000Y-5626100D01*
X7073900Y-5461000D02*
X7404100Y-5461000D01*
X7404100Y-5461000D02*
G75*
G03*
X7404100Y-5461000I-165100J0D01*
G01*
X7239000Y-10375900D02*
X7239000Y-10706100D01*
X7073900Y-10541000D02*
X7404100Y-10541000D01*
X7404100Y-10541000D02*
G75*
G03*
X7404100Y-10541000I-165100J0D01*
G01*
X22479000Y-5295900D02*
X22479000Y-5626100D01*
X22313900Y-5461000D02*
X22644100Y-5461000D01*
X22644100Y-5461000D02*
G75*
G03*
X22644100Y-5461000I-165100J0D01*
G01*
X22479000Y-10375900D02*
X22479000Y-10706100D01*
X22313900Y-10541000D02*
X22644100Y-10541000D01*
X22644100Y-10541000D02*
G75*
G03*
X22644100Y-10541000I-165100J0D01*
G01*
D12*
X7196498Y-11335644D02*
X7196498Y-11035644D01*
X7267927Y-11035644D01*
X7310784Y-11049930D01*
X7339356Y-11078502D01*
X7353641Y-11107073D01*
X7367927Y-11164216D01*
X7367927Y-11207073D01*
X7353641Y-11264216D01*
X7339356Y-11292787D01*
X7310784Y-11321359D01*
X7267927Y-11335644D01*
X7196498Y-11335644D01*
X7496498Y-11335644D02*
X7496498Y-11135644D01*
X7496498Y-11192787D02*
X7510784Y-11164216D01*
X7525070Y-11149930D01*
X7553641Y-11135644D01*
X7582213Y-11135644D01*
X7682213Y-11335644D02*
X7682213Y-11135644D01*
X7682213Y-11035644D02*
X7667927Y-11049930D01*
X7682213Y-11064216D01*
X7696498Y-11049930D01*
X7682213Y-11035644D01*
X7682213Y-11064216D01*
X7867927Y-11335644D02*
X7839356Y-11321359D01*
X7825070Y-11292787D01*
X7825070Y-11035644D01*
X8025070Y-11335644D02*
X7996498Y-11321359D01*
X7982213Y-11292787D01*
X7982213Y-11035644D01*
X8367927Y-11335644D02*
X8367927Y-11035644D01*
X8467927Y-11249930D01*
X8567927Y-11035644D01*
X8567927Y-11335644D01*
X8839356Y-11335644D02*
X8839356Y-11178502D01*
X8825070Y-11149930D01*
X8796498Y-11135644D01*
X8739356Y-11135644D01*
X8710784Y-11149930D01*
X8839356Y-11321359D02*
X8810784Y-11335644D01*
X8739356Y-11335644D01*
X8710784Y-11321359D01*
X8696498Y-11292787D01*
X8696498Y-11264216D01*
X8710784Y-11235644D01*
X8739356Y-11221359D01*
X8810784Y-11221359D01*
X8839356Y-11207073D01*
X8982213Y-11135644D02*
X8982213Y-11435644D01*
X8982213Y-11149930D02*
X9010784Y-11135644D01*
X9067927Y-11135644D01*
X9096498Y-11149930D01*
X9110784Y-11164216D01*
X9125070Y-11192787D01*
X9125070Y-11278501D01*
X9110784Y-11307073D01*
X9096498Y-11321359D01*
X9067927Y-11335644D01*
X9010784Y-11335644D01*
X8982213Y-11321359D01*
X9253641Y-11307073D02*
X9267927Y-11321359D01*
X9253641Y-11335644D01*
X9239356Y-11321359D01*
X9253641Y-11307073D01*
X9253641Y-11335644D01*
X9253641Y-11149930D02*
X9267927Y-11164216D01*
X9253641Y-11178502D01*
X9239356Y-11164216D01*
X9253641Y-11149930D01*
X9253641Y-11178502D01*
X6869430Y-11809610D02*
X6910070Y-11850250D01*
X6910070Y-11809610D02*
X6869430Y-11850250D01*
X7253641Y-11665644D02*
X7282213Y-11665644D01*
X7310784Y-11679930D01*
X7325070Y-11694216D01*
X7339356Y-11722787D01*
X7353641Y-11779930D01*
X7353641Y-11851359D01*
X7339356Y-11908501D01*
X7325070Y-11937073D01*
X7310784Y-11951359D01*
X7282213Y-11965644D01*
X7253641Y-11965644D01*
X7225070Y-11951359D01*
X7210784Y-11937073D01*
X7196498Y-11908501D01*
X7182213Y-11851359D01*
X7182213Y-11779930D01*
X7196498Y-11722787D01*
X7210784Y-11694216D01*
X7225070Y-11679930D01*
X7253641Y-11665644D01*
X7482213Y-11937073D02*
X7496498Y-11951359D01*
X7482213Y-11965644D01*
X7467927Y-11951359D01*
X7482213Y-11937073D01*
X7482213Y-11965644D01*
X7753641Y-11765644D02*
X7753641Y-11965644D01*
X7682213Y-11651359D02*
X7610784Y-11865644D01*
X7796498Y-11865644D01*
X7967927Y-11665644D02*
X7996498Y-11665644D01*
X8025070Y-11679930D01*
X8039356Y-11694216D01*
X8053641Y-11722787D01*
X8067927Y-11779930D01*
X8067927Y-11851359D01*
X8053641Y-11908501D01*
X8039356Y-11937073D01*
X8025070Y-11951359D01*
X7996498Y-11965644D01*
X7967927Y-11965644D01*
X7939356Y-11951359D01*
X7925070Y-11937073D01*
X7910784Y-11908501D01*
X7896498Y-11851359D01*
X7896498Y-11779930D01*
X7910784Y-11722787D01*
X7925070Y-11694216D01*
X7939356Y-11679930D01*
X7967927Y-11665644D01*
X8325070Y-11665644D02*
X8267927Y-11665644D01*
X8239356Y-11679930D01*
X8225070Y-11694216D01*
X8196498Y-11737073D01*
X8182213Y-11794216D01*
X8182213Y-11908501D01*
X8196498Y-11937073D01*
X8210784Y-11951359D01*
X8239356Y-11965644D01*
X8296498Y-11965644D01*
X8325070Y-11951359D01*
X8339356Y-11937073D01*
X8353641Y-11908501D01*
X8353641Y-11837073D01*
X8339356Y-11808501D01*
X8325070Y-11794216D01*
X8296498Y-11779930D01*
X8239356Y-11779930D01*
X8210784Y-11794216D01*
X8196498Y-11808501D01*
X8182213Y-11837073D01*
X8482213Y-11965644D02*
X8482213Y-11765644D01*
X8482213Y-11794216D02*
X8496498Y-11779930D01*
X8525070Y-11765644D01*
X8567927Y-11765644D01*
X8596498Y-11779930D01*
X8610784Y-11808501D01*
X8610784Y-11965644D01*
X8610784Y-11808501D02*
X8625070Y-11779930D01*
X8653641Y-11765644D01*
X8696498Y-11765644D01*
X8725070Y-11779930D01*
X8739356Y-11808501D01*
X8739356Y-11965644D01*
X8882213Y-11965644D02*
X8882213Y-11765644D01*
X8882213Y-11794216D02*
X8896498Y-11779930D01*
X8925070Y-11765644D01*
X8967927Y-11765644D01*
X8996498Y-11779930D01*
X9010784Y-11808501D01*
X9010784Y-11965644D01*
X9010784Y-11808501D02*
X9025070Y-11779930D01*
X9053641Y-11765644D01*
X9096498Y-11765644D01*
X9125070Y-11779930D01*
X9139356Y-11808501D01*
X9139356Y-11965644D01*
X9725070Y-11651359D02*
X9467927Y-12037073D01*
X10110784Y-11665644D02*
X10139356Y-11665644D01*
X10167927Y-11679930D01*
X10182213Y-11694216D01*
X10196498Y-11722787D01*
X10210784Y-11779930D01*
X10210784Y-11851359D01*
X10196498Y-11908501D01*
X10182213Y-11937073D01*
X10167927Y-11951359D01*
X10139356Y-11965644D01*
X10110784Y-11965644D01*
X10082213Y-11951359D01*
X10067927Y-11937073D01*
X10053641Y-11908501D01*
X10039356Y-11851359D01*
X10039356Y-11779930D01*
X10053641Y-11722787D01*
X10067927Y-11694216D01*
X10082213Y-11679930D01*
X10110784Y-11665644D01*
X10339356Y-11937073D02*
X10353641Y-11951359D01*
X10339356Y-11965644D01*
X10325070Y-11951359D01*
X10339356Y-11937073D01*
X10339356Y-11965644D01*
X10539356Y-11665644D02*
X10567927Y-11665644D01*
X10596498Y-11679930D01*
X10610784Y-11694216D01*
X10625070Y-11722787D01*
X10639356Y-11779930D01*
X10639356Y-11851359D01*
X10625070Y-11908501D01*
X10610784Y-11937073D01*
X10596498Y-11951359D01*
X10567927Y-11965644D01*
X10539356Y-11965644D01*
X10510784Y-11951359D01*
X10496498Y-11937073D01*
X10482213Y-11908501D01*
X10467927Y-11851359D01*
X10467927Y-11779930D01*
X10482213Y-11722787D01*
X10496498Y-11694216D01*
X10510784Y-11679930D01*
X10539356Y-11665644D01*
X10925070Y-11965644D02*
X10753641Y-11965644D01*
X10839356Y-11965644D02*
X10839356Y-11665644D01*
X10810784Y-11708501D01*
X10782213Y-11737073D01*
X10753641Y-11751359D01*
X11182213Y-11665644D02*
X11125070Y-11665644D01*
X11096498Y-11679930D01*
X11082213Y-11694216D01*
X11053641Y-11737073D01*
X11039356Y-11794216D01*
X11039356Y-11908501D01*
X11053641Y-11937073D01*
X11067927Y-11951359D01*
X11096498Y-11965644D01*
X11153641Y-11965644D01*
X11182213Y-11951359D01*
X11196498Y-11937073D01*
X11210784Y-11908501D01*
X11210784Y-11837073D01*
X11196498Y-11808501D01*
X11182213Y-11794216D01*
X11153641Y-11779930D01*
X11096498Y-11779930D01*
X11067927Y-11794216D01*
X11053641Y-11808501D01*
X11039356Y-11837073D01*
X11396498Y-11665644D02*
X11425070Y-11665644D01*
X11453641Y-11679930D01*
X11467927Y-11694216D01*
X11482213Y-11722787D01*
X11496498Y-11779930D01*
X11496498Y-11851359D01*
X11482213Y-11908501D01*
X11467927Y-11937073D01*
X11453641Y-11951359D01*
X11425070Y-11965644D01*
X11396498Y-11965644D01*
X11367927Y-11951359D01*
X11353641Y-11937073D01*
X11339356Y-11908501D01*
X11325070Y-11851359D01*
X11325070Y-11779930D01*
X11339356Y-11722787D01*
X11353641Y-11694216D01*
X11367927Y-11679930D01*
X11396498Y-11665644D01*
X11610784Y-11665644D02*
X11610784Y-11722787D01*
X11725070Y-11665644D02*
X11725070Y-11722787D01*
X12167927Y-12079930D02*
X12153641Y-12065644D01*
X12125070Y-12022787D01*
X12110784Y-11994216D01*
X12096498Y-11951359D01*
X12082213Y-11879930D01*
X12082213Y-11822787D01*
X12096498Y-11751359D01*
X12110784Y-11708501D01*
X12125070Y-11679930D01*
X12153641Y-11637073D01*
X12167927Y-11622787D01*
X12439356Y-11965644D02*
X12267927Y-11965644D01*
X12353641Y-11965644D02*
X12353641Y-11665644D01*
X12325070Y-11708501D01*
X12296498Y-11737073D01*
X12267927Y-11751359D01*
X12625070Y-11665644D02*
X12653641Y-11665644D01*
X12682213Y-11679930D01*
X12696498Y-11694216D01*
X12710784Y-11722787D01*
X12725070Y-11779930D01*
X12725070Y-11851359D01*
X12710784Y-11908501D01*
X12696498Y-11937073D01*
X12682213Y-11951359D01*
X12653641Y-11965644D01*
X12625070Y-11965644D01*
X12596498Y-11951359D01*
X12582213Y-11937073D01*
X12567927Y-11908501D01*
X12553641Y-11851359D01*
X12553641Y-11779930D01*
X12567927Y-11722787D01*
X12582213Y-11694216D01*
X12596498Y-11679930D01*
X12625070Y-11665644D01*
X12867927Y-11965644D02*
X12925070Y-11965644D01*
X12953641Y-11951359D01*
X12967927Y-11937073D01*
X12996498Y-11894216D01*
X13010784Y-11837073D01*
X13010784Y-11722787D01*
X12996498Y-11694216D01*
X12982213Y-11679930D01*
X12953641Y-11665644D01*
X12896498Y-11665644D01*
X12867927Y-11679930D01*
X12853641Y-11694216D01*
X12839356Y-11722787D01*
X12839356Y-11794216D01*
X12853641Y-11822787D01*
X12867927Y-11837073D01*
X12896498Y-11851359D01*
X12953641Y-11851359D01*
X12982213Y-11837073D01*
X12996498Y-11822787D01*
X13010784Y-11794216D01*
X13367927Y-11965644D02*
X13367927Y-11665644D01*
X13496498Y-11965644D02*
X13496498Y-11808501D01*
X13482213Y-11779930D01*
X13453641Y-11765644D01*
X13410784Y-11765644D01*
X13382213Y-11779930D01*
X13367927Y-11794216D01*
X13682213Y-11965644D02*
X13653641Y-11951359D01*
X13639356Y-11937073D01*
X13625070Y-11908501D01*
X13625070Y-11822787D01*
X13639356Y-11794216D01*
X13653641Y-11779930D01*
X13682213Y-11765644D01*
X13725070Y-11765644D01*
X13753641Y-11779930D01*
X13767927Y-11794216D01*
X13782213Y-11822787D01*
X13782213Y-11908501D01*
X13767927Y-11937073D01*
X13753641Y-11951359D01*
X13725070Y-11965644D01*
X13682213Y-11965644D01*
X13953641Y-11965644D02*
X13925070Y-11951359D01*
X13910784Y-11922787D01*
X13910784Y-11665644D01*
X14182213Y-11951359D02*
X14153641Y-11965644D01*
X14096498Y-11965644D01*
X14067927Y-11951359D01*
X14053641Y-11922787D01*
X14053641Y-11808501D01*
X14067927Y-11779930D01*
X14096498Y-11765644D01*
X14153641Y-11765644D01*
X14182213Y-11779930D01*
X14196498Y-11808501D01*
X14196498Y-11837073D01*
X14053641Y-11865644D01*
X14310784Y-11951359D02*
X14339356Y-11965644D01*
X14396498Y-11965644D01*
X14425070Y-11951359D01*
X14439356Y-11922787D01*
X14439356Y-11908501D01*
X14425070Y-11879930D01*
X14396498Y-11865644D01*
X14353641Y-11865644D01*
X14325070Y-11851359D01*
X14310784Y-11822787D01*
X14310784Y-11808501D01*
X14325070Y-11779930D01*
X14353641Y-11765644D01*
X14396498Y-11765644D01*
X14425070Y-11779930D01*
X14539356Y-12079930D02*
X14553641Y-12065644D01*
X14582213Y-12022787D01*
X14596498Y-11994216D01*
X14610784Y-11951359D01*
X14625070Y-11879930D01*
X14625070Y-11822787D01*
X14610784Y-11751359D01*
X14596498Y-11708501D01*
X14582213Y-11679930D01*
X14553641Y-11637073D01*
X14539356Y-11622787D01*
X6910070Y-12225930D02*
G75*
G03*
X6910070Y-12225930I-44450J0D01*
G01*
X7253641Y-12061644D02*
X7282213Y-12061644D01*
X7310784Y-12075930D01*
X7325070Y-12090216D01*
X7339356Y-12118787D01*
X7353641Y-12175930D01*
X7353641Y-12247359D01*
X7339356Y-12304501D01*
X7325070Y-12333073D01*
X7310784Y-12347359D01*
X7282213Y-12361644D01*
X7253641Y-12361644D01*
X7225070Y-12347359D01*
X7210784Y-12333073D01*
X7196498Y-12304501D01*
X7182213Y-12247359D01*
X7182213Y-12175930D01*
X7196498Y-12118787D01*
X7210784Y-12090216D01*
X7225070Y-12075930D01*
X7253641Y-12061644D01*
X7482213Y-12333073D02*
X7496498Y-12347359D01*
X7482213Y-12361644D01*
X7467927Y-12347359D01*
X7482213Y-12333073D01*
X7482213Y-12361644D01*
X7667927Y-12190216D02*
X7639356Y-12175930D01*
X7625070Y-12161644D01*
X7610784Y-12133073D01*
X7610784Y-12118787D01*
X7625070Y-12090216D01*
X7639356Y-12075930D01*
X7667927Y-12061644D01*
X7725070Y-12061644D01*
X7753641Y-12075930D01*
X7767927Y-12090216D01*
X7782213Y-12118787D01*
X7782213Y-12133073D01*
X7767927Y-12161644D01*
X7753641Y-12175930D01*
X7725070Y-12190216D01*
X7667927Y-12190216D01*
X7639356Y-12204501D01*
X7625070Y-12218787D01*
X7610784Y-12247359D01*
X7610784Y-12304501D01*
X7625070Y-12333073D01*
X7639356Y-12347359D01*
X7667927Y-12361644D01*
X7725070Y-12361644D01*
X7753641Y-12347359D01*
X7767927Y-12333073D01*
X7782213Y-12304501D01*
X7782213Y-12247359D01*
X7767927Y-12218787D01*
X7753641Y-12204501D01*
X7725070Y-12190216D01*
X7953641Y-12190216D02*
X7925070Y-12175930D01*
X7910784Y-12161644D01*
X7896498Y-12133073D01*
X7896498Y-12118787D01*
X7910784Y-12090216D01*
X7925070Y-12075930D01*
X7953641Y-12061644D01*
X8010784Y-12061644D01*
X8039356Y-12075930D01*
X8053641Y-12090216D01*
X8067927Y-12118787D01*
X8067927Y-12133073D01*
X8053641Y-12161644D01*
X8039356Y-12175930D01*
X8010784Y-12190216D01*
X7953641Y-12190216D01*
X7925070Y-12204501D01*
X7910784Y-12218787D01*
X7896498Y-12247359D01*
X7896498Y-12304501D01*
X7910784Y-12333073D01*
X7925070Y-12347359D01*
X7953641Y-12361644D01*
X8010784Y-12361644D01*
X8039356Y-12347359D01*
X8053641Y-12333073D01*
X8067927Y-12304501D01*
X8067927Y-12247359D01*
X8053641Y-12218787D01*
X8039356Y-12204501D01*
X8010784Y-12190216D01*
X8210784Y-12361644D02*
X8267927Y-12361644D01*
X8296498Y-12347359D01*
X8310784Y-12333073D01*
X8339356Y-12290216D01*
X8353641Y-12233073D01*
X8353641Y-12118787D01*
X8339356Y-12090216D01*
X8325070Y-12075930D01*
X8296498Y-12061644D01*
X8239356Y-12061644D01*
X8210784Y-12075930D01*
X8196498Y-12090216D01*
X8182213Y-12118787D01*
X8182213Y-12190216D01*
X8196498Y-12218787D01*
X8210784Y-12233073D01*
X8239356Y-12247359D01*
X8296498Y-12247359D01*
X8325070Y-12233073D01*
X8339356Y-12218787D01*
X8353641Y-12190216D01*
X8482213Y-12361644D02*
X8482213Y-12161644D01*
X8482213Y-12190216D02*
X8496498Y-12175930D01*
X8525070Y-12161644D01*
X8567927Y-12161644D01*
X8596498Y-12175930D01*
X8610784Y-12204501D01*
X8610784Y-12361644D01*
X8610784Y-12204501D02*
X8625070Y-12175930D01*
X8653641Y-12161644D01*
X8696498Y-12161644D01*
X8725070Y-12175930D01*
X8739356Y-12204501D01*
X8739356Y-12361644D01*
X8882213Y-12361644D02*
X8882213Y-12161644D01*
X8882213Y-12190216D02*
X8896498Y-12175930D01*
X8925070Y-12161644D01*
X8967927Y-12161644D01*
X8996498Y-12175930D01*
X9010784Y-12204501D01*
X9010784Y-12361644D01*
X9010784Y-12204501D02*
X9025070Y-12175930D01*
X9053641Y-12161644D01*
X9096498Y-12161644D01*
X9125070Y-12175930D01*
X9139356Y-12204501D01*
X9139356Y-12361644D01*
X9725070Y-12047359D02*
X9467927Y-12433073D01*
X10110784Y-12061644D02*
X10139356Y-12061644D01*
X10167927Y-12075930D01*
X10182213Y-12090216D01*
X10196498Y-12118787D01*
X10210784Y-12175930D01*
X10210784Y-12247359D01*
X10196498Y-12304501D01*
X10182213Y-12333073D01*
X10167927Y-12347359D01*
X10139356Y-12361644D01*
X10110784Y-12361644D01*
X10082213Y-12347359D01*
X10067927Y-12333073D01*
X10053641Y-12304501D01*
X10039356Y-12247359D01*
X10039356Y-12175930D01*
X10053641Y-12118787D01*
X10067927Y-12090216D01*
X10082213Y-12075930D01*
X10110784Y-12061644D01*
X10339356Y-12333073D02*
X10353641Y-12347359D01*
X10339356Y-12361644D01*
X10325070Y-12347359D01*
X10339356Y-12333073D01*
X10339356Y-12361644D01*
X10539356Y-12061644D02*
X10567927Y-12061644D01*
X10596498Y-12075930D01*
X10610784Y-12090216D01*
X10625070Y-12118787D01*
X10639356Y-12175930D01*
X10639356Y-12247359D01*
X10625070Y-12304501D01*
X10610784Y-12333073D01*
X10596498Y-12347359D01*
X10567927Y-12361644D01*
X10539356Y-12361644D01*
X10510784Y-12347359D01*
X10496498Y-12333073D01*
X10482213Y-12304501D01*
X10467927Y-12247359D01*
X10467927Y-12175930D01*
X10482213Y-12118787D01*
X10496498Y-12090216D01*
X10510784Y-12075930D01*
X10539356Y-12061644D01*
X10739356Y-12061644D02*
X10925070Y-12061644D01*
X10825070Y-12175930D01*
X10867927Y-12175930D01*
X10896498Y-12190216D01*
X10910784Y-12204501D01*
X10925070Y-12233073D01*
X10925070Y-12304501D01*
X10910784Y-12333073D01*
X10896498Y-12347359D01*
X10867927Y-12361644D01*
X10782213Y-12361644D01*
X10753641Y-12347359D01*
X10739356Y-12333073D01*
X11196498Y-12061644D02*
X11053641Y-12061644D01*
X11039356Y-12204501D01*
X11053641Y-12190216D01*
X11082213Y-12175930D01*
X11153641Y-12175930D01*
X11182213Y-12190216D01*
X11196498Y-12204501D01*
X11210784Y-12233073D01*
X11210784Y-12304501D01*
X11196498Y-12333073D01*
X11182213Y-12347359D01*
X11153641Y-12361644D01*
X11082213Y-12361644D01*
X11053641Y-12347359D01*
X11039356Y-12333073D01*
X11396498Y-12061644D02*
X11425070Y-12061644D01*
X11453641Y-12075930D01*
X11467927Y-12090216D01*
X11482213Y-12118787D01*
X11496498Y-12175930D01*
X11496498Y-12247359D01*
X11482213Y-12304501D01*
X11467927Y-12333073D01*
X11453641Y-12347359D01*
X11425070Y-12361644D01*
X11396498Y-12361644D01*
X11367927Y-12347359D01*
X11353641Y-12333073D01*
X11339356Y-12304501D01*
X11325070Y-12247359D01*
X11325070Y-12175930D01*
X11339356Y-12118787D01*
X11353641Y-12090216D01*
X11367927Y-12075930D01*
X11396498Y-12061644D01*
X11610784Y-12061644D02*
X11610784Y-12118787D01*
X11725070Y-12061644D02*
X11725070Y-12118787D01*
X12167927Y-12475930D02*
X12153641Y-12461644D01*
X12125070Y-12418787D01*
X12110784Y-12390216D01*
X12096498Y-12347359D01*
X12082213Y-12275930D01*
X12082213Y-12218787D01*
X12096498Y-12147359D01*
X12110784Y-12104501D01*
X12125070Y-12075930D01*
X12153641Y-12033073D01*
X12167927Y-12018787D01*
X12439356Y-12361644D02*
X12267927Y-12361644D01*
X12353641Y-12361644D02*
X12353641Y-12061644D01*
X12325070Y-12104501D01*
X12296498Y-12133073D01*
X12267927Y-12147359D01*
X12710784Y-12061644D02*
X12567927Y-12061644D01*
X12553641Y-12204501D01*
X12567927Y-12190216D01*
X12596498Y-12175930D01*
X12667927Y-12175930D01*
X12696498Y-12190216D01*
X12710784Y-12204501D01*
X12725070Y-12233073D01*
X12725070Y-12304501D01*
X12710784Y-12333073D01*
X12696498Y-12347359D01*
X12667927Y-12361644D01*
X12596498Y-12361644D01*
X12567927Y-12347359D01*
X12553641Y-12333073D01*
X13082213Y-12361644D02*
X13082213Y-12061644D01*
X13210784Y-12361644D02*
X13210784Y-12204501D01*
X13196498Y-12175930D01*
X13167927Y-12161644D01*
X13125070Y-12161644D01*
X13096498Y-12175930D01*
X13082213Y-12190216D01*
X13396498Y-12361644D02*
X13367927Y-12347359D01*
X13353641Y-12333073D01*
X13339356Y-12304501D01*
X13339356Y-12218787D01*
X13353641Y-12190216D01*
X13367927Y-12175930D01*
X13396498Y-12161644D01*
X13439356Y-12161644D01*
X13467927Y-12175930D01*
X13482213Y-12190216D01*
X13496498Y-12218787D01*
X13496498Y-12304501D01*
X13482213Y-12333073D01*
X13467927Y-12347359D01*
X13439356Y-12361644D01*
X13396498Y-12361644D01*
X13667927Y-12361644D02*
X13639356Y-12347359D01*
X13625070Y-12318787D01*
X13625070Y-12061644D01*
X13896498Y-12347359D02*
X13867927Y-12361644D01*
X13810784Y-12361644D01*
X13782213Y-12347359D01*
X13767927Y-12318787D01*
X13767927Y-12204501D01*
X13782213Y-12175930D01*
X13810784Y-12161644D01*
X13867927Y-12161644D01*
X13896498Y-12175930D01*
X13910784Y-12204501D01*
X13910784Y-12233073D01*
X13767927Y-12261644D01*
X14025070Y-12347359D02*
X14053641Y-12361644D01*
X14110784Y-12361644D01*
X14139356Y-12347359D01*
X14153641Y-12318787D01*
X14153641Y-12304501D01*
X14139356Y-12275930D01*
X14110784Y-12261644D01*
X14067927Y-12261644D01*
X14039356Y-12247359D01*
X14025070Y-12218787D01*
X14025070Y-12204501D01*
X14039356Y-12175930D01*
X14067927Y-12161644D01*
X14110784Y-12161644D01*
X14139356Y-12175930D01*
X14253641Y-12475930D02*
X14267927Y-12461644D01*
X14296498Y-12418787D01*
X14310784Y-12390216D01*
X14325070Y-12347359D01*
X14339356Y-12275930D01*
X14339356Y-12218787D01*
X14325070Y-12147359D01*
X14310784Y-12104501D01*
X14296498Y-12075930D01*
X14267927Y-12033073D01*
X14253641Y-12018787D01*
X6859270Y-12571130D02*
X6859270Y-12672730D01*
X6808470Y-12621930D02*
X6910070Y-12621930D01*
X7353641Y-12757644D02*
X7182213Y-12757644D01*
X7267927Y-12757644D02*
X7267927Y-12457644D01*
X7239356Y-12500501D01*
X7210784Y-12529073D01*
X7182213Y-12543359D01*
X7482213Y-12729073D02*
X7496498Y-12743359D01*
X7482213Y-12757644D01*
X7467927Y-12743359D01*
X7482213Y-12729073D01*
X7482213Y-12757644D01*
X7682213Y-12457644D02*
X7710784Y-12457644D01*
X7739356Y-12471930D01*
X7753641Y-12486216D01*
X7767927Y-12514787D01*
X7782213Y-12571930D01*
X7782213Y-12643359D01*
X7767927Y-12700501D01*
X7753641Y-12729073D01*
X7739356Y-12743359D01*
X7710784Y-12757644D01*
X7682213Y-12757644D01*
X7653641Y-12743359D01*
X7639356Y-12729073D01*
X7625070Y-12700501D01*
X7610784Y-12643359D01*
X7610784Y-12571930D01*
X7625070Y-12514787D01*
X7639356Y-12486216D01*
X7653641Y-12471930D01*
X7682213Y-12457644D01*
X8067927Y-12757644D02*
X7896498Y-12757644D01*
X7982213Y-12757644D02*
X7982213Y-12457644D01*
X7953641Y-12500501D01*
X7925070Y-12529073D01*
X7896498Y-12543359D01*
X8325070Y-12457644D02*
X8267927Y-12457644D01*
X8239356Y-12471930D01*
X8225070Y-12486216D01*
X8196498Y-12529073D01*
X8182213Y-12586216D01*
X8182213Y-12700501D01*
X8196498Y-12729073D01*
X8210784Y-12743359D01*
X8239356Y-12757644D01*
X8296498Y-12757644D01*
X8325070Y-12743359D01*
X8339356Y-12729073D01*
X8353641Y-12700501D01*
X8353641Y-12629073D01*
X8339356Y-12600501D01*
X8325070Y-12586216D01*
X8296498Y-12571930D01*
X8239356Y-12571930D01*
X8210784Y-12586216D01*
X8196498Y-12600501D01*
X8182213Y-12629073D01*
X8482213Y-12757644D02*
X8482213Y-12557644D01*
X8482213Y-12586216D02*
X8496498Y-12571930D01*
X8525070Y-12557644D01*
X8567927Y-12557644D01*
X8596498Y-12571930D01*
X8610784Y-12600501D01*
X8610784Y-12757644D01*
X8610784Y-12600501D02*
X8625070Y-12571930D01*
X8653641Y-12557644D01*
X8696498Y-12557644D01*
X8725070Y-12571930D01*
X8739356Y-12600501D01*
X8739356Y-12757644D01*
X8882213Y-12757644D02*
X8882213Y-12557644D01*
X8882213Y-12586216D02*
X8896498Y-12571930D01*
X8925070Y-12557644D01*
X8967927Y-12557644D01*
X8996498Y-12571930D01*
X9010784Y-12600501D01*
X9010784Y-12757644D01*
X9010784Y-12600501D02*
X9025070Y-12571930D01*
X9053641Y-12557644D01*
X9096498Y-12557644D01*
X9125070Y-12571930D01*
X9139356Y-12600501D01*
X9139356Y-12757644D01*
X9725070Y-12443359D02*
X9467927Y-12829073D01*
X10110784Y-12457644D02*
X10139356Y-12457644D01*
X10167927Y-12471930D01*
X10182213Y-12486216D01*
X10196498Y-12514787D01*
X10210784Y-12571930D01*
X10210784Y-12643359D01*
X10196498Y-12700501D01*
X10182213Y-12729073D01*
X10167927Y-12743359D01*
X10139356Y-12757644D01*
X10110784Y-12757644D01*
X10082213Y-12743359D01*
X10067927Y-12729073D01*
X10053641Y-12700501D01*
X10039356Y-12643359D01*
X10039356Y-12571930D01*
X10053641Y-12514787D01*
X10067927Y-12486216D01*
X10082213Y-12471930D01*
X10110784Y-12457644D01*
X10339356Y-12729073D02*
X10353641Y-12743359D01*
X10339356Y-12757644D01*
X10325070Y-12743359D01*
X10339356Y-12729073D01*
X10339356Y-12757644D01*
X10539356Y-12457644D02*
X10567927Y-12457644D01*
X10596498Y-12471930D01*
X10610784Y-12486216D01*
X10625070Y-12514787D01*
X10639356Y-12571930D01*
X10639356Y-12643359D01*
X10625070Y-12700501D01*
X10610784Y-12729073D01*
X10596498Y-12743359D01*
X10567927Y-12757644D01*
X10539356Y-12757644D01*
X10510784Y-12743359D01*
X10496498Y-12729073D01*
X10482213Y-12700501D01*
X10467927Y-12643359D01*
X10467927Y-12571930D01*
X10482213Y-12514787D01*
X10496498Y-12486216D01*
X10510784Y-12471930D01*
X10539356Y-12457644D01*
X10896498Y-12557644D02*
X10896498Y-12757644D01*
X10825070Y-12443359D02*
X10753641Y-12657644D01*
X10939356Y-12657644D01*
X11110784Y-12457644D02*
X11139356Y-12457644D01*
X11167927Y-12471930D01*
X11182213Y-12486216D01*
X11196498Y-12514787D01*
X11210784Y-12571930D01*
X11210784Y-12643359D01*
X11196498Y-12700501D01*
X11182213Y-12729073D01*
X11167927Y-12743359D01*
X11139356Y-12757644D01*
X11110784Y-12757644D01*
X11082213Y-12743359D01*
X11067927Y-12729073D01*
X11053641Y-12700501D01*
X11039356Y-12643359D01*
X11039356Y-12571930D01*
X11053641Y-12514787D01*
X11067927Y-12486216D01*
X11082213Y-12471930D01*
X11110784Y-12457644D01*
X11396498Y-12457644D02*
X11425070Y-12457644D01*
X11453641Y-12471930D01*
X11467927Y-12486216D01*
X11482213Y-12514787D01*
X11496498Y-12571930D01*
X11496498Y-12643359D01*
X11482213Y-12700501D01*
X11467927Y-12729073D01*
X11453641Y-12743359D01*
X11425070Y-12757644D01*
X11396498Y-12757644D01*
X11367927Y-12743359D01*
X11353641Y-12729073D01*
X11339356Y-12700501D01*
X11325070Y-12643359D01*
X11325070Y-12571930D01*
X11339356Y-12514787D01*
X11353641Y-12486216D01*
X11367927Y-12471930D01*
X11396498Y-12457644D01*
X11610784Y-12457644D02*
X11610784Y-12514787D01*
X11725070Y-12457644D02*
X11725070Y-12514787D01*
X12167927Y-12871930D02*
X12153641Y-12857644D01*
X12125070Y-12814787D01*
X12110784Y-12786216D01*
X12096498Y-12743359D01*
X12082213Y-12671930D01*
X12082213Y-12614787D01*
X12096498Y-12543359D01*
X12110784Y-12500501D01*
X12125070Y-12471930D01*
X12153641Y-12429073D01*
X12167927Y-12414787D01*
X12267927Y-12486216D02*
X12282213Y-12471930D01*
X12310784Y-12457644D01*
X12382213Y-12457644D01*
X12410784Y-12471930D01*
X12425070Y-12486216D01*
X12439356Y-12514787D01*
X12439356Y-12543359D01*
X12425070Y-12586216D01*
X12253641Y-12757644D01*
X12439356Y-12757644D01*
X12539356Y-12457644D02*
X12739356Y-12457644D01*
X12610784Y-12757644D01*
X13082213Y-12757644D02*
X13082213Y-12457644D01*
X13210784Y-12757644D02*
X13210784Y-12600501D01*
X13196498Y-12571930D01*
X13167927Y-12557644D01*
X13125070Y-12557644D01*
X13096498Y-12571930D01*
X13082213Y-12586216D01*
X13396498Y-12757644D02*
X13367927Y-12743359D01*
X13353641Y-12729073D01*
X13339356Y-12700501D01*
X13339356Y-12614787D01*
X13353641Y-12586216D01*
X13367927Y-12571930D01*
X13396498Y-12557644D01*
X13439356Y-12557644D01*
X13467927Y-12571930D01*
X13482213Y-12586216D01*
X13496498Y-12614787D01*
X13496498Y-12700501D01*
X13482213Y-12729073D01*
X13467927Y-12743359D01*
X13439356Y-12757644D01*
X13396498Y-12757644D01*
X13667927Y-12757644D02*
X13639356Y-12743359D01*
X13625070Y-12714787D01*
X13625070Y-12457644D01*
X13896498Y-12743359D02*
X13867927Y-12757644D01*
X13810784Y-12757644D01*
X13782213Y-12743359D01*
X13767927Y-12714787D01*
X13767927Y-12600501D01*
X13782213Y-12571930D01*
X13810784Y-12557644D01*
X13867927Y-12557644D01*
X13896498Y-12571930D01*
X13910784Y-12600501D01*
X13910784Y-12629073D01*
X13767927Y-12657644D01*
X14025070Y-12743359D02*
X14053641Y-12757644D01*
X14110784Y-12757644D01*
X14139356Y-12743359D01*
X14153641Y-12714787D01*
X14153641Y-12700501D01*
X14139356Y-12671930D01*
X14110784Y-12657644D01*
X14067927Y-12657644D01*
X14039356Y-12643359D01*
X14025070Y-12614787D01*
X14025070Y-12600501D01*
X14039356Y-12571930D01*
X14067927Y-12557644D01*
X14110784Y-12557644D01*
X14139356Y-12571930D01*
X14253641Y-12871930D02*
X14267927Y-12857644D01*
X14296498Y-12814787D01*
X14310784Y-12786216D01*
X14325070Y-12743359D01*
X14339356Y-12671930D01*
X14339356Y-12614787D01*
X14325070Y-12543359D01*
X14310784Y-12500501D01*
X14296498Y-12471930D01*
X14267927Y-12429073D01*
X14253641Y-12414787D01*
X6889568Y-13067428D02*
X6889568Y-12968432D01*
X6790572Y-12968432D01*
X6790572Y-13067428D01*
X6889568Y-13067428D01*
X7353641Y-13153644D02*
X7182213Y-13153644D01*
X7267927Y-13153644D02*
X7267927Y-12853644D01*
X7239356Y-12896501D01*
X7210784Y-12925073D01*
X7182213Y-12939359D01*
X7482213Y-13125073D02*
X7496498Y-13139359D01*
X7482213Y-13153644D01*
X7467927Y-13139359D01*
X7482213Y-13125073D01*
X7482213Y-13153644D01*
X7753641Y-12953644D02*
X7753641Y-13153644D01*
X7682213Y-12839359D02*
X7610784Y-13053644D01*
X7796498Y-13053644D01*
X7967927Y-12853644D02*
X7996498Y-12853644D01*
X8025070Y-12867930D01*
X8039356Y-12882216D01*
X8053641Y-12910787D01*
X8067927Y-12967930D01*
X8067927Y-13039359D01*
X8053641Y-13096501D01*
X8039356Y-13125073D01*
X8025070Y-13139359D01*
X7996498Y-13153644D01*
X7967927Y-13153644D01*
X7939356Y-13139359D01*
X7925070Y-13125073D01*
X7910784Y-13096501D01*
X7896498Y-13039359D01*
X7896498Y-12967930D01*
X7910784Y-12910787D01*
X7925070Y-12882216D01*
X7939356Y-12867930D01*
X7967927Y-12853644D01*
X8253641Y-12853644D02*
X8282213Y-12853644D01*
X8310784Y-12867930D01*
X8325070Y-12882216D01*
X8339356Y-12910787D01*
X8353641Y-12967930D01*
X8353641Y-13039359D01*
X8339356Y-13096501D01*
X8325070Y-13125073D01*
X8310784Y-13139359D01*
X8282213Y-13153644D01*
X8253641Y-13153644D01*
X8225070Y-13139359D01*
X8210784Y-13125073D01*
X8196498Y-13096501D01*
X8182213Y-13039359D01*
X8182213Y-12967930D01*
X8196498Y-12910787D01*
X8210784Y-12882216D01*
X8225070Y-12867930D01*
X8253641Y-12853644D01*
X8482213Y-13153644D02*
X8482213Y-12953644D01*
X8482213Y-12982216D02*
X8496498Y-12967930D01*
X8525070Y-12953644D01*
X8567927Y-12953644D01*
X8596498Y-12967930D01*
X8610784Y-12996501D01*
X8610784Y-13153644D01*
X8610784Y-12996501D02*
X8625070Y-12967930D01*
X8653641Y-12953644D01*
X8696498Y-12953644D01*
X8725070Y-12967930D01*
X8739356Y-12996501D01*
X8739356Y-13153644D01*
X8882213Y-13153644D02*
X8882213Y-12953644D01*
X8882213Y-12982216D02*
X8896498Y-12967930D01*
X8925070Y-12953644D01*
X8967927Y-12953644D01*
X8996498Y-12967930D01*
X9010784Y-12996501D01*
X9010784Y-13153644D01*
X9010784Y-12996501D02*
X9025070Y-12967930D01*
X9053641Y-12953644D01*
X9096498Y-12953644D01*
X9125070Y-12967930D01*
X9139356Y-12996501D01*
X9139356Y-13153644D01*
X9725070Y-12839359D02*
X9467927Y-13225073D01*
X10110784Y-12853644D02*
X10139356Y-12853644D01*
X10167927Y-12867930D01*
X10182213Y-12882216D01*
X10196498Y-12910787D01*
X10210784Y-12967930D01*
X10210784Y-13039359D01*
X10196498Y-13096501D01*
X10182213Y-13125073D01*
X10167927Y-13139359D01*
X10139356Y-13153644D01*
X10110784Y-13153644D01*
X10082213Y-13139359D01*
X10067927Y-13125073D01*
X10053641Y-13096501D01*
X10039356Y-13039359D01*
X10039356Y-12967930D01*
X10053641Y-12910787D01*
X10067927Y-12882216D01*
X10082213Y-12867930D01*
X10110784Y-12853644D01*
X10339356Y-13125073D02*
X10353641Y-13139359D01*
X10339356Y-13153644D01*
X10325070Y-13139359D01*
X10339356Y-13125073D01*
X10339356Y-13153644D01*
X10539356Y-12853644D02*
X10567927Y-12853644D01*
X10596498Y-12867930D01*
X10610784Y-12882216D01*
X10625070Y-12910787D01*
X10639356Y-12967930D01*
X10639356Y-13039359D01*
X10625070Y-13096501D01*
X10610784Y-13125073D01*
X10596498Y-13139359D01*
X10567927Y-13153644D01*
X10539356Y-13153644D01*
X10510784Y-13139359D01*
X10496498Y-13125073D01*
X10482213Y-13096501D01*
X10467927Y-13039359D01*
X10467927Y-12967930D01*
X10482213Y-12910787D01*
X10496498Y-12882216D01*
X10510784Y-12867930D01*
X10539356Y-12853644D01*
X10910784Y-12853644D02*
X10767927Y-12853644D01*
X10753641Y-12996501D01*
X10767927Y-12982216D01*
X10796498Y-12967930D01*
X10867927Y-12967930D01*
X10896498Y-12982216D01*
X10910784Y-12996501D01*
X10925070Y-13025073D01*
X10925070Y-13096501D01*
X10910784Y-13125073D01*
X10896498Y-13139359D01*
X10867927Y-13153644D01*
X10796498Y-13153644D01*
X10767927Y-13139359D01*
X10753641Y-13125073D01*
X11196498Y-12853644D02*
X11053641Y-12853644D01*
X11039356Y-12996501D01*
X11053641Y-12982216D01*
X11082213Y-12967930D01*
X11153641Y-12967930D01*
X11182213Y-12982216D01*
X11196498Y-12996501D01*
X11210784Y-13025073D01*
X11210784Y-13096501D01*
X11196498Y-13125073D01*
X11182213Y-13139359D01*
X11153641Y-13153644D01*
X11082213Y-13153644D01*
X11053641Y-13139359D01*
X11039356Y-13125073D01*
X11496498Y-13153644D02*
X11325070Y-13153644D01*
X11410784Y-13153644D02*
X11410784Y-12853644D01*
X11382213Y-12896501D01*
X11353641Y-12925073D01*
X11325070Y-12939359D01*
X11610784Y-12853644D02*
X11610784Y-12910787D01*
X11725070Y-12853644D02*
X11725070Y-12910787D01*
X12167927Y-13267930D02*
X12153641Y-13253644D01*
X12125070Y-13210787D01*
X12110784Y-13182216D01*
X12096498Y-13139359D01*
X12082213Y-13067930D01*
X12082213Y-13010787D01*
X12096498Y-12939359D01*
X12110784Y-12896501D01*
X12125070Y-12867930D01*
X12153641Y-12825073D01*
X12167927Y-12810787D01*
X12410784Y-12853644D02*
X12353641Y-12853644D01*
X12325070Y-12867930D01*
X12310784Y-12882216D01*
X12282213Y-12925073D01*
X12267927Y-12982216D01*
X12267927Y-13096501D01*
X12282213Y-13125073D01*
X12296498Y-13139359D01*
X12325070Y-13153644D01*
X12382213Y-13153644D01*
X12410784Y-13139359D01*
X12425070Y-13125073D01*
X12439356Y-13096501D01*
X12439356Y-13025073D01*
X12425070Y-12996501D01*
X12410784Y-12982216D01*
X12382213Y-12967930D01*
X12325070Y-12967930D01*
X12296498Y-12982216D01*
X12282213Y-12996501D01*
X12267927Y-13025073D01*
X12796498Y-13153644D02*
X12796498Y-12853644D01*
X12925070Y-13153644D02*
X12925070Y-12996501D01*
X12910784Y-12967930D01*
X12882213Y-12953644D01*
X12839356Y-12953644D01*
X12810784Y-12967930D01*
X12796498Y-12982216D01*
X13110784Y-13153644D02*
X13082213Y-13139359D01*
X13067927Y-13125073D01*
X13053641Y-13096501D01*
X13053641Y-13010787D01*
X13067927Y-12982216D01*
X13082213Y-12967930D01*
X13110784Y-12953644D01*
X13153641Y-12953644D01*
X13182213Y-12967930D01*
X13196498Y-12982216D01*
X13210784Y-13010787D01*
X13210784Y-13096501D01*
X13196498Y-13125073D01*
X13182213Y-13139359D01*
X13153641Y-13153644D01*
X13110784Y-13153644D01*
X13382213Y-13153644D02*
X13353641Y-13139359D01*
X13339356Y-13110787D01*
X13339356Y-12853644D01*
X13610784Y-13139359D02*
X13582213Y-13153644D01*
X13525070Y-13153644D01*
X13496498Y-13139359D01*
X13482213Y-13110787D01*
X13482213Y-12996501D01*
X13496498Y-12967930D01*
X13525070Y-12953644D01*
X13582213Y-12953644D01*
X13610784Y-12967930D01*
X13625070Y-12996501D01*
X13625070Y-13025073D01*
X13482213Y-13053644D01*
X13739356Y-13139359D02*
X13767927Y-13153644D01*
X13825070Y-13153644D01*
X13853641Y-13139359D01*
X13867927Y-13110787D01*
X13867927Y-13096501D01*
X13853641Y-13067930D01*
X13825070Y-13053644D01*
X13782213Y-13053644D01*
X13753641Y-13039359D01*
X13739356Y-13010787D01*
X13739356Y-12996501D01*
X13753641Y-12967930D01*
X13782213Y-12953644D01*
X13825070Y-12953644D01*
X13853641Y-12967930D01*
X13967927Y-13267930D02*
X13982213Y-13253644D01*
X14010784Y-13210787D01*
X14025070Y-13182216D01*
X14039356Y-13139359D01*
X14053641Y-13067930D01*
X14053641Y-13010787D01*
X14039356Y-12939359D01*
X14025070Y-12896501D01*
X14010784Y-12867930D01*
X13982213Y-12825073D01*
X13967927Y-12810787D01*
X6832600Y-13491400D02*
X6910070Y-13413930D01*
X6832600Y-13336460D01*
X6755130Y-13413930D01*
X6832600Y-13491400D01*
X7353641Y-13549644D02*
X7182213Y-13549644D01*
X7267927Y-13549644D02*
X7267927Y-13249644D01*
X7239356Y-13292501D01*
X7210784Y-13321073D01*
X7182213Y-13335359D01*
X7482213Y-13521073D02*
X7496498Y-13535359D01*
X7482213Y-13549644D01*
X7467927Y-13535359D01*
X7482213Y-13521073D01*
X7482213Y-13549644D01*
X7767927Y-13249644D02*
X7625070Y-13249644D01*
X7610784Y-13392501D01*
X7625070Y-13378216D01*
X7653641Y-13363930D01*
X7725070Y-13363930D01*
X7753641Y-13378216D01*
X7767927Y-13392501D01*
X7782213Y-13421073D01*
X7782213Y-13492501D01*
X7767927Y-13521073D01*
X7753641Y-13535359D01*
X7725070Y-13549644D01*
X7653641Y-13549644D01*
X7625070Y-13535359D01*
X7610784Y-13521073D01*
X8039356Y-13349644D02*
X8039356Y-13549644D01*
X7967927Y-13235359D02*
X7896498Y-13449644D01*
X8082213Y-13449644D01*
X8210784Y-13549644D02*
X8267927Y-13549644D01*
X8296498Y-13535359D01*
X8310784Y-13521073D01*
X8339356Y-13478216D01*
X8353641Y-13421073D01*
X8353641Y-13306787D01*
X8339356Y-13278216D01*
X8325070Y-13263930D01*
X8296498Y-13249644D01*
X8239356Y-13249644D01*
X8210784Y-13263930D01*
X8196498Y-13278216D01*
X8182213Y-13306787D01*
X8182213Y-13378216D01*
X8196498Y-13406787D01*
X8210784Y-13421073D01*
X8239356Y-13435359D01*
X8296498Y-13435359D01*
X8325070Y-13421073D01*
X8339356Y-13406787D01*
X8353641Y-13378216D01*
X8482213Y-13549644D02*
X8482213Y-13349644D01*
X8482213Y-13378216D02*
X8496498Y-13363930D01*
X8525070Y-13349644D01*
X8567927Y-13349644D01*
X8596498Y-13363930D01*
X8610784Y-13392501D01*
X8610784Y-13549644D01*
X8610784Y-13392501D02*
X8625070Y-13363930D01*
X8653641Y-13349644D01*
X8696498Y-13349644D01*
X8725070Y-13363930D01*
X8739356Y-13392501D01*
X8739356Y-13549644D01*
X8882213Y-13549644D02*
X8882213Y-13349644D01*
X8882213Y-13378216D02*
X8896498Y-13363930D01*
X8925070Y-13349644D01*
X8967927Y-13349644D01*
X8996498Y-13363930D01*
X9010784Y-13392501D01*
X9010784Y-13549644D01*
X9010784Y-13392501D02*
X9025070Y-13363930D01*
X9053641Y-13349644D01*
X9096498Y-13349644D01*
X9125070Y-13363930D01*
X9139356Y-13392501D01*
X9139356Y-13549644D01*
X9725070Y-13235359D02*
X9467927Y-13621073D01*
X10110784Y-13249644D02*
X10139356Y-13249644D01*
X10167927Y-13263930D01*
X10182213Y-13278216D01*
X10196498Y-13306787D01*
X10210784Y-13363930D01*
X10210784Y-13435359D01*
X10196498Y-13492501D01*
X10182213Y-13521073D01*
X10167927Y-13535359D01*
X10139356Y-13549644D01*
X10110784Y-13549644D01*
X10082213Y-13535359D01*
X10067927Y-13521073D01*
X10053641Y-13492501D01*
X10039356Y-13435359D01*
X10039356Y-13363930D01*
X10053641Y-13306787D01*
X10067927Y-13278216D01*
X10082213Y-13263930D01*
X10110784Y-13249644D01*
X10339356Y-13521073D02*
X10353641Y-13535359D01*
X10339356Y-13549644D01*
X10325070Y-13535359D01*
X10339356Y-13521073D01*
X10339356Y-13549644D01*
X10539356Y-13249644D02*
X10567927Y-13249644D01*
X10596498Y-13263930D01*
X10610784Y-13278216D01*
X10625070Y-13306787D01*
X10639356Y-13363930D01*
X10639356Y-13435359D01*
X10625070Y-13492501D01*
X10610784Y-13521073D01*
X10596498Y-13535359D01*
X10567927Y-13549644D01*
X10539356Y-13549644D01*
X10510784Y-13535359D01*
X10496498Y-13521073D01*
X10482213Y-13492501D01*
X10467927Y-13435359D01*
X10467927Y-13363930D01*
X10482213Y-13306787D01*
X10496498Y-13278216D01*
X10510784Y-13263930D01*
X10539356Y-13249644D01*
X10896498Y-13249644D02*
X10839356Y-13249644D01*
X10810784Y-13263930D01*
X10796498Y-13278216D01*
X10767927Y-13321073D01*
X10753641Y-13378216D01*
X10753641Y-13492501D01*
X10767927Y-13521073D01*
X10782213Y-13535359D01*
X10810784Y-13549644D01*
X10867927Y-13549644D01*
X10896498Y-13535359D01*
X10910784Y-13521073D01*
X10925070Y-13492501D01*
X10925070Y-13421073D01*
X10910784Y-13392501D01*
X10896498Y-13378216D01*
X10867927Y-13363930D01*
X10810784Y-13363930D01*
X10782213Y-13378216D01*
X10767927Y-13392501D01*
X10753641Y-13421073D01*
X11210784Y-13549644D02*
X11039356Y-13549644D01*
X11125070Y-13549644D02*
X11125070Y-13249644D01*
X11096498Y-13292501D01*
X11067927Y-13321073D01*
X11039356Y-13335359D01*
X11396498Y-13249644D02*
X11425070Y-13249644D01*
X11453641Y-13263930D01*
X11467927Y-13278216D01*
X11482213Y-13306787D01*
X11496498Y-13363930D01*
X11496498Y-13435359D01*
X11482213Y-13492501D01*
X11467927Y-13521073D01*
X11453641Y-13535359D01*
X11425070Y-13549644D01*
X11396498Y-13549644D01*
X11367927Y-13535359D01*
X11353641Y-13521073D01*
X11339356Y-13492501D01*
X11325070Y-13435359D01*
X11325070Y-13363930D01*
X11339356Y-13306787D01*
X11353641Y-13278216D01*
X11367927Y-13263930D01*
X11396498Y-13249644D01*
X11610784Y-13249644D02*
X11610784Y-13306787D01*
X11725070Y-13249644D02*
X11725070Y-13306787D01*
X12167927Y-13663930D02*
X12153641Y-13649644D01*
X12125070Y-13606787D01*
X12110784Y-13578216D01*
X12096498Y-13535359D01*
X12082213Y-13463930D01*
X12082213Y-13406787D01*
X12096498Y-13335359D01*
X12110784Y-13292501D01*
X12125070Y-13263930D01*
X12153641Y-13221073D01*
X12167927Y-13206787D01*
X12267927Y-13278216D02*
X12282213Y-13263930D01*
X12310784Y-13249644D01*
X12382213Y-13249644D01*
X12410784Y-13263930D01*
X12425070Y-13278216D01*
X12439356Y-13306787D01*
X12439356Y-13335359D01*
X12425070Y-13378216D01*
X12253641Y-13549644D01*
X12439356Y-13549644D01*
X12610784Y-13378216D02*
X12582213Y-13363930D01*
X12567927Y-13349644D01*
X12553641Y-13321073D01*
X12553641Y-13306787D01*
X12567927Y-13278216D01*
X12582213Y-13263930D01*
X12610784Y-13249644D01*
X12667927Y-13249644D01*
X12696498Y-13263930D01*
X12710784Y-13278216D01*
X12725070Y-13306787D01*
X12725070Y-13321073D01*
X12710784Y-13349644D01*
X12696498Y-13363930D01*
X12667927Y-13378216D01*
X12610784Y-13378216D01*
X12582213Y-13392501D01*
X12567927Y-13406787D01*
X12553641Y-13435359D01*
X12553641Y-13492501D01*
X12567927Y-13521073D01*
X12582213Y-13535359D01*
X12610784Y-13549644D01*
X12667927Y-13549644D01*
X12696498Y-13535359D01*
X12710784Y-13521073D01*
X12725070Y-13492501D01*
X12725070Y-13435359D01*
X12710784Y-13406787D01*
X12696498Y-13392501D01*
X12667927Y-13378216D01*
X13082213Y-13549644D02*
X13082213Y-13249644D01*
X13210784Y-13549644D02*
X13210784Y-13392501D01*
X13196498Y-13363930D01*
X13167927Y-13349644D01*
X13125070Y-13349644D01*
X13096498Y-13363930D01*
X13082213Y-13378216D01*
X13396498Y-13549644D02*
X13367927Y-13535359D01*
X13353641Y-13521073D01*
X13339356Y-13492501D01*
X13339356Y-13406787D01*
X13353641Y-13378216D01*
X13367927Y-13363930D01*
X13396498Y-13349644D01*
X13439356Y-13349644D01*
X13467927Y-13363930D01*
X13482213Y-13378216D01*
X13496498Y-13406787D01*
X13496498Y-13492501D01*
X13482213Y-13521073D01*
X13467927Y-13535359D01*
X13439356Y-13549644D01*
X13396498Y-13549644D01*
X13667927Y-13549644D02*
X13639356Y-13535359D01*
X13625070Y-13506787D01*
X13625070Y-13249644D01*
X13896498Y-13535359D02*
X13867927Y-13549644D01*
X13810784Y-13549644D01*
X13782213Y-13535359D01*
X13767927Y-13506787D01*
X13767927Y-13392501D01*
X13782213Y-13363930D01*
X13810784Y-13349644D01*
X13867927Y-13349644D01*
X13896498Y-13363930D01*
X13910784Y-13392501D01*
X13910784Y-13421073D01*
X13767927Y-13449644D01*
X14025070Y-13535359D02*
X14053641Y-13549644D01*
X14110784Y-13549644D01*
X14139356Y-13535359D01*
X14153641Y-13506787D01*
X14153641Y-13492501D01*
X14139356Y-13463930D01*
X14110784Y-13449644D01*
X14067927Y-13449644D01*
X14039356Y-13435359D01*
X14025070Y-13406787D01*
X14025070Y-13392501D01*
X14039356Y-13363930D01*
X14067927Y-13349644D01*
X14110784Y-13349644D01*
X14139356Y-13363930D01*
X14253641Y-13663930D02*
X14267927Y-13649644D01*
X14296498Y-13606787D01*
X14310784Y-13578216D01*
X14325070Y-13535359D01*
X14339356Y-13463930D01*
X14339356Y-13406787D01*
X14325070Y-13335359D01*
X14310784Y-13292501D01*
X14296498Y-13263930D01*
X14267927Y-13221073D01*
X14253641Y-13206787D01*
X6740070Y-13724930D02*
X6910070Y-13894930D01*
X6910070Y-13724930D02*
X6740070Y-13894930D01*
X6910070Y-13809930D02*
G75*
G03*
X6910070Y-13809930I-85000J0D01*
G01*
X7353641Y-13945644D02*
X7182213Y-13945644D01*
X7267927Y-13945644D02*
X7267927Y-13645644D01*
X7239356Y-13688501D01*
X7210784Y-13717073D01*
X7182213Y-13731359D01*
X7482213Y-13917073D02*
X7496498Y-13931359D01*
X7482213Y-13945644D01*
X7467927Y-13931359D01*
X7482213Y-13917073D01*
X7482213Y-13945644D01*
X7596498Y-13645644D02*
X7796498Y-13645644D01*
X7667927Y-13945644D01*
X7967927Y-13645644D02*
X7996498Y-13645644D01*
X8025070Y-13659930D01*
X8039356Y-13674216D01*
X8053641Y-13702787D01*
X8067927Y-13759930D01*
X8067927Y-13831359D01*
X8053641Y-13888501D01*
X8039356Y-13917073D01*
X8025070Y-13931359D01*
X7996498Y-13945644D01*
X7967927Y-13945644D01*
X7939356Y-13931359D01*
X7925070Y-13917073D01*
X7910784Y-13888501D01*
X7896498Y-13831359D01*
X7896498Y-13759930D01*
X7910784Y-13702787D01*
X7925070Y-13674216D01*
X7939356Y-13659930D01*
X7967927Y-13645644D01*
X8253641Y-13645644D02*
X8282213Y-13645644D01*
X8310784Y-13659930D01*
X8325070Y-13674216D01*
X8339356Y-13702787D01*
X8353641Y-13759930D01*
X8353641Y-13831359D01*
X8339356Y-13888501D01*
X8325070Y-13917073D01*
X8310784Y-13931359D01*
X8282213Y-13945644D01*
X8253641Y-13945644D01*
X8225070Y-13931359D01*
X8210784Y-13917073D01*
X8196498Y-13888501D01*
X8182213Y-13831359D01*
X8182213Y-13759930D01*
X8196498Y-13702787D01*
X8210784Y-13674216D01*
X8225070Y-13659930D01*
X8253641Y-13645644D01*
X8482213Y-13945644D02*
X8482213Y-13745644D01*
X8482213Y-13774216D02*
X8496498Y-13759930D01*
X8525070Y-13745644D01*
X8567927Y-13745644D01*
X8596498Y-13759930D01*
X8610784Y-13788501D01*
X8610784Y-13945644D01*
X8610784Y-13788501D02*
X8625070Y-13759930D01*
X8653641Y-13745644D01*
X8696498Y-13745644D01*
X8725070Y-13759930D01*
X8739356Y-13788501D01*
X8739356Y-13945644D01*
X8882213Y-13945644D02*
X8882213Y-13745644D01*
X8882213Y-13774216D02*
X8896498Y-13759930D01*
X8925070Y-13745644D01*
X8967927Y-13745644D01*
X8996498Y-13759930D01*
X9010784Y-13788501D01*
X9010784Y-13945644D01*
X9010784Y-13788501D02*
X9025070Y-13759930D01*
X9053641Y-13745644D01*
X9096498Y-13745644D01*
X9125070Y-13759930D01*
X9139356Y-13788501D01*
X9139356Y-13945644D01*
X9725070Y-13631359D02*
X9467927Y-14017073D01*
X10110784Y-13645644D02*
X10139356Y-13645644D01*
X10167927Y-13659930D01*
X10182213Y-13674216D01*
X10196498Y-13702787D01*
X10210784Y-13759930D01*
X10210784Y-13831359D01*
X10196498Y-13888501D01*
X10182213Y-13917073D01*
X10167927Y-13931359D01*
X10139356Y-13945644D01*
X10110784Y-13945644D01*
X10082213Y-13931359D01*
X10067927Y-13917073D01*
X10053641Y-13888501D01*
X10039356Y-13831359D01*
X10039356Y-13759930D01*
X10053641Y-13702787D01*
X10067927Y-13674216D01*
X10082213Y-13659930D01*
X10110784Y-13645644D01*
X10339356Y-13917073D02*
X10353641Y-13931359D01*
X10339356Y-13945644D01*
X10325070Y-13931359D01*
X10339356Y-13917073D01*
X10339356Y-13945644D01*
X10539356Y-13645644D02*
X10567927Y-13645644D01*
X10596498Y-13659930D01*
X10610784Y-13674216D01*
X10625070Y-13702787D01*
X10639356Y-13759930D01*
X10639356Y-13831359D01*
X10625070Y-13888501D01*
X10610784Y-13917073D01*
X10596498Y-13931359D01*
X10567927Y-13945644D01*
X10539356Y-13945644D01*
X10510784Y-13931359D01*
X10496498Y-13917073D01*
X10482213Y-13888501D01*
X10467927Y-13831359D01*
X10467927Y-13759930D01*
X10482213Y-13702787D01*
X10496498Y-13674216D01*
X10510784Y-13659930D01*
X10539356Y-13645644D01*
X10896498Y-13645644D02*
X10839356Y-13645644D01*
X10810784Y-13659930D01*
X10796498Y-13674216D01*
X10767927Y-13717073D01*
X10753641Y-13774216D01*
X10753641Y-13888501D01*
X10767927Y-13917073D01*
X10782213Y-13931359D01*
X10810784Y-13945644D01*
X10867927Y-13945644D01*
X10896498Y-13931359D01*
X10910784Y-13917073D01*
X10925070Y-13888501D01*
X10925070Y-13817073D01*
X10910784Y-13788501D01*
X10896498Y-13774216D01*
X10867927Y-13759930D01*
X10810784Y-13759930D01*
X10782213Y-13774216D01*
X10767927Y-13788501D01*
X10753641Y-13817073D01*
X11182213Y-13645644D02*
X11125070Y-13645644D01*
X11096498Y-13659930D01*
X11082213Y-13674216D01*
X11053641Y-13717073D01*
X11039356Y-13774216D01*
X11039356Y-13888501D01*
X11053641Y-13917073D01*
X11067927Y-13931359D01*
X11096498Y-13945644D01*
X11153641Y-13945644D01*
X11182213Y-13931359D01*
X11196498Y-13917073D01*
X11210784Y-13888501D01*
X11210784Y-13817073D01*
X11196498Y-13788501D01*
X11182213Y-13774216D01*
X11153641Y-13759930D01*
X11096498Y-13759930D01*
X11067927Y-13774216D01*
X11053641Y-13788501D01*
X11039356Y-13817073D01*
X11353641Y-13945644D02*
X11410784Y-13945644D01*
X11439356Y-13931359D01*
X11453641Y-13917073D01*
X11482213Y-13874216D01*
X11496498Y-13817073D01*
X11496498Y-13702787D01*
X11482213Y-13674216D01*
X11467927Y-13659930D01*
X11439356Y-13645644D01*
X11382213Y-13645644D01*
X11353641Y-13659930D01*
X11339356Y-13674216D01*
X11325070Y-13702787D01*
X11325070Y-13774216D01*
X11339356Y-13802787D01*
X11353641Y-13817073D01*
X11382213Y-13831359D01*
X11439356Y-13831359D01*
X11467927Y-13817073D01*
X11482213Y-13802787D01*
X11496498Y-13774216D01*
X11610784Y-13645644D02*
X11610784Y-13702787D01*
X11725070Y-13645644D02*
X11725070Y-13702787D01*
X12167927Y-14059930D02*
X12153641Y-14045644D01*
X12125070Y-14002787D01*
X12110784Y-13974216D01*
X12096498Y-13931359D01*
X12082213Y-13859930D01*
X12082213Y-13802787D01*
X12096498Y-13731359D01*
X12110784Y-13688501D01*
X12125070Y-13659930D01*
X12153641Y-13617073D01*
X12167927Y-13602787D01*
X12267927Y-13674216D02*
X12282213Y-13659930D01*
X12310784Y-13645644D01*
X12382213Y-13645644D01*
X12410784Y-13659930D01*
X12425070Y-13674216D01*
X12439356Y-13702787D01*
X12439356Y-13731359D01*
X12425070Y-13774216D01*
X12253641Y-13945644D01*
X12439356Y-13945644D01*
X12796498Y-13945644D02*
X12796498Y-13645644D01*
X12925070Y-13945644D02*
X12925070Y-13788501D01*
X12910784Y-13759930D01*
X12882213Y-13745644D01*
X12839356Y-13745644D01*
X12810784Y-13759930D01*
X12796498Y-13774216D01*
X13110784Y-13945644D02*
X13082213Y-13931359D01*
X13067927Y-13917073D01*
X13053641Y-13888501D01*
X13053641Y-13802787D01*
X13067927Y-13774216D01*
X13082213Y-13759930D01*
X13110784Y-13745644D01*
X13153641Y-13745644D01*
X13182213Y-13759930D01*
X13196498Y-13774216D01*
X13210784Y-13802787D01*
X13210784Y-13888501D01*
X13196498Y-13917073D01*
X13182213Y-13931359D01*
X13153641Y-13945644D01*
X13110784Y-13945644D01*
X13382213Y-13945644D02*
X13353641Y-13931359D01*
X13339356Y-13902787D01*
X13339356Y-13645644D01*
X13610784Y-13931359D02*
X13582213Y-13945644D01*
X13525070Y-13945644D01*
X13496498Y-13931359D01*
X13482213Y-13902787D01*
X13482213Y-13788501D01*
X13496498Y-13759930D01*
X13525070Y-13745644D01*
X13582213Y-13745644D01*
X13610784Y-13759930D01*
X13625070Y-13788501D01*
X13625070Y-13817073D01*
X13482213Y-13845644D01*
X13739356Y-13931359D02*
X13767927Y-13945644D01*
X13825070Y-13945644D01*
X13853641Y-13931359D01*
X13867927Y-13902787D01*
X13867927Y-13888501D01*
X13853641Y-13859930D01*
X13825070Y-13845644D01*
X13782213Y-13845644D01*
X13753641Y-13831359D01*
X13739356Y-13802787D01*
X13739356Y-13788501D01*
X13753641Y-13759930D01*
X13782213Y-13745644D01*
X13825070Y-13745644D01*
X13853641Y-13759930D01*
X13967927Y-14059930D02*
X13982213Y-14045644D01*
X14010784Y-14002787D01*
X14025070Y-13974216D01*
X14039356Y-13931359D01*
X14053641Y-13859930D01*
X14053641Y-13802787D01*
X14039356Y-13731359D01*
X14025070Y-13688501D01*
X14010784Y-13659930D01*
X13982213Y-13617073D01*
X13967927Y-13602787D01*
X6710070Y-14105930D02*
X6910070Y-14305930D01*
X6910070Y-14105930D02*
X6710070Y-14305930D01*
X6810070Y-14105930D02*
X6810070Y-14305930D01*
X6710070Y-14205930D02*
X6910070Y-14205930D01*
X7182213Y-14070216D02*
X7196498Y-14055930D01*
X7225070Y-14041644D01*
X7296498Y-14041644D01*
X7325070Y-14055930D01*
X7339356Y-14070216D01*
X7353641Y-14098787D01*
X7353641Y-14127359D01*
X7339356Y-14170216D01*
X7167927Y-14341644D01*
X7353641Y-14341644D01*
X7482213Y-14313073D02*
X7496498Y-14327359D01*
X7482213Y-14341644D01*
X7467927Y-14327359D01*
X7482213Y-14313073D01*
X7482213Y-14341644D01*
X7682213Y-14041644D02*
X7710784Y-14041644D01*
X7739356Y-14055930D01*
X7753641Y-14070216D01*
X7767927Y-14098787D01*
X7782213Y-14155930D01*
X7782213Y-14227359D01*
X7767927Y-14284501D01*
X7753641Y-14313073D01*
X7739356Y-14327359D01*
X7710784Y-14341644D01*
X7682213Y-14341644D01*
X7653641Y-14327359D01*
X7639356Y-14313073D01*
X7625070Y-14284501D01*
X7610784Y-14227359D01*
X7610784Y-14155930D01*
X7625070Y-14098787D01*
X7639356Y-14070216D01*
X7653641Y-14055930D01*
X7682213Y-14041644D01*
X7967927Y-14041644D02*
X7996498Y-14041644D01*
X8025070Y-14055930D01*
X8039356Y-14070216D01*
X8053641Y-14098787D01*
X8067927Y-14155930D01*
X8067927Y-14227359D01*
X8053641Y-14284501D01*
X8039356Y-14313073D01*
X8025070Y-14327359D01*
X7996498Y-14341644D01*
X7967927Y-14341644D01*
X7939356Y-14327359D01*
X7925070Y-14313073D01*
X7910784Y-14284501D01*
X7896498Y-14227359D01*
X7896498Y-14155930D01*
X7910784Y-14098787D01*
X7925070Y-14070216D01*
X7939356Y-14055930D01*
X7967927Y-14041644D01*
X8253641Y-14041644D02*
X8282213Y-14041644D01*
X8310784Y-14055930D01*
X8325070Y-14070216D01*
X8339356Y-14098787D01*
X8353641Y-14155930D01*
X8353641Y-14227359D01*
X8339356Y-14284501D01*
X8325070Y-14313073D01*
X8310784Y-14327359D01*
X8282213Y-14341644D01*
X8253641Y-14341644D01*
X8225070Y-14327359D01*
X8210784Y-14313073D01*
X8196498Y-14284501D01*
X8182213Y-14227359D01*
X8182213Y-14155930D01*
X8196498Y-14098787D01*
X8210784Y-14070216D01*
X8225070Y-14055930D01*
X8253641Y-14041644D01*
X8482213Y-14341644D02*
X8482213Y-14141644D01*
X8482213Y-14170216D02*
X8496498Y-14155930D01*
X8525070Y-14141644D01*
X8567927Y-14141644D01*
X8596498Y-14155930D01*
X8610784Y-14184501D01*
X8610784Y-14341644D01*
X8610784Y-14184501D02*
X8625070Y-14155930D01*
X8653641Y-14141644D01*
X8696498Y-14141644D01*
X8725070Y-14155930D01*
X8739356Y-14184501D01*
X8739356Y-14341644D01*
X8882213Y-14341644D02*
X8882213Y-14141644D01*
X8882213Y-14170216D02*
X8896498Y-14155930D01*
X8925070Y-14141644D01*
X8967927Y-14141644D01*
X8996498Y-14155930D01*
X9010784Y-14184501D01*
X9010784Y-14341644D01*
X9010784Y-14184501D02*
X9025070Y-14155930D01*
X9053641Y-14141644D01*
X9096498Y-14141644D01*
X9125070Y-14155930D01*
X9139356Y-14184501D01*
X9139356Y-14341644D01*
X9725070Y-14027359D02*
X9467927Y-14413073D01*
X10110784Y-14041644D02*
X10139356Y-14041644D01*
X10167927Y-14055930D01*
X10182213Y-14070216D01*
X10196498Y-14098787D01*
X10210784Y-14155930D01*
X10210784Y-14227359D01*
X10196498Y-14284501D01*
X10182213Y-14313073D01*
X10167927Y-14327359D01*
X10139356Y-14341644D01*
X10110784Y-14341644D01*
X10082213Y-14327359D01*
X10067927Y-14313073D01*
X10053641Y-14284501D01*
X10039356Y-14227359D01*
X10039356Y-14155930D01*
X10053641Y-14098787D01*
X10067927Y-14070216D01*
X10082213Y-14055930D01*
X10110784Y-14041644D01*
X10339356Y-14313073D02*
X10353641Y-14327359D01*
X10339356Y-14341644D01*
X10325070Y-14327359D01*
X10339356Y-14313073D01*
X10339356Y-14341644D01*
X10539356Y-14041644D02*
X10567927Y-14041644D01*
X10596498Y-14055930D01*
X10610784Y-14070216D01*
X10625070Y-14098787D01*
X10639356Y-14155930D01*
X10639356Y-14227359D01*
X10625070Y-14284501D01*
X10610784Y-14313073D01*
X10596498Y-14327359D01*
X10567927Y-14341644D01*
X10539356Y-14341644D01*
X10510784Y-14327359D01*
X10496498Y-14313073D01*
X10482213Y-14284501D01*
X10467927Y-14227359D01*
X10467927Y-14155930D01*
X10482213Y-14098787D01*
X10496498Y-14070216D01*
X10510784Y-14055930D01*
X10539356Y-14041644D01*
X10739356Y-14041644D02*
X10939356Y-14041644D01*
X10810784Y-14341644D01*
X11096498Y-14170216D02*
X11067927Y-14155930D01*
X11053641Y-14141644D01*
X11039356Y-14113073D01*
X11039356Y-14098787D01*
X11053641Y-14070216D01*
X11067927Y-14055930D01*
X11096498Y-14041644D01*
X11153641Y-14041644D01*
X11182213Y-14055930D01*
X11196498Y-14070216D01*
X11210784Y-14098787D01*
X11210784Y-14113073D01*
X11196498Y-14141644D01*
X11182213Y-14155930D01*
X11153641Y-14170216D01*
X11096498Y-14170216D01*
X11067927Y-14184501D01*
X11053641Y-14198787D01*
X11039356Y-14227359D01*
X11039356Y-14284501D01*
X11053641Y-14313073D01*
X11067927Y-14327359D01*
X11096498Y-14341644D01*
X11153641Y-14341644D01*
X11182213Y-14327359D01*
X11196498Y-14313073D01*
X11210784Y-14284501D01*
X11210784Y-14227359D01*
X11196498Y-14198787D01*
X11182213Y-14184501D01*
X11153641Y-14170216D01*
X11310784Y-14041644D02*
X11510784Y-14041644D01*
X11382213Y-14341644D01*
X11610784Y-14041644D02*
X11610784Y-14098787D01*
X11725070Y-14041644D02*
X11725070Y-14098787D01*
X12167927Y-14455930D02*
X12153641Y-14441644D01*
X12125070Y-14398787D01*
X12110784Y-14370216D01*
X12096498Y-14327359D01*
X12082213Y-14255930D01*
X12082213Y-14198787D01*
X12096498Y-14127359D01*
X12110784Y-14084501D01*
X12125070Y-14055930D01*
X12153641Y-14013073D01*
X12167927Y-13998787D01*
X12439356Y-14341644D02*
X12267927Y-14341644D01*
X12353641Y-14341644D02*
X12353641Y-14041644D01*
X12325070Y-14084501D01*
X12296498Y-14113073D01*
X12267927Y-14127359D01*
X12796498Y-14341644D02*
X12796498Y-14041644D01*
X12925070Y-14341644D02*
X12925070Y-14184501D01*
X12910784Y-14155930D01*
X12882213Y-14141644D01*
X12839356Y-14141644D01*
X12810784Y-14155930D01*
X12796498Y-14170216D01*
X13110784Y-14341644D02*
X13082213Y-14327359D01*
X13067927Y-14313073D01*
X13053641Y-14284501D01*
X13053641Y-14198787D01*
X13067927Y-14170216D01*
X13082213Y-14155930D01*
X13110784Y-14141644D01*
X13153641Y-14141644D01*
X13182213Y-14155930D01*
X13196498Y-14170216D01*
X13210784Y-14198787D01*
X13210784Y-14284501D01*
X13196498Y-14313073D01*
X13182213Y-14327359D01*
X13153641Y-14341644D01*
X13110784Y-14341644D01*
X13382213Y-14341644D02*
X13353641Y-14327359D01*
X13339356Y-14298787D01*
X13339356Y-14041644D01*
X13610784Y-14327359D02*
X13582213Y-14341644D01*
X13525070Y-14341644D01*
X13496498Y-14327359D01*
X13482213Y-14298787D01*
X13482213Y-14184501D01*
X13496498Y-14155930D01*
X13525070Y-14141644D01*
X13582213Y-14141644D01*
X13610784Y-14155930D01*
X13625070Y-14184501D01*
X13625070Y-14213073D01*
X13482213Y-14241644D01*
X13725070Y-14455930D02*
X13739356Y-14441644D01*
X13767927Y-14398787D01*
X13782213Y-14370216D01*
X13796498Y-14327359D01*
X13810784Y-14255930D01*
X13810784Y-14198787D01*
X13796498Y-14127359D01*
X13782213Y-14084501D01*
X13767927Y-14055930D01*
X13739356Y-14013073D01*
X13725070Y-13998787D01*
X6681470Y-14487630D02*
X6910070Y-14716230D01*
X6910070Y-14487630D02*
X6681470Y-14716230D01*
X6876593Y-14682753D02*
X6876593Y-14521107D01*
X6714947Y-14521107D01*
X6714947Y-14682753D01*
X6876593Y-14682753D01*
X7182213Y-14466216D02*
X7196498Y-14451930D01*
X7225070Y-14437644D01*
X7296498Y-14437644D01*
X7325070Y-14451930D01*
X7339356Y-14466216D01*
X7353641Y-14494787D01*
X7353641Y-14523359D01*
X7339356Y-14566216D01*
X7167927Y-14737644D01*
X7353641Y-14737644D01*
X7482213Y-14709073D02*
X7496498Y-14723359D01*
X7482213Y-14737644D01*
X7467927Y-14723359D01*
X7482213Y-14709073D01*
X7482213Y-14737644D01*
X7610784Y-14466216D02*
X7625070Y-14451930D01*
X7653641Y-14437644D01*
X7725070Y-14437644D01*
X7753641Y-14451930D01*
X7767927Y-14466216D01*
X7782213Y-14494787D01*
X7782213Y-14523359D01*
X7767927Y-14566216D01*
X7596498Y-14737644D01*
X7782213Y-14737644D01*
X7953641Y-14566216D02*
X7925070Y-14551930D01*
X7910784Y-14537644D01*
X7896498Y-14509073D01*
X7896498Y-14494787D01*
X7910784Y-14466216D01*
X7925070Y-14451930D01*
X7953641Y-14437644D01*
X8010784Y-14437644D01*
X8039356Y-14451930D01*
X8053641Y-14466216D01*
X8067927Y-14494787D01*
X8067927Y-14509073D01*
X8053641Y-14537644D01*
X8039356Y-14551930D01*
X8010784Y-14566216D01*
X7953641Y-14566216D01*
X7925070Y-14580501D01*
X7910784Y-14594787D01*
X7896498Y-14623359D01*
X7896498Y-14680501D01*
X7910784Y-14709073D01*
X7925070Y-14723359D01*
X7953641Y-14737644D01*
X8010784Y-14737644D01*
X8039356Y-14723359D01*
X8053641Y-14709073D01*
X8067927Y-14680501D01*
X8067927Y-14623359D01*
X8053641Y-14594787D01*
X8039356Y-14580501D01*
X8010784Y-14566216D01*
X8325070Y-14437644D02*
X8267927Y-14437644D01*
X8239356Y-14451930D01*
X8225070Y-14466216D01*
X8196498Y-14509073D01*
X8182213Y-14566216D01*
X8182213Y-14680501D01*
X8196498Y-14709073D01*
X8210784Y-14723359D01*
X8239356Y-14737644D01*
X8296498Y-14737644D01*
X8325070Y-14723359D01*
X8339356Y-14709073D01*
X8353641Y-14680501D01*
X8353641Y-14609073D01*
X8339356Y-14580501D01*
X8325070Y-14566216D01*
X8296498Y-14551930D01*
X8239356Y-14551930D01*
X8210784Y-14566216D01*
X8196498Y-14580501D01*
X8182213Y-14609073D01*
X8482213Y-14737644D02*
X8482213Y-14537644D01*
X8482213Y-14566216D02*
X8496498Y-14551930D01*
X8525070Y-14537644D01*
X8567927Y-14537644D01*
X8596498Y-14551930D01*
X8610784Y-14580501D01*
X8610784Y-14737644D01*
X8610784Y-14580501D02*
X8625070Y-14551930D01*
X8653641Y-14537644D01*
X8696498Y-14537644D01*
X8725070Y-14551930D01*
X8739356Y-14580501D01*
X8739356Y-14737644D01*
X8882213Y-14737644D02*
X8882213Y-14537644D01*
X8882213Y-14566216D02*
X8896498Y-14551930D01*
X8925070Y-14537644D01*
X8967927Y-14537644D01*
X8996498Y-14551930D01*
X9010784Y-14580501D01*
X9010784Y-14737644D01*
X9010784Y-14580501D02*
X9025070Y-14551930D01*
X9053641Y-14537644D01*
X9096498Y-14537644D01*
X9125070Y-14551930D01*
X9139356Y-14580501D01*
X9139356Y-14737644D01*
X9725070Y-14423359D02*
X9467927Y-14809073D01*
X10110784Y-14437644D02*
X10139356Y-14437644D01*
X10167927Y-14451930D01*
X10182213Y-14466216D01*
X10196498Y-14494787D01*
X10210784Y-14551930D01*
X10210784Y-14623359D01*
X10196498Y-14680501D01*
X10182213Y-14709073D01*
X10167927Y-14723359D01*
X10139356Y-14737644D01*
X10110784Y-14737644D01*
X10082213Y-14723359D01*
X10067927Y-14709073D01*
X10053641Y-14680501D01*
X10039356Y-14623359D01*
X10039356Y-14551930D01*
X10053641Y-14494787D01*
X10067927Y-14466216D01*
X10082213Y-14451930D01*
X10110784Y-14437644D01*
X10339356Y-14709073D02*
X10353641Y-14723359D01*
X10339356Y-14737644D01*
X10325070Y-14723359D01*
X10339356Y-14709073D01*
X10339356Y-14737644D01*
X10539356Y-14437644D02*
X10567927Y-14437644D01*
X10596498Y-14451930D01*
X10610784Y-14466216D01*
X10625070Y-14494787D01*
X10639356Y-14551930D01*
X10639356Y-14623359D01*
X10625070Y-14680501D01*
X10610784Y-14709073D01*
X10596498Y-14723359D01*
X10567927Y-14737644D01*
X10539356Y-14737644D01*
X10510784Y-14723359D01*
X10496498Y-14709073D01*
X10482213Y-14680501D01*
X10467927Y-14623359D01*
X10467927Y-14551930D01*
X10482213Y-14494787D01*
X10496498Y-14466216D01*
X10510784Y-14451930D01*
X10539356Y-14437644D01*
X10782213Y-14737644D02*
X10839356Y-14737644D01*
X10867927Y-14723359D01*
X10882213Y-14709073D01*
X10910784Y-14666216D01*
X10925070Y-14609073D01*
X10925070Y-14494787D01*
X10910784Y-14466216D01*
X10896498Y-14451930D01*
X10867927Y-14437644D01*
X10810784Y-14437644D01*
X10782213Y-14451930D01*
X10767927Y-14466216D01*
X10753641Y-14494787D01*
X10753641Y-14566216D01*
X10767927Y-14594787D01*
X10782213Y-14609073D01*
X10810784Y-14623359D01*
X10867927Y-14623359D01*
X10896498Y-14609073D01*
X10910784Y-14594787D01*
X10925070Y-14566216D01*
X11110784Y-14437644D02*
X11139356Y-14437644D01*
X11167927Y-14451930D01*
X11182213Y-14466216D01*
X11196498Y-14494787D01*
X11210784Y-14551930D01*
X11210784Y-14623359D01*
X11196498Y-14680501D01*
X11182213Y-14709073D01*
X11167927Y-14723359D01*
X11139356Y-14737644D01*
X11110784Y-14737644D01*
X11082213Y-14723359D01*
X11067927Y-14709073D01*
X11053641Y-14680501D01*
X11039356Y-14623359D01*
X11039356Y-14551930D01*
X11053641Y-14494787D01*
X11067927Y-14466216D01*
X11082213Y-14451930D01*
X11110784Y-14437644D01*
X11396498Y-14437644D02*
X11425070Y-14437644D01*
X11453641Y-14451930D01*
X11467927Y-14466216D01*
X11482213Y-14494787D01*
X11496498Y-14551930D01*
X11496498Y-14623359D01*
X11482213Y-14680501D01*
X11467927Y-14709073D01*
X11453641Y-14723359D01*
X11425070Y-14737644D01*
X11396498Y-14737644D01*
X11367927Y-14723359D01*
X11353641Y-14709073D01*
X11339356Y-14680501D01*
X11325070Y-14623359D01*
X11325070Y-14551930D01*
X11339356Y-14494787D01*
X11353641Y-14466216D01*
X11367927Y-14451930D01*
X11396498Y-14437644D01*
X11610784Y-14437644D02*
X11610784Y-14494787D01*
X11725070Y-14437644D02*
X11725070Y-14494787D01*
X12167927Y-14851930D02*
X12153641Y-14837644D01*
X12125070Y-14794787D01*
X12110784Y-14766216D01*
X12096498Y-14723359D01*
X12082213Y-14651930D01*
X12082213Y-14594787D01*
X12096498Y-14523359D01*
X12110784Y-14480501D01*
X12125070Y-14451930D01*
X12153641Y-14409073D01*
X12167927Y-14394787D01*
X12410784Y-14437644D02*
X12353641Y-14437644D01*
X12325070Y-14451930D01*
X12310784Y-14466216D01*
X12282213Y-14509073D01*
X12267927Y-14566216D01*
X12267927Y-14680501D01*
X12282213Y-14709073D01*
X12296498Y-14723359D01*
X12325070Y-14737644D01*
X12382213Y-14737644D01*
X12410784Y-14723359D01*
X12425070Y-14709073D01*
X12439356Y-14680501D01*
X12439356Y-14609073D01*
X12425070Y-14580501D01*
X12410784Y-14566216D01*
X12382213Y-14551930D01*
X12325070Y-14551930D01*
X12296498Y-14566216D01*
X12282213Y-14580501D01*
X12267927Y-14609073D01*
X12796498Y-14737644D02*
X12796498Y-14437644D01*
X12925070Y-14737644D02*
X12925070Y-14580501D01*
X12910784Y-14551930D01*
X12882213Y-14537644D01*
X12839356Y-14537644D01*
X12810784Y-14551930D01*
X12796498Y-14566216D01*
X13110784Y-14737644D02*
X13082213Y-14723359D01*
X13067927Y-14709073D01*
X13053641Y-14680501D01*
X13053641Y-14594787D01*
X13067927Y-14566216D01*
X13082213Y-14551930D01*
X13110784Y-14537644D01*
X13153641Y-14537644D01*
X13182213Y-14551930D01*
X13196498Y-14566216D01*
X13210784Y-14594787D01*
X13210784Y-14680501D01*
X13196498Y-14709073D01*
X13182213Y-14723359D01*
X13153641Y-14737644D01*
X13110784Y-14737644D01*
X13382213Y-14737644D02*
X13353641Y-14723359D01*
X13339356Y-14694787D01*
X13339356Y-14437644D01*
X13610784Y-14723359D02*
X13582213Y-14737644D01*
X13525070Y-14737644D01*
X13496498Y-14723359D01*
X13482213Y-14694787D01*
X13482213Y-14580501D01*
X13496498Y-14551930D01*
X13525070Y-14537644D01*
X13582213Y-14537644D01*
X13610784Y-14551930D01*
X13625070Y-14580501D01*
X13625070Y-14609073D01*
X13482213Y-14637644D01*
X13739356Y-14723359D02*
X13767927Y-14737644D01*
X13825070Y-14737644D01*
X13853641Y-14723359D01*
X13867927Y-14694787D01*
X13867927Y-14680501D01*
X13853641Y-14651930D01*
X13825070Y-14637644D01*
X13782213Y-14637644D01*
X13753641Y-14623359D01*
X13739356Y-14594787D01*
X13739356Y-14580501D01*
X13753641Y-14551930D01*
X13782213Y-14537644D01*
X13825070Y-14537644D01*
X13853641Y-14551930D01*
X13967927Y-14851930D02*
X13982213Y-14837644D01*
X14010784Y-14794787D01*
X14025070Y-14766216D01*
X14039356Y-14723359D01*
X14053641Y-14651930D01*
X14053641Y-14594787D01*
X14039356Y-14523359D01*
X14025070Y-14480501D01*
X14010784Y-14451930D01*
X13982213Y-14409073D01*
X13967927Y-14394787D01*
X6615430Y-14850610D02*
X6910070Y-15145250D01*
X6910070Y-14850610D02*
X6615430Y-15145250D01*
X6762750Y-15145250D02*
X6910070Y-14997930D01*
X6762750Y-14850610D01*
X6615430Y-14997930D01*
X6762750Y-15145250D01*
X7182213Y-14862216D02*
X7196498Y-14847930D01*
X7225070Y-14833644D01*
X7296498Y-14833644D01*
X7325070Y-14847930D01*
X7339356Y-14862216D01*
X7353641Y-14890787D01*
X7353641Y-14919359D01*
X7339356Y-14962216D01*
X7167927Y-15133644D01*
X7353641Y-15133644D01*
X7482213Y-15105073D02*
X7496498Y-15119359D01*
X7482213Y-15133644D01*
X7467927Y-15119359D01*
X7482213Y-15105073D01*
X7482213Y-15133644D01*
X7639356Y-15133644D02*
X7696498Y-15133644D01*
X7725070Y-15119359D01*
X7739356Y-15105073D01*
X7767927Y-15062216D01*
X7782213Y-15005073D01*
X7782213Y-14890787D01*
X7767927Y-14862216D01*
X7753641Y-14847930D01*
X7725070Y-14833644D01*
X7667927Y-14833644D01*
X7639356Y-14847930D01*
X7625070Y-14862216D01*
X7610784Y-14890787D01*
X7610784Y-14962216D01*
X7625070Y-14990787D01*
X7639356Y-15005073D01*
X7667927Y-15019359D01*
X7725070Y-15019359D01*
X7753641Y-15005073D01*
X7767927Y-14990787D01*
X7782213Y-14962216D01*
X8039356Y-14933644D02*
X8039356Y-15133644D01*
X7967927Y-14819359D02*
X7896498Y-15033644D01*
X8082213Y-15033644D01*
X8325070Y-14833644D02*
X8267927Y-14833644D01*
X8239356Y-14847930D01*
X8225070Y-14862216D01*
X8196498Y-14905073D01*
X8182213Y-14962216D01*
X8182213Y-15076501D01*
X8196498Y-15105073D01*
X8210784Y-15119359D01*
X8239356Y-15133644D01*
X8296498Y-15133644D01*
X8325070Y-15119359D01*
X8339356Y-15105073D01*
X8353641Y-15076501D01*
X8353641Y-15005073D01*
X8339356Y-14976501D01*
X8325070Y-14962216D01*
X8296498Y-14947930D01*
X8239356Y-14947930D01*
X8210784Y-14962216D01*
X8196498Y-14976501D01*
X8182213Y-15005073D01*
X8482213Y-15133644D02*
X8482213Y-14933644D01*
X8482213Y-14962216D02*
X8496498Y-14947930D01*
X8525070Y-14933644D01*
X8567927Y-14933644D01*
X8596498Y-14947930D01*
X8610784Y-14976501D01*
X8610784Y-15133644D01*
X8610784Y-14976501D02*
X8625070Y-14947930D01*
X8653641Y-14933644D01*
X8696498Y-14933644D01*
X8725070Y-14947930D01*
X8739356Y-14976501D01*
X8739356Y-15133644D01*
X8882213Y-15133644D02*
X8882213Y-14933644D01*
X8882213Y-14962216D02*
X8896498Y-14947930D01*
X8925070Y-14933644D01*
X8967927Y-14933644D01*
X8996498Y-14947930D01*
X9010784Y-14976501D01*
X9010784Y-15133644D01*
X9010784Y-14976501D02*
X9025070Y-14947930D01*
X9053641Y-14933644D01*
X9096498Y-14933644D01*
X9125070Y-14947930D01*
X9139356Y-14976501D01*
X9139356Y-15133644D01*
X9725070Y-14819359D02*
X9467927Y-15205073D01*
X10110784Y-14833644D02*
X10139356Y-14833644D01*
X10167927Y-14847930D01*
X10182213Y-14862216D01*
X10196498Y-14890787D01*
X10210784Y-14947930D01*
X10210784Y-15019359D01*
X10196498Y-15076501D01*
X10182213Y-15105073D01*
X10167927Y-15119359D01*
X10139356Y-15133644D01*
X10110784Y-15133644D01*
X10082213Y-15119359D01*
X10067927Y-15105073D01*
X10053641Y-15076501D01*
X10039356Y-15019359D01*
X10039356Y-14947930D01*
X10053641Y-14890787D01*
X10067927Y-14862216D01*
X10082213Y-14847930D01*
X10110784Y-14833644D01*
X10339356Y-15105073D02*
X10353641Y-15119359D01*
X10339356Y-15133644D01*
X10325070Y-15119359D01*
X10339356Y-15105073D01*
X10339356Y-15133644D01*
X10639356Y-15133644D02*
X10467927Y-15133644D01*
X10553641Y-15133644D02*
X10553641Y-14833644D01*
X10525070Y-14876501D01*
X10496498Y-14905073D01*
X10467927Y-14919359D01*
X10925070Y-15133644D02*
X10753641Y-15133644D01*
X10839356Y-15133644D02*
X10839356Y-14833644D01*
X10810784Y-14876501D01*
X10782213Y-14905073D01*
X10753641Y-14919359D01*
X11182213Y-14833644D02*
X11125070Y-14833644D01*
X11096498Y-14847930D01*
X11082213Y-14862216D01*
X11053641Y-14905073D01*
X11039356Y-14962216D01*
X11039356Y-15076501D01*
X11053641Y-15105073D01*
X11067927Y-15119359D01*
X11096498Y-15133644D01*
X11153641Y-15133644D01*
X11182213Y-15119359D01*
X11196498Y-15105073D01*
X11210784Y-15076501D01*
X11210784Y-15005073D01*
X11196498Y-14976501D01*
X11182213Y-14962216D01*
X11153641Y-14947930D01*
X11096498Y-14947930D01*
X11067927Y-14962216D01*
X11053641Y-14976501D01*
X11039356Y-15005073D01*
X11396498Y-14833644D02*
X11425070Y-14833644D01*
X11453641Y-14847930D01*
X11467927Y-14862216D01*
X11482213Y-14890787D01*
X11496498Y-14947930D01*
X11496498Y-15019359D01*
X11482213Y-15076501D01*
X11467927Y-15105073D01*
X11453641Y-15119359D01*
X11425070Y-15133644D01*
X11396498Y-15133644D01*
X11367927Y-15119359D01*
X11353641Y-15105073D01*
X11339356Y-15076501D01*
X11325070Y-15019359D01*
X11325070Y-14947930D01*
X11339356Y-14890787D01*
X11353641Y-14862216D01*
X11367927Y-14847930D01*
X11396498Y-14833644D01*
X11610784Y-14833644D02*
X11610784Y-14890787D01*
X11725070Y-14833644D02*
X11725070Y-14890787D01*
X12167927Y-15247930D02*
X12153641Y-15233644D01*
X12125070Y-15190787D01*
X12110784Y-15162216D01*
X12096498Y-15119359D01*
X12082213Y-15047930D01*
X12082213Y-14990787D01*
X12096498Y-14919359D01*
X12110784Y-14876501D01*
X12125070Y-14847930D01*
X12153641Y-14805073D01*
X12167927Y-14790787D01*
X12410784Y-14833644D02*
X12353641Y-14833644D01*
X12325070Y-14847930D01*
X12310784Y-14862216D01*
X12282213Y-14905073D01*
X12267927Y-14962216D01*
X12267927Y-15076501D01*
X12282213Y-15105073D01*
X12296498Y-15119359D01*
X12325070Y-15133644D01*
X12382213Y-15133644D01*
X12410784Y-15119359D01*
X12425070Y-15105073D01*
X12439356Y-15076501D01*
X12439356Y-15005073D01*
X12425070Y-14976501D01*
X12410784Y-14962216D01*
X12382213Y-14947930D01*
X12325070Y-14947930D01*
X12296498Y-14962216D01*
X12282213Y-14976501D01*
X12267927Y-15005073D01*
X12796498Y-15133644D02*
X12796498Y-14833644D01*
X12925070Y-15133644D02*
X12925070Y-14976501D01*
X12910784Y-14947930D01*
X12882213Y-14933644D01*
X12839356Y-14933644D01*
X12810784Y-14947930D01*
X12796498Y-14962216D01*
X13110784Y-15133644D02*
X13082213Y-15119359D01*
X13067927Y-15105073D01*
X13053641Y-15076501D01*
X13053641Y-14990787D01*
X13067927Y-14962216D01*
X13082213Y-14947930D01*
X13110784Y-14933644D01*
X13153641Y-14933644D01*
X13182213Y-14947930D01*
X13196498Y-14962216D01*
X13210784Y-14990787D01*
X13210784Y-15076501D01*
X13196498Y-15105073D01*
X13182213Y-15119359D01*
X13153641Y-15133644D01*
X13110784Y-15133644D01*
X13382213Y-15133644D02*
X13353641Y-15119359D01*
X13339356Y-15090787D01*
X13339356Y-14833644D01*
X13610784Y-15119359D02*
X13582213Y-15133644D01*
X13525070Y-15133644D01*
X13496498Y-15119359D01*
X13482213Y-15090787D01*
X13482213Y-14976501D01*
X13496498Y-14947930D01*
X13525070Y-14933644D01*
X13582213Y-14933644D01*
X13610784Y-14947930D01*
X13625070Y-14976501D01*
X13625070Y-15005073D01*
X13482213Y-15033644D01*
X13739356Y-15119359D02*
X13767927Y-15133644D01*
X13825070Y-15133644D01*
X13853641Y-15119359D01*
X13867927Y-15090787D01*
X13867927Y-15076501D01*
X13853641Y-15047930D01*
X13825070Y-15033644D01*
X13782213Y-15033644D01*
X13753641Y-15019359D01*
X13739356Y-14990787D01*
X13739356Y-14976501D01*
X13753641Y-14947930D01*
X13782213Y-14933644D01*
X13825070Y-14933644D01*
X13853641Y-14947930D01*
X13967927Y-15247930D02*
X13982213Y-15233644D01*
X14010784Y-15190787D01*
X14025070Y-15162216D01*
X14039356Y-15119359D01*
X14053641Y-15047930D01*
X14053641Y-14990787D01*
X14039356Y-14919359D01*
X14025070Y-14876501D01*
X14010784Y-14847930D01*
X13982213Y-14805073D01*
X13967927Y-14790787D01*
X6744970Y-15257470D02*
X6744970Y-15587670D01*
X6579870Y-15422570D02*
X6910070Y-15422570D01*
X6910070Y-15422570D02*
G75*
G03*
X6910070Y-15422570I-165100J0D01*
G01*
X7167927Y-15258284D02*
X7353641Y-15258284D01*
X7253641Y-15372570D01*
X7296498Y-15372570D01*
X7325070Y-15386856D01*
X7339356Y-15401141D01*
X7353641Y-15429713D01*
X7353641Y-15501141D01*
X7339356Y-15529713D01*
X7325070Y-15543999D01*
X7296498Y-15558284D01*
X7210784Y-15558284D01*
X7182213Y-15543999D01*
X7167927Y-15529713D01*
X7482213Y-15529713D02*
X7496498Y-15543999D01*
X7482213Y-15558284D01*
X7467927Y-15543999D01*
X7482213Y-15529713D01*
X7482213Y-15558284D01*
X7596498Y-15258284D02*
X7782213Y-15258284D01*
X7682213Y-15372570D01*
X7725070Y-15372570D01*
X7753641Y-15386856D01*
X7767927Y-15401141D01*
X7782213Y-15429713D01*
X7782213Y-15501141D01*
X7767927Y-15529713D01*
X7753641Y-15543999D01*
X7725070Y-15558284D01*
X7639356Y-15558284D01*
X7610784Y-15543999D01*
X7596498Y-15529713D01*
X7967927Y-15258284D02*
X7996498Y-15258284D01*
X8025070Y-15272570D01*
X8039356Y-15286856D01*
X8053641Y-15315427D01*
X8067927Y-15372570D01*
X8067927Y-15443999D01*
X8053641Y-15501141D01*
X8039356Y-15529713D01*
X8025070Y-15543999D01*
X7996498Y-15558284D01*
X7967927Y-15558284D01*
X7939356Y-15543999D01*
X7925070Y-15529713D01*
X7910784Y-15501141D01*
X7896498Y-15443999D01*
X7896498Y-15372570D01*
X7910784Y-15315427D01*
X7925070Y-15286856D01*
X7939356Y-15272570D01*
X7967927Y-15258284D01*
X8182213Y-15286856D02*
X8196498Y-15272570D01*
X8225070Y-15258284D01*
X8296498Y-15258284D01*
X8325070Y-15272570D01*
X8339356Y-15286856D01*
X8353641Y-15315427D01*
X8353641Y-15343999D01*
X8339356Y-15386856D01*
X8167927Y-15558284D01*
X8353641Y-15558284D01*
X8482213Y-15558284D02*
X8482213Y-15358284D01*
X8482213Y-15386856D02*
X8496498Y-15372570D01*
X8525070Y-15358284D01*
X8567927Y-15358284D01*
X8596498Y-15372570D01*
X8610784Y-15401141D01*
X8610784Y-15558284D01*
X8610784Y-15401141D02*
X8625070Y-15372570D01*
X8653641Y-15358284D01*
X8696498Y-15358284D01*
X8725070Y-15372570D01*
X8739356Y-15401141D01*
X8739356Y-15558284D01*
X8882213Y-15558284D02*
X8882213Y-15358284D01*
X8882213Y-15386856D02*
X8896498Y-15372570D01*
X8925070Y-15358284D01*
X8967927Y-15358284D01*
X8996498Y-15372570D01*
X9010784Y-15401141D01*
X9010784Y-15558284D01*
X9010784Y-15401141D02*
X9025070Y-15372570D01*
X9053641Y-15358284D01*
X9096498Y-15358284D01*
X9125070Y-15372570D01*
X9139356Y-15401141D01*
X9139356Y-15558284D01*
X9725070Y-15243999D02*
X9467927Y-15629713D01*
X10110784Y-15258284D02*
X10139356Y-15258284D01*
X10167927Y-15272570D01*
X10182213Y-15286856D01*
X10196498Y-15315427D01*
X10210784Y-15372570D01*
X10210784Y-15443999D01*
X10196498Y-15501141D01*
X10182213Y-15529713D01*
X10167927Y-15543999D01*
X10139356Y-15558284D01*
X10110784Y-15558284D01*
X10082213Y-15543999D01*
X10067927Y-15529713D01*
X10053641Y-15501141D01*
X10039356Y-15443999D01*
X10039356Y-15372570D01*
X10053641Y-15315427D01*
X10067927Y-15286856D01*
X10082213Y-15272570D01*
X10110784Y-15258284D01*
X10339356Y-15529713D02*
X10353641Y-15543999D01*
X10339356Y-15558284D01*
X10325070Y-15543999D01*
X10339356Y-15529713D01*
X10339356Y-15558284D01*
X10639356Y-15558284D02*
X10467927Y-15558284D01*
X10553641Y-15558284D02*
X10553641Y-15258284D01*
X10525070Y-15301141D01*
X10496498Y-15329713D01*
X10467927Y-15343999D01*
X10739356Y-15258284D02*
X10925070Y-15258284D01*
X10825070Y-15372570D01*
X10867927Y-15372570D01*
X10896498Y-15386856D01*
X10910784Y-15401141D01*
X10925070Y-15429713D01*
X10925070Y-15501141D01*
X10910784Y-15529713D01*
X10896498Y-15543999D01*
X10867927Y-15558284D01*
X10782213Y-15558284D01*
X10753641Y-15543999D01*
X10739356Y-15529713D01*
X11110784Y-15258284D02*
X11139356Y-15258284D01*
X11167927Y-15272570D01*
X11182213Y-15286856D01*
X11196498Y-15315427D01*
X11210784Y-15372570D01*
X11210784Y-15443999D01*
X11196498Y-15501141D01*
X11182213Y-15529713D01*
X11167927Y-15543999D01*
X11139356Y-15558284D01*
X11110784Y-15558284D01*
X11082213Y-15543999D01*
X11067927Y-15529713D01*
X11053641Y-15501141D01*
X11039356Y-15443999D01*
X11039356Y-15372570D01*
X11053641Y-15315427D01*
X11067927Y-15286856D01*
X11082213Y-15272570D01*
X11110784Y-15258284D01*
X11396498Y-15258284D02*
X11425070Y-15258284D01*
X11453641Y-15272570D01*
X11467927Y-15286856D01*
X11482213Y-15315427D01*
X11496498Y-15372570D01*
X11496498Y-15443999D01*
X11482213Y-15501141D01*
X11467927Y-15529713D01*
X11453641Y-15543999D01*
X11425070Y-15558284D01*
X11396498Y-15558284D01*
X11367927Y-15543999D01*
X11353641Y-15529713D01*
X11339356Y-15501141D01*
X11325070Y-15443999D01*
X11325070Y-15372570D01*
X11339356Y-15315427D01*
X11353641Y-15286856D01*
X11367927Y-15272570D01*
X11396498Y-15258284D01*
X11610784Y-15258284D02*
X11610784Y-15315427D01*
X11725070Y-15258284D02*
X11725070Y-15315427D01*
X12167927Y-15672570D02*
X12153641Y-15658284D01*
X12125070Y-15615427D01*
X12110784Y-15586856D01*
X12096498Y-15543999D01*
X12082213Y-15472570D01*
X12082213Y-15415427D01*
X12096498Y-15343999D01*
X12110784Y-15301141D01*
X12125070Y-15272570D01*
X12153641Y-15229713D01*
X12167927Y-15215427D01*
X12410784Y-15358284D02*
X12410784Y-15558284D01*
X12339356Y-15243999D02*
X12267927Y-15458284D01*
X12453641Y-15458284D01*
X12796498Y-15558284D02*
X12796498Y-15258284D01*
X12925070Y-15558284D02*
X12925070Y-15401141D01*
X12910784Y-15372570D01*
X12882213Y-15358284D01*
X12839356Y-15358284D01*
X12810784Y-15372570D01*
X12796498Y-15386856D01*
X13110784Y-15558284D02*
X13082213Y-15543999D01*
X13067927Y-15529713D01*
X13053641Y-15501141D01*
X13053641Y-15415427D01*
X13067927Y-15386856D01*
X13082213Y-15372570D01*
X13110784Y-15358284D01*
X13153641Y-15358284D01*
X13182213Y-15372570D01*
X13196498Y-15386856D01*
X13210784Y-15415427D01*
X13210784Y-15501141D01*
X13196498Y-15529713D01*
X13182213Y-15543999D01*
X13153641Y-15558284D01*
X13110784Y-15558284D01*
X13382213Y-15558284D02*
X13353641Y-15543999D01*
X13339356Y-15515427D01*
X13339356Y-15258284D01*
X13610784Y-15543999D02*
X13582213Y-15558284D01*
X13525070Y-15558284D01*
X13496498Y-15543999D01*
X13482213Y-15515427D01*
X13482213Y-15401141D01*
X13496498Y-15372570D01*
X13525070Y-15358284D01*
X13582213Y-15358284D01*
X13610784Y-15372570D01*
X13625070Y-15401141D01*
X13625070Y-15429713D01*
X13482213Y-15458284D01*
X13739356Y-15543999D02*
X13767927Y-15558284D01*
X13825070Y-15558284D01*
X13853641Y-15543999D01*
X13867927Y-15515427D01*
X13867927Y-15501141D01*
X13853641Y-15472570D01*
X13825070Y-15458284D01*
X13782213Y-15458284D01*
X13753641Y-15443999D01*
X13739356Y-15415427D01*
X13739356Y-15401141D01*
X13753641Y-15372570D01*
X13782213Y-15358284D01*
X13825070Y-15358284D01*
X13853641Y-15372570D01*
X13967927Y-15672570D02*
X13982213Y-15658284D01*
X14010784Y-15615427D01*
X14025070Y-15586856D01*
X14039356Y-15543999D01*
X14053641Y-15472570D01*
X14053641Y-15415427D01*
X14039356Y-15343999D01*
X14025070Y-15301141D01*
X14010784Y-15272570D01*
X13982213Y-15229713D01*
X13967927Y-15215427D01*
M02*
