M48
; DRILL file {KiCad 5.1.12} date Thu Nov  3 09:07:05 2022
; FORMAT={-:-/ absolute / inch / decimal}
; #@! TF.CreationDate,2022-11-03T09:07:05-04:00
; #@! TF.GenerationSoftware,Kicad,Pcbnew,5.1.12
FMAT,2
INCH
T1C0.0160
T2C0.0350
T3C0.0400
T4C0.0551
T5C0.0610
T6C0.0669
T7C0.0787
T8C0.0900
T9C0.1160
T10C0.1300
%
G90
G05
T1
X3.0586Y-2.0363
X3.18Y-4.2
X3.2534Y-3.9492
X3.2652Y-4.0234
X3.2694Y-3.8653
X3.2701Y-3.9764
X3.28Y-4.13
X3.3091Y-4.0124
X3.4098Y-4.0347
X3.5301Y-3.8729
X3.6232Y-3.785
X3.7569Y-3.9463
X4.0495Y-2.9492
X4.1075Y-3.7111
X4.1177Y-2.8224
X4.1433Y-4.1586
X4.1814Y-4.159
X4.2402Y-2.9606
X4.3004Y-3.9508
X4.3233Y-4.1584
X4.3511Y-4.0478
X4.4566Y-4.1365
X4.4589Y-4.1684
X4.5919Y-4.0632
X4.7454Y-2.9516
X4.8945Y-2.9121
X4.9483Y-2.9426
X4.9501Y-3.064
X5.0603Y-3.073
X5.1423Y-3.0566
X5.2349Y-3.1161
X5.4368Y-4.0839
X5.479Y-3.5034
X5.85Y-3.1575
X5.914Y-3.2973
X5.9616Y-3.9465
X6.0241Y-4.0766
X6.0417Y-3.147
X6.0774Y-3.1
X6.0974Y-3.4496
X6.1484Y-4.1217
X6.1921Y-4.1668
X6.4003Y-2.774
X6.7254Y-3.0217
X7.0483Y-2.6293
X7.2307Y-2.6445
X7.334Y-2.7602
X7.3774Y-2.6671
X7.4253Y-4.2545
X7.467Y-4.2538
X7.4716Y-3.932
X7.5568Y-3.0878
X7.5895Y-4.2536
X7.6163Y-2.9449
X7.648Y-4.1619
X7.668Y-2.8693
X7.7172Y-3.1024
X7.76Y-2.1
X7.7841Y-2.9834
X7.794Y-3.0645
X7.8226Y-3.137
X7.9291Y-2.9888
X7.9828Y-3.041
X8.0335Y-2.9193
X8.1Y-2.1
X8.1007Y-2.7531
X8.194Y-2.7243
X8.3604Y-3.3042
X8.4827Y-2.7353
X8.6339Y-3.7164
T2
X4.1Y-2.6
X4.2Y-2.5
X4.2Y-2.6
X4.3Y-2.6
X4.75Y-3.575
X4.8Y-2.6
X4.9Y-2.5
X4.9Y-2.6
X5.0Y-2.6
X6.4Y-3.575
X7.4Y-2.6
X7.5Y-2.5
X7.5Y-2.6
X7.6Y-2.6
X8.05Y-3.575
T3
X4.35Y-3.575
X4.35Y-3.675
X4.45Y-3.575
X4.45Y-3.675
X4.55Y-3.575
X4.55Y-3.675
X4.65Y-3.575
X4.65Y-3.675
X4.75Y-3.675
X6.0Y-3.575
X6.0Y-3.675
X6.1Y-3.575
X6.1Y-3.675
X6.2Y-3.575
X6.2Y-3.675
X6.3Y-3.575
X6.3Y-3.675
X6.4Y-3.675
X7.65Y-3.575
X7.65Y-3.675
X7.75Y-3.575
X7.75Y-3.675
X7.85Y-3.575
X7.85Y-3.675
X7.95Y-3.575
X7.95Y-3.675
X8.05Y-3.675
T4
X6.15Y-2.4
X6.35Y-2.4
X8.0Y-2.3
X8.2Y-2.3
X8.4Y-2.3
X8.6Y-2.3
T5
X3.075Y-2.125
X3.075Y-2.225
X3.075Y-2.325
X3.075Y-2.425
X3.075Y-2.525
X3.075Y-2.625
X3.075Y-2.725
X3.075Y-2.825
X3.075Y-2.925
X3.075Y-3.025
X3.075Y-3.125
X3.075Y-3.225
X3.075Y-3.325
X3.075Y-3.425
X3.675Y-2.125
X3.675Y-2.225
X3.675Y-2.325
X3.675Y-2.425
X3.675Y-2.525
X3.675Y-2.625
X3.675Y-2.725
X3.675Y-2.825
X3.675Y-2.925
X3.675Y-3.025
X3.675Y-3.125
X3.675Y-3.225
X3.675Y-3.325
X3.675Y-3.425
T6
X6.85Y-2.2378
X6.85Y-2.5134
T7
X5.65Y-2.1181
T8
X4.0Y-2.25
X4.4Y-2.25
X4.7Y-2.25
X5.1Y-2.25
X7.3Y-2.25
X7.7Y-2.25
T9
X3.9975Y-3.615
X5.1025Y-3.615
X5.6475Y-3.615
X6.7525Y-3.615
X7.2975Y-3.615
X8.4025Y-3.615
T10
X2.85Y-2.15
X2.85Y-4.15
X8.85Y-2.15
X8.85Y-4.15
T0
M30
